<svg xmlns="http://www.w3.org/2000/svg" viewBox="0 0 720 550"><style>.st0{fill:#fff}.st1{fill:#555e5b}.st2{fill:#fff581}.st3{fill:#f99f1c}.st4{fill:#35a283}.st5,.st6{fill:none;stroke-width:4;stroke-miterlimit:10}.st5{stroke-dasharray:4;stroke:#35a283}.st6{stroke:#555e5b}.st7{fill:#e4e4e4}.st8,.st9{stroke-miterlimit:10}.st8{stroke:#555e5b;stroke-width:4;stroke-linejoin:round;fill:none}.st9{fill:#e4e4e4}.st10,.st13,.st15,.st9{stroke:#555e5b;stroke-width:4}.st10{stroke-miterlimit:10;fill:#fff}.st13,.st15{fill:none;stroke-linejoin:round}.st15{stroke-miterlimit:10;stroke-dasharray:3}</style><g id="Layer_6"><path class="st0" d="M-77.5 149.6l-51.9 31v40.2l59.9-37.3z"/><path class="st1" d="M-132.3 226v-47l56.7-33.8 9.4 39.7-66.1 41.1zm5.7-43.8v33.5l53.9-33.5-6.6-28.1-47.3 28.1z"/><path class="st0" d="M-141.4 187.6v41.7l14.2 9.3 19.7-4.9v-66.2z"/><path class="st1" d="M-127.7 241.7l-16.6-10.8v-45l39.7-23.4v73.4l-23.1 5.8zm-10.9-13.9l11.9 7.8 16.4-4.1v-59l-28.3 16.7v38.6z"/><path class="st0" d="M-23.8 149.6l52 31v40.2l-60-37.3z"/><path class="st1" d="M31 226l-66-41.1 9.4-39.7L31 179v47zm-59.5-43.8l53.9 33.5v-33.5l-47.2-28.1-6.7 28.1z"/><path class="st0" d="M40.2 187.6v41.7L26 238.6l-19.7-4.9v-66.2z"/><path class="st1" d="M26.5 241.7l-23.1-5.8v-73.4l39.7 23.4v45l-16.6 10.8zM9.1 231.5l16.4 4.1 11.9-7.8v-38.6L9.1 172.5v59z"/><path class="st0" d="M-16.2 205.1c-4-52.9-11.2-86.3-29.7-128.7-.8-1.9-2.3-3.5-4.4-3.5-2.1 0-3.6 1.6-4.4 3.5-18.5 42.4-25.6 75.8-29.7 128.7"/><path class="st1" d="M-19 205.3c-4.2-54.6-11.6-86.9-29.4-127.8-.3-.7-.9-1.8-1.8-1.8s-1.5 1.1-1.8 1.8c-17.8 40.9-25.2 73.2-29.4 127.8l-5.7-.4c4.2-55.4 11.8-88.1 29.9-129.7 1.4-3.3 4-5.2 7-5.2s5.6 1.9 7 5.2c18.1 41.6 25.6 74.3 29.9 129.6l-5.7.5z"/><path class="st0" d="M-50.2 213.2c-18.8 0-34.1-3.6-34.1-8.1s15.2-8.1 34.1-8.1c18.8 0 34.1 3.6 34.1 8.1-.1 4.5-15.3 8.1-34.1 8.1z"/><path class="st1" d="M-50.2 216c-3.8 0-36.9-.3-36.9-11s33.1-11 36.9-11c3.8 0 36.9.3 36.9 11s-33.2 11-36.9 11zm-31-10.9c2 2 13.2 5.3 31 5.3s29-3.2 31-5.3c-2-2-13.2-5.3-31-5.3s-29 3.2-31 5.3z"/><path class="st2" d="M-50.2 208.5c-13.4 0-22.8-1.9-27.2-3.5 4.4-1.6 13.8-3.5 27.2-3.5 13.4 0 22.8 1.9 27.2 3.5-4.5 1.7-13.8 3.5-27.2 3.5z"/><path class="st3" d="M-50.2 287.6c-14.8-30.7-34.2-84.5 0-84.5 37.7 0 11.4 60.9 0 84.5z"/><path class="st0" d="M-50.2 262.8c-10.3-26.6-10.6-41.8-7.3-47 .5-.8 1.7-2.8 7.3-2.8 6 0 7.3 2 7.9 2.9 3.2 5.4 2.7 20.3-7.9 46.9z"/><path class="st4" d="M-38.7 137.7c0 6.6-5.3 11.9-11.9 11.9-6.6 0-11.9-5.3-11.9-11.9 0-6.6 5.3-11.9 11.9-11.9 6.5.1 11.9 5.4 11.9 11.9z"/><path class="st5" d="M-86 222.6l-42.5 323.1M-15 222.6l42.5 323.1"/></g><g id="Layer_9"><path class="st0" d="M161.8 284.5c-15.3 0-27.6 12.4-27.6 27.6V505c0 18.1-14.7 32.8-32.8 32.8S68.6 523.1 68.6 505h-90.7V312.2c0-15.3 12.4-27.6 27.6-27.6h154.6"/><path class="st2" d="M-56.4 537.8H95.9l.2-.4c-15.6-2.5-27.6-16-27.6-32.4H-89.2c0 18.1 14.7 32.8 32.8 32.8"/><path class="st7" d="M106.2 537.8h83.2V312.2c0-15.3-12.4-27.6-27.6-27.6s-27.6 12.4-27.6 27.6V505c0 16.5-12.1 30.1-27.9 32.4l-.1.4z"/><path class="st6" d="M-56.4 537.8h245.8V312.2c0-15.3-12.4-27.6-27.6-27.6s-27.6 12.4-27.6 27.6V505c0 18.1-14.7 32.8-32.8 32.8S68.6 523.1 68.6 505H-89.2c0 18.1 14.7 32.8 32.8 32.8"/><path class="st6" d="M-22.1 505V312.2c0-15.3 12.4-27.6 27.6-27.6h154.6"/><circle class="st4" cx="53.4" cy="358.1" r="35.1"/><path class="st2" d="M78.2 333.3l-24.8 24.8-24.8-24.8 5.9-5.9 8.2-2.7 11.7-1.7 6.6 1.3 5.8 1.4 4.4 2.1 3 2.1z"/><path class="st7" d="M85.8 371.3l-32.4-13.2 24.8-24.8 4.1 5 4.8 10 1.3 6.5-.2 7-1 5.4z"/><circle class="st6" cx="53.4" cy="358.1" r="35.1"/><path class="st6" d="M28.6 333.3l24.8 24.8 32.4 13.2M53.4 358.1l24.8-24.8"/><path class="st8" d="M1.1 431h34.8v36.2H1.1z"/><g><path class="st8" d="M71.5 431.3h27.3M60.6 431.3H66M104.3 431.3h5.4"/></g><g><path class="st8" d="M71.5 449.3h27.3M60.6 449.3H66M104.3 449.3h5.4"/></g><g><path class="st8" d="M71.5 467.2h27.3M60.6 467.2H66M104.3 467.2h5.4"/></g><g><circle class="st9" cx="218.1" cy="375.7" r="52.9"/><path class="st10" d="M199.6 350.3h26.3v26.3h-26.3z"/><path class="st6" d="M194.3 389.1h51M194.3 399h51M194.3 409h25.5"/><path fill="none" stroke="#35a283" stroke-width="4" stroke-miterlimit="10" d="M205 358.7l10.2 9.5 27.6-26.2"/></g></g><g id="Layer_8"><path class="st3" d="M578.1 278.6c0 4.9-4 8.9-8.9 8.9s-8.9-4-8.9-8.9 4-8.9 8.9-8.9 8.9 4 8.9 8.9z"/><path class="st4" d="M460.4 278.6l14.8 30.2 33.3 4.8-24.1 23.5 5.7 33.2-29.7-15.7-29.8 15.7 5.7-33.2-24.1-23.5 33.3-4.8z"/><path class="st9" d="M726.6 537.2H609c-5.5 0-10-4.5-10-10V308.7c0-5.5 4.5-10 10-10h117.6c5.5 0 10 4.5 10 10v218.5c0 5.5-4.5 10-10 10z"/><path d="M707.1 386.9c6.2 0 11.3-5.1 11.3-11.3v-39.5h-90c-6.2 0-11.3 5.1-11.3 11.3v39.5h90z" fill="#6acef5"/><path class="st0" d="M617.1 406.7H644v17.5h-26.9zM654.3 406.7h26.9v17.5h-26.9zM691.5 406.7h26.9v17.5h-26.9zM617.1 433.8H644v17.5h-26.9zM654.3 433.8h26.9v17.5h-26.9zM691.5 433.8h26.9v17.5h-26.9zM617.1 460.8H644v17.5h-26.9zM654.3 460.8h26.9v17.5h-26.9zM691.5 460.8h26.9v17.5h-26.9zM617.1 487.8H644v17.5h-26.9zM654.3 487.8h26.9v17.5h-26.9zM691.5 487.8h26.9v17.5h-26.9z"/><path class="st10" d="M708.7 316v-79.8c0-10.9-8.8-19.7-19.7-19.7h-42.3c-10.9 0-19.7 8.8-19.7 19.7V316"/><path class="st6" d="M646.5 288.4h42.6M646.5 277.6h42.6M646.5 266.7h42.6M646.5 255.8h42.6"/><path class="st3" d="M646.5 236.1h42.6v9.1h-42.6z"/><path class="st6" d="M617.1 317.1h101.3"/><circle class="st7" cx="361.8" cy="147.2" r="68.1"/><g><path class="st6" d="M360.7 165.5v375.1"/><path class="st8" d="M485.6 520.4c-91.9-145.4-124.9-358-124.9-358s-33 212.6-124.9 358L362 469.8l123.6 50.6z"/><path class="st8" d="M360.7 543.9l89.1-88.8-89.1-38.5-89.2 38.5z"/><path class="st8" d="M360.7 469.6l63.5-73.4-63.5-32.8-63.6 32.8z"/><path class="st8" d="M360.7 417.2l48.4-61.8-48.4-26.8-48.5 26.8z"/><path class="st8" d="M360.7 364.1l38.3-40.8-38.3-38.5-38.3 38.5z"/><path class="st8" d="M360.7 329.5l26-43.2-26-38.5-26.1 38.5z"/><path class="st8" d="M360.7 285.7l13.5-40.2-13.5-27.1-13.6 27.1z"/><circle class="st8" cx="360.7" cy="147.4" r="14.7"/><path class="st13" d="M381.4 163.6l.9-1.2"/><path d="M383.8 159.9c2-3.7 3.2-8 3.2-12.5 0-14.5-11.8-26.3-26.3-26.3s-26.3 11.8-26.3 26.3c0 5.1 1.4 9.8 3.9 13.8" fill="none" stroke="#555e5b" stroke-width="4" stroke-linejoin="round" stroke-dasharray="2.9413,2.9413"/><path class="st13" d="M339.1 162.4l.9 1.2"/></g><path class="st15" d="M224.3 7.6c-36.3 35.5-58.9 85.1-58.9 140s22.6 104.4 58.9 140M498 287.6c36.3-35.5 58.9-85.1 58.9-140S534.3 43.2 498 7.6"/><path class="st8" d="M276.4 235.4c-23-22.2-37.3-53.3-37.3-87.8s14.3-65.6 37.3-87.8M445.8 59.8c23 22.2 37.3 53.3 37.3 87.8s-14.3 65.6-37.3 87.8"/><path class="st15" d="M262.1 249.7c-26.7-25.9-43.2-62.1-43.2-102.1s16.6-76.3 43.2-102.1"/><path class="st8" d="M246.9 30.3c-30.5 29.7-49.5 71.3-49.5 117.3s19 87.6 49.5 117.3M475.3 264.9c30.5-29.7 49.5-71.3 49.5-117.3s-19-87.6-49.5-117.3"/><path class="st15" d="M460.2 45.5c26.7 25.9 43.2 62.1 43.2 102.1s-16.6 76.3-43.2 102.1"/><g><path class="st2" d="M587 374.6c0-19.5-16.3-35.4-36.4-35.4h-.1c-20.1 0-36.4 15.8-36.4 35.4 0 0-.5 10.8 8.2 24.6 0 0 6.5 9.4 9.3 23.8h37.7c2.8-14.4 9.3-23.8 9.3-23.8 8.9-13.8 8.4-24.6 8.4-24.6z"/><path class="st7" d="M532 433.1h37.2v10.7H532zM569.2 458c0 7.5-5 13.5-11.3 13.5h-14.7c-6.2 0-11.3-6-11.3-13.5v-4.1h37.2v4.1z"/><path class="st6" d="M532 433.1h37.2v10.7H532zM569.2 458c0 7.5-5 13.5-11.3 13.5h-14.7c-6.2 0-11.3-6-11.3-13.5v-4.1h37.2v4.1zM587 374.6c0-19.5-16.3-35.4-36.4-35.4h-.1c-20.1 0-36.4 15.8-36.4 35.4 0 0-.5 10.8 8.2 24.6 0 0 6.5 9.4 9.3 23.8h37.7c2.8-14.4 9.3-23.8 9.3-23.8 8.9-13.8 8.4-24.6 8.4-24.6z"/><path class="st6" d="M561.8 373.6l-11.2 18-11.2-18zM550.6 423v-31.4"/></g><g><path class="st3" d="M832.2 492.5h-14.5v22.4h14.5c3.3 0 6-2.7 6-6v-10.3c0-3.4-2.7-6.1-6-6.1z"/><path class="st0" d="M635.6 503.7l30.1 11.2v-22.4z"/><path fill="#59bde9" d="M665.7 492.5h152.1v22.4H665.7z"/><path class="st6" d="M665.7 514.9h166.5c3.3 0 6-2.7 6-6v-10.3c0-3.3-2.7-6-6-6H665.7l-30.1 11.2 30.1 11.1zM665.7 514.9v-22.4M817.7 493.4V514M665.7 503.7h152"/></g></g><g id="Layer_12"><path class="st6" d="M607.2 171.6l8-8M587.6 191.2l8-8M607.2 183.2l8 8M587.6 163.6l8 8M229.2 463.5l8-8M209.6 483.1l8-8M229.2 475.1l8 8M209.6 455.5l8 8"/><path class="st4" d="M413.8 41.6c0 5.6-4.5 10.1-10.1 10.1s-10.1-4.5-10.1-10.1 4.5-10.1 10.1-10.1c5.5 0 10.1 4.5 10.1 10.1z"/><circle class="st3" cx="617.7" cy="71.4" r="10.1"/><circle class="st2" cx="527.4" cy="518.4" r="8.9"/><path class="st2" d="M128.9 216.5c0 5.6-4.5 10.1-10.1 10.1s-10.1-4.5-10.1-10.1 4.5-10.1 10.1-10.1 10.1 4.5 10.1 10.1z"/><g><path class="st6" d="M480 424.2l8-8M460.4 443.8l8-8"/><g><path class="st6" d="M480 435.8l8 8M460.4 416.2l8 8"/></g></g><g><path class="st6" d="M336 41.6l8-8M316.4 61.2l8-8"/><g><path class="st6" d="M336 53.2l8 8M316.4 33.6l8 8"/></g></g><g><path class="st6" d="M-151.6 291.8l8.7-8.8M-173 313.2l8.7-8.8"/><g><path class="st6" d="M-151.6 304.4l8.7 8.8M-173 283l8.7 8.8"/></g></g></g></svg>