<svg xmlns="http://www.w3.org/2000/svg" viewBox="0 0 1140 350"><style>.st0{fill:#fff}.st1{fill:#555e5b}.st2{fill:#fff581}.st3{fill:#f99f1c}.st4{fill:#35a283}.st6{fill:none;stroke-width:4;stroke-miterlimit:10;stroke:#555e5b}.st7{fill:#e4e4e4}.st8{fill:none;stroke:#555e5b;stroke-width:4;stroke-linejoin:round}.st10,.st8,.st9{stroke-miterlimit:10}.st10,.st14,.st16,.st9{stroke:#555e5b;stroke-width:4;fill:#e4e4e4}.st10,.st14,.st16{fill:#fff}.st14,.st16{fill:none;stroke-linejoin:round}.st16{stroke-miterlimit:10;stroke-dasharray:3}</style><g id="Layer_6"><path class="st0" d="M289.3 95.3L256 115.1v25.8l38.4-23.9z"/><path class="st1" d="M254.2 144.2v-30.1l36.3-21.6 6 25.4-42.3 26.3zm3.6-28v21.5l34.5-21.5-4.3-18-30.2 18z"/><path class="st0" d="M248.3 119.6v26.8l9.1 5.9 12.7-3.2v-42.3z"/><path class="st1" d="M257.1 154.3l-10.6-6.9v-28.8l25.4-15v47l-14.8 3.7zm-7-8.9l7.6 5 10.5-2.6V110l-18.1 10.7v24.7z"/><path class="st0" d="M323.7 95.3l33.3 19.8v25.8L318.6 117z"/><path class="st1" d="M358.8 144.2l-42.3-26.3 6-25.4 36.3 21.6v30.1zm-38.2-28l34.5 21.5v-21.5l-30.2-18-4.3 18z"/><path class="st0" d="M364.7 119.6v26.8l-9.1 5.9-12.7-3.2v-42.3z"/><path class="st1" d="M355.9 154.3l-14.8-3.7v-47l25.4 15v28.8l-10.6 6.9zm-11.2-6.6l10.5 2.6 7.6-5v-24.7L344.7 110v37.7z"/><path class="st0" d="M328.5 130.8c-2.6-33.9-7.2-55.3-19-82.4-.5-1.2-1.5-2.2-2.8-2.2-1.3 0-2.3 1-2.8 2.2-11.8 27.2-16.4 48.6-19 82.4"/><path class="st1" d="M326.7 130.9c-2.7-35-7.4-55.6-18.8-81.9-.2-.4-.6-1.1-1.1-1.1-.6 0-1 .7-1.1 1.1-11.4 26.2-16.2 46.9-18.8 81.9l-3.6-.3c2.7-35.5 7.5-56.4 19.1-83 .9-2.1 2.6-3.3 4.5-3.3s3.6 1.2 4.5 3.3c11.6 26.6 16.4 47.6 19.1 83l-3.8.3z"/><path class="st0" d="M306.7 136c-12 0-21.8-2.3-21.8-5.2 0-2.9 9.8-5.2 21.8-5.2s21.8 2.3 21.8 5.2c0 2.9-9.7 5.2-21.8 5.2z"/><path class="st1" d="M306.7 137.8c-2.4 0-23.6-.2-23.6-7s21.2-7 23.6-7c2.4 0 23.6.2 23.6 7 .1 6.8-21.1 7-23.6 7zm-19.8-7c1.3 1.3 8.5 3.4 19.9 3.4s18.6-2.1 19.9-3.4c-1.3-1.3-8.5-3.4-19.9-3.4s-18.6 2.1-19.9 3.4z"/><path class="st2" d="M306.7 133c-8.6 0-14.6-1.2-17.4-2.2 2.8-1 8.8-2.2 17.4-2.2 8.6 0 14.6 1.2 17.4 2.2-2.8 1-8.8 2.2-17.4 2.2z"/><path class="st3" d="M306.7 183.7c-9.5-19.7-21.9-54.1 0-54.1 24.2 0 7.3 38.9 0 54.1z"/><path class="st0" d="M306.8 167.8c-6.6-17-6.8-26.8-4.7-30.1.3-.5 1.1-1.8 4.7-1.8 3.9 0 4.7 1.3 5 1.9 2.1 3.4 1.7 13-5 30z"/><path class="st4" d="M314.1 87.7c0 4.2-3.4 7.6-7.6 7.6-4.2 0-7.6-3.4-7.6-7.6 0-4.2 3.4-7.6 7.6-7.6 4.2 0 7.6 3.4 7.6 7.6z"/><path d="M283.8 142l-27.2 207m72.7-207l27.2 207" stroke-dasharray="4" stroke="#35a283" fill="none" stroke-width="4" stroke-miterlimit="10"/></g><g id="Layer_9"><path class="st0" d="M442.5 181.7c-9.8 0-17.7 7.9-17.7 17.7v123.5c0 11.6-9.4 21-21 21s-21-9.4-21-21h-58V199.4c0-9.8 7.9-17.7 17.7-17.7h99"/><path class="st2" d="M302.8 343.9h97.6l.1-.3c-10-1.6-17.6-10.3-17.6-20.7h-101c-.1 11.6 9.3 21 20.9 21"/><path class="st7" d="M406.9 343.9h53.3V199.4c0-9.8-7.9-17.7-17.7-17.7s-17.7 7.9-17.7 17.7v123.5c0 10.5-7.8 19.3-17.9 20.8v.2z"/><path class="st6" d="M302.8 343.9h157.4V199.4c0-9.8-7.9-17.7-17.7-17.7s-17.7 7.9-17.7 17.7v123.5c0 11.6-9.4 21-21 21s-21-9.4-21-21h-101c0 11.6 9.4 21 21 21"/><path class="st6" d="M324.8 322.9V199.4c0-9.8 7.9-17.7 17.7-17.7h99"/><circle class="st4" cx="373.1" cy="228.8" r="22.5"/><path class="st2" d="M389 212.9l-15.9 15.9-15.9-15.9 3.8-3.7 5.2-1.8 7.6-1 4.1.8 3.8.9 2.8 1.3 1.9 1.3z"/><path class="st7" d="M393.9 237.3l-20.8-8.5 15.9-15.9 2.6 3.2 3.1 6.5.8 4.1-.1 4.5-.6 3.4z"/><circle class="st6" cx="373.1" cy="228.8" r="22.5"/><path class="st6" d="M357.2 212.9l15.9 15.9 20.8 8.5m-20.8-8.5l15.9-15.9"/><path class="st8" d="M339.6 275.5h22.3v23.2h-22.3zM384.7 275.7h17.5m-24.5 0h3.5m24.5 0h3.5M384.7 287.2h17.5m-24.5 0h3.5m24.5 0h3.5M384.7 298.7h17.5m-24.5 0h3.5m24.5 0h3.5"/><circle class="st9" cx="478.6" cy="240.1" r="33.9"/><path class="st10" d="M466.8 223.8h16.9v16.9h-16.9z"/><path class="st6" d="M463.4 248.6H496m-32.6 6.4H496m-32.6 6.4h16.3"/><path fill="none" stroke="#35a283" stroke-width="4" stroke-miterlimit="10" d="M470.2 229.2l6.6 6.1 17.6-16.8"/></g><g id="Layer_8"><path class="st2" d="M908.3 318.8H775.5c-5.5 0-10-4.5-10-10v-63.1c0-5.5 4.5-10 10-10h132.8c5.5 0 10 4.5 10 10v63.1c0 5.6-4.5 10-10 10z"/><path class="st0" d="M767.4 253.9h150.9v13H767.4z"/><path class="st6" d="M763.7 253.9h154.6m-154.6 13.9h154.6m-10 51H775.5c-5.5 0-10-4.5-10-10v-63.1c0-5.5 4.5-10 10-10h132.8c5.5 0 10 4.5 10 10v63.1c0 5.6-4.5 10-10 10zm-28-36.1h-47.5m-6.7 0h-50.3m59.5 11.2h-19.6m43.1 0h-19.6m-27.7 0h-35.7m35.7 8.3h-35.7m58.8 0h-18.8"/><path class="st10" d="M891.3 101.3c-38.7 0-70 31.4-70 70 0 12.9 3.5 24.9 9.6 35.3l-9.5 36.3 31.5-13.1c11 7.3 24.2 11.5 38.4 11.5 38.7 0 70-31.4 70-70s-31.3-70-70-70z"/><circle class="st4" cx="891.3" cy="172.1" r="59"/><path class="st0" d="M917.5 169.6c-2.1-1.8-4.9-2.8-8.5-2.9 3.8-3.1 4.9-7.2 3.3-12.3-.6-1.9-1.4-3.4-2.6-4.6-1.2-1.2-2.6-2.1-4.3-2.6-1.7-.5-3.4-.8-5.3-.9-1.8-.1-3.9 0-6.2.3l-2.3-10.8-6.6 1.4 2.2 10.5c-1.1.2-2.9.6-5.2 1.2l-2.2-10.6-6.6 1.4 2.3 10.8c-.9.2-2.3.5-4.2.9l-9.1 1.9 1.5 7.1 4.8-1c2.2-.5 3.7.3 4.4 2.1l2.6 12.3c.3-.1.5-.1.7-.1l-.7.1 3.6 17.3c.1 1.5-.6 2.4-2 2.7l-4.8 1 .3 8.1 8.6-1.8c.5-.1 1.3-.3 2.4-.5 1-.2 1.8-.4 2.3-.5l2.3 11 6.6-1.4-2.3-10.8c1.2-.2 3-.6 5.3-1.1l2.3 10.8 6.6-1.4-2.3-11c2.3-.6 4.4-1.3 6.1-2 1.8-.7 3.4-1.6 4.9-2.6 1.5-1 2.7-2.2 3.6-3.4.9-1.2 1.6-2.7 2-4.4.4-1.7.5-3.6.3-5.7-.4-3.7-1.7-6.7-3.8-8.5zm-33.7-12.9c.2 0 .8-.2 1.7-.4.9-.2 1.7-.4 2.3-.5.6-.1 1.5-.3 2.5-.4 1.1-.1 2-.2 2.7-.2.7 0 1.6.1 2.5.2.9.1 1.7.4 2.3.8.6.4 1.2.9 1.7 1.5.5.7.9 1.5 1.1 2.4.2.8.2 1.6.1 2.3-.1.7-.4 1.3-.8 1.9-.4.6-.9 1.1-1.3 1.5-.5.4-1.1.9-1.9 1.2-.8.4-1.5.7-2.1.9-.6.2-1.4.5-2.3.7-.9.2-1.6.4-2.1.5-.5.1-1.1.3-2 .4-.8.2-1.3.3-1.5.3l-2.9-13.1zm24.2 25.5c-.1.7-.4 1.4-.7 1.9-.3.6-.8 1.1-1.4 1.6-.6.5-1.2 1-1.9 1.3-.6.4-1.4.7-2.3 1.1-.9.4-1.7.7-2.4.9-.7.2-1.5.5-2.5.7-1 .2-1.7.4-2.3.5-.5.1-1.2.3-2.1.4-.8.2-1.4.3-1.6.3l-3-14.5c.2 0 .9-.2 2-.5s2-.5 2.8-.6c.7-.2 1.7-.3 3-.5s2.4-.3 3.3-.3c.9 0 1.9.1 3 .2s2 .4 2.7.8c.7.4 1.4.9 2 1.6.6.7 1 1.6 1.2 2.6.4 1 .4 1.7.2 2.5zm0 0"/><path class="st3" d="M709.1 177.9c0 3.1-2.5 5.7-5.7 5.7-3.1 0-5.7-2.5-5.7-5.7 0-3.1 2.5-5.7 5.7-5.7s5.7 2.6 5.7 5.7z"/><path class="st4" d="M633.7 177.9l9.6 19.3 21.3 3.1-15.4 15.1 3.6 21.2-19.1-10-19 10 3.6-21.2-15.4-15.1 21.3-3.1z"/><path class="st9" d="M800.7 343.5h-68.1c-5.5 0-10-4.5-10-10V200.8c0-5.5 4.5-10 10-10h68.1c5.5 0 10 4.5 10 10v132.8c0 5.4-4.5 9.9-10 9.9z"/><path d="M791.8 247.3c4 0 7.2-3.2 7.2-7.2v-25.3h-57.6c-4 0-7.2 3.2-7.2 7.2v25.3h57.6z" fill="#6acef5"/><path class="st0" d="M734.2 260h17.2v11.2h-17.2zm23.8 0h17.2v11.2H758zm23.8 0H799v11.2h-17.2zm-47.6 17.3h17.2v11.2h-17.2zm23.8 0h17.2v11.2H758zm23.8 0H799v11.2h-17.2zm-47.6 17.3h17.2v11.2h-17.2zm23.8 0h17.2v11.2H758zm23.8 0H799v11.2h-17.2zM734.2 311.9h17.2v11.2h-17.2zm23.8 0h17.2v11.2H758zm23.8 0H799v11.2h-17.2z"/><path class="st10" d="M792.8 201.9v-51.1c0-7-5.7-12.6-12.6-12.6H753c-7 0-12.6 5.7-12.6 12.6v51.1"/><path class="st6" d="M752.9 184.2h27.3m-27.3-7h27.3m-27.3-6.9h27.3m-27.3-7h27.3"/><path class="st3" d="M752.9 150.7h27.3v5.8h-27.3z"/><path class="st6" d="M734.2 202.6H799"/><path fill="#fff" stroke="#555e5b" stroke-width="4" stroke-linejoin="round" stroke-miterlimit="10" d="M945 308.4l-47.1-14.6 8.4 48.7 10.8-18.4 17.4 19.8 8.7-7.7-17.2-19.6z"/><circle class="st7" cx="570.6" cy="93.7" r="43.6"/><path class="st6" d="M569.9 105.4v240.3"/><path class="st8" d="M649.9 332.8c-58.8-93.1-80-229.3-80-229.3s-21.1 136.1-80 229.3l80.9-32.4 79.1 32.4z"/><path class="st8" d="M569.9 347.8l57.1-56.9-57.1-24.6-57.1 24.6z"/><path class="st8" d="M569.9 300.3l40.7-47-40.7-21.1-40.7 21.1z"/><path class="st8" d="M569.9 266.7l31-39.6-31-17.2-31 17.2z"/><path class="st8" d="M569.9 232.6l24.5-26-24.5-24.7-24.5 24.7z"/><path class="st8" d="M569.9 210.5l16.7-27.7-16.7-24.6-16.7 24.6z"/><path class="st8" d="M569.9 182.5l8.7-25.8-8.7-17.3-8.7 17.3z"/><circle class="st8" cx="569.9" cy="93.9" r="9.4"/><path class="st14" d="M583.2 104.3l.9-1.2"/><path d="M585.4 100.5c.9-2 1.4-4.3 1.4-6.6 0-9.3-7.5-16.9-16.9-16.9-9.3 0-16.9 7.5-16.9 16.9 0 2.9.7 5.6 2 7.9" fill="none" stroke="#555e5b" stroke-width="4" stroke-linejoin="round" stroke-dasharray="2.8956,2.8956"/><path class="st14" d="M555.8 103l.9 1.2"/><path class="st16" d="M482.5 4.4c-23.3 22.8-37.7 54.5-37.7 89.6s14.5 66.9 37.7 89.6m175.3 0c23.3-22.8 37.7-54.5 37.7-89.6S681 27.1 657.8 4.4"/><path class="st8" d="M516 150.2c-14.8-14.2-24-34.1-24-56.2s9.2-42 23.9-56.2m108.5 0C639.2 52 648.3 71.9 648.3 94s-9.2 42-23.9 56.2"/><path class="st16" d="M506.8 159.4c-17.1-16.6-27.7-39.7-27.7-65.4s10.6-48.9 27.7-65.4"/><path class="st8" d="M497.1 18.9c-19.6 19-31.7 45.7-31.7 75.1s12.2 56.1 31.7 75.1m146.2 0c19.6-19 31.7-45.7 31.7-75.1 0-29.5-12.2-56.1-31.7-75.1"/><path class="st16" d="M633.6 28.6c17.1 16.6 27.7 39.7 27.7 65.4s-10.6 48.9-27.7 65.4"/><g><path class="st2" d="M714.9 239.4c0-12.5-10.4-22.7-23.3-22.7s-23.3 10.1-23.3 22.7c0 0-.4 6.9 5.3 15.8 0 0 4.1 6 6 15.2h24.2c1.8-9.2 6-15.2 6-15.2 5.4-8.9 5.1-15.8 5.1-15.8z"/><path class="st7" d="M679.6 276.8h23.8v6.9h-23.8zm23.8 16c0 4.8-3.2 8.6-7.2 8.6h-9.4c-4 0-7.2-3.9-7.2-8.6v-2.7h23.8v2.7z"/><path class="st6" d="M679.6 276.8h23.8v6.9h-23.8zm23.8 16c0 4.8-3.2 8.6-7.2 8.6h-9.4c-4 0-7.2-3.9-7.2-8.6v-2.7h23.8v2.7zm11.5-53.4c0-12.5-10.4-22.7-23.3-22.7s-23.3 10.1-23.3 22.7c0 0-.4 6.9 5.3 15.8 0 0 4.1 6 6 15.2h24.2c1.8-9.2 6-15.2 6-15.2 5.4-8.9 5.1-15.8 5.1-15.8z"/><path class="st6" d="M698.7 238.8l-7.2 11.5-7.1-11.5zm-7.2 31.6v-20.1"/></g><g><path class="st3" d="M871.9 314.9h-9.3v14.3h9.3c2.1 0 3.9-1.7 3.9-3.9v-6.6c0-2.1-1.8-3.8-3.9-3.8z"/><path class="st0" d="M746 322.1l19.2 7.1v-14.3z"/><path fill="#59bde9" d="M765.2 314.9h97.4v14.3h-97.4z"/><path class="st6" d="M765.2 329.2h106.7c2.1 0 3.9-1.7 3.9-3.9v-6.6c0-2.1-1.7-3.9-3.9-3.9H765.2L746 322l19.2 7.2zm0 0v-14.3m97.4.6v13.1m-97.4-6.5h97.4"/></g></g><g id="Layer_11"><path d="M311.1 307.3l-18.4-21.5c.7-3.5 1-7.2 1-10.9 0-32.6-26.4-59-59-59s-59 26.4-59 59 26.4 59 59 59c20 0 37.7-10 48.4-25.3l28-1.3z" fill="#f6f6f6" stroke="#555e5b" stroke-width="4" stroke-linecap="round" stroke-linejoin="round" stroke-miterlimit="10"/><circle class="st7" cx="234.5" cy="274.4" r="47.3"/><path d="M204.8 260.6h58.6m-58.6 9.6h58.6m-58.6 9.6h58.6m-58.6 9.6h42.6" fill="#f6f6f6" stroke-miterlimit="10" stroke="#555e5b" stroke-width="4"/></g><g id="Layer_12"><path class="st6" d="M727.8 109.4l5.1-5.1m-17.6 17.6l5.1-5.1m7.4 0l5.1 5.1m-17.6-17.6l5.1 5.1M485.7 296.3l5.1-5.1m-17.7 17.7l5.2-5.1m7.4 0l5.1 5.1m-17.7-17.7l5.2 5.1"/><path class="st4" d="M603.9 26.1c0 3.6-2.9 6.5-6.5 6.5s-6.5-2.9-6.5-6.5 2.9-6.5 6.5-6.5 6.5 2.9 6.5 6.5z"/><circle class="st3" cx="734.5" cy="45.2" r="6.5"/><circle class="st2" cx="676.7" cy="331.5" r="5.7"/><path class="st2" d="M421.5 138.2c0 3.6-2.9 6.5-6.5 6.5s-6.5-2.9-6.5-6.5 2.9-6.5 6.5-6.5 6.5 2.9 6.5 6.5z"/><path class="st6" d="M948.8 256.7l5.1-5.1m-17.7 17.7l5.1-5.1M948.8 264.2l5.1 5.1m-17.7-17.7l5.1 5.1M646.3 271.2l5.1-5.2m-17.7 17.7l5.2-5.1M646.3 278.6l5.1 5.1M633.7 266l5.2 5.2M554.1 26.1l5.1-5.1m-17.7 17.7l5.1-5.1M554.1 33.6l5.1 5.1M541.5 21l5.1 5.1"/><g><path class="st3" d="M317.5 274c0 3.6-2.9 6.4-6.4 6.4-3.6 0-6.4-2.9-6.4-6.4 0-3.6 2.9-6.4 6.4-6.4 3.5-.1 6.4 2.8 6.4 6.4z"/></g><g><path class="st6" d="M241.8 186.3l5.6-5.6M228.1 200l5.6-5.6M241.8 194.4l5.6 5.6m-19.3-19.3l5.6 5.6"/></g></g></svg>