<svg xmlns="http://www.w3.org/2000/svg" viewBox="0 0 350 350"><style>.st0{fill:#f99f1c}.st1{fill:#e4e4e4}.st2{fill:#fff581}.st3{fill:#59bde9}.st4{fill:none;stroke:#555e5b;stroke-width:4;stroke-miterlimit:10}.st6{fill:#fff}.st7,.st9{fill:#f6f6f6;stroke:#555e5b;stroke-width:4;stroke-miterlimit:10}.st9{fill:none;stroke-linecap:round}.st14{fill:#555e5b}</style><g id="Layer_2"><circle class="st0" cx="306.6" cy="87.3" r="6.6"/><path class="st1" d="M249.2 26.4c0 3.6-2.9 6.6-6.6 6.6-3.6 0-6.6-2.9-6.6-6.6s2.9-6.6 6.6-6.6c3.7 0 6.6 2.9 6.6 6.6z"/><circle class="st2" cx="313.1" cy="267.3" r="4.5"/><path class="st3" d="M38.4 333.2c0 3.6-2.9 6.6-6.6 6.6-3.6 0-6.6-2.9-6.6-6.6 0-3.6 2.9-6.6 6.6-6.6 3.6.1 6.6 3 6.6 6.6z"/><circle class="st2" cx="9.4" cy="9" r="6.6"/><path class="st4" d="M97.6 333.2l5.1-5.1M84.9 345.9l5.2-5.2"/><g><path class="st4" d="M97.6 340.7l5.1 5.2M84.9 328.1l5.2 5.1"/></g><g><path class="st4" d="M279.4 81.2l5.2-5.2M266.8 93.8l5.1-5.2"/><g><path class="st4" d="M279.4 88.6l5.2 5.2M266.8 76l5.1 5.2"/></g></g></g><g id="Layer_8"><path fill="#e4e4e4" stroke="#555e5b" stroke-width="4" stroke-miterlimit="10" d="M171.3 43.6H24.6v252.2h199.8v-199z"/><path class="st6" d="M188.6 26.4H41.9v252.1h199.8v-199z"/><path class="st4" d="M188.6 26.4H41.9v252.1h199.8v-199z"/><path class="st4" d="M241.7 79.7h-53.4V26.4"/><path class="st3" d="M195.5 72.5V43.7l28.9 28.8z"/></g><g id="Layer_9"><path class="st7" d="M73.1 52.6h67.2M73.1 63.4h67.2M73.1 74.1h43.5M131 100.6h80.6M131 111.3h80.6M131 122.1h51.5M86.8 226.5h37.1M86.8 233.9h25"/><path fill="#f6f6f6" d="M79.3 266.1H152"/><path class="st9" d="M79.3 266.1h1.5"/><path fill="none" stroke="#555e5b" stroke-width="4" stroke-linecap="round" stroke-miterlimit="10" stroke-dasharray="3.0287,6.0575" d="M86.9 266.1h60.6"/><path class="st9" d="M150.5 266.1h1.5"/><g><path class="st3" d="M131.6 259.3h-13.4c-5.5 0-10-4.5-10-10 0-2-1.6-3.6-3.6-3.6s-3.6 1.6-3.6 3.6c0 3.3-2.7 6-6 6s-6-2.7-6-6c0-1.1.9-2 2-2s2 .9 2 2 .9 2 2 2 2-.9 2-2c0-4.2 3.4-7.6 7.6-7.6 4.2 0 7.6 3.4 7.6 7.6 0 3.3 2.7 6 6 6h13.4c1.1 0 2 .9 2 2s-.9 2-2 2zM140.2 259.3h-3.5c-1.1 0-2-.9-2-2s.9-2 2-2h3.5c1.1 0 2 .9 2 2s-.9 2-2 2z"/></g></g><g id="Layer_7"><path d="M293.7 273.4l-5-11.7-9.3 3c-3.6-5.6-8.3-10.1-13.7-13.5l2.8-9.4-11.8-4.8-4.5 8.7c-6.2-1.4-12.8-1.4-19.2.2l-4.6-8.6-11.7 5 3 9.3c-5.6 3.6-10.1 8.3-13.5 13.7l-9.4-2.8-4.8 11.8 8.7 4.5c-1.4 6.2-1.4 12.8.2 19.2l-8.6 4.6 5 11.7 9.3-3c3.6 5.6 8.3 10.1 13.7 13.5l-2.8 9.4 11.8 4.8 4.5-8.7c6.2 1.4 12.8 1.4 19.2-.2l4.6 8.6 11.7-5-3-9.3c5.6-3.6 10.1-8.3 13.5-13.7l9.4 2.8 4.8-11.8-8.7-4.5c1.4-6.2 1.4-12.8-.2-19.2l8.6-4.6z" fill="#e4e4e4" stroke="#555e5b" stroke-width="4" stroke-linejoin="round" stroke-miterlimit="10"/><ellipse transform="rotate(-45 243.010816 288.01042)" class="st2" cx="243" cy="288" rx="26" ry="26"/><path class="st6" d="M255 282.9c2.8 6.6-.3 14.3-6.9 17.1-6.6 2.8-14.3-.3-17.1-6.9-2.8-6.6.3-14.3 6.9-17.1 6.6-2.8 14.3.3 17.1 6.9z"/><ellipse transform="rotate(-45 243.010816 288.01042)" cx="243" cy="288" rx="32.9" ry="32.9" fill="none" stroke="#555e5b" stroke-width="4" stroke-miterlimit="10" stroke-dasharray="4"/><ellipse transform="rotate(-45.71 243.007454 288.0055167)" class="st4" cx="243" cy="288" rx="12.9" ry="12.9"/></g><g id="Layer_10"><path class="st0" d="M210.9 158.2l-7.3 6.1c-2 1.7-2.3 4.7-.6 6.8l7.2 8.6c1.7 2 4.7 2.3 6.8.6l7.3-6.1c4.4-3.7 4.3-9.7.6-14.1-3.7-4.5-9.6-5.6-14-1.9z"/><path class="st6" d="M128.6 240.9l28.2-10.1-13.4-15.9z"/><path transform="matrix(.766 -.6428 .6428 .766 -86.2741 161.2268)" class="st3" d="M141.4 188.7h73.8v20.8h-73.8z"/><path class="st4" d="M156.8 230.8l66.9-56.1c4.4-3.7 5-10.3 1.3-14.7-3.7-4.4-10.3-5-14.7-1.3l-66.9 56.1-14.8 26 28.2-10zM156.8 230.8l-13.4-15.9M200.5 168.1l12.3 14.6M150.1 222.9l56.5-47.5"/></g><g id="Layer_11"><circle cx="61.4" cy="156.7" r="58.9" fill="#fff" stroke="#555e5b" stroke-width="4" stroke-miterlimit="10"/><path class="st4" d="M61.4 128.1v28.6H35.6"/><path class="st14" d="M59.4 106.4h4v5.7h-4zM59.4 201.2h4v5.7h-4z"/><path transform="rotate(-29.991 37.7289216 115.6147281)" class="st14" d="M35.7 112.8h4v5.7h-4z"/><path transform="rotate(-30 85.1292951 197.738451)" class="st14" d="M83.1 194.9h4v5.7h-4z"/><path transform="rotate(-60 20.3662661 132.965627)" class="st14" d="M18.4 130.1h4v5.7h-4z"/><path transform="matrix(.5 -.8661 .8661 .5 -104.9661 178.9541)" class="st14" d="M100.5 177.5h4v5.7h-4z"/><path transform="rotate(-30 20.3661795 180.3881361)" class="st14" d="M17.5 178.4h5.7v4h-5.7z"/><path transform="matrix(.866 -.5001 .5001 .866 -52.7568 69.0689)" class="st14" d="M99.6 131h5.7v4h-5.7z"/><path transform="rotate(-59.994 37.7242738 197.7254283)" class="st14" d="M34.9 195.7h5.7v4h-5.7z"/><path transform="matrix(.5001 -.866 .866 .5001 -57.5575 131.5215)" class="st14" d="M82.3 113.6H88v4h-5.7z"/><path class="st14" d="M11.2 154.7h5.7v4h-5.7zM106 154.7h5.7v4H106z"/></g><g id="Layer_4"><ellipse transform="rotate(-55.882 297.7732966 190.0441533)" class="st6" cx="297.8" cy="190" rx="45.4" ry="45.4"/><path class="st1" d="M289 181.3c-4.8 4.8-4.8 12.7 0 17.5 4.8 4.8 12.7 4.8 17.5 0 4.8-4.8 4.8-12.7 0-17.5-4.8-4.8-12.6-4.8-17.5 0z"/><path class="st1" d="M297.8 142.6c-12.4 0-23.6 4.8-32 12.6L254.6 144l2-14.4c.1-.6-.1-1.3-.6-1.7l-17.6-17.6c-.5-.5-1.3-.7-2-.5-.7.2-1.2.9-1.3 1.6l-2 13.9-13.9 2c-.8.1-1.4.6-1.6 1.3-.2.7-.1 1.5.5 2l17.6 17.6c.4.4.9.6 1.4.6h.3l14.4-2L263 158c-7.8 8.4-12.6 19.7-12.6 32 0 26.1 21.3 47.4 47.4 47.4 26.1 0 47.4-21.3 47.4-47.4 0-26.1-21.3-47.4-47.4-47.4zm-60 2.2l-14.1-14.1 10.4-1.5 14.1 14.1-10.4 1.5zm13.2-4.3l-14.1-14.1 1.5-10.4 14.1 14.1-1.5 10.4zm46.8 93c-23.9 0-43.4-19.5-43.4-43.4 0-11.3 4.3-21.5 11.4-29.2l5.7 5.7c-5.6 6.3-9 14.5-9 23.5 0 19.5 15.9 35.4 35.4 35.4s35.4-15.9 35.4-35.4-15.9-35.4-35.4-35.4c-9 0-17.3 3.4-23.5 9l-5.7-5.7c7.7-7 18-11.4 29.2-11.4 23.9 0 43.4 19.5 43.4 43.4s-19.6 43.5-43.5 43.5zm-18.1-58.7c-3.5 4.1-5.6 9.4-5.6 15.2 0 13 10.6 23.7 23.7 23.7s23.7-10.6 23.7-23.7-10.6-23.7-23.7-23.7c-5.8 0-11.1 2.1-15.2 5.6l-5.5-5.5c5.5-4.9 12.8-7.9 20.7-7.9 17.3 0 31.4 14.1 31.4 31.4 0 17.3-14.1 31.4-31.4 31.4s-31.4-14.1-31.4-31.4c0-7.9 3-15.2 7.9-20.7l5.4 5.6zm16.7 16.7c.4.4.9.6 1.4.6.5 0 1-.2 1.4-.6.8-.8.8-2 0-2.8l-13.8-13.8c3.4-2.8 7.7-4.4 12.4-4.4 10.8 0 19.7 8.8 19.7 19.7 0 10.8-8.8 19.7-19.7 19.7-10.8 0-19.7-8.8-19.7-19.7 0-4.7 1.7-9 4.4-12.4l13.9 13.7z"/></g><g id="Layer_12"><path fill="#fff581" stroke="#555e5b" stroke-width="4" stroke-linecap="round" stroke-linejoin="round" stroke-miterlimit="10" d="M253.1 145.4l2.4-15.6-18.8-18.7-2.3 15.6-15.6 2.3 18.8 18.7z"/><ellipse transform="rotate(-10.887 297.7356967 190.0611363)" class="st6" cx="297.8" cy="190" rx="45.4" ry="45.4"/><path class="st0" d="M310.2 190c0-6.8-5.5-12.4-12.4-12.4-6.8 0-12.4 5.5-12.4 12.4 0 6.8 5.5 12.4 12.4 12.4 6.8 0 12.4-5.5 12.4-12.4z"/><circle class="st4" cx="297.8" cy="190" r="45.4"/><circle class="st4" cx="297.8" cy="190" r="33.1"/><circle class="st4" cx="297.8" cy="190" r="21.8"/><path class="st9" d="M234.4 126.7l63.4 63.3"/></g></svg>