<svg id="Layer_1" xmlns="http://www.w3.org/2000/svg" viewBox="0 0 180 66"><style>.st0{fill:#fff}</style><path class="st0" d="M22.4 39.6c1.8-.2 3.5-.6 5.1-1.2 3.2-1.1 6.1-2.8 8.8-4.8 2.5-1.9 5.1-3.5 8-4.8 2.7-1.2 5.5-2 8.5-2.1h.3c-.2-.7-.5-1.3-.7-2 0 0-.1-.1-.2-.1-.6.1-1.3.1-1.9.2-2 .3-3.9.9-5.8 1.6-3.2 1.3-6.1 3-8.8 5-1.7 1.2-3.4 2.4-5.3 3.4-.1 0-.2.1-.3.1-.6-4.3-2.1-8.2-4.7-11.7.1 0 .1 0 .2.1 1.2.4 2.4.6 3.6.4 2.5-.4 4.3-1.8 5.4-4.1.1-.2 0-.2-.1-.3-1.4-.8-2.9-1.2-4.6-.9-1.8.2-3.3 1-4.5 2.4-.5.5-.8 1.2-1.2 1.8l-.1-.1c-1-1-2.3-1.6-3.7-1.7-1.8-.1-3.3.5-4.6 1.7-.1.1-.1.2 0 .3 1.2 1.4 2.8 2.2 4.6 2.2 1.5 0 2.8-.6 3.9-1.6l.1-.1c.1.1.1.1.1.2 1.7 2.4 2.8 5.1 3.5 7.9.3 1.3.5 2.6.6 4 0 .2 0 .3-.2.4-2.7 1.2-5.6 1.9-8.6 2-1.7.1-3.3-.1-4.9-.4-2.7-.6-5.1-1.6-7.4-3-.1 0-.2-.1-.3-.1v.2c.1.8.1 1.5.2 2.3 0 .1.1.2.2.3 3.2 1.8 6.7 2.8 10.4 3 1.7-.2 3-.3 4.4-.5zM53.8 35c-1.2 0-2.4.2-3.5.5-2.2.6-4.2 1.6-6 2.8-1.3.9-2.6 1.8-4 2.8-3.4 2.4-7 4.3-10.9 5.5-2.8.9-5.6 1.4-8.5 1.5-1.4.1-2.8.1-4.2-.1l-3.6-.6c-.2 0-.5-.1-.7-.1.1.1.2.2.2.3 1.6 2 3.5 3.8 5.7 5.2 3.3 2.1 6.9 3.3 10.9 3.6 1 .1 2.1 0 3.2 0 1.3 0 2.5-.2 3.7-.5 5.9-1.4 10.6-4.6 14.1-9.6 2.3-3.3 3.6-7.1 4-11.1-.2-.2-.2-.2-.4-.2z"/><path class="st0" d="M30.8 2.9C14.1 2.8.5 16.4.4 33.1.3 49.9 13.8 63.5 30.5 63.7c17.2.1 30.7-13.7 30.7-30.4S47.6 2.9 30.8 2.9zm-.3 57.8c-15-.1-27.2-12.5-27.1-27.5C3.5 18 15.8 5.8 30.8 5.9c15.2 0 27.4 12.3 27.4 27.4 0 15-12.2 27.5-27.7 27.4z"/><path class="st0" d="M54 31.7c-.1-.9-.2-1.9-.3-2.8 0-.1-.1-.2-.2-.2-1.7 0-3.3.3-4.9.7-2.5.7-4.8 1.8-7.1 3.2-1.7 1-3.2 2.1-4.8 3.3-2.9 2.1-6 3.7-9.5 4.8-2 .6-4 1-6.1 1.1-1 .1-2 .1-2.9 0l-3-.3c-2.3-.4-4.6-1.1-6.7-2.1-.1 0-.1 0-.2-.1v.1c.5 1.8 1.2 3.5 2.1 5.1.1.1.2.2.3.2 2.7.9 5.5 1.3 8.3 1.4 1.2 0 2.4 0 3.5-.2 1.2-.1 2.4-.3 3.6-.6 3.3-.7 6.3-2 9.2-3.6 2-1.1 3.8-2.4 5.6-3.7 2.2-1.6 4.5-3 7.1-4 1.7-.6 3.4-1.1 5.2-1.1h.9v-.2c-.1-.3 0-.7-.1-1zM101.1 29.2c.8-1.8 1-3.6.8-5.6-.2-1.9-1-3.5-2.6-4.7-.8-.6-1.7-1-2.7-1.3-1.9-.6-4-.9-6-.9H74.1c-.2.7-5.9 36.7-5.8 37.1h17.5c1.3 0 2.5-.1 3.7-.2 2.1-.3 4.2-1 6-2.1 2.4-1.4 4-3.4 4.9-6 .5-1.4.6-2.9.6-4.4-.1-2.4-1.2-4.3-3.2-5.7-.6-.4-1.2-.6-1.9-1-.1-.1-.2-.1-.4-.2.3-.1.5-.2.7-.4 2.4-.9 4-2.5 4.9-4.6zM86.7 44.7c-.3.1-.7.1-1 .1h-4.2c-.1-.4.6-5.1.9-5.9h4c.5 0 1 .1 1.5.2 1.1.3 1.6 1.1 1.5 2.3 0 1.7-1 2.9-2.7 3.3zM90 28.2c-.2 1.4-1.2 2.3-2.6 2.5-1.2.2-2.4.1-3.6.1 0 0-.1 0-.2-.1.2-1.7.5-3.5.8-5.3 1.3 0 2.7-.1 3.9.2 1.5.3 2 1.2 1.7 2.6zM133.8 49.2c-.4-2.3-.9-4.6-1.3-6.8-.1-.7-.3-1.4-.4-2.2-.2.2-.4.3-.5.4-1.3 1-2.6 1.8-4.2 2.2-2.1.7-4.2 1-6.4.5-2.7-.6-4.5-2.4-4.9-5.1-.4-2.4 0-4.7 1.3-6.8 1.9-3.3 4.9-4.9 8.8-4.7 2.5.1 4.6 1.2 6.5 2.8.1.1.3.3.5.4 1.6-3.5 3.2-6.8 4.7-10.2-.1-.1-.2-.2-.2-.3-.7-.7-1.6-1.2-2.5-1.5-2.3-1-4.8-1.5-7.3-1.6-2.3-.1-4.5 0-6.8.5-5 1.1-9.2 3.6-12.3 7.7-4 5.3-5.4 11.4-4.5 17.9.4 2.7 1.5 5.1 3.3 7.1 2 2.2 4.5 3.6 7.4 4.3 2.9.8 5.7.8 8.7.5 2.6-.3 5-1 7.3-2.3 1-.6 1.8-1.2 2.7-1.9.2-.2.3-.3.2-.6-.1-.1-.1-.2-.1-.3zM142.1 16.7c-2 12.4-3.9 24.7-5.9 37.1.7.1 11.2.1 11.7 0 .1-.6.2-1.3.3-1.9.5-3.3 1-6.5 1.6-9.8.1-.4.1-.4.5-.5h11.9c.5-3.2 1-6.3 1.5-9.5h-12.5l.9-5.7H165.2c0-.2.1-.3.1-.4.4-2.8.9-5.5 1.3-8.3v-.8c-8-.2-16.2-.2-24.5-.2z"/></svg>