<svg xmlns="http://www.w3.org/2000/svg" viewBox="0 0 350 350"><style>.st1{fill:none;stroke:#555e5b;stroke-width:4;stroke-miterlimit:10}.st2{fill:#555e5b}.st3{fill:#fff}.st4{fill:#f99f1c}.st5{fill:#fff581}.st6,.st7{stroke:#555e5b;stroke-width:4;stroke-linejoin:round;stroke-miterlimit:10}.st6{stroke-linecap:round;fill:none}.st7{fill:#fff}.st17{fill:#59bde9}</style><g id="Layer_11"><circle cx="79.4" cy="66" r="58.9" fill="#fff" stroke="#555e5b" stroke-width="4" stroke-miterlimit="10"/><path class="st1" d="M79.4 37.5V66H53.6"/><path class="st2" d="M77.4 15.8h4v5.7h-4zM77.4 110.6h4v5.7h-4z"/><path transform="rotate(-29.991 55.729963 24.955875)" class="st2" d="M53.7 22.1h4v5.7h-4z"/><path transform="rotate(-30 103.137057 107.081131)" class="st2" d="M101.1 104.2h4v5.7h-4z"/><path transform="rotate(-60 38.372451 42.311115)" class="st2" d="M36.4 39.5h4v5.7h-4z"/><path transform="matrix(.5 -.8661 .8661 .5 -17.4516 149.2148)" class="st2" d="M118.5 86.9h4v5.7h-4z"/><path transform="rotate(-30 38.373858 89.727394)" class="st2" d="M35.5 87.7h5.7v4h-5.7z"/><path transform="matrix(.866 -.5001 .5001 .866 -5.0106 65.9232)" class="st2" d="M117.6 40.3h5.7v4h-5.7z"/><path transform="rotate(-59.994 55.727205 107.071698)" class="st2" d="M52.9 105.1h5.7v4h-5.7z"/><path transform="rotate(-59.994 103.135819 24.955755)" class="st2" d="M100.3 23h5.7v4h-5.7z"/><path class="st2" d="M29.2 64h5.7v4h-5.7zM124 64h5.7v4H124z"/></g><g id="Layer_14"><path class="st3" d="M317.8 32.7c0-9.6-7.8-17.3-17.3-17.3H135.8c-9.6 0-17.3 7.8-17.3 17.3V180H66.2c-9.6 0-17.3 7.8-17.3 17.3v123.1H14.1v4.2c0 9.6 7.8 17.3 17.3 17.3h164.7c9.6 0 17.3-7.8 17.3-17.3v-85.2l1.4-4.7h50.9c9.6 0 17.3-7.8 17.3-17.3V53.5h34.7V32.7z"/><path class="st4" d="M283.1 53.5h34.7V32.7c0-9.6-7.8-17.3-17.3-17.3-9.6 0-17.3 7.8-17.3 17.3v20.8zM165.3 341.9H31.5c-9.6 0-17.3-7.8-17.3-17.3v-4.2h164.7v4.2c0 9.6 7.8 17.3 17.3 17.3h-30.9z"/><path class="st5" d="M213.5 234.7h52.2c-9.6 0-17.3-7.8-17.3-17.3l-.2-20c0-9.6-7.8-17.3-17.3-17.3-9.6 0-17.3 7.8-17.3 17.3v37.3z"/><path class="st1" d="M118.4 180V32.7c0-9.6 7.8-17.3 17.3-17.3h164.7M48.8 320.4V197.3c0-9.6 7.8-17.3 17.3-17.3h164.7"/><path class="st1" d="M196.9 341.9H31.5c-9.6 0-17.3-7.8-17.3-17.3v-4.2h164.7v4.2c0 9.6 7.8 17.3 17.3 17.3s17.3-7.8 17.3-17.3V197.3c0-9.6 7.8-17.3 17.3-17.3 9.6 0 17.3 7.8 17.3 17.3l.2 20c0 9.6 7.8 17.3 17.3 17.3 9.6 0 17.3-7.8 17.3-17.3V32.7c0-9.6 7.8-17.3 17.3-17.3 9.6 0 17.3 7.8 17.3 17.3v20.8h-33.6M265.8 234.7h-52.3"/><path class="st6" d="M70.8 210.6h26.6v26.6H70.8zM110.7 210.6h65.2M110.7 220.8h65.2M110.7 231h34.8"/><g><path class="st6" d="M70.8 254.3h26.6v26.6H70.8zM110.7 254.3h65.2M110.7 264.4h65.2M110.7 274.6h34.8"/></g></g><g id="Layer_15"><path class="st7" d="M344.8 265.4l-6.1-14.4-11.5 3.7c-4.4-6.9-10.2-12.5-16.9-16.6l3.5-11.5-14.5-5.9-5.5 10.7c-7.7-1.7-15.7-1.7-23.7.2l-5.7-10.6-14.4 6.1 3.7 11.5c-6.9 4.4-12.5 10.2-16.6 16.9l-11.5-3.5-5.9 14.5 10.7 5.5c-1.7 7.7-1.7 15.7.2 23.7l-10.6 5.7 6.1 14.4 11.5-3.7c4.4 6.9 10.2 12.5 16.9 16.6l-3.5 11.5 14.5 5.9 5.5-10.7c7.7 1.7 15.7 1.7 23.7-.2l5.7 10.6 14.4-6.1-3.7-11.5c6.9-4.4 12.5-10.2 16.6-16.9l11.5 3.5 5.9-14.5-10.7-5.5c1.7-7.7 1.7-15.7-.2-23.7l10.6-5.7z"/><ellipse transform="rotate(-45 282.37753 283.357627)" cx="282.4" cy="283.4" rx="32" ry="32" fill="#e4e4e4"/><path class="st3" d="M297.1 277.1c3.5 8.1-.3 17.5-8.5 21s-17.5-.3-21-8.5c-3.5-8.1.3-17.5 8.5-21s17.6.3 21 8.5z"/><ellipse transform="rotate(-27.884 282.375016 283.339404)" cx="282.4" cy="283.4" rx="40.6" ry="40.6" fill="none" stroke="#555e5b" stroke-width="4" stroke-miterlimit="10" stroke-dasharray="3.9814,3.9814"/><ellipse transform="rotate(-45.71 282.373585 283.352627)" class="st1" cx="282.4" cy="283.4" rx="15.9" ry="15.9"/></g><g id="Layer_8"><path class="st7" d="M196.6 46.3c-17.8 0-32.2 14.4-32.2 32.2 0 13.3 8 24.6 19.5 29.6v44.7l18.2 13.1 8.8-11.6v-46.9c10.6-5.3 18-16.2 18-28.9-.2-17.8-14.6-32.2-32.3-32.2zm0 26.9c-5 0-9.1-4.1-9.1-9.1s4.1-9.1 9.1-9.1 9.1 4.1 9.1 9.1-4.1 9.1-9.1 9.1z"/><path d="M165.6 109c-7.7-7.8-12.5-18.6-12.5-30.5 0-24 19.4-43.4 43.4-43.4S240 54.5 240 78.5c0 9.7-3.2 18.7-8.6 26" fill="none" stroke="#555e5b" stroke-width="4" stroke-miterlimit="10" stroke-dasharray="4"/><path fill="none" stroke="#555e5b" stroke-width="4" stroke-linecap="round" stroke-miterlimit="10" d="M201.7 116.9v48.2"/></g><g id="Layer_17"><path class="st3" d="M14.9 138.1c-4.2 0-7.6 3.4-7.6 7.6V159c0 4.2 3.4 7.6 7.6 7.6h122.3v-28.5H14.9z"/><path d="M169.2 159v-13.3c0-4.2-3.4-7.6-7.6-7.6h-24.5v28.5h24.5c4.2 0 7.6-3.4 7.6-7.6z" fill="#dc1767"/><path class="st6" d="M162 166.6H14.6c-4 0-7.3-3.3-7.3-7.3v-13.9c0-4 3.3-7.3 7.3-7.3H162c4 0 7.3 3.3 7.3 7.3v13.9c-.1 4-3.3 7.3-7.3 7.3z"/><g fill="none" stroke="#fff" stroke-width="3" stroke-miterlimit="10"><circle cx="150.6" cy="150.8" r="5.3"/><path stroke-linecap="round" d="M154 155l4.7 4.7"/></g></g><g id="Layer_16"><ellipse cx="280.5" cy="134.3" rx="59.6" ry="25" fill="#fff" stroke="#555e5b" stroke-width="4" stroke-linecap="round" stroke-linejoin="round" stroke-miterlimit="10"/><circle class="st6" cx="280.5" cy="134.3" r="24.1"/><circle cx="280.5" cy="134.3" r="20.4" fill="none" stroke="#555e5b" stroke-width="4" stroke-miterlimit="10" stroke-dasharray="4.0086,4.0086"/><circle class="st17" cx="280.5" cy="134.3" r="12.8"/><circle class="st3" cx="275.3" cy="130.5" r="3.8"/></g><g id="Layer_13"><path class="st1" d="M28.8 193.8l5.4-5.4M15.6 207l5.4-5.4M28.8 201.6l5.4 5.4M15.6 188.4l5.4 5.4M331 69.3l5.4-5.4M317.8 82.5l5.4-5.4M331 77.1l5.4 5.4M317.8 63.9l5.4 5.4"/><g><path class="st1" d="M308.5 196.5l5.4-5.4M295.3 209.7l5.4-5.4"/><g><path class="st1" d="M308.5 204.3l5.4 5.4M295.3 191.1l5.4 5.4"/></g></g><circle class="st5" cx="301" cy="92.9" r="7.1"/><circle class="st17" cx="230.9" cy="337" r="5.3"/><circle class="st4" cx="32" cy="288" r="7.1"/><path class="st17" d="M27.5 121.5c0 3.6-2.9 6.6-6.6 6.6-3.6 0-6.6-2.9-6.6-6.6 0-3.6 2.9-6.6 6.6-6.6 3.7 0 6.6 3 6.6 6.6z"/></g></svg>