<svg xmlns="http://www.w3.org/2000/svg" viewBox="0 0 720 550"><style>.st0{fill:#555e5b}.st3{fill:#fff}.st4{fill:none;stroke-width:3}.st4,.st5,.st6{stroke:#555e5b;stroke-miterlimit:10}.st5{stroke-dasharray:2.8864,2.8864;fill:none;stroke-width:3}.st6{fill:#e4e4e4;stroke-width:4}.st7{fill:#fff581}.st8{fill:#f99f1c}.st10,.st11,.st9{fill:none;stroke:#555e5b;stroke-width:4;stroke-miterlimit:10}.st10,.st11{fill:#fff}.st11{fill:#f99f1c}.st12{fill:#6acef5}.st13{fill:#555e5b;stroke:#555e5b;stroke-width:4;stroke-miterlimit:10}.st14{fill:#35a283}</style><g id="Layer_3"><path class="st0" d="M680.2 207.1l-16.1-40-16.1 40 16.1-10.6z"/><path fill="none" stroke="#555e5b" stroke-width="3" stroke-miterlimit="10" stroke-dasharray="3" d="M664.1 263.7V197"/><path fill="#59bde9" d="M612.3 353.5h36.1v36.1h-36.1z"/><path class="st3" d="M592.8 373.3h29v29h-29z"/><path class="st4" d="M621.8 400.8v1.5h-1.5"/><path class="st5" d="M617.4 402.3h-21.6"/><path class="st4" d="M594.3 402.3h-1.5v-1.5"/><path class="st5" d="M592.8 397.9v-21.7"/><path class="st4" d="M592.8 374.8v-1.5h1.5"/><path class="st5" d="M597.2 373.3h21.7"/><path class="st4" d="M620.3 373.3h1.5v1.5"/><path class="st5" d="M621.8 377.7v21.6"/><path class="st6" d="M865.8 540.7H698c-5.5 0-10-4.5-10-10V234.6c0-5.5 4.5-10 10-10h167.8c5.5 0 10 4.5 10 10v296.1c0 5.5-4.5 10-10 10z"/><path class="st7" d="M705.9 262.1h152.5v42.3H705.9z"/><path class="st8" d="M705.9 304.6h152.5v193H705.9z"/><path class="st9" d="M705.9 262.1h152.5v235.6H705.9z"/><path class="st7" d="M738.9 409.1h87v15.6h-87zM738.9 448.7h87v15.6h-87zM738.9 329.7h87v15.6h-87zM738.9 369.4h87V385h-87z"/><path class="st9" d="M707.4 304.3h147.9"/><path class="st4" d="M720.2 276.8h17.5M720.2 282.7h17.5M720.2 288.7h17.5"/><path class="st10" d="M753.2 517.5h58.1"/><circle class="st11" cx="687.9" cy="397.5" r="8.7"/><circle class="st11" cx="687.9" cy="345.1" r="8.7"/><circle class="st11" cx="687.9" cy="292.7" r="8.7"/><circle class="st11" cx="876.5" cy="488.1" r="8.7"/><path class="st12" d="M802.5 294.1h23.4v25.4h-23.4z"/><path class="st9" d="M802.5 319.5h23.4v-23.6"/><path class="st3" d="M608.9 434.4h146.7v63.2H608.9z"/><path class="st7" d="M608.9 434.4h23.4v25.4h-23.4z"/><path class="st9" d="M608.9 459.8h23.4v-23.6"/><g><path class="st9" d="M649.9 451.9H726M649.9 464.3H726M649.9 476.7H726"/></g><path class="st9" d="M608.9 434.4h146.7v63.2H608.9z"/></g><g id="Layer_2"><path class="st0" d="M86.3 416.3h7.3v5.5h-7.3zM99.5 416.3h7.3v5.5h-7.3zM112.7 416.3h7.3v5.5h-7.3zM86.3 444.6h7.3v5.5h-7.3zM99.5 444.6h7.3v5.5h-7.3zM112.7 444.6h7.3v5.5h-7.3z"/><path transform="rotate(90 117.27225 433.22135)" class="st0" d="M113.6 430.5h7.3v5.5h-7.3z"/><path transform="rotate(90 89.05025 433.22135)" class="st0" d="M85.4 430.5h7.3v5.5h-7.3z"/><path class="st0" d="M86.3 470.7h7.3v5.5h-7.3zM99.5 470.7h7.3v5.5h-7.3zM112.7 470.7h7.3v5.5h-7.3zM86.3 498.9h7.3v5.5h-7.3zM99.5 498.9h7.3v5.5h-7.3zM112.7 498.9h7.3v5.5h-7.3z"/><path transform="rotate(90 117.27225 487.60265)" class="st0" d="M113.6 484.8h7.3v5.5h-7.3z"/><path transform="rotate(90 89.0502 487.6027)" class="st0" d="M85.4 484.8h7.3v5.5h-7.3z"/><path class="st7" d="M167.5 387.1h-108c-5.5 0-10-4.5-10-10V266.4c0-5.5 4.5-10 10-10h108c5.5 0 10 4.5 10 10V377c0 5.6-4.5 10.1-10 10.1z"/><path class="st3" d="M49.4 285.1h128v20.5h-128z"/><path class="st9" d="M46.3 285.1h131.2M46.3 306.8h131.2M167.5 387.1h-108c-5.5 0-10-4.5-10-10V266.4c0-5.5 4.5-10 10-10h108c5.5 0 10 4.5 10 10V377c0 5.6-4.5 10.1-10 10.1zM138.8 326.8H68M106.5 343.5H76.9M70.5 343.5H-.4M70.5 355.3H-.4"/><path class="st6" d="M47.3 545.4h-164.9c-5.5 0-10-4.5-10-10V235c0-5.5 4.5-10 10-10H47.3c5.5 0 10 4.5 10 10v300.5c0 5.4-4.5 9.9-10 9.9z"/><path class="st12" d="M17.7 343.5c8.4 0 15.2-6.8 15.2-15.2v-53.1H-88c-8.4 0-15.2 6.8-15.2 15.2v53.1H17.7z"/><path class="st3" d="M-103.2 370.1h36.1v23.5h-36.1z"/><path class="st8" d="M-53.2 370.1h36.1v23.5h-36.1zM-3.3 370.1h36.1v23.5H-3.3z"/><path class="st3" d="M-103.2 406.5h36.1V430h-36.1zM-53.2 406.5h36.1V430h-36.1z"/><path class="st8" d="M-3.3 406.5h36.1V430H-3.3z"/><path class="st3" d="M-103.2 442.8h36.1v23.5h-36.1zM-53.2 442.8h36.1v23.5h-36.1z"/><path class="st8" d="M-3.3 442.8h36.1v23.5H-3.3z"/><path class="st3" d="M-103.2 479.1h36.1v23.5h-36.1z"/><path class="st7" d="M-53.2 479.1h36.1v23.5h-36.1z"/><path class="st8" d="M-3.3 479.1h36.1v23.5H-3.3z"/><path class="st10" d="M19.8 248.3V141.2c0-14.7-11.9-26.5-26.5-26.5h-56.9c-14.7 0-26.5 11.9-26.5 26.5v107.1"/><path class="st9" d="M-63.8 211.2h57.3M-63.8 196.6h57.3M-63.8 182h57.3M-63.8 167.4h57.3"/><path class="st8" d="M-63.8 140.9h57.2v12.2h-57.2z"/><path class="st9" d="M-103.2 249.8H32.9"/></g><g id="Layer_1"><circle class="st8" cx="653.9" cy="111" r="14.5"/><path class="st3" d="M253.4 246v18.1l-16.6 21.1c-25.7-9.6-62.4-29.2-62.4-29.2-10.1-6-11.5-20.6-11.5-20.6V157.7c0-36.3-27.7-37.3-27.7-37.3v16c-6.9-4.8-13.8-5-13.8-5v26.9c-7.8-7.4-17.2-7.8-17.2-7.8V186c-6.9-4.8-13.8-5-13.8-5v110.3c0 40.3 51.9 57.4 78 70 26.2 12.6 26.7 31.2 26.7 31.2v34.7h89.1V213.7c-30.3 0-30.8 32.3-30.8 32.3z"/><path class="st9" d="M105.5 187.1v-36.5s27.7 1 27.7 37.3v56.6"/><path class="st9" d="M121.3 159.3v-27.9s27.7 1 27.7 37.3v60.8"/><path class="st9" d="M135.2 137.2v-16.8s27.7 1 27.7 37.3V235.4s1.4 14.6 11.5 20.6c0 0 36.8 19.6 62.4 29.2l16.6-21.1V246s.5-32.2 30.7-32.2v213.5H195v-34.7s-.5-18.6-26.7-31.2c-26.2-12.6-78-29.7-78-70V181s27.7 1 27.7 37.3v42.5M118 283v-16.2M133.1 270.2v-19.5M149 244.4v-10.6"/><path class="st3" d="M439.1 213.7v213.5h89.1v-34.7s.5-18.6 26.7-31.2c26.2-12.6 78-29.7 78-70V181s-6.9.3-13.8 5v-35.5s-9.4.4-17.2 7.8v-26.9s-6.9.3-13.8 5v-16s-27.7 1-27.7 37.3V235.4S559 250 548.9 256c0 0-36.8 19.6-62.4 29.2l-16.6-21.1V246c-.1 0-.6-32.3-30.8-32.3z"/><path class="st9" d="M617.8 187.1v-36.5s-27.7 1-27.7 37.3v56.6"/><path class="st9" d="M601.9 159.3v-27.9s-27.7 1-27.7 37.3v60.8"/><path class="st9" d="M588 137.2v-16.8s-27.7 1-27.7 37.3V235.4s-1.4 14.6-11.5 20.6c0 0-36.8 19.6-62.4 29.2l-16.6-21.1V246s-.5-32.2-30.7-32.2v213.5h89.1v-34.7s.5-18.6 26.7-31.2c26.2-12.6 78-29.7 78-70V181s-27.7 1-27.7 37.3v42.5M605.2 283v-16.2M590.1 270.2v-19.5M574.2 244.4v-10.6"/><path class="st6" d="M414.9 418.2h141.3v52.9H414.9zM168.9 418.2h141.3v52.9H168.9z"/><path class="st13" d="M149 548.5v-95.7h177.5v95.7M396.8 548.5v-95.7h177.5v95.7"/><circle class="st10" cx="183" cy="490.7" r="14.1"/><circle class="st10" cx="542.1" cy="490.7" r="14.1"/><circle class="st8" cx="236" cy="161.7" r="11.1"/><circle class="st7" cx="485.6" cy="178.1" r="14.9"/><circle class="st14" cx="362" cy="101.2" r="98.3"/><path d="M276.7 101.2c0-47.2 38.2-85.4 85.4-85.4" fill="none" stroke="#fff" stroke-width="4" stroke-miterlimit="10" stroke-dasharray="2"/><path d="M362 15.8c47.2 0 85.4 38.2 85.4 85.4s-38.2 85.4-85.4 85.4-85.4-38.2-85.4-85.4" fill="none" stroke="#fff" stroke-width="4" stroke-miterlimit="10"/><path class="st9" d="M206.9 80.6l8.2-8.2M186.7 100.8l8.2-8.2M206.9 92.6l8.2 8.2M186.7 72.4l8.2 8.2M731 128.8l8.2-8.2M710.9 148.9l8.2-8.2M731 140.7l8.2 8.2M710.9 120.6l8.2 8.2"/><g><path class="st3" d="M405.6 97c-3.5-3-8.2-4.6-14.1-4.7 6.3-5.1 8.2-11.9 5.5-20.4-.9-3.1-2.4-5.6-4.3-7.6s-4.3-3.5-7.1-4.3c-2.8-.9-5.7-1.4-8.8-1.5-3.1-.1-6.5 0-10.4.5l-3.8-18-11 2.3 3.7 17.5c-1.9.4-4.8 1.1-8.7 2L343 44.9l-11 2.3 3.8 18c-1.6.4-3.9.9-6.9 1.5l-15.2 3.1 2.5 11.7 7.9-1.7c3.6-.8 6.1.4 7.4 3.5l4.3 20.5c.5-.1.9-.2 1.2-.2l-1.1.2 6 28.8c.1 2.5-1 4-3.4 4.5l-7.9 1.7.5 13.6 14.3-3c.9-.2 2.2-.5 3.9-.8 1.7-.3 3-.6 3.9-.8l3.8 18.3 11-2.3-3.8-18c2-.4 4.9-1 8.7-1.8l3.8 18 11-2.3-3.8-18.3c3.9-1 7.3-2.1 10.2-3.3 2.9-1.2 5.6-2.6 8.2-4.3 2.5-1.7 4.6-3.6 6.1-5.6 1.5-2.1 2.6-4.5 3.3-7.3.7-2.8.8-6 .4-9.4-.8-6.6-3-11.5-6.5-14.5zm-56-21.6c.3-.1 1.3-.3 2.8-.6 1.5-.4 2.8-.6 3.9-.9 1-.2 2.4-.5 4.2-.7 1.8-.2 3.3-.3 4.5-.4 1.2 0 2.6.1 4.2.4 1.5.2 2.8.7 3.9 1.3 1 .6 2 1.5 2.8 2.5.9 1.1 1.4 2.4 1.8 4 .3 1.3.3 2.6.1 3.8-.2 1.2-.7 2.2-1.4 3.2-.7.9-1.5 1.8-2.2 2.5-.8.7-1.9 1.4-3.2 2.1-1.3.6-2.5 1.1-3.5 1.6-1 .4-2.3.8-3.9 1.2-1.6.4-2.7.7-3.6.9-.8.2-1.9.4-3.3.7-1.4.3-2.2.4-2.5.5l-4.6-22.1zm40.3 42.4c-.2 1.2-.6 2.3-1.2 3.2-.5 1-1.3 1.9-2.4 2.7-1 .9-2.1 1.6-3.1 2.2-1 .6-2.3 1.2-3.8 1.8-1.5.6-2.8 1.1-4 1.5-1.1.4-2.5.8-4.1 1.2-1.6.4-2.9.7-3.8.9-.9.2-2.1.4-3.4.7-1.4.3-2.3.4-2.7.5l-5.1-24.2c.4-.1 1.5-.3 3.4-.8 1.9-.4 3.4-.8 4.6-1s2.9-.5 5-.8c2.1-.3 3.9-.5 5.4-.5 1.5 0 3.1.1 5 .3 1.8.2 3.3.7 4.6 1.3 1.2.6 2.3 1.6 3.3 2.7 1 1.2 1.7 2.6 2 4.4.5 1.5.5 2.7.3 3.9zm0 0"/></g><path class="st10" d="M227.5 257.5h268.6v127.6H227.5z"/><path class="st14" d="M484.1 350.9v-59.3c-10-3.5-18.1-11.3-21.9-21.2h-201c-3.8 9.9-11.8 17.7-21.9 21.2v59.3c10 3.5 18.1 11.3 21.9 21.2h201c3.9-9.9 11.9-17.7 21.9-21.2z"/><circle class="st3" cx="363.6" cy="324.1" r="36.2"/><g><circle class="st3" cx="438.4" cy="324.1" r="12.8"/><circle class="st3" cx="288.8" cy="324.1" r="12.8"/></g><g><path class="st14" d="M382.4 322.2c-1.4-1.2-3.4-1.9-5.8-1.9 2.6-2.1 3.4-4.9 2.3-8.4-.4-1.3-1-2.3-1.8-3.1-.8-.8-1.8-1.4-2.9-1.8-1.1-.4-2.3-.6-3.6-.6-1.3-.1-2.7 0-4.2.2l-1.5-7.4-4.5.9 1.5 7.2c-.8.2-2 .4-3.6.8l-1.5-7.2-4.5.9 1.5 7.4c-.6.2-1.6.4-2.8.6l-6.2 1.3 1 4.8 3.3-.7c1.5-.3 2.5.2 3 1.4l1.8 8.4c.2 0 .4-.1.5-.1l-.5.1 2.5 11.8c.1 1-.4 1.6-1.4 1.9l-3.3.7.2 5.6 5.9-1.2c.4-.1.9-.2 1.6-.3.7-.1 1.2-.2 1.6-.3l1.6 7.5 4.5-.9-1.5-7.4c.8-.2 2-.4 3.6-.7l1.5 7.4 4.5-.9-1.6-7.5c1.6-.4 3-.9 4.2-1.3 1.2-.5 2.3-1.1 3.4-1.8 1-.7 1.9-1.5 2.5-2.3.6-.8 1.1-1.8 1.3-3 .3-1.2.3-2.4.2-3.9-.4-3-1.3-5-2.8-6.2zm-22.9-8.9c.1 0 .5-.1 1.2-.3.6-.1 1.2-.3 1.6-.4.4-.1 1-.2 1.7-.3.7-.1 1.3-.1 1.9-.1.5 0 1.1 0 1.7.1.6.1 1.2.3 1.6.5.4.2.8.6 1.2 1 .3.4.6 1 .7 1.6.1.5.1 1.1.1 1.6-.1.5-.3.9-.6 1.3s-.6.7-.9 1c-.3.3-.8.6-1.3.8-.5.3-1 .5-1.4.6-.4.2-.9.3-1.6.5-.6.2-1.1.3-1.5.4-.3.1-.8.2-1.4.3-.6.1-.9.2-1 .2l-2-8.8zm16.5 17.4c-.1.5-.2.9-.5 1.3-.2.4-.5.8-1 1.1-.4.4-.8.7-1.3.9-.4.3-.9.5-1.5.8-.6.3-1.2.5-1.6.6-.5.1-1 .3-1.7.5s-1.2.3-1.5.4c-.4.1-.8.2-1.4.3-.6.1-.9.2-1.1.2l-2.1-9.9c.2 0 .6-.1 1.4-.3.8-.2 1.4-.3 1.9-.4.5-.1 1.2-.2 2-.3.9-.1 1.6-.2 2.2-.2.6 0 1.3 0 2 .1s1.4.3 1.9.5c.5.3 1 .6 1.4 1.1.4.5.7 1.1.8 1.8.2.5.2 1 .1 1.5zm0 0"/></g></g></svg>