<svg xmlns="http://www.w3.org/2000/svg" viewBox="0 0 1140 350"><style>.st0{fill:#555e5b}.st2{fill:none;stroke:#555e5b;stroke-width:4;stroke-miterlimit:10}.st5{fill:#35a283}.st6{fill:#59bde9}.st7{fill:#fff}.st8,.st9{fill:none;stroke:#555e5b;stroke-width:3;stroke-miterlimit:10}.st9{stroke-dasharray:3.0343,3.0343}.st10{fill:#fff581}.st11{fill:#e4e4e4;stroke:#555e5b;stroke-width:4;stroke-miterlimit:10}.st12{fill:#f99f1c}.st13,.st14{fill:#fff;stroke:#555e5b;stroke-width:4;stroke-miterlimit:10}.st14{fill:#f99f1c}.st15{fill:#6acef5}</style><g id="Layer_3"><path class="st0" d="M770.5 131.8l-10.1-25.1-10.1 25.1 10.1-6.6z"/><path fill="none" stroke="#555e5b" stroke-width="3" stroke-miterlimit="10" stroke-dasharray="3" d="M760.4 167.3v-41.8"/><path class="st2" d="M935.6 319.1v-5.6m0 19.4v-5.7m4.1-4h5.6m-19.4 0h5.6"/><path class="st0" d="M927.2 256.7l-7.4-18.2-7.3 18.2 7.3-4.8z"/><path class="st2" d="M899.1 308h2"/><path fill="none" stroke="#555e5b" stroke-width="4" stroke-miterlimit="10" stroke-dasharray="3.3479,3.3479" d="M904.4 308h11.7"/><path class="st2" d="M917.8 308h2v-2"/><path fill="none" stroke="#555e5b" stroke-width="4" stroke-miterlimit="10" stroke-dasharray="4.1524,4.1524" d="M919.8 301.9v-47.8"/><path class="st2" d="M919.8 252v-2"/><path transform="rotate(-45 942.4840086 185.5140236)" class="st5" d="M934.4 177.4h16.2v16.2h-16.2z"/><path class="st6" d="M727.9 223.6h22.6v22.6h-22.6z"/><path class="st7" d="M715.7 236h18.2v18.2h-18.2z"/><path class="st8" d="M733.9 252.7v1.5h-1.5"/><path class="st9" d="M729.4 254.2h-10.6"/><path class="st8" d="M717.2 254.2h-1.5v-1.5"/><path class="st9" d="M715.7 249.7v-10.6"/><path class="st8" d="M715.7 237.5V236h1.5"/><path class="st9" d="M720.3 236h10.6"/><path class="st8" d="M732.4 236h1.5v1.5"/><path class="st9" d="M733.9 240.6v10.6"/><path class="st7" d="M917.7 132.4h18.2v18.2h-18.2z"/><path class="st8" d="M935.9 149.1v1.5h-1.5"/><path class="st9" d="M931.3 150.6h-10.6"/><path class="st8" d="M919.2 150.6h-1.5v-1.5"/><path class="st9" d="M917.7 146.1v-10.6"/><path class="st8" d="M917.7 133.9v-1.5h1.5"/><path class="st9" d="M922.2 132.4h10.6"/><path class="st8" d="M934.4 132.4h1.5v1.5"/><path class="st9" d="M935.9 137v10.6"/><path class="st10" d="M911.2 145.2h15.6v15.6h-15.6z"/><path class="st11" d="M883.2 341h-97.8c-5.5 0-10-4.5-10-10V152.8c0-5.5 4.5-10 10-10h97.8c5.5 0 10 4.5 10 10V331c0 5.6-4.5 10-10 10z"/><path class="st10" d="M786.7 166.3h95.6v26.5h-95.6z"/><path class="st12" d="M786.7 193h95.6v121h-95.6z"/><path class="st2" d="M786.7 166.3h95.6V314h-95.6z"/><path class="st10" d="M807.4 258.5h54.5v9.8h-54.5zm0 24.9h54.5v9.8h-54.5zm0-74.7h54.5v9.8h-54.5zm0 24.9h54.5v9.8h-54.5z"/><path class="st2" d="M787.6 192.8h92.7"/><path class="st8" d="M795.6 175.5h11m-11 3.7h11m-11 3.8h11"/><path class="st13" d="M816.3 326.5h36.4"/><circle class="st14" cx="775.3" cy="251.2" r="5.5"/><circle class="st14" cx="775.3" cy="218.4" r="5.5"/><circle class="st14" cx="775.3" cy="185.5" r="5.5"/><circle class="st14" cx="893.6" cy="308" r="5.5"/><path class="st7" d="M847.2 186.4h92V226h-92z"/><path class="st15" d="M847.2 186.4h14.7v15.9h-14.7z"/><path class="st2" d="M847.2 202.3h14.7v-14.8M872.9 197.4h47.8m-47.8 7.7h47.8m-47.8 7.8h47.8"/><path class="st2" d="M847.2 186.4h92V226h-92z"/><path class="st7" d="M725.8 274.4h92V314h-92z"/><path class="st10" d="M725.8 274.4h14.7v15.9h-14.7z"/><path class="st2" d="M725.8 290.3h14.7v-14.8M751.5 285.3h47.8m-47.8 7.8h47.8m-47.8 7.8h47.8"/><path class="st2" d="M725.8 274.4h92V314h-92z"/><path class="st6" d="M969.9 260.6h29.9v29.9h-29.9z"/><circle class="st7" cx="968.7" cy="260.6" r="11.7"/><circle cx="968.7" cy="260.6" r="11.7" fill="none" stroke="#555e5b" stroke-width="4" stroke-miterlimit="10" stroke-dasharray="5.2369,5.2369"/></g><g id="Layer_2"><path class="st10" d="M212.2 105.2H245V138h-32.8z"/><path class="st2" d="M150.2 213.2v-7.1m0 24.5v-7.1m5.2-5.1h7.1m-24.6 0h7.1"/><path transform="rotate(-45 177.6163928 267.6532901)" class="st2" d="M173.9 263.9h7.4v7.4h-7.4z"/><path transform="rotate(-45 177.6161119 292.2429065)" class="st2" d="M173.9 288.5h7.4v7.4h-7.4z"/><path transform="rotate(-45 177.6158013 317.170935)" class="st2" d="M173.9 313.5h7.4v7.4h-7.4z"/><path class="st0" d="M216.1 161.9h5.6v5.6h-5.6zm10.1 0h5.6v5.6h-5.6zm10.2 0h5.6v5.6h-5.6zM398.1 263h4.6v3.5h-4.6zm8.3 0h4.6v3.5h-4.6zm8.2 0h4.6v3.5h-4.6zm-16.5 17.7h4.6v3.5h-4.6zm8.3 0h4.6v3.5h-4.6zm8.2 0h4.6v3.5h-4.6z"/><path transform="rotate(90 417.52115 273.61635)" class="st0" d="M415.2 271.9h4.6v3.5h-4.6z"/><path transform="rotate(90 399.82355 273.61635)" class="st0" d="M397.5 271.9h4.6v3.5h-4.6z"/><path class="st0" d="M398.1 297.1h4.6v3.5h-4.6zm8.3 0h4.6v3.5h-4.6zm8.2 0h4.6v3.5h-4.6zm-16.5 17.7h4.6v3.5h-4.6zm8.3 0h4.6v3.5h-4.6zm8.2 0h4.6v3.5h-4.6z"/><path transform="rotate(90 417.52115 307.71795)" class="st0" d="M415.2 306h4.6v3.5h-4.6z"/><path transform="rotate(90 399.8236 307.718)" class="st0" d="M397.5 306h4.6v3.5h-4.6z"/><path class="st10" d="M445.3 244.7H385c-5.5 0-10-4.5-10-10v-61.9c0-5.5 4.5-10 10-10h60.3c5.5 0 10 4.5 10 10v61.9c0 5.5-4.5 10-10 10z"/><path class="st14" d="M271.6 323.6h-60.3c-5.5 0-10-4.5-10-10V200.2c0-5.5 4.5-10 10-10h60.3c5.5 0 10 4.5 10 10v113.4c0 5.5-4.5 10-10 10z"/><path class="st7" d="M375 180.7h80.3v12.8H375zm-162.8 54.7h5.9v22.9h-5.9zm0-28h5.9v22.9h-5.9z"/><path class="st2" d="M373 180.7h82.3M373 194.3h82.3m-10 50.4H385c-5.5 0-10-4.5-10-10v-61.9c0-5.5 4.5-10 10-10h60.3c5.5 0 10 4.5 10 10v61.9c0 5.5-4.5 10-10 10zM431 206.9h-44.4m24.1 10.4h-18.5m-4 0h-44.4m44.4 7.4h-44.4"/><path class="st11" d="M369.9 344H274c-5.5 0-10-4.5-10-10V153c0-5.5 4.5-10 10-10h95.9c5.5 0 10 4.5 10 10v181c0 5.5-4.5 10-10 10z"/><path class="st15" d="M355.1 217.3c5.3 0 9.5-4.3 9.5-9.5v-33.3h-75.8c-5.3 0-9.5 4.3-9.5 9.5v33.3h75.8z"/><path class="st7" d="M279.3 234H302v14.8h-22.7z"/><path class="st12" d="M310.6 234h22.7v14.8h-22.7zm31.3 0h22.7v14.8h-22.7z"/><path class="st7" d="M279.3 256.8H302v14.8h-22.7zm31.3 0h22.7v14.8h-22.7z"/><path class="st12" d="M341.9 256.8h22.7v14.8h-22.7z"/><path class="st7" d="M279.3 279.6H302v14.8h-22.7zm31.3 0h22.7v14.8h-22.7z"/><path class="st12" d="M341.9 279.6h22.7v14.8h-22.7z"/><path class="st7" d="M279.3 302.4H302v14.8h-22.7z"/><path class="st10" d="M310.6 302.4h22.7v14.8h-22.7z"/><path class="st12" d="M341.9 302.4h22.7v14.8h-22.7z"/><path class="st13" d="M356.4 157.7V90.5c0-9.2-7.4-16.6-16.6-16.6h-35.7c-9.2 0-16.6 7.4-16.6 16.6v67.2"/><path class="st2" d="M304 134.4h35.9m-35.9-9.2h35.9m-35.9-9.1h35.9M304 107h35.9"/><path class="st12" d="M304 90.3h35.9v7.6H304z"/><path class="st2" d="M279.3 158.6h85.3"/></g><g id="Layer_1"><circle class="st12" cx="754.1" cy="71.6" r="9.1"/><path class="st7" d="M502.9 156.2v11.4l-10.4 13.3c-16.1-6-39.2-18.3-39.2-18.3-6.3-3.8-7.2-12.9-7.2-12.9V101c0-22.7-17.4-23.4-17.4-23.4v10.1c-4.3-3-8.7-3.2-8.7-3.2v16.9c-4.9-4.6-10.8-4.9-10.8-4.9v22.2c-4.3-3-8.7-3.2-8.7-3.2v69.2c0 25.3 32.5 36 48.9 43.9 16.4 7.9 16.7 19.6 16.7 19.6V270H522V136c-18.8 0-19.1 20.2-19.1 20.2z"/><path class="st2" d="M410.1 119.3V96.4s17.4.6 17.4 23.4v35.5"/><path class="st2" d="M420.1 101.8V84.4s17.4.6 17.4 23.4v38.1"/><path class="st2" d="M428.8 88V77.5s17.4.6 17.4 23.4v48.7s.9 9.2 7.2 12.9c0 0 23.1 12.3 39.2 18.3l10.4-13.3v-11.4s.3-20.2 19.3-20.2v133.9h-55.9V248s-.3-11.7-16.7-19.6c-16.4-7.9-48.9-18.6-48.9-43.9v-69.2s17.4.6 17.4 23.4v26.6m-.2 14.1v-10.1m9.5 2.1v-12.3m9.9-3.9v-6.7"/><path class="st7" d="M619.3 136v133.9h55.9v-21.8s.3-11.7 16.7-19.6c16.4-7.9 48.9-18.6 48.9-43.9v-69.2s-4.3.2-8.7 3.2V96.4s-5.9.2-10.8 4.9V84.4s-4.3.2-8.7 3.2V77.5s-17.4.6-17.4 23.4v48.7s-.9 9.2-7.2 12.9c0 0-23.1 12.3-39.2 18.3l-10.4-13.3v-11.4c.2.1-.1-20.1-19.1-20.1z"/><path class="st2" d="M731.4 119.3V96.4S714 97 714 119.8v35.5"/><path class="st2" d="M721.4 101.8V84.4S704 85 704 107.8v38.1"/><path class="st2" d="M712.7 88V77.5s-17.4.6-17.4 23.4v48.7s-.9 9.2-7.2 12.9c0 0-23.1 12.3-39.2 18.3l-10.4-13.3v-11.4s-.3-20.2-19.3-20.2v133.9h55.9V248s.3-11.7 16.7-19.6 48.9-18.6 48.9-43.9v-69.2s-17.4.6-17.4 23.4v26.6m.2 14.1v-10.1m-9.5 2.1v-12.3m-9.9-3.9v-6.7"/><path class="st11" d="M604.2 264.2h88.6v33.1h-88.6zm-154.3 0h88.6v33.1h-88.6z"/><path d="M437.4 345.9v-60h111.3v60m44.1 0v-60h111.3v60" fill="#555e5b" stroke="#555e5b" stroke-width="4" stroke-miterlimit="10"/><circle class="st13" cx="458.7" cy="309.6" r="8.9"/><circle class="st13" cx="683.9" cy="309.6" r="8.9"/><circle class="st12" cx="492" cy="103.4" r="7"/><circle class="st10" cx="648.5" cy="113.6" r="9.4"/><circle class="st5" cx="571" cy="65.4" r="61.6"/><path d="M517.5 65.4c0-29.6 24-53.5 53.5-53.5" fill="none" stroke="#fff" stroke-width="4" stroke-miterlimit="10" stroke-dasharray="2"/><path d="M571 11.9c29.6 0 53.5 24 53.5 53.5s-24 53.5-53.5 53.5c-29.6 0-53.5-24-53.5-53.5" fill="none" stroke="#fff" stroke-width="4" stroke-miterlimit="10"/><path class="st2" d="M473.7 52.5l5.2-5.1m-17.8 17.8l5.1-5.2m7.5 0l5.2 5.2m-17.8-17.8l5.1 5.1m336.2 30.2l5.1-5.2m-17.8 17.8l5.2-5.1m7.5 0l5.1 5.1m-17.8-17.8l5.2 5.2"/><path class="st7" d="M598.3 62.8c-2.2-1.9-5.1-2.9-8.8-3 4-3.2 5.1-7.5 3.5-12.8-.6-1.9-1.5-3.5-2.7-4.8-1.2-1.3-2.7-2.2-4.4-2.7-1.7-.6-3.6-.9-5.5-1-1.9-.1-4.1 0-6.5.3l-2.4-11.3-6.9 1.4 2.3 11c-1.2.3-3 .7-5.5 1.2L559.1 30l-6.9 1.4 2.4 11.3c-1 .2-2.4.6-4.3 1l-9.5 1.9 1.5 7.4 5-1c2.3-.5 3.8.3 4.6 2.2l2.7 12.9c.3-.1.5-.1.7-.1l-.7.2 3.8 18c.1 1.6-.6 2.5-2.1 2.8l-5 1 .3 8.5 9-1.9c.6-.1 1.4-.3 2.5-.5s1.9-.4 2.4-.5l2.4 11.4 6.9-1.4-2.4-11.3c1.3-.2 3.1-.6 5.5-1.1l2.4 11.3 6.9-1.4-2.4-11.4c2.4-.6 4.6-1.3 6.4-2 1.8-.7 3.5-1.6 5.1-2.7 1.6-1.1 2.9-2.2 3.8-3.5.9-1.3 1.6-2.8 2.1-4.6.4-1.8.5-3.7.3-5.9-.6-4.3-2-7.4-4.2-9.2zm-35.1-13.6c.2 0 .8-.2 1.8-.4s1.8-.4 2.4-.6c.6-.1 1.5-.3 2.6-.4 1.1-.1 2.1-.2 2.8-.2.8 0 1.7.1 2.6.2 1 .2 1.8.4 2.4.8.6.4 1.2.9 1.8 1.6.5.7.9 1.5 1.1 2.5.2.8.2 1.6.1 2.4-.1.7-.4 1.4-.9 2-.4.6-.9 1.1-1.4 1.6-.5.5-1.2.9-2 1.3s-1.6.7-2.2 1c-.6.3-1.4.5-2.4.8-1 .3-1.7.4-2.2.6-.5.1-1.2.3-2.1.4-.9.2-1.4.3-1.6.3l-2.8-13.9zm25.3 26.6c-.1.7-.4 1.4-.7 2-.3.6-.8 1.2-1.5 1.7s-1.3 1-1.9 1.4c-.6.4-1.4.8-2.4 1.1-.9.4-1.8.7-2.5.9-.7.2-1.6.5-2.6.7-1 .3-1.8.4-2.4.6-.6.1-1.3.3-2.2.4-.9.2-1.4.3-1.7.3l-3.2-15.2c.2-.1.9-.2 2.1-.5 1.2-.3 2.1-.5 2.9-.6s1.8-.3 3.1-.5 2.5-.3 3.4-.3c.9 0 2 .1 3.1.2 1.1.2 2.1.4 2.9.8.8.4 1.5 1 2.1 1.7.6.7 1.1 1.7 1.3 2.7.3 1.1.3 1.9.2 2.6zm0 0"/><path class="st13" d="M486.6 163.4H655v80H486.6z"/><path class="st5" d="M647.6 222v-37.2c-6.3-2.2-11.3-7.1-13.7-13.3H507.8c-2.4 6.2-7.4 11.1-13.7 13.3V222c6.3 2.2 11.3 7.1 13.7 13.3h126.1c2.4-6.2 7.4-11.1 13.7-13.3z"/><circle class="st7" cx="572" cy="205.2" r="22.7"/><circle class="st7" cx="618.9" cy="205.2" r="8"/><circle class="st7" cx="525.1" cy="205.2" r="8"/><g><path class="st5" d="M583.8 204c-.9-.8-2.1-1.2-3.6-1.2 1.6-1.3 2.1-3.1 1.4-5.3-.2-.8-.6-1.4-1.1-2-.5-.5-1.1-.9-1.8-1.1-.7-.2-1.5-.4-2.3-.4-.8 0-1.7 0-2.7.1l-1-4.6-2.8.6.9 4.5c-.5.1-1.2.3-2.2.5l-1-4.5-2.8.6 1 4.6c-.4.1-1 .2-1.8.4l-3.9.8.6 3 2-.4c.9-.2 1.6.1 1.9.9l1.1 5.3h.3l-.3.1 1.5 7.4c0 .6-.3 1-.9 1.2l-2 .4.1 3.5 3.7-.8c.2 0 .6-.1 1-.2s.8-.2 1-.2l1 4.7 2.8-.6-1-4.6c.5-.1 1.3-.2 2.2-.5l1 4.6 2.8-.6-1-4.7c1-.3 1.9-.5 2.6-.8.8-.3 1.5-.7 2.1-1.1.7-.4 1.2-.9 1.6-1.5.4-.5.7-1.2.8-1.9.2-.7.2-1.5.1-2.4.2-1.8-.4-3-1.3-3.8zm-14.4-5.6c.1 0 .3-.1.7-.2.4-.1.7-.2 1-.2.3-.1.6-.1 1.1-.2.5-.1.8-.1 1.2-.1.3 0 .7 0 1.1.1.4.1.7.2 1 .3.3.2.5.4.7.7.2.3.4.6.5 1 .1.3.1.7 0 1-.1.3-.2.6-.3.8l-.6.6c-.2.2-.5.4-.8.5-.3.2-.6.3-.9.4-.3.1-.6.2-1 .3-.4.1-.7.2-.9.2-.2.1-.5.1-.9.2s-.6.1-.6.1l-1.3-5.5zm10.4 10.9c-.1.3-.2.6-.3.8-.1.2-.3.5-.6.7-.3.2-.5.4-.8.6-.3.2-.6.3-1 .5s-.7.3-1 .4c-.3.1-.6.2-1.1.3-.4.1-.7.2-1 .2-.2 0-.5.1-.9.2s-.6.1-.7.1l-1.3-6.2c.1 0 .4-.1.9-.2s.9-.2 1.2-.3c.3-.1.7-.1 1.3-.2.5-.1 1-.1 1.4-.1.4 0 .8 0 1.3.1s.9.2 1.2.3c.3.2.6.4.9.7.3.3.4.7.5 1.1v1zm0 0"/></g></g></svg>