<svg xmlns="http://www.w3.org/2000/svg" viewBox="0 0 1140 490"><style>.st0{fill:#fff581}.st1{fill:#fff}.st2{fill:#555e5b}.st3{fill:#35a283}.st4{fill:#f99f1c}.st5{fill:#59bde9}</style><path class="st0" d="M55.9 474.1l-3.6-.3c.1-1.2.2-2.4.4-3.6l3.6.4c-.2 1.1-.3 2.3-.4 3.5zm1043.2-4.5c-.1-1.2-.3-2.4-.4-3.6l3.6-.4c.1 1.2.3 2.4.4 3.6l-3.6.4zM56.6 466.8l-3.6-.4c.1-1.2.3-2.4.5-3.7l3.6.5c-.2 1.2-.3 2.4-.5 3.6zm1041.6-4.4c-.2-1.2-.3-2.4-.5-3.6l3.6-.5c.2 1.2.3 2.4.5 3.6l-3.6.5zM57.6 459.6l-3.6-.5c.2-1.2.3-2.4.5-3.6l3.6.5c-.2 1.2-.4 2.4-.5 3.6zm1039.6-4.4l-.6-3.6 3.6-.6.6 3.6-3.6.6zM58.7 452.4l-3.6-.6.6-3.6 3.6.6-.6 3.6zm1037.3-4.3l-.6-3.6 3.6-.7c.2 1.2.4 2.4.7 3.6l-3.7.7zM59.9 445.2l-3.6-.7c.2-1.2.5-2.4.7-3.6l3.6.7c-.2 1.3-.5 2.4-.7 3.6zm1034.8-4.3c-.2-1.2-.5-2.4-.7-3.5l3.6-.8c.3 1.2.5 2.4.7 3.6l-3.6.7zM61.3 438.1l-3.6-.7c.2-1.2.5-2.4.8-3.6l3.6.8c-.3 1.1-.5 2.3-.8 3.5zm1031.9-4.2c-.3-1.2-.5-2.3-.8-3.5l3.6-.8c.3 1.2.5 2.4.8 3.6l-3.6.7zM62.9 431l-3.6-.8c.3-1.2.6-2.4.8-3.6l3.5.9c-.2 1.1-.4 2.3-.7 3.5zm1028.6-4.2c-.3-1.2-.6-2.3-.9-3.5l3.5-.9c.3 1.2.6 2.4.9 3.5l-3.5.9zM64.6 423.9l-3.5-.9.9-3.6 3.5.9c-.3 1.3-.6 2.5-.9 3.6zm1025.1-4.1c-.3-1.2-.6-2.3-1-3.5l3.5-1c.3 1.2.7 2.4 1 3.5l-3.5 1zM66.5 416.9l-3.5-1c.3-1.2.7-2.4 1-3.5l3.5 1c-.4 1.2-.7 2.4-1 3.5zm1021.3-4.1c-.3-1.2-.7-2.3-1-3.5l3.5-1.1c.4 1.2.7 2.3 1 3.5l-3.5 1.1zM68.5 410l-3.5-1.1c.4-1.2.7-2.3 1.1-3.5l3.5 1.1c-.4 1.2-.8 2.3-1.1 3.5zm1017.2-4.1c-.4-1.2-.7-2.3-1.1-3.5l3.5-1.1c.4 1.2.8 2.3 1.1 3.5l-3.5 1.1zM70.7 403l-3.5-1.1c.4-1.2.8-2.3 1.1-3.5l3.5 1.2c-.4 1.1-.8 2.3-1.1 3.4zm1012.7-4c-.4-1.1-.8-2.3-1.2-3.4l3.4-1.2c.4 1.2.8 2.3 1.2 3.5l-3.4 1.1zM73 396.2l-3.4-1.2c.4-1.2.8-2.3 1.2-3.5l3.4 1.2c-.4 1.2-.8 2.3-1.2 3.5zm1008-4c-.4-1.1-.8-2.3-1.3-3.4l3.4-1.3c.4 1.1.9 2.3 1.3 3.4l-3.4 1.3zM75.4 389.4l-3.4-1.3c.4-1.1.9-2.3 1.3-3.4l3.4 1.3c-.4 1.1-.9 2.2-1.3 3.4zm1003.1-4c-.4-1.1-.9-2.3-1.3-3.4l3.4-1.4c.5 1.1.9 2.3 1.3 3.4l-3.4 1.4zM78 382.6l-3.4-1.3c.4-1.1.9-2.3 1.4-3.4l3.4 1.4c-.5 1.1-.9 2.2-1.4 3.3zm997.8-4c-.5-1.1-.9-2.2-1.4-3.4l3.4-1.4c.5 1.1.9 2.3 1.4 3.4l-3.4 1.4zm-995.1-2.7l-3.4-1.4c.5-1.1 1-2.2 1.4-3.4l3.4 1.5c-.4 1.1-.9 2.2-1.4 3.3zm992.3-4l-1.5-3.3 3.3-1.5c.5 1.1 1 2.2 1.5 3.4l-3.3 1.4zm-989.4-2.6l-3.3-1.5 1.5-3.3 3.3 1.5-1.5 3.3zm986.4-4l-1.5-3.3 3.3-1.6c.5 1.1 1 2.2 1.6 3.3l-3.4 1.6zm-983.4-2.6l-3.3-1.6c.5-1.1 1-2.2 1.6-3.3l3.3 1.6c-.5 1.1-1.1 2.2-1.6 3.3zm980.3-4c-.5-1.1-1.1-2.2-1.6-3.3l3.3-1.6c.5 1.1 1.1 2.2 1.6 3.3l-3.3 1.6zm-977.1-2.6l-3.3-1.6c.5-1.1 1.1-2.2 1.6-3.3l3.3 1.7c-.5 1.1-1.1 2.1-1.6 3.2zm973.9-4c-.5-1.1-1.1-2.2-1.7-3.2l3.2-1.7c.6 1.1 1.1 2.2 1.7 3.3l-3.2 1.6zm-970.6-2.5l-3.2-1.7c.6-1.1 1.1-2.2 1.7-3.3l3.2 1.7c-.6 1.2-1.2 2.3-1.7 3.3zm967.2-3.9c-.6-1.1-1.2-2.1-1.7-3.2l3.2-1.8c.6 1.1 1.2 2.2 1.8 3.2l-3.3 1.8zm-963.8-2.5l-3.2-1.7c.6-1.1 1.2-2.1 1.8-3.2l3.2 1.8c-.7 1-1.3 2.1-1.8 3.1zm960.3-3.9c-.6-1.1-1.2-2.1-1.8-3.2l3.2-1.8c.6 1.1 1.2 2.1 1.8 3.2l-3.2 1.8zM100 336.9l-3.2-1.8c.6-1.1 1.2-2.1 1.8-3.2l3.2 1.8c-.6 1.1-1.2 2.1-1.8 3.2zm953.1-3.9c-.6-1-1.2-2.1-1.9-3.1l3.1-1.9c.6 1.1 1.3 2.1 1.9 3.2l-3.1 1.8zm-949.4-2.4l-3.1-1.9c.6-1.1 1.3-2.1 1.9-3.1l3.1 1.9c-.7 1-1.3 2.1-1.9 3.1zm945.7-3.9c-.6-1-1.3-2.1-1.9-3.1l3.1-1.9c.6 1 1.3 2.1 1.9 3.1l-3.1 1.9zm-942-2.3l-3.1-1.9c.6-1 1.3-2.1 2-3.1l3.1 2c-.7.9-1.3 2-2 3zm938.2-3.8c-.7-1-1.3-2-2-3.1l3.1-2c.7 1 1.3 2.1 2 3.1l-3.1 2zm-934.3-2.3l-3.1-2c.7-1 1.3-2 2-3.1l3 2c-.5 1-1.2 2.1-1.9 3.1zm930.3-3.8c-.7-1-1.3-2-2-3l3-2.1c.7 1 1.4 2 2 3l-3 2.1zm-926.2-2.3l-3-2 2.1-3 3 2.1c-.8.9-1.5 1.9-2.1 2.9zm922.1-3.7l-2.1-3 3-2.1 2.1 3-3 2.1zm-918-2.3l-3-2.1 2.1-3 3 2.1-2.1 3zm913.8-3.7c-.7-1-1.4-2-2.1-2.9l2.9-2.2c.7 1 1.4 2 2.2 3l-3 2.1zm-909.6-2.2l-2.9-2.2c.7-1 1.4-2 2.2-3l2.9 2.2c-.8 1.1-1.5 2-2.2 3zm905.3-3.6c-.7-1-1.5-1.9-2.2-2.9l2.9-2.2c.7 1 1.5 1.9 2.2 2.9l-2.9 2.2zm-900.9-2.2l-2.9-2.2c.7-1 1.5-1.9 2.2-2.9l2.9 2.2c-.8 1-1.5 1.9-2.2 2.9zm896.5-3.6c-.7-1-1.5-1.9-2.2-2.9l2.9-2.3c.8 1 1.5 1.9 2.3 2.9l-3 2.3zm-892.1-2.2l-2.9-2.3c.8-1 1.5-1.9 2.3-2.9l2.8 2.3c-.7 1-1.5 2-2.2 2.9zm887.6-3.5c-.8-.9-1.5-1.9-2.3-2.8l2.8-2.3c.8.9 1.5 1.9 2.3 2.8l-2.8 2.3zM137 283.1l-2.8-2.3c.8-.9 1.5-1.9 2.3-2.8l2.8 2.3c-.7.9-1.5 1.8-2.3 2.8zm878.5-3.5c-.8-.9-1.6-1.9-2.3-2.8l2.8-2.4c.8.9 1.6 1.9 2.4 2.8l-2.9 2.4zm-873.8-2.1l-2.8-2.4c.8-.9 1.6-1.9 2.4-2.8l2.8 2.4c-.8.9-1.6 1.8-2.4 2.8zm869.1-3.5l-2.4-2.7 2.7-2.4c.8.9 1.6 1.8 2.4 2.8l-2.7 2.3zm-864.4-2l-2.7-2.4 2.4-2.7 2.7 2.4c-.8.8-1.6 1.7-2.4 2.7zm859.6-3.5l-2.4-2.7 2.7-2.5c.8.9 1.6 1.8 2.5 2.7l-2.8 2.5zm-854.7-2l-2.7-2.4c.8-.9 1.6-1.8 2.5-2.7l2.7 2.5c-.9.8-1.7 1.7-2.5 2.6zm849.8-3.3c-.8-.9-1.6-1.8-2.5-2.7l2.7-2.5c.8.9 1.7 1.8 2.5 2.7l-2.7 2.5zm-844.9-2l-2.7-2.5c.8-.9 1.7-1.8 2.5-2.7l2.6 2.5-2.4 2.7zm839.9-3.3c-.8-.9-1.7-1.7-2.5-2.6l2.6-2.5c.9.9 1.7 1.8 2.5 2.6l-2.6 2.5zm-834.9-2l-2.6-2.5c.8-.9 1.7-1.8 2.6-2.6l2.6 2.6c-.9.8-1.8 1.6-2.6 2.5zm829.9-3.2l-2.6-2.6 2.6-2.6 2.6 2.6-2.6 2.6zm-824.8-2l-2.6-2.6 2.6-2.6 2.6 2.6c-.9.9-1.7 1.8-2.6 2.6zm819.6-3.2c-.9-.8-1.7-1.7-2.6-2.5l2.5-2.6c.9.8 1.8 1.7 2.6 2.6l-2.5 2.5zm-814.4-1.9L169 243c.9-.8 1.8-1.7 2.6-2.5l2.5 2.6c-.9.8-1.7 1.7-2.6 2.5zm809.2-3.1c-.9-.8-1.8-1.7-2.6-2.5l2.5-2.7c.9.8 1.8 1.7 2.7 2.5l-2.6 2.7zm-804-1.9l-2.5-2.7c.9-.8 1.8-1.7 2.7-2.5l2.5 2.7c-.9.9-1.8 1.7-2.7 2.5zm798.6-3.1l-2.7-2.4 2.4-2.7c.9.8 1.8 1.6 2.7 2.5l-2.4 2.6zm-793.2-1.8l-2.5-2.7c.9-.8 1.8-1.6 2.7-2.5l2.4 2.7c-.8.8-1.7 1.7-2.6 2.5zm787.9-3.1l-2.7-2.4 2.4-2.7 2.7 2.4-2.4 2.7zm-782.5-1.8l-2.4-2.7c.9-.8 1.8-1.6 2.8-2.4l2.4 2.8c-1 .7-1.9 1.5-2.8 2.3zm777-3c-.9-.8-1.8-1.6-2.8-2.4l2.4-2.8c.9.8 1.9 1.6 2.8 2.4l-2.4 2.8zM193 226.1l-2.4-2.8c.9-.8 1.9-1.6 2.8-2.4l2.3 2.8c-.8.8-1.8 1.6-2.7 2.4zm765.9-3c-.9-.8-1.9-1.6-2.8-2.3l2.3-2.8c.9.8 1.9 1.6 2.8 2.3l-2.3 2.8zm-760.3-1.7l-2.3-2.8c.9-.8 1.9-1.6 2.8-2.3l2.3 2.8c-.9.7-1.9 1.5-2.8 2.3zm754.7-2.9c-.9-.8-1.9-1.5-2.8-2.3l2.3-2.9c1 .8 1.9 1.5 2.9 2.3l-2.4 2.9zm-749.1-1.7l-2.3-2.8c1-.8 1.9-1.5 2.9-2.3l2.3 2.9c-1 .7-1.9 1.4-2.9 2.2zm743.4-2.8c-1-.8-1.9-1.5-2.9-2.2l2.2-2.9c1 .7 1.9 1.5 2.9 2.3l-2.2 2.8zm-737.7-1.7l-2.2-2.9c1-.8 1.9-1.5 2.9-2.2l2.2 2.9c-1 .7-1.9 1.4-2.9 2.2zm732-2.8c-1-.7-1.9-1.5-2.9-2.2l2.2-2.9c1 .7 2 1.5 2.9 2.2l-2.2 2.9zm-726.2-1.6l-2.2-2.9c1-.7 2-1.5 2.9-2.2l2.2 2.9c-1 .7-1.9 1.4-2.9 2.2zm720.4-2.8c-1-.7-2-1.4-2.9-2.2l2.1-3c1 .7 2 1.4 3 2.2l-2.2 3zm-714.6-1.6l-2.2-2.9c1-.7 2-1.4 3-2.2l2.1 3c-.9.7-1.9 1.4-2.9 2.1zm708.7-2.6l-3-2.1 2.1-3 3 2.1-2.1 3zm-702.8-1.6l-2.1-3 3-2.1 2.1 3-3 2.1zm696.9-2.6l-3-2.1 2.1-3 3 2.1-2.1 3zm-690.9-1.6l-2.1-3 3-2.1 2.1 3-3 2.1zm684.9-2.6c-1-.7-2-1.4-3-2l2-3c1 .7 2 1.4 3 2l-2 3zM239.4 191l-2-3c1-.7 2-1.4 3.1-2l2 3.1c-1 .6-2.1 1.2-3.1 1.9zm672.8-2.5c-1-.7-2-1.3-3.1-2l2-3.1c1 .7 2 1.3 3.1 2l-2 3.1zM245.5 187l-2-3.1c1-.7 2.1-1.3 3.1-2l2 3.1c-1 .7-2.1 1.4-3.1 2zm660.6-2.4c-1-.7-2.1-1.3-3.1-1.9l1.9-3.1c1 .6 2.1 1.3 3.1 2l-1.9 3zm-654.4-1.5l-1.9-3.1c1-.6 2.1-1.3 3.1-1.9l1.9 3.1c-1.1.6-2.1 1.3-3.1 1.9zm648.2-2.4l-3.1-1.9 1.9-3.1 3.1 1.9-1.9 3.1zm-642.1-1.4l-1.9-3.1c1-.6 2.1-1.3 3.1-1.9l1.9 3.1c-1 .6-2 1.2-3.1 1.9zm635.9-2.4c-1-.6-2.1-1.2-3.1-1.9l1.9-3.1c1.1.6 2.1 1.2 3.1 1.9l-1.9 3.1zm-629.6-1.4l-1.9-3.1c1.1-.6 2.1-1.2 3.2-1.9l1.8 3.2c-1 .6-2.1 1.2-3.1 1.8zm623.3-2.3c-1-.6-2.1-1.2-3.2-1.8l1.8-3.2c1.1.6 2.1 1.2 3.2 1.8l-1.8 3.2zm-617-1.3l-1.8-3.2c1.1-.6 2.1-1.2 3.2-1.8l1.8 3.2c-1.1.6-2.2 1.2-3.2 1.8zm610.7-2.3c-1.1-.6-2.1-1.2-3.2-1.8l1.8-3.2c1.1.6 2.1 1.2 3.2 1.8l-1.8 3.2zm-604.4-1.3l-1.8-3.2c1.1-.6 2.1-1.2 3.2-1.8l1.8 3.2c-1.1.6-2.1 1.2-3.2 1.8zm598-2.2c-1.1-.6-2.1-1.2-3.2-1.7l1.7-3.2c1.1.6 2.1 1.2 3.2 1.7l-1.7 3.2zm-591.6-1.3l-1.7-3.2c1.1-.6 2.2-1.2 3.2-1.7l1.7 3.2c-1.1.6-2.1 1.1-3.2 1.7zm585.2-2.1c-1.1-.6-2.1-1.1-3.2-1.7l1.7-3.2c1.1.6 2.2 1.1 3.2 1.7l-1.7 3.2zm-578.8-1.3l-1.7-3.2c1.1-.6 2.2-1.1 3.3-1.7l1.7 3.3c-1.1.5-2.2 1.1-3.3 1.6zm572.3-2.1c-1.1-.6-2.2-1.1-3.2-1.6l1.6-3.3c1.1.5 2.2 1.1 3.3 1.7l-1.7 3.2zM296 158.1l-1.6-3.3c1.1-.5 2.2-1.1 3.3-1.6l1.6 3.3c-1.1.5-2.2 1.1-3.3 1.6zm559.3-2c-1.1-.5-2.2-1.1-3.3-1.6l1.6-3.3c1.1.5 2.2 1.1 3.3 1.6l-1.6 3.3zm-552.8-1.2l-1.6-3.3c1.1-.5 2.2-1.1 3.3-1.6l1.6 3.3c-1.1.5-2.2 1-3.3 1.6zm546.3-2c-1.1-.5-2.2-1-3.3-1.6l1.6-3.3c1.1.5 2.2 1 3.3 1.6l-1.6 3.3zm-539.7-1.2l-1.6-3.3c1.1-.5 2.2-1 3.3-1.6l1.5 3.3c-1 .6-2.1 1.1-3.2 1.6zm533.1-1.9l-3.3-1.5 1.5-3.3 3.3 1.5-1.5 3.3zm-526.5-1.1l-1.5-3.3 3.3-1.5 1.5 3.3-3.3 1.5zm519.9-1.9l-3.3-1.5 1.5-3.3 3.3 1.5-1.5 3.3zm-513.3-1.1l-1.5-3.3c1.1-.5 2.2-1 3.4-1.5l1.5 3.3c-1.1.5-2.2 1-3.4 1.5zm506.6-1.8c-1.1-.5-2.2-1-3.3-1.4l1.4-3.4c1.1.5 2.2 1 3.4 1.4l-1.5 3.4zM329 142.8l-1.4-3.4c1.1-.5 2.2-1 3.4-1.4l1.4 3.4c-1.1.4-2.3.9-3.4 1.4zm493.2-1.8c-1.1-.5-2.2-.9-3.4-1.4l1.4-3.4c1.1.5 2.3.9 3.4 1.4l-1.4 3.4zm-486.5-1l-1.4-3.4c1.1-.5 2.3-.9 3.4-1.4l1.4 3.4c-1.1.5-2.2.9-3.4 1.4zm479.8-1.7c-1.1-.5-2.3-.9-3.4-1.3l1.3-3.4c1.1.4 2.3.9 3.4 1.4l-1.3 3.3zm-473-1.1l-1.3-3.4c1.1-.4 2.3-.9 3.4-1.3l1.3 3.4c-1.2.5-2.3.9-3.4 1.3zm466.2-1.6c-1.1-.4-2.3-.9-3.4-1.3l1.3-3.4c1.1.4 2.3.9 3.4 1.3l-1.3 3.4zm-459.4-1l-1.3-3.4c1.1-.4 2.3-.9 3.4-1.3l1.3 3.4c-1.2.4-2.3.9-3.4 1.3zm452.6-1.6c-1.1-.4-2.3-.8-3.4-1.3l1.3-3.4c1.1.4 2.3.8 3.4 1.3l-1.3 3.4zm-445.8-1l-1.3-3.4c1.1-.4 2.3-.8 3.4-1.3l1.2 3.4c-1 .5-2.2.9-3.3 1.3zm439-1.5c-1.1-.4-2.3-.8-3.4-1.2l1.2-3.4c1.2.4 2.3.8 3.4 1.2l-1.2 3.4zm-432.2-.9l-1.2-3.4c1.1-.4 2.3-.8 3.5-1.2l1.2 3.4c-1.2.4-2.3.8-3.5 1.2zm425.3-1.5c-1.1-.4-2.3-.8-3.4-1.2l1.2-3.5c1.2.4 2.3.8 3.5 1.2l-1.3 3.5zm-418.4-.9l-1.2-3.5c1.2-.4 2.3-.8 3.5-1.2l1.2 3.5c-1.2.4-2.3.8-3.5 1.2zm411.5-1.5c-1.1-.4-2.3-.8-3.5-1.1l1.1-3.5c1.2.4 2.3.8 3.5 1.1l-1.1 3.5zm-404.6-.8l-1.1-3.5c1.2-.4 2.3-.8 3.5-1.1l1.1 3.5c-1.2.3-2.3.7-3.5 1.1zm397.7-1.4c-1.2-.4-2.3-.7-3.5-1.1l1.1-3.5c1.2.4 2.3.7 3.5 1.1l-1.1 3.5zm-390.8-.9l-1.1-3.5c1.2-.4 2.3-.7 3.5-1.1l1.1 3.5c-1.1.4-2.3.8-3.5 1.1zm383.8-1.3c-1.2-.4-2.3-.7-3.5-1.1l1.1-3.5c1.2.4 2.3.7 3.5 1.1l-1.1 3.5zm-376.8-.8l-1.1-3.5c1.2-.4 2.3-.7 3.5-1l1 3.5c-1.1.3-2.2.6-3.4 1zm369.9-1.3c-1.2-.3-2.3-.7-3.5-1l1-3.5c1.2.3 2.3.7 3.5 1l-1 3.5zm-362.9-.8l-1-3.5c1.2-.3 2.3-.7 3.5-1l1 3.5c-1.2.4-2.4.7-3.5 1zm355.9-1.2c-1.2-.3-2.3-.7-3.5-1l1-3.5c1.2.3 2.4.6 3.5 1l-1 3.5zm-348.9-.7l-1-3.5c1.2-.3 2.4-.6 3.5-1l1 3.5c-1.2.3-2.3.6-3.5 1zm341.9-1.2c-1.2-.3-2.3-.6-3.5-.9l.9-3.5c1.2.3 2.4.6 3.5.9l-.9 3.5zm-334.9-.7l-.9-3.5c1.2-.3 2.4-.6 3.5-.9l.9 3.5c-1.1.2-2.3.6-3.5.9zm327.8-1.2c-1.2-.3-2.4-.6-3.5-.9l.9-3.5 3.6.9-1 3.5zm-320.7-.7l-.9-3.5 3.6-.9.9 3.5c-1.3.4-2.5.7-3.6.9zm313.6-1c-1.2-.3-2.4-.6-3.5-.8l.8-3.6 3.6.9-.9 3.5zm-306.6-.7l-.8-3.6c1.2-.3 2.4-.6 3.6-.8l.8 3.6c-1.2.3-2.4.5-3.6.8zm299.6-1c-1.2-.3-2.4-.5-3.5-.8l.8-3.6c1.2.3 2.4.5 3.6.8l-.9 3.6zm-292.5-.6l-.8-3.6c1.2-.3 2.4-.5 3.6-.8l.8 3.6c-1.2.2-2.4.5-3.6.8zm285.4-1c-1.2-.3-2.4-.5-3.6-.8l.8-3.6c1.2.3 2.4.5 3.6.8l-.8 3.6zm-278.3-.6l-.8-3.6c1.2-.3 2.4-.5 3.6-.8l.7 3.6c-1.1.3-2.3.5-3.5.8zm271.1-.9c-1.2-.2-2.4-.5-3.6-.7l.7-3.6c1.2.2 2.4.5 3.6.7l-.7 3.6zm-263.9-.6l-.7-3.6c1.2-.2 2.4-.5 3.6-.7l.7 3.6c-1.3.2-2.4.5-3.6.7zm256.8-.9c-1.2-.2-2.4-.5-3.6-.7l.7-3.6c1.2.2 2.4.5 3.6.7l-.7 3.6zm-249.7-.5l-.7-3.6c1.2-.2 2.4-.5 3.6-.7l.7 3.6c-1.2.3-2.4.5-3.6.7zm242.5-.8l-3.6-.6.6-3.6c1.2.2 2.4.4 3.6.7l-.6 3.5zm-235.3-.5l-.6-3.6 3.6-.6.6 3.6-3.6.6zm228.2-.8l-3.6-.6.6-3.6 3.6.6-.6 3.6zm-221.1-.5l-.6-3.6 3.6-.6.6 3.6c-1.2.3-2.4.5-3.6.6zm213.9-.7l-3.6-.6.6-3.6 3.6.6-.6 3.6zm-206.7-.4l-.6-3.6 3.6-.6.5 3.6c-1.1.2-2.3.4-3.5.6zm199.5-.7c-1.2-.2-2.4-.4-3.6-.5l.5-3.6c1.2.2 2.4.3 3.6.5l-.5 3.6zm-192.3-.4l-.5-3.6c1.2-.2 2.4-.3 3.6-.5l.5 3.6c-1.2.2-2.4.3-3.6.5zm185.1-.6c-1.2-.2-2.4-.3-3.6-.5l.5-3.6c1.2.2 2.4.3 3.6.5l-.5 3.6zm-177.9-.4l-.5-3.6c1.2-.2 2.4-.3 3.6-.5l.5 3.6c-1.1.2-2.3.4-3.6.5zm170.7-.6c-1.2-.2-2.4-.3-3.6-.4l.4-3.6c1.2.1 2.4.3 3.6.4l-.4 3.6zm-163.4-.3l-.4-3.6c1.2-.1 2.4-.3 3.6-.4l.4 3.6c-1.2.1-2.4.3-3.6.4zm156.1-.5c-1.2-.1-2.4-.3-3.6-.4l.4-3.6c1.2.1 2.4.3 3.6.4l-.4 3.6zm-148.9-.3l-.4-3.6c1.2-.1 2.4-.3 3.6-.4l.4 3.6c-1.2.1-2.4.2-3.6.4zm141.7-.5c-1.2-.1-2.4-.2-3.6-.4l.4-3.6c1.2.1 2.4.2 3.6.4l-.4 3.6zm-134.4-.3l-.4-3.6c1.2-.1 2.4-.2 3.6-.4l.3 3.6c-1.1.2-2.3.3-3.5.4zm127.1-.4l-3.6-.3.3-3.6 3.6.3-.3 3.6zm-119.9-.3l-.3-3.6 3.6-.3.3 3.6-3.6.3zm112.7-.4l-3.6-.3.3-3.6c1.2.1 2.4.2 3.7.3l-.4 3.6zm-105.4-.2l-.3-3.6 3.6-.3.3 3.6-3.6.3zm98.1-.3c-1.2-.1-2.4-.2-3.6-.2l.2-3.6c1.2.1 2.4.2 3.7.2l-.3 3.6zm-90.9-.2l-.2-3.6c1.2-.1 2.4-.2 3.7-.2l.2 3.6c-1.3.1-2.5.1-3.7.2zm83.7-.3c-1.2-.1-2.4-.1-3.6-.2l.2-3.6c1.2.1 2.4.1 3.7.2l-.3 3.6zm-76.4-.1l-.2-3.6c1.2-.1 2.4-.1 3.7-.2l.2 3.6c-1.3 0-2.5.1-3.7.2zm69.1-.3c-1.2-.1-2.4-.1-3.6-.2l.2-3.6c1.2.1 2.4.1 3.7.2l-.3 3.6zm-61.8-.1l-.2-3.6c1.2-.1 2.4-.1 3.7-.2l.1 3.6c-1.2.1-2.4.2-3.6.2zm54.5-.2c-1.2 0-2.4-.1-3.6-.1l.1-3.6c1.2 0 2.4.1 3.7.1l-.2 3.6zm-47.3-.1l-.1-3.6c1.2 0 2.4-.1 3.6-.1l.1 3.6c-1.1.1-2.4.1-3.6.1zm40-.1c-1.2 0-2.4-.1-3.6-.1l.1-3.7c1.2 0 2.4.1 3.7.1l-.2 3.7zm-32.7-.1l-.1-3.7c1.2 0 2.4-.1 3.7-.1l.1 3.7c-1.3.1-2.5.1-3.7.1zm25.5 0h-3.6v-3.7h3.7l-.1 3.7zm-18.2-.1v-3.7h3.7v3.7H570zm10.9 0h-3.6v-3.7h3.7l-.1 3.7z" id="Atmos_Line"/><g id="Layer_1"><path class="st0" d="M417.4 369.6l-2.6-2.6 2.6-2.6 2.6 2.6-2.6 2.6zm5.2-5.1l-2.6-2.6 2.6-2.6 2.6 2.6-2.6 2.6zm5.2-5.2l-2.6-2.6 2.6-2.6 2.6 2.6-2.6 2.6zm5.1-5.2l-2.6-2.6 2.6-2.6 2.6 2.6-2.6 2.6zm5.2-5.1l-2.6-2.6 2.6-2.6 2.6 2.6-2.6 2.6zm5.1-5.2l-2.6-2.6 2.6-2.6 2.6 2.6-2.6 2.6zm5.2-5.1l-2.6-2.6 2.6-2.6 2.6 2.6-2.6 2.6zm5.2-5.2l-2.6-2.6 2.6-2.6 2.6 2.6-2.6 2.6zm5.1-5.2l-2.6-2.6 2.6-2.6 2.6 2.6-2.6 2.6zm5.2-5.1l-2.6-2.6 2.6-2.6 2.6 2.6-2.6 2.6zm5.2-5.2l-2.6-2.6 2.6-2.6 2.6 2.6-2.6 2.6zm5.1-5.2l-2.6-2.6 2.6-2.6 2.6 2.6-2.6 2.6zm5.2-5.1l-2.6-2.6 2.6-2.6 2.6 2.6-2.6 2.6zm5.1-5.2l-2.6-2.6 2.6-2.6 2.6 2.6-2.6 2.6zm5.2-5.2l-2.6-2.6 2.6-2.6 2.6 2.6-2.6 2.6zm5.2-5.1l-2.6-2.6 2.6-2.6 2.6 2.6-2.6 2.6zm5.1-5.2l-2.6-2.6 2.6-2.6 2.6 2.6-2.6 2.6zm5.2-5.1l-2.6-2.6 2.6-2.6 2.6 2.6-2.6 2.6zm5.2-5.2l-2.6-2.6 2.6-2.6 2.6 2.6-2.6 2.6zm5.1-5.2l-2.6-2.6 2.6-2.6 2.6 2.6-2.6 2.6zm5.2-5.1l-2.6-2.6 2.6-2.6 2.6 2.6-2.6 2.6zm5.2-5.2l-2.6-2.6 2.6-2.6 2.6 2.6-2.6 2.6zm5.1-5.2l-2.6-2.6 2.6-2.6 2.6 2.6-2.6 2.6zm5.2-5.1l-2.6-2.6 2.6-2.6 2.6 2.6-2.6 2.6zm5.1-5.2l-2.6-2.6 2.6-2.6 2.6 2.6-2.6 2.6zm5.2-5.2l-2.6-2.6 2.6-2.6 2.6 2.6-2.6 2.6zm16.6 40.6c-4 0-7.3-3.3-7.3-7.3s3.3-7.3 7.3-7.3 7.3 3.3 7.3 7.3-3.3 7.3-7.3 7.3zm0-11c-2 0-3.7 1.6-3.7 3.7 0 2 1.6 3.7 3.7 3.7s3.7-1.6 3.7-3.7c0-2-1.7-3.7-3.7-3.7zm63-49.2c-4 0-7.3-3.3-7.3-7.3s3.3-7.3 7.3-7.3 7.3 3.3 7.3 7.3-3.3 7.3-7.3 7.3zm0-11c-2 0-3.7 1.6-3.7 3.7 0 2 1.6 3.7 3.7 3.7s3.7-1.6 3.7-3.7c-.1-2.1-1.7-3.7-3.7-3.7zM234.5 251c-4 0-7.3-3.3-7.3-7.3s3.3-7.3 7.3-7.3 7.3 3.3 7.3 7.3-3.3 7.3-7.3 7.3zm0-11c-2 0-3.7 1.6-3.7 3.7s1.6 3.7 3.7 3.7c2 0 3.7-1.6 3.7-3.7s-1.7-3.7-3.7-3.7zm272-43.8c-5.5 0-10-4.5-10-10s4.5-10 10-10 10 4.5 10 10c.1 5.5-4.4 10-10 10zm0-16.4c-3.5 0-6.4 2.9-6.4 6.4 0 3.5 2.9 6.4 6.4 6.4s6.4-2.9 6.4-6.4c0-3.6-2.9-6.4-6.4-6.4z"/><path class="st1" d="M47.6 370.3c8-8.6 20-12.3 31.5-9.7 5.7 1.3 10.9 4.1 15.1 8l-22.4 24.2-24.2-22.5z"/><path class="st2" d="M71.8 394.5c-.4 0-.9-.2-1.2-.5l-24.2-22.4c-.4-.3-.6-.8-.6-1.3s.2-1 .5-1.3c8.4-9.1 21.1-13 33.2-10.3 5.9 1.4 11.4 4.3 15.9 8.4.4.3.6.8.6 1.3s-.2 1-.5 1.3L73.1 394c-.3.3-.8.5-1.3.5zm-21.6-24.2l21.5 19.9 19.9-21.5c-3.7-3.1-8.1-5.2-12.9-6.3-10.2-2.3-21 .7-28.5 7.9z"/><path class="st0" d="M94.2 368.5c4.2 3.9 7.3 8.8 9.1 14.4 2.3 7.5 1.9 15.5-1.1 22.5l-30.4-12.8 22.4-24.1z"/><path class="st2" d="M103.1 407.9l-34.5-14.5L94.1 366l1.3 1.2c4.5 4.1 7.8 9.4 9.6 15.2 2.4 7.8 2 16.2-1.2 23.8l-.7 1.7zM74.9 392l26.2 11c2.2-6.3 2.4-13.2.4-19.6-1.4-4.6-3.9-8.9-7.3-12.4l-19.3 21z"/><path class="st3" d="M102.2 405.5c-1.5 3.5-3.5 6.8-6.2 9.6-8 8.6-20 12.3-31.5 9.7s-20.7-11.1-24.2-22.4c-3.5-11.2-.7-23.5 7.3-32.1l24.2 22.4 30.4 12.8z"/><path class="st2" d="M71.7 427.5c-2.6 0-5.1-.3-7.7-.9-12-2.7-21.8-11.8-25.4-23.6-3.7-11.8-.7-24.8 7.7-33.9l1.2-1.3 25.3 23.4 31.8 13.3-.7 1.7c-1.6 3.7-3.8 7.2-6.5 10.1-6.7 7.2-16.1 11.2-25.7 11.2zM47.8 373c-6.6 8-8.8 19-5.7 29 3.3 10.6 12 18.7 22.8 21.1 10.8 2.5 22.2-1.1 29.7-9.2 2.1-2.2 3.8-4.7 5.1-7.4l-28.9-12.2-23-21.3z"/><path class="st0" d="M418.9 136.4c-14 0-25.5-11.4-25.5-25.5 0-14 11.4-25.5 25.5-25.5 14 0 25.5 11.4 25.5 25.5-.1 14.1-11.5 25.5-25.5 25.5z"/><path class="st2" d="M418.9 138.3c-15 0-27.3-12.2-27.3-27.3 0-15 12.2-27.3 27.3-27.3 15 0 27.3 12.2 27.3 27.3-.1 15-12.3 27.3-27.3 27.3zm0-50.9c-13 0-23.6 10.6-23.6 23.6s10.6 23.6 23.6 23.6c13 0 23.6-10.6 23.6-23.6s-10.6-23.6-23.6-23.6z"/><path class="st0" d="M698.5 129.7c-14 0-25.5-11.4-25.5-25.5 0-14 11.4-25.5 25.5-25.5 14 0 25.5 11.4 25.5 25.5-.1 14.1-11.5 25.5-25.5 25.5z"/><path class="st2" d="M698.5 131.5c-15 0-27.3-12.2-27.3-27.3 0-15 12.2-27.3 27.3-27.3 15 0 27.3 12.2 27.3 27.3-.1 15.1-12.3 27.3-27.3 27.3zm0-50.9c-13 0-23.6 10.6-23.6 23.6s10.6 23.6 23.6 23.6c13 0 23.6-10.6 23.6-23.6s-10.6-23.6-23.6-23.6z"/><path class="st1" d="M289.2 130.8L256 150.7v25.7l38.4-23.9z"/><path class="st2" d="M254.1 179.7v-30.1l36.3-21.6 6 25.4-42.3 26.3zm3.7-28v21.5l34.5-21.5-4.3-18-30.2 18z"/><path class="st1" d="M248.3 155.1v26.8l9.1 5.9 12.6-3.1v-42.4z"/><path class="st2" d="M257 189.8l-10.6-6.9v-28.8l25.4-15v47l-14.8 3.7zm-6.9-8.9l7.6 5 10.5-2.6v-37.8l-18.1 10.7v24.7z"/><path class="st1" d="M323.6 130.8l33.3 19.9v25.7l-38.4-23.9z"/><path class="st2" d="M358.7 179.7l-42.3-26.3 6-25.4 36.3 21.6v30.1zm-38.1-28l34.5 21.5v-21.5l-30.2-18-4.3 18z"/><path class="st1" d="M364.6 155.1v26.8l-9.1 5.9-12.6-3.1v-42.4z"/><path class="st2" d="M355.8 189.8l-14.8-3.7v-47l25.4 15v28.8l-10.6 6.9zm-11.1-6.6l10.5 2.6 7.6-5v-24.7l-18.1-10.7v37.8z"/><path class="st1" d="M328.5 166.3c-2.6-33.9-7.2-55.3-19-82.4-.5-1.2-1.5-2.2-2.8-2.2-1.3 0-2.3 1-2.8 2.2-11.8 27.2-16.4 48.6-19 82.4"/><path class="st2" d="M326.7 166.5c-2.7-35-7.4-55.6-18.8-81.9-.2-.4-.6-1.1-1.1-1.1-.6 0-1 .7-1.1 1.1-11.4 26.2-16.2 46.9-18.8 81.9l-3.6-.3c2.7-35.5 7.5-56.4 19.1-83 .9-2.1 2.6-3.3 4.5-3.3s3.6 1.2 4.5 3.3c11.6 26.6 16.4 47.6 19.1 83l-3.8.3z"/><path class="st1" d="M306.7 171.5c-12 0-21.8-2.3-21.8-5.2 0-2.9 9.8-5.2 21.8-5.2s21.8 2.3 21.8 5.2c0 2.9-9.8 5.2-21.8 5.2z"/><path class="st2" d="M306.7 173.4c-2.4 0-23.6-.2-23.6-7s21.2-7 23.6-7c2.4 0 23.6.2 23.6 7s-21.2 7-23.6 7zm-19.9-7.1c1.3 1.3 8.5 3.4 19.9 3.4 11.4 0 18.6-2.1 19.9-3.4-1.3-1.3-8.5-3.4-19.9-3.4-11.4.1-18.6 2.1-19.9 3.4z"/><path class="st0" d="M306.7 168.6c-8.6 0-14.6-1.2-17.4-2.2 2.8-1 8.8-2.2 17.4-2.2 8.6 0 14.6 1.2 17.4 2.2-2.8 1-8.8 2.2-17.4 2.2z"/><path class="st3" d="M306.7 219.2c-9.5-19.7-21.9-54.1 0-54.1 24.1 0 7.3 39 0 54.1z"/><path class="st1" d="M306.7 203.3c-6.6-17-6.8-26.8-4.7-30.1.3-.5 1.1-1.8 4.7-1.8 3.9 0 4.7 1.3 5 1.9 2.1 3.4 1.8 13-5 30z"/><path class="st3" d="M314.1 123.2c0 4.2-3.4 7.6-7.6 7.6-4.2 0-7.6-3.4-7.6-7.6 0-4.2 3.4-7.6 7.6-7.6 4.1 0 7.6 3.4 7.6 7.6zm-60.5 259.3l-3.6-.5.6-3.6 3.6.6-.6 3.5zm1.1-7.2l-3.6-.6.6-3.6 3.6.6-.6 3.6zm1.2-7.2l-3.6-.6.6-3.6 3.6.6-.6 3.6zm1.1-7.2l-3.6-.6.6-3.6 3.6.6-.6 3.6zm1.1-7.2l-3.6-.6.6-3.6 3.6.6-.6 3.6zm1.2-7.2l-3.6-.6.6-3.6 3.6.6-.6 3.6zm1.1-7.3l-3.6-.6.6-3.6 3.6.6-.6 3.6zm1.1-7.2l-3.6-.6.6-3.6 3.6.6-.6 3.6zm1.2-7.2l-3.6-.6.6-3.6 3.6.6-.6 3.6zm1.1-7.2l-3.6-.6.6-3.6 3.6.6-.6 3.6zm1.1-7.2l-3.6-.6.6-3.6 3.6.6-.6 3.6zm1.1-7.2l-3.6-.6.6-3.6 3.6.6-.6 3.6zm1.2-7.2l-3.6-.6.6-3.6 3.6.6-.6 3.6zm1.1-7.3l-3.6-.6.6-3.6 3.6.6-.6 3.6zm1.1-7.2l-3.6-.6.6-3.6 3.6.6-.6 3.6zm1.2-7.2l-3.6-.6.6-3.6 3.6.6-.6 3.6zm1.1-7.2l-3.6-.6.6-3.6 3.6.6-.6 3.6zm1.1-7.2l-3.6-.6.6-3.6 3.6.6-.6 3.6zm1.2-7.2l-3.6-.6.6-3.6 3.6.6-.6 3.6zm1.1-7.2l-3.6-.6.6-3.6 3.6.6-.6 3.6zm1.1-7.3l-3.6-.6.6-3.6 3.6.6-.6 3.6zm1.2-7.2l-3.6-.6.6-3.6 3.6.6-.6 3.6zm1.1-7.2l-3.6-.6.6-3.6 3.6.6-.6 3.6zm1.1-7.2l-3.6-.6.6-3.6 3.6.6-.6 3.6zm1.2-7.2l-3.6-.6.6-3.6 3.6.6-.6 3.6zm1.1-7.2l-3.6-.6.6-3.6 3.6.6-.6 3.6zm1.1-7.2l-3.6-.6.6-3.6 3.6.6-.6 3.6zm1.1-7.3l-3.6-.6.6-3.6 3.6.6-.6 3.6zm1.2-7.2l-3.6-.6.6-3.6 3.6.6-.6 3.6zm77.1 228.8l-.2-1.1 3.6-.5.2 1.1-3.6.5zm-.7-4.7l-.5-3.6 3.6-.5.5 3.6-3.6.5zm-1-7.2l-.5-3.6 3.6-.5.5 3.6-3.6.5zm-1-7.3l-.5-3.6 3.6-.5.5 3.6-3.6.5zm-1.1-7.2l-.5-3.6 3.6-.5.5 3.6-3.6.5zm-1-7.2l-.5-3.6 3.6-.5.5 3.6-3.6.5zm-1.1-7.3l-.5-3.6 3.6-.5.5 3.6-3.6.5zm-1-7.2l-.5-3.6 3.6-.5.5 3.6-3.6.5zm-1-7.2l-.5-3.6 3.6-.5.5 3.6-3.6.5zm-1.1-7.2l-.5-3.6 3.6-.5.5 3.6-3.6.5zm-1-7.3l-.5-3.6 3.6-.5.5 3.6-3.6.5zm-1-7.2l-.5-3.6 3.6-.5.5 3.6-3.6.5zm-1.1-7.2l-.5-3.6 3.6-.5.5 3.6-3.6.5zm-1-7.3l-.5-3.6 3.6-.5.5 3.6-3.6.5zm-1.1-7.2l-.5-3.6 3.6-.5.5 3.6-3.6.5zm-1-7.2l-.5-3.6 3.6-.5.5 3.6-3.6.5zm-1-7.2l-.5-3.6 3.6-.5.5 3.6-3.6.5zm-1.1-7.3l-.5-3.6 3.6-.5.5 3.6-3.6.5zm-1-7.2l-.5-3.6 3.6-.5.5 3.6-3.6.5zm-1-7.2l-.5-3.6 3.6-.5.5 3.6-3.6.5zm-1.1-7.2l-.5-3.6 3.6-.5.5 3.6-3.6.5zm-1-7.3l-.5-3.6 3.6-.5.5 3.6-3.6.5zm-1.1-7.2l-.5-3.6 3.6-.5.5 3.6-3.6.5zm-1-7.2l-.5-3.6 3.6-.5.5 3.6-3.6.5zm-1-7.3l-.5-3.6 3.6-.5.5 3.6-3.6.5zm-1.1-7.2l-.5-3.6 3.6-.5.5 3.6-3.6.5zm-1-7.2l-.5-3.6 3.6-.5.5 3.6-3.6.5zm-1.1-7.2l-.5-3.6 3.6-.5.5 3.6-3.6.5zm-1-7.3l-.5-3.6 3.6-.5.5 3.6-3.6.5zm-1-7.2l-.5-3.6 3.6-.5.5 3.6-3.6.5zm-1.1-7.2l-.5-3.6 3.6-.5.5 3.6-3.6.5zm-1-7.3l-.5-3.6 3.6-.5.5 3.6-3.6.5zm-1-7.2l-.5-3.6 3.6-.5.5 3.6-3.6.5z"/><path class="st0" d="M328.8 341l-.5-3.6 3.6-.5.5 3.6-3.6.5zm-1.1-7.2l-.5-3.6 3.6-.5.5 3.6-3.6.5zm-1.1-7.2l-.5-3.6 3.6-.5.5 3.6-3.6.5zm-1-7.3l-.5-3.6 3.6-.5.5 3.6-3.6.5zm-1.1-7.2l-.5-3.6 3.6-.5.5 3.6-3.6.5zm-1.1-7.2l-.5-3.6 3.6-.5.5 3.6-3.6.5zm-1.1-7.2l-.5-3.6 3.6-.5.5 3.6-3.6.5zm-1-7.2l-.5-3.6 3.6-.5.5 3.6-3.6.5zm-1.1-7.3l-.5-3.6 3.6-.5.5 3.6-3.6.5zm-1.1-7.2l-.5-3.6 3.6-.5.5 3.6-3.6.5zm-1-7.2l-.5-3.6 3.6-.5.5 3.6-3.6.5zm-1.1-7.2l-.5-3.6 3.6-.5.5 3.6-3.6.5zm-1.1-7.3l-.5-3.6 3.6-.5.5 3.6-3.6.5zm-31.5 88l-3.6-.5.5-3.6 3.6.5-.5 3.6zm1.1-7.3l-3.6-.5.5-3.6 3.6.5-.5 3.6zm1.1-7.2l-3.6-.5.5-3.6 3.6.5-.5 3.6zm1.1-7.2l-3.6-.5.5-3.6 3.6.5-.5 3.6zm1-7.2l-3.6-.5.5-3.6 3.6.5-.5 3.6zm1.1-7.3l-3.6-.5.5-3.6 3.6.5-.5 3.6zm1.1-7.2l-3.6-.5.5-3.6 3.6.5-.5 3.6zm1.1-7.2l-3.6-.5.5-3.6 3.6.5-.5 3.6zm1-7.2l-3.6-.5.5-3.6 3.6.5-.5 3.6zm1.1-7.2l-3.6-.5.5-3.6 3.6.5-.5 3.6zm1.1-7.3l-3.6-.5.5-3.6 3.6.5-.5 3.6zm1.1-7.2l-3.6-.5.5-3.6 3.6.5-.5 3.6zm1-7.2l-3.6-.5.5-3.6 3.6.5-.5 3.6z"/><path class="st1" d="M592.1 181.9l-15.9 17.4c-.2-.1-32.2-12-32.2-12l-4 4.7 25.6 18.8-15.5 16.9-15-.9-1.6 2.2 10.8 5.2c-2.3 3 .8 7 4.3 5.8l5.2 11 2.2-1.6-.8-15.1c17-15.6 9.4-8.6 16.5-15.1l19 25.8 4.7-4-12.1-32.5c.5-.5 18.6-17 19-17.6 2.3-2.6 5.2-9.4 2.7-11.9l-.2-.2-.2-.2c-2.8-2.5-9.9.6-12.5 3.3z"/><path class="st2" d="M553 253.7l-5.5-11.7c-1.8.1-3.6-.7-4.7-2.2-1.1-1.4-1.4-3.1-.9-4.7l-11.1-5.4 3.5-4.7 15.1.9 13.6-14.8-25.5-18.8 6.1-7.2 1.2.5s25.3 9.5 31 11.6l15.1-16.5c2.1-2.2 6.8-4.7 10.6-4.7 1.8 0 3.3.5 4.4 1.5l.4.4c3.5 3.5.2 11.2-2.6 14.4-.2.2-.5.5-18.2 16.8l-.1.1c2.1 5.7 11.6 31.1 11.7 31.3l.5 1.2-7.2 6.1-18.9-25.8-14.5 13 .8 15.2-4.8 3.5zm-3.6-16.1l4.5 9.5-.7-13.7 18.6-17.1 19 25.9 2.3-1.9c-1-2.5-3.7-9.9-11.7-31.3l-.4-1 1.9-1.8c14.2-13 17.6-16.2 17.9-16.5 2.2-2.5 4.1-8 2.7-9.3l-.4-.4c-.4-.4-1.2-.5-1.7-.5-2.7 0-6.4 1.9-8 3.6l-16.8 18.3-1.1-.4c-.2-.1-25.1-9.4-31-11.6l-1.9 2.3 25.7 18.9-17.5 19.1-13.6-.8 9.8 4.8-1.3 1.8c-.8 1.1-.2 2 0 2.3.2.3.9 1.1 2.2.6l1.5-.8z"/><path class="st3" d="M871.9 418.9H725.5c-1.8 0-3.2-1.4-3.2-3.2v-73.4c0-1.8 1.4-3.2 3.2-3.2h146.4c1.8 0 3.2 1.4 3.2 3.2v73.4c0 1.8-1.5 3.2-3.2 3.2z"/><path class="st2" d="M869.3 420.7H728.1c-4.2 0-7.6-3.4-7.6-7.6V345c0-4.2 3.4-7.6 7.6-7.6h141.2c4.2 0 7.6 3.4 7.6 7.6v68.1c0 4.2-3.4 7.6-7.6 7.6zM728.1 341c-2.2 0-4 1.8-4 4v68.1c0 2.2 1.8 4 4 4h141.2c2.2 0 4-1.8 4-4V345c0-2.2-1.8-4-4-4H728.1z"/><path class="st1" d="M722.3 359h152.8v13.3H722.3z"/><path class="st2" d="M876.9 374.1H720.5v-16.9h156.4v16.9zm-152.8-3.7h149.1v-9.6H724.1v9.6z"/><path class="st1" d="M789.1 385.2h47.3"/><path class="st2" d="M789.1 383.4h47.3v3.7h-47.3z"/><path class="st1" d="M732.1 385.2h50.7"/><path class="st2" d="M732.1 383.4h50.7v3.7h-50.7z"/><path class="st1" d="M732.1 396.6h35.8"/><path class="st2" d="M732.1 394.8h35.8v3.7h-35.8z"/><path class="st1" d="M772 396.6h19.6"/><path class="st2" d="M772 394.8h19.6v3.7H772z"/><path class="st1" d="M732.1 404.3h35.8"/><path class="st2" d="M732.1 402.5h35.8v3.7h-35.8z"/><path class="st1" d="M772 404.3h19.6"/><path class="st2" d="M772 402.5h19.6v3.7H772z"/><path class="st1" d="M795.6 396.6h19.5"/><path class="st2" d="M795.6 394.8h19.6v3.7h-19.6z"/><path class="st1" d="M838.3 473.1H691.9c-1.8 0-3.2-1.4-3.2-3.2v-73.4c0-1.8 1.4-3.2 3.2-3.2h146.4c1.8 0 3.2 1.4 3.2 3.2v73.4c0 1.7-1.5 3.2-3.2 3.2z"/><path class="st2" d="M835.7 474.9H694.5c-4.2 0-7.6-3.4-7.6-7.6v-68.1c0-4.2 3.4-7.6 7.6-7.6h141.2c4.2 0 7.6 3.4 7.6 7.6v68.1c0 4.2-3.4 7.6-7.6 7.6zm-141.2-79.7c-2.2 0-4 1.8-4 4v68.1c0 2.2 1.8 4 4 4h141.2c2.2 0 4-1.8 4-4v-68.1c0-2.2-1.8-4-4-4H694.5z"/><path class="st0" d="M688.7 413.1h152.8v13.3H688.7z"/><path class="st2" d="M843.3 428.2H686.9v-16.9h156.4v16.9zm-152.8-3.6h149.1V415H690.5v9.6z"/><path class="st1" d="M755.5 439.4h47.3"/><path class="st2" d="M755.5 437.6h47.3v3.7h-47.3z"/><path class="st1" d="M698.5 439.4h50.7"/><path class="st2" d="M698.5 437.6h50.7v3.7h-50.7z"/><path class="st1" d="M698.5 450.8h35.8"/><path class="st2" d="M698.5 448.9h35.8v3.7h-35.8z"/><path class="st1" d="M738.4 450.8H758"/><path class="st2" d="M738.4 448.9H758v3.7h-19.6z"/><path class="st1" d="M698.5 458.5h35.8"/><path class="st2" d="M698.5 456.7h35.8v3.7h-35.8z"/><path class="st1" d="M738.4 458.5H758"/><path class="st2" d="M738.4 456.7H758v3.7h-19.6z"/><path class="st1" d="M762 450.8h19.5"/><path class="st2" d="M762 448.9h19.6v3.7H762z"/><path transform="rotate(-180 397.8292 369.363)" class="st4" d="M368.5 286.7h58.7V452h-58.7z"/><path class="st2" d="M429 453.8h-62.4v-169H429v169zm-58.7-3.6h55.1V288.5h-55.1v161.7z"/><path class="st1" d="M378.3 296.5h39.1v145.7h-39.1z"/><path class="st2" d="M419.2 444.1h-42.8V294.7h42.8v149.4zm-39.1-3.7h35.5V298.3h-35.5v142.1z"/><path class="st1" d="M374.2 369.4c0-10.6 10.6-19.2 23.6-19.2 13.1 0 23.6 8.6 23.6 19.2s-10.6 19.2-23.6 19.2c-13-.1-23.6-8.7-23.6-19.2z"/><path class="st2" d="M397.8 390.3c-14 0-25.5-9.4-25.5-21s11.4-21 25.5-21c14 0 25.5 9.4 25.5 21s-11.4 21-25.5 21zm0-38.3c-12 0-21.8 7.8-21.8 17.3 0 9.6 9.8 17.3 21.8 17.3s21.8-7.8 21.8-17.3c.1-9.5-9.7-17.3-21.8-17.3z"/><path class="st3" d="M405.1 374.7c1.3-1.5 2.1-2.7 2.1-4.6 0-2.1-1.1-3.4-3.2-3.4-4.7 0-3.8 10.7-11.8 10.7-3.8 0-6.5-2.2-7.2-6.1h-4.1v-3.2h3.9c.2-2.4 1.3-5.1 3-6.8l3.1 2.1c-1.5 1.9-2.4 3.7-2.4 5.8 0 2.6 1.3 3.8 3.4 3.8 5.2 0 4.5-10.7 11.9-10.7 3.7 0 6.3 2.3 6.9 5.8h4v3.2h-3.9c-.3 2.5-1.5 4.3-3.1 5.7l-2.6-2.3z"/><path class="st1" d="M393.3 414.6c0-3.2 2.6-5.9 5.9-5.9 3.2 0 5.9 2.6 5.9 5.9 0 3.2-2.6 5.9-5.9 5.9-3.3 0-5.9-2.6-5.9-5.9z"/><path class="st2" d="M399.2 422.3c-4.3 0-7.7-3.5-7.7-7.7 0-4.3 3.5-7.7 7.7-7.7s7.7 3.5 7.7 7.7c0 4.3-3.5 7.7-7.7 7.7zm0-11.7c-2.2 0-4.1 1.8-4.1 4.1s1.8 4.1 4.1 4.1c2.2 0 4.1-1.8 4.1-4.1s-1.9-4.1-4.1-4.1z"/><path class="st1" d="M393.3 326.3c0-3.2 2.6-5.9 5.9-5.9 3.2 0 5.9 2.6 5.9 5.9 0 3.2-2.6 5.9-5.9 5.9-3.3 0-5.9-2.6-5.9-5.9z"/><path class="st2" d="M399.2 334c-4.3 0-7.7-3.5-7.7-7.7 0-4.3 3.5-7.7 7.7-7.7s7.7 3.5 7.7 7.7c0 4.3-3.5 7.7-7.7 7.7zm0-11.7c-2.2 0-4.1 1.8-4.1 4.1 0 2.2 1.8 4.1 4.1 4.1 2.2 0 4.1-1.8 4.1-4.1s-1.9-4.1-4.1-4.1z"/><path transform="rotate(-180 466.3106 369.363)" class="st4" d="M437 286.7h58.7V452H437z"/><path class="st2" d="M497.5 453.8h-62.4v-169h62.4v169zm-58.7-3.6h55.1V288.5h-55.1v161.7z"/><path class="st1" d="M446.7 296.5h39.1v145.7h-39.1z"/><path class="st2" d="M487.7 444.1h-42.8V294.7h42.8v149.4zm-39.1-3.7h35.5V298.3h-35.5v142.1z"/><path class="st1" d="M442.7 369.4c0-10.6 10.6-19.2 23.6-19.2s23.6 8.6 23.6 19.2-10.6 19.2-23.6 19.2-23.6-8.7-23.6-19.2z"/><path class="st2" d="M466.3 390.3c-14 0-25.5-9.4-25.5-21s11.4-21 25.5-21c14 0 25.5 9.4 25.5 21s-11.4 21-25.5 21zm0-38.3c-12 0-21.8 7.8-21.8 17.3 0 9.6 9.8 17.3 21.8 17.3s21.8-7.8 21.8-17.3-9.8-17.3-21.8-17.3z"/><path class="st3" d="M473.5 374.7c1.3-1.5 2.1-2.7 2.1-4.6 0-2.1-1.1-3.4-3.2-3.4-4.7 0-3.8 10.7-11.8 10.7-3.8 0-6.5-2.2-7.2-6.1h-4.1v-3.2h3.9c.2-2.4 1.3-5.1 3-6.8l3.1 2.1c-1.5 1.9-2.4 3.7-2.4 5.8 0 2.6 1.3 3.8 3.4 3.8 5.2 0 4.5-10.7 11.9-10.7 3.7 0 6.3 2.3 6.9 5.8h4v3.2h-3.9c-.3 2.5-1.5 4.3-3.1 5.7l-2.6-2.3z"/><path class="st1" d="M461.8 414.6c0-3.2 2.6-5.9 5.9-5.9 3.2 0 5.9 2.6 5.9 5.9 0 3.2-2.6 5.9-5.9 5.9-3.3 0-5.9-2.6-5.9-5.9z"/><path class="st2" d="M467.7 422.3c-4.3 0-7.7-3.5-7.7-7.7 0-4.3 3.5-7.7 7.7-7.7s7.7 3.5 7.7 7.7c0 4.3-3.5 7.7-7.7 7.7zm0-11.7c-2.2 0-4.1 1.8-4.1 4.1s1.8 4.1 4.1 4.1c2.2 0 4.1-1.8 4.1-4.1s-1.9-4.1-4.1-4.1z"/><path class="st1" d="M461.8 326.3c0-3.2 2.6-5.9 5.9-5.9 3.2 0 5.9 2.6 5.9 5.9 0 3.2-2.6 5.9-5.9 5.9-3.3 0-5.9-2.6-5.9-5.9z"/><path class="st2" d="M467.7 334c-4.3 0-7.7-3.5-7.7-7.7 0-4.3 3.5-7.7 7.7-7.7s7.7 3.5 7.7 7.7c0 4.3-3.5 7.7-7.7 7.7zm0-11.7c-2.2 0-4.1 1.8-4.1 4.1 0 2.2 1.8 4.1 4.1 4.1 2.2 0 4.1-1.8 4.1-4.1-.1-2.3-1.9-4.1-4.1-4.1z"/><path class="st3" d="M361 346.1h146.2V473H361z"/><path class="st2" d="M509 474.9H359.1V344.3H509v130.6zm-146.2-3.7h142.5V348H362.8v123.2z"/><path class="st1" d="M472.5 346.1h34.6V473h-34.6z"/><path class="st2" d="M509 474.9h-38.3V344.3H509v130.6zm-34.7-3.7h31V348h-31v123.2z"/><path class="st3" d="M372.5 361.5H461"/><path class="st2" d="M372.5 359.7h1.8v3.7h-1.8zm84.8 3.6h-3.7v-3.7h3.7v3.7zm-5.5 0h-3.7v-3.7h3.7v3.7zm-5.6 0h-3.7v-3.7h3.7v3.7zm-5.5 0H437v-3.7h3.7v3.7zm-5.5 0h-3.7v-3.7h3.7v3.7zm-5.6 0H426v-3.7h3.7v3.7zm-5.5 0h-3.7v-3.7h3.7v3.7zm-5.5 0h-3.7v-3.7h3.7v3.7zm-5.5 0h-3.7v-3.7h3.7v3.7zm-5.6 0h-3.7v-3.7h3.7v3.7zm-5.5 0h-3.7v-3.7h3.7v3.7zm-5.5 0h-3.7v-3.7h3.7v3.7zm-5.6 0h-3.7v-3.7h3.7v3.7zm-5.5 0h-3.7v-3.7h3.7v3.7zm-5.5 0h-3.7v-3.7h3.7v3.7zm79.3-3.6h1.8v3.7h-1.8z"/><path class="st3" d="M372.5 457.7H461"/><path class="st2" d="M372.5 455.9h1.8v3.7h-1.8zm84.8 3.6h-3.7v-3.7h3.7v3.7zm-5.5 0h-3.7v-3.7h3.7v3.7zm-5.6 0h-3.7v-3.7h3.7v3.7zm-5.5 0H437v-3.7h3.7v3.7zm-5.5 0h-3.7v-3.7h3.7v3.7zm-5.6 0H426v-3.7h3.7v3.7zm-5.5 0h-3.7v-3.7h3.7v3.7zm-5.5 0h-3.7v-3.7h3.7v3.7zm-5.5 0h-3.7v-3.7h3.7v3.7zm-5.6 0h-3.7v-3.7h3.7v3.7zm-5.5 0h-3.7v-3.7h3.7v3.7zm-5.5 0h-3.7v-3.7h3.7v3.7zm-5.6 0h-3.7v-3.7h3.7v3.7zm-5.5 0h-3.7v-3.7h3.7v3.7zm-5.5 0h-3.7v-3.7h3.7v3.7zm79.3-3.6h1.8v3.7h-1.8z"/><path class="st1" d="M530.3 422.3h-42.5c-2.1 0-3.8-1.7-3.8-3.8v-27h46.3c2.1 0 3.8 1.7 3.8 3.8v23.3c0 2.1-1.7 3.7-3.8 3.7z"/><path class="st2" d="M527.2 424.2h-36.3c-4.8 0-8.7-3.9-8.7-8.7v-25.7h45c4.8 0 8.7 3.9 8.7 8.7v17.1c0 4.7-3.9 8.6-8.7 8.6zm-41.3-30.8v22.1c0 2.8 2.3 5 5 5h36.3c2.8 0 5-2.3 5-5v-17.1c0-2.8-2.3-5-5-5h-41.3z"/><path class="st1" d="M510 407.3c-.2-3.5 2.4-6.4 5.9-6.6 3.5-.2 6.4 2.4 6.6 5.9.2 3.5-2.4 6.4-5.9 6.6-3.4.2-6.4-2.4-6.6-5.9zm20.9-29.5h-136c-1.6 0-2.9-1.3-2.9-2.9v-68.1c0-1.6 1.3-2.9 2.9-2.9h136c1.6 0 2.9 1.3 2.9 2.9v68.1c0 1.6-1.3 2.9-2.9 2.9z"/><path class="st2" d="M528.4 379.6H397.3c-4 0-7.2-3.2-7.2-7.2v-63.3c0-4 3.2-7.2 7.2-7.2h131.1c4 0 7.2 3.2 7.2 7.2v63.3c0 4-3.2 7.2-7.2 7.2zm-131.1-74c-2 0-3.6 1.6-3.6 3.6v63.3c0 2 1.6 3.6 3.6 3.6h131.1c2 0 3.6-1.6 3.6-3.6v-63.3c0-2-1.6-3.6-3.6-3.6H397.3z"/><path class="st0" d="M391.9 322.1h141.9v12.3H391.9z"/><path class="st2" d="M535.6 336.3H390.1v-16h145.5v16zm-141.9-3.7H532v-8.7H393.7v8.7z"/><path class="st1" d="M454 346.5h43.9"/><path class="st2" d="M454 344.7h43.9v3.7H454z"/><path class="st1" d="M401 346.5h47.1"/><path class="st2" d="M401 344.7h47.1v3.7H401z"/><path class="st1" d="M401 357.1h33.2"/><path class="st2" d="M401 355.2h33.2v3.7H401z"/><path class="st1" d="M438.1 357.1h18.2"/><path class="st2" d="M438.1 355.2h18.2v3.7h-18.2z"/><path class="st1" d="M401 364.2h33.2"/><path class="st2" d="M401 362.4h33.2v3.7H401z"/><path class="st1" d="M438.1 364.2h18.2"/><path class="st2" d="M438.1 362.4h18.2v3.7h-18.2z"/><path class="st1" d="M459.9 357.1h18.2"/><path class="st2" d="M459.9 355.2h18.2v3.7h-18.2z"/><path class="st1" d="M750.8 228.8h35.9v8.3h-35.9z"/><path class="st2" d="M788.5 238.9H749V227h39.5v11.9zm-35.9-3.7h32.2v-4.6h-32.2v4.6z"/><path class="st1" d="M780.8 261.7h-24.1c-3.2 0-5.9-2.6-5.9-5.9v-8.2h35.9v8.2c-.1 3.3-2.7 5.9-5.9 5.9z"/><path class="st2" d="M776 263.6h-14.5c-6.9 0-12.5-5.6-12.5-12.5v-5.2h39.5v5.2c0 6.8-5.6 12.5-12.5 12.5zm-23.4-14.1v1.5c0 4.9 4 8.9 8.9 8.9H776c4.9 0 8.9-4 8.9-8.9v-1.5h-32.3z"/><path class="st4" d="M750.8 218.7H787v-1.1c0-7.6 2.3-15 6.5-21.3 3.2-4.7 5.1-10.4 5.1-16.6 0-16.4-13.3-29.7-29.7-29.7s-29.7 13.3-29.7 29.7c0 6.1 1.9 11.8 5.1 16.6 4.2 6.3 6.5 13.7 6.5 21.3v1.1z"/><path class="st2" d="M788.8 220.6H749v-2.9c0-7.2-2.2-14.2-6.2-20.2-3.5-5.2-5.4-11.3-5.4-17.6 0-17.4 14.1-31.5 31.5-31.5s31.5 14.1 31.5 31.5c0 6.3-1.9 12.4-5.4 17.6-4.1 6-6.2 13-6.2 20.2v2.9zm-36.2-3.7h32.5c.1-7.7 2.5-15.1 6.8-21.5 3.1-4.6 4.7-10 4.7-15.5 0-15.4-12.5-27.9-27.9-27.9-15.4 0-27.9 12.5-27.9 27.9 0 5.6 1.6 10.9 4.8 15.5 4.5 6.4 6.9 13.8 7 21.5z"/><path class="st1" d="M768.9 247.7v-53.6"/><path class="st2" d="M767.1 194.1h3.7v53.6h-3.7z"/><path class="st2" d="M768.9 197.9l-12-22.4H781l-12.1 22.4zm-5.9-18.7l5.9 11 5.9-11H763zm3.9 158.4h3.7v1.8h-3.7zm3.6-3.8h-3.7V330h3.7v3.8zm0-7.7h-3.7v-3.8h3.7v3.8zm0-7.6h-3.7v-3.8h3.7v3.8zm0-7.7h-3.7V307h3.7v3.8zm0-7.7h-3.7v-3.8h3.7v3.8zm0-7.6h-3.7v-3.8h3.7v3.8zm0-7.7h-3.7V284h3.7v3.8zm0-7.7h-3.7v-3.8h3.7v3.8zm0-7.6h-3.7v-3.8h3.7v3.8zm-3.6-9.5h3.7v1.8h-3.7z"/><path class="st3" d="M659.7 165.1h36.9V202h-36.9z"/><path transform="rotate(-45 678.184856 207.5875326)" class="st1" d="M667.2 196.6h22v22h-22z"/><path transform="rotate(-45 693.7818009 207.583778)" class="st2" d="M691.9 205.8h3.7v3.7h-3.7z"/><path class="st2" d="M683.4 220.5l-2.6-2.6 2.6-2.6 2.6 2.6-2.6 2.6zm5.2-5.1l-2.6-2.6 2.6-2.6 2.6 2.6-2.6 2.6z"/><path transform="rotate(-45 678.190485 223.1482011)" class="st2" d="M676.4 221.3h3.7v3.7h-3.7z"/><path class="st2" d="M673 220.5l-2.6-2.6 2.6-2.6 2.6 2.6-2.6 2.6zm-5.2-5.1l-2.6-2.6 2.6-2.6 2.6 2.6-2.6 2.6z"/><path transform="rotate(-45 662.6289776 207.5863775)" class="st2" d="M660.8 205.8h3.7v3.7h-3.7z"/><path class="st2" d="M667.8 205l-2.6-2.6 2.6-2.6 2.6 2.6-2.6 2.6zm5.2-5.2l-2.6-2.6 2.6-2.6 2.6 2.6-2.6 2.6z"/><path transform="rotate(-45 678.1585568 192.0286258)" class="st2" d="M676.4 190.2h3.7v3.7h-3.7z"/><path class="st2" d="M688.6 205l-2.6-2.6 2.6-2.6 2.6 2.6-2.6 2.6zm-5.2-5.2l-2.6-2.6 2.6-2.6 2.6 2.6-2.6 2.6z"/><path class="st1" d="M675.5 172.6c0-1.5 1.2-2.7 2.7-2.7 1.5 0 2.7 1.2 2.7 2.7 0 1.5-1.2 2.7-2.7 2.7-1.5-.1-2.7-1.3-2.7-2.7z"/><path class="st5" d="M483.2 223.5c0 25-20.2 45.2-45.2 45.2-25 0-45.2-20.2-45.2-45.2 0-25 20.2-45.2 45.2-45.2 24.9 0 45.2 20.2 45.2 45.2z"/><path class="st1" d="M466.7 202.9h-8.8l-2.7 10.3H414c-.5.2-.8.8-.6 1.3l7.5 21.3h30.4l8.3-31h7.2c.6 0 1-.5 1-1-.1-.4-.6-.9-1.1-.9zm-13.1 16h-4.4l.6-3.6h4.8l-1 3.6zm-1.4 5.2h-3.9l.6-4.1h4.3l-1 4.1zm-1.4 5.1h-3.3l.6-4.1h3.8l-1.1 4.1zm-14.6 4.7l-.9-3.6h5.6l.5 3.6h-5.2zm-7.2 0l-.9-3.6h6.2l.9 3.6H429zm-5.7-18.6l.9 3.6H417l-1.3-3.6h7.6zm7.2 0l.9 3.6h-6.2l-.9-3.6h6.2zm3.3 8.8l-1-4.1h6.6l.6 4.1h-6.2zm6.3 1l.6 4.1H435l-1-4.1h6.1zm-7.4-1h-6.2l-1-4.1h6.2l1 4.1zm7.7-4.2h7.5l-.7 4.1H441l-.6-4.1zm-.1-1l-.5-3.6h9l-.6 3.6h-7.9zm-1.1 0h-6.7l-.9-3.6h7.1l.5 3.6zm-14.8 1l1 4.1h-6.7l-1.4-4.1h7.1zm-5.3 5.2h6.6l1 4.1h-6.2l-1.4-4.1zm7.7 0h6.2l1 4.1h-6.2l-1-4.1zm15.2 5.2h4.3l-.6 3.5v.1h-3.3l-.4-3.6zm-.2-1.1l-.6-4.1h5.9l-.6 4.1h-4.7zm-20.8 1.1h6.1l.9 3.6h-5.7l-1.3-3.6zm25.8 3.6l.6-3.6h3.2l-1 3.6h-2.8zm-1.1 3.1c-2.2 0-4.1 1.5-4.5 3.6h-10.6c-.5-2.1-2.3-3.6-4.5-3.6-2.6 0-4.6 2.1-4.6 4.6 0 2.6 2.1 4.6 4.6 4.6 2.6 0 4.6-2.1 4.6-4.6H441c0 2.6 2.1 4.6 4.6 4.6 2.6 0 4.6-2.1 4.6-4.6.2-2.5-1.9-4.6-4.5-4.6zm-19.6 7.2c-1.4 0-2.6-1.2-2.6-2.6 0-1.4 1.2-2.6 2.6-2.6 1.4 0 2.6 1.2 2.6 2.6 0 1.4-1.1 2.6-2.6 2.6zm19.6 0c-1.4 0-2.6-1.2-2.6-2.6 0-1.4 1.2-2.6 2.6-2.6 1.4 0 2.6 1.2 2.6 2.6 0 1.4-1.1 2.6-2.6 2.6z"/><circle class="st0" cx="106.7" cy="452.5" r="4.2"/><circle class="st0" cx="106.7" cy="433.5" r="4.2"/><circle class="st0" cx="106.7" cy="414.6" r="4.2"/><circle class="st0" cx="740.2" cy="319.2" r="4.2"/><circle class="st0" cx="740.2" cy="300.3" r="4.2"/><circle class="st0" cx="740.2" cy="281.3" r="4.2"/><path class="st0" d="M359.4 261.2c-.4-2.3 1.2-4.4 3.4-4.8 2.3-.4 4.4 1.2 4.8 3.4.4 2.3-1.2 4.4-3.4 4.8-2.3.4-4.4-1.1-4.8-3.4zm-3-18.7c-.4-2.3 1.2-4.4 3.4-4.8 2.3-.4 4.4 1.2 4.8 3.4.4 2.3-1.2 4.4-3.4 4.8-2.3.4-4.5-1.1-4.8-3.4zm-3.1-18.7c-.4-2.3 1.2-4.4 3.4-4.8 2.3-.4 4.4 1.2 4.8 3.4.4 2.3-1.2 4.4-3.4 4.8-2.3.4-4.4-1.1-4.8-3.4z"/></g><g id="Med_Ground"><path class="st0" d="M301 472.3V325.8c0-11.7-26.4-21.1-38.1-21.3l103.5-.1c11.7.1 19.1 9.6 19.1 21.4v146.5H301z"/><path class="st2" d="M387.5 474.1h-88.3V325.8c0-10-24.6-19.3-36.3-19.5h-1.8v-3.6h1.8l105.4-.1v.1c11.2 1 19.1 10.5 19.1 23.1v148.3zm-84.6-3.7h80.9V325.8c0-11.4-7.1-19.4-17.3-19.5h-.5l-85.7.1c11.3 3.9 22.6 10.9 22.6 19.5v144.5z"/><path class="st1" d="M243.4 446.1V325.8c0-11.7 9.4-21.2 21.1-21.4H366c-11.7.1-17.4 9.6-17.4 21.4v120.3c0 14.9-12.1 27-27 27h-98v-1c11.5-3.1 19.8-13.6 19.8-26z"/><path class="st2" d="M223.6 474.9c-.5 0-.9-.2-1.3-.5-.3-.3-.5-.8-.5-1.3v-1c0-.8.5-1.5 1.3-1.8 10.9-3 18.5-12.9 18.5-24.2V325.8c0-12.6 10.2-22.9 22.7-23.2H366c1 0 1.8.8 1.8 1.8s-.8 1.8-1.8 1.8c-11.5.1-15.6 10.2-15.6 19.5V446c0 15.9-12.9 28.8-28.8 28.8l-98 .1zm41.1-168.6h-.1c-10.6.1-19.3 8.9-19.3 19.5v120.3c0 10.6-5.8 20.1-14.8 25.1h91.1c13.9 0 25.1-11.3 25.1-25.1V325.8c0-8.8 3-15.6 8.1-19.5h-90.1z"/><path class="st1" d="M304.1 449.2v2.5c0 11.7 7.5 21.2 19.2 21.4H220.1c-11.7-.1-21.1-9.6-21.1-21.4v-2.5h105.1z"/><path class="st2" d="M323.3 474.9H219.9c-12.6-.2-22.7-10.6-22.7-23.2v-2.5c0-1 .8-1.8 1.8-1.8h105.2c1 0 1.8.8 1.8 1.8v2.5c0 11.4 7.1 19.4 17.4 19.5 1 0 1.8.8 1.8 1.8-.1 1.1-.9 1.9-1.9 1.9zm-103-3.7h91.4c-5.8-4-9.3-11.1-9.3-19.5v-.7H200.8v.7c0 10.6 8.7 19.4 19.3 19.5h.2z"/><path class="st1" d="M272.6 332.2c7.7-8.4 19.3-11.9 30.4-9.4 5.6 1.3 10.6 4 14.6 7.7L296 353.9l-23.4-21.7z"/><path class="st2" d="M296 355.7c-.5 0-.9-.2-1.2-.5l-23.4-21.7c-.7-.7-.8-1.8-.1-2.6 8.2-8.8 20.5-12.6 32.2-10 5.8 1.3 11.1 4.1 15.4 8.1.7.7.8 1.8.1 2.6L297.3 355c-.3.5-.8.7-1.3.7zm-20.8-23.5l20.7 19.1 19.1-20.7c-3.6-2.9-7.8-5-12.4-6.1-9.8-2.2-20.1.7-27.4 7.7z"/><path class="st1" d="M317.6 330.5c4 3.7 7.1 8.5 8.8 14 2.3 7.3 1.8 15-1.1 21.8L296 353.9l21.6-23.4z"/><path class="st2" d="M326.3 368.6l-33.5-14.1 24.7-26.6 1.3 1.2c4.3 4 7.5 9.1 9.3 14.8 2.3 7.6 1.9 15.7-1.1 23l-.7 1.7zm-27.2-15.4l25.2 10.6c2.1-6.1 2.3-12.7.3-18.8-1.4-4.4-3.8-8.5-7-11.9l-18.5 20.1z"/><path class="st4" d="M325.4 366.2c-1.4 3.4-3.4 6.5-6 9.3-7.7 8.4-19.3 11.9-30.4 9.4-11.1-2.5-20-10.8-23.4-21.7-3.4-10.9-.7-22.7 7.1-31.1l23.4 21.7 29.3 12.4z"/><path class="st2" d="M295.9 387.6c-2.5 0-5-.3-7.4-.8-11.7-2.7-21.2-11.4-24.7-22.9-3.5-11.5-.7-24.1 7.5-32.9l1.2-1.3 24.5 22.7 30.8 12.9-.7 1.7c-1.5 3.6-3.7 6.9-6.3 9.8-6.5 6.9-15.6 10.8-24.9 10.8zm-23.2-52.8c-6.3 7.8-8.4 18.3-5.5 27.9 3.2 10.2 11.6 18 22 20.4 10.4 2.4 21.4-1 28.7-8.9 2-2.1 3.6-4.5 4.9-7.1L295 355.4l-22.3-20.6zm59.2 75.6h-3.7v-3.7h3.7v3.7zm-7.3 0h-18.3v-3.7h18.3v3.7zm-21.9 0H299v-3.7h3.7v3.7zm-21.9 0h-3.7v-3.7h3.7v3.7zm-7.3 0h-14.6v-3.7h14.6v3.7zm58.4 11.8h-3.7v-3.7h3.7v3.7zm-7.3 0h-18.3v-3.7h18.3v3.7zm-21.9 0H299v-3.7h3.7v3.7zm-21.9 0h-3.7v-3.7h3.7v3.7zm-7.3 0h-14.6v-3.7h14.6v3.7zm58.4 11.8h-3.7v-3.7h3.7v3.7zm-7.3 0h-18.3v-3.7h18.3v3.7zm-21.9 0H299v-3.7h3.7v3.7zm-21.9 0h-3.7v-3.7h3.7v3.7zm-7.3 0h-14.6v-3.7h14.6v3.7z"/><path class="st1" d="M259.3 408.3h23.3v24.2h-23.3z"/><path class="st2" d="M282.6 434.4h-23.3c-1 0-1.8-.8-1.8-1.8v-24.2c0-1 .8-1.8 1.8-1.8h23.3c1 0 1.8.8 1.8 1.8v24.2c.1 1-.8 1.8-1.8 1.8zm-21.4-3.7h19.6v-20.6h-19.6v20.6zM873 269.8h3.7v129H873z"/><path transform="rotate(-52.193 852.7391717 361.5278565)" class="st2" d="M851 333.7h3.7v55.7H851z"/><path transform="rotate(-45 890.6543653 317.021162)" class="st2" d="M868.2 315.2h45v3.7h-45z"/><path transform="rotate(-62.464 863.7876729 301.6921526)" class="st2" d="M862 289.3h3.7v24.8H862z"/><path class="st0" d="M902.1 473.1h-54.7l-30.9-80.7h116.6z"/><path class="st2" d="M903.4 474.9h-57.2l-32.3-84.3h121.9l-32.4 84.3zm-54.7-3.7h52.2l29.5-77H819.2l29.5 77z"/><path class="st3" d="M881.3 374.5c-1.6-2.3-.1-12.8 7-21 7-8.1 17.2-10.4 19.7-9.9.9 2.4.1 12.8-6.9 20.9-7.2 8.3-17.3 11.2-19.8 10zm-39.9-53.6c-.5-1.8 2.5-8.1 8.6-11.8 6-3.7 12.9-3.1 14.4-2.3.1 1.7-2.5 8.1-8.5 11.8-6.2 3.7-13.2 3.5-14.5 2.3zm27.1-21.7c-1.8.3-7.7-3.5-10.6-10-2.9-6.5-1.5-13.2-.4-14.6 1.7.1 7.7 3.5 10.6 10 2.8 6.5 1.8 13.4.4 14.6zm-8.3 62c-1.8-.5-5.6-6.3-5.6-13.5 0-7.1 4.1-12.6 5.5-13.5 1.5.8 5.6 6.3 5.6 13.4.1 7.3-3.7 13.2-5.5 13.6zm-27.8 19.2c0-1.8 4.8-6.9 11.8-8.7 6.9-1.7 13.2.9 14.4 2.2-.4 1.6-4.8 6.9-11.7 8.7-7 1.7-13.6-.6-14.5-2.2zm54.4-51c0-1.8 4.8-6.9 11.8-8.7 6.9-1.7 13.2.9 14.4 2.2-.4 1.6-4.8 6.9-11.7 8.7-7 1.7-13.7-.6-14.5-2.2zm-1.3-16.4c-1.7-.6-4.9-6.8-4.2-14 .7-7.1 5.3-12.2 6.9-12.8 1.4 1 4.9 6.9 4.2 13.9-.7 7.2-5.1 12.6-6.9 12.9z"/><path class="st0" d="M874.8 266.6c-11.6-8.8-20.8-17.6-20.8-38.1 0-21.7 11-31.3 20.8-47.5 9.8 16.2 20.8 25.8 20.8 47.5 0 20.5-9.2 29.3-20.8 38.1z"/><path class="st2" d="M874.8 268.9l-1.1-.8c-11.8-9-21.5-18.1-21.5-39.6 0-17.3 6.7-27.1 14.4-38.3 2.2-3.2 4.5-6.5 6.7-10.2l1.6-2.6 1.6 2.6c2.2 3.6 4.5 6.9 6.7 10.2 7.7 11.2 14.4 21 14.4 38.3 0 21.5-9.8 30.6-21.5 39.6l-1.3.8zm0-84.4c-1.8 2.7-3.5 5.3-5.2 7.8-7.4 10.7-13.8 20-13.8 36.2 0 19.2 8.2 27.5 19 35.8 10.8-8.4 19-16.6 19-35.8 0-16.2-6.4-25.5-13.8-36.2-1.7-2.5-3.5-5.1-5.2-7.8z"/><path class="st2" d="M892.7 245.9c-.3.7-.5 1.3-.8 1.9-5 4.6-11.2 7.9-17 8.8h-.1c-5.7-1-12-4.2-17-8.8-.3-.6-.6-1.3-.8-1.9 5.1 5.2 11.8 8.9 17.9 9.9 6-1 12.7-4.7 17.8-9.9z"/><path class="st2" d="M895.3 234.7c0 .4-.1.8-.1 1.2-5.7 4.9-14.6 11.2-20.3 12.2h-.1c-5.7-.9-14.6-7.2-20.3-12.2-.1-.4-.1-.8-.1-1.2 5.5 4.9 14.9 11.6 20.5 12.6 5.6-1 14.9-7.7 20.4-12.6z"/><path class="st2" d="M895.5 224.4c0 .3 0 .7.1 1-5.7 5-14.9 11.5-20.7 12.5h-.1c-5.8-1-15-7.5-20.7-12.5 0-.3 0-.7.1-1 5.5 4.9 15 11.7 20.7 12.7 5.6-1 15.1-7.8 20.6-12.7z"/><path class="st2" d="M894.1 215.4c.1.3.1.6.2.9-5.7 4.8-14 10.5-19.4 11.4h-.1c-5.4-.9-13.7-6.6-19.4-11.4.1-.3.1-.6.2-.9 5.6 4.7 14 10.6 19.3 11.5 5.1-.9 13.6-6.7 19.2-11.5z"/><path class="st2" d="M891.3 207.5c.1.3.2.5.3.8-5.4 4.2-12.2 8.5-16.8 9.3h-.1c-4.6-.8-11.4-5-16.8-9.3.1-.3.2-.5.3-.8 5.3 4.2 12.1 8.5 16.5 9.2 4.5-.7 11.2-5 16.6-9.2zm-3.9-7.3c.1.2.3.5.4.7-4.5 3.2-9.4 5.9-13 6.5h-.1c-3.6-.6-8.4-3.3-13-6.5.1-.2.3-.5.4-.7 4.4 3.1 9.2 5.8 12.6 6.4 3.5-.7 8.3-3.3 12.7-6.4zm-4.7-7.2c.2.2.3.5.5.7-3 1.8-6 3.1-8.3 3.5h-.1c-2.4-.4-5.3-1.7-8.3-3.5.2-.2.3-.5.5-.7 2.9 1.7 5.7 3 7.9 3.4 2.1-.4 4.9-1.7 7.8-3.4z"/><path class="st2" d="M874.3 181h.9v85.6h-.9z"/><ellipse transform="rotate(-55.424 914.8407727 292.8360872)" class="st1" cx="914.8" cy="292.9" rx="16.9" ry="16.9"/><path class="st2" d="M914.8 311.6c-10.3 0-18.7-8.4-18.7-18.7 0-10.3 8.4-18.7 18.7-18.7 10.3 0 18.7 8.4 18.7 18.7.1 10.3-8.3 18.7-18.7 18.7zm0-33.8c-8.3 0-15.1 6.8-15.1 15.1s6.8 15.1 15.1 15.1 15.1-6.8 15.1-15.1c0-8.4-6.7-15.1-15.1-15.1z"/><path class="st2" d="M917.3 288.9c-.7-.7-1.3-1-2.3-1-1.1 0-1.7.5-1.7 1.6 0 2.3 5.3 1.9 5.3 5.8 0 1.9-1.1 3.2-3 3.6v2H914v-2c-1.2-.1-2.5-.7-3.4-1.5l1-1.5c.9.7 1.8 1.2 2.9 1.2 1.3 0 1.9-.6 1.9-1.7 0-2.6-5.3-2.2-5.3-5.9 0-1.8 1.1-3.1 2.9-3.4v-2h1.6v2c1.3.2 2.1.8 2.8 1.5l-1.1 1.3z"/><circle class="st1" cx="821.1" cy="337" r="16.9"/><path class="st2" d="M821.1 355.7c-10.3 0-18.7-8.4-18.7-18.7 0-10.3 8.4-18.7 18.7-18.7 10.3 0 18.7 8.4 18.7 18.7 0 10.3-8.4 18.7-18.7 18.7zm0-33.8c-8.3 0-15.1 6.8-15.1 15.1s6.8 15.1 15.1 15.1 15.1-6.8 15.1-15.1c0-8.4-6.8-15.1-15.1-15.1z"/><ellipse transform="rotate(-80.781 834.1084534 286.1808117)" class="st1" cx="834.1" cy="286.2" rx="22.8" ry="22.8"/><path class="st2" d="M834.1 310.9c-13.6 0-24.7-11.1-24.7-24.7s11.1-24.7 24.7-24.7 24.7 11.1 24.7 24.7-11.1 24.7-24.7 24.7zm0-45.7c-11.6 0-21 9.4-21 21s9.4 21 21 21 21-9.4 21-21-9.4-21-21-21z"/><path class="st1" d="M722.1 461.3c0 6.5-5.3 11.8-11.8 11.8H604c-6.5 0-11.8-5.3-11.8-11.8v-195c0-6.5 5.3-11.8 11.8-11.8h106.3c6.5 0 11.8 5.3 11.8 11.8v195z"/><path class="st2" d="M710.3 474.9H604c-7.5 0-13.6-6.1-13.6-13.6v-195c0-7.5 6.1-13.6 13.6-13.6h106.3c7.5 0 13.6 6.1 13.6 13.6v194.9c0 7.6-6.1 13.7-13.6 13.7zM604 256.3c-5.5 0-10 4.5-10 10v194.9c0 5.5 4.5 10 10 10h106.3c5.5 0 10-4.5 10-10V266.3c0-5.5-4.5-10-10-10H604z"/><path class="st5" d="M604 280.5h106.3V443H604z"/><path class="st1" d="M690.8 358c0 18.9-15.3 34.2-34.2 34.2-18.9 0-34.2-15.3-34.2-34.2 0-18.9 15.3-34.2 34.2-34.2 18.9.1 34.2 15.3 34.2 34.2z"/><path class="st3" d="M678.3 342.5h-6.7l-2.1 7.8h-31.2c-.4.1-.6.6-.5 1l5.6 16.1h23l6.2-23.4h5.5c.4 0 .8-.3.8-.8.2-.4-.2-.7-.6-.7zm-9.9 12H665l.4-2.7h3.7l-.7 2.7zm-1 4h-2.9l.5-3.1h3.3l-.9 3.1zm-1.1 3.9h-2.5l.5-3.1h2.9l-.9 3.1zm-11 3.5l-.7-2.7h4.2l.4 2.7h-3.9zm-5.5 0l-.7-2.7h4.7l.7 2.7h-4.7zm-4.3-14.1l.7 2.7h-5.4l-1-2.7h5.7zm5.5 0l.7 2.7H647l-.7-2.7h4.7zm2.4 6.7l-.8-3.1h5l.5 3.1h-4.7zm4.9.7l.5 3.1h-4.3l-.8-3.1h4.6zm-5.7-.7H648l-.8-3.1h4.7l.7 3.1zm5.9-3.2h5.7l-.5 3.1H659l-.5-3.1zm-.2-.8l-.4-2.7h6.8l-.4 2.7h-6zm-.7 0h-5.1l-.7-2.7h5.4l.4 2.7zm-11.2.8l.8 3.1h-5.1l-1.1-3.1h5.4zm-4 3.9h5l.8 3.1h-4.7l-1.1-3.1zm5.8 0h4.7l.8 3.1H649l-.8-3.1zm11.4 3.9h3.3l-.4 2.7v.1H660l-.4-2.8zm-.1-.7l-.5-3.1h4.5l-.5 3.1h-3.5zm-15.7.7h4.6l.7 2.7h-4.3l-1-2.7zm19.5 2.8l.4-2.7h2.4l-.7 2.7h-2.1zm-.8 2.3c-1.7 0-3.1 1.2-3.4 2.7h-8c-.4-1.6-1.7-2.7-3.4-2.7-1.9 0-3.5 1.6-3.5 3.5s1.6 3.5 3.5 3.5 3.5-1.6 3.5-3.5h7.8c0 1.9 1.6 3.5 3.5 3.5s3.5-1.6 3.5-3.5-1.6-3.5-3.5-3.5zm-14.8 5.5c-1.1 0-2-.9-2-1.9 0-1.1.9-2 2-2s2 .9 2 2c-.1 1-1 1.9-2 1.9zm14.8 0c-1.1 0-2-.9-2-1.9 0-1.1.9-2 2-2s1.9.9 1.9 2c0 1-.8 1.9-1.9 1.9z"/></g><g id="Foreground"><path class="st2" d="M175.6 269.8h3.7v129h-3.7z"/><path transform="rotate(-52.193 155.4166475 361.523532)" class="st2" d="M153.6 333.7h3.7v55.7h-3.7z"/><path transform="rotate(-45 193.3196612 317.0015963)" class="st2" d="M170.9 315.2h45v3.7h-45z"/><path transform="rotate(-62.464 166.4278997 301.6782245)" class="st2" d="M164.6 289.3h3.7v24.8h-3.7z"/><path class="st4" d="M204.8 473.1h-54.7l-31-80.7h116.6z"/><path class="st2" d="M206 474.9h-57.2l-32.3-84.3h121.9L206 474.9zm-54.7-3.7h52.2l29.5-77H121.8l29.5 77z"/><path class="st3" d="M183.9 374.5c-1.6-2.3-.1-12.8 7-21 7-8.1 17.2-10.4 19.7-9.9.9 2.4.1 12.8-6.9 20.9-7.1 8.3-17.3 11.2-19.8 10zM144 320.9c-.5-1.8 2.5-8.1 8.6-11.8 6-3.7 12.9-3.1 14.4-2.3.1 1.7-2.5 8.1-8.5 11.8-6.1 3.7-13.1 3.5-14.5 2.3zm27.1-21.7c-1.8.3-7.7-3.5-10.6-10-2.9-6.5-1.5-13.2-.4-14.6 1.7.1 7.7 3.5 10.6 10 2.9 6.5 1.8 13.4.4 14.6zm-8.2 62c-1.8-.5-5.6-6.3-5.6-13.5 0-7.1 4.1-12.6 5.5-13.5 1.5.8 5.6 6.3 5.6 13.4 0 7.3-3.8 13.2-5.5 13.6zm-27.8 19.2c0-1.8 4.8-6.9 11.8-8.7 6.9-1.7 13.2.9 14.4 2.2-.4 1.6-4.8 6.9-11.7 8.7-7 1.7-13.7-.6-14.5-2.2zm54.3-51c0-1.8 4.8-6.9 11.8-8.7 6.9-1.7 13.2.9 14.4 2.2-.4 1.6-4.8 6.9-11.7 8.7-7 1.7-13.6-.6-14.5-2.2zm-1.3-16.4c-1.7-.6-4.9-6.8-4.2-14 .7-7.1 5.3-12.2 6.9-12.8 1.4 1 4.9 6.9 4.2 13.9-.7 7.2-5 12.6-6.9 12.9z"/><path class="st0" d="M177.4 266.6c-11.6-8.8-20.8-17.6-20.8-38.1 0-21.7 11-31.3 20.8-47.5 9.8 16.2 20.8 25.8 20.8 47.5.1 20.5-9.2 29.3-20.8 38.1z"/><path class="st2" d="M177.4 268.9l-1.1-.8c-11.8-9-21.5-18.1-21.5-39.6 0-17.3 6.7-27.1 14.4-38.3 2.2-3.2 4.5-6.5 6.7-10.2l1.6-2.6 1.6 2.6c2.2 3.6 4.5 6.9 6.7 10.2 7.7 11.2 14.4 21 14.4 38.3 0 21.5-9.8 30.6-21.5 39.6l-1.3.8zm0-84.4c-1.8 2.7-3.5 5.3-5.2 7.8-7.4 10.7-13.8 20-13.8 36.2 0 19.2 8.2 27.5 19 35.8 10.8-8.4 19-16.6 19-35.8 0-16.2-6.4-25.5-13.8-36.2-1.6-2.5-3.4-5.1-5.2-7.8z"/><path class="st2" d="M195.3 245.9c-.3.7-.5 1.3-.8 1.9-5 4.6-11.2 7.9-17 8.8h-.1c-5.7-1-12-4.2-17-8.8-.3-.6-.6-1.3-.8-1.9 5.1 5.2 11.8 8.9 17.9 9.9 6.1-1 12.7-4.7 17.8-9.9z"/><path class="st2" d="M197.9 234.7c0 .4-.1.8-.1 1.2-5.7 4.9-14.6 11.2-20.3 12.2h-.1c-5.7-.9-14.6-7.2-20.3-12.2-.1-.4-.1-.8-.1-1.2 5.5 4.9 14.9 11.6 20.5 12.6 5.6-1 14.9-7.7 20.4-12.6z"/><path class="st2" d="M198.1 224.4c0 .3 0 .7.1 1-5.7 5-14.9 11.5-20.7 12.5h-.1c-5.8-1-15-7.5-20.7-12.5 0-.3 0-.7.1-1 5.5 4.9 15 11.7 20.7 12.7 5.7-1 15.1-7.8 20.6-12.7z"/><path class="st2" d="M196.7 215.4c.1.3.1.6.2.9-5.7 4.8-14 10.5-19.4 11.4h-.1c-5.4-.9-13.7-6.6-19.4-11.4.1-.3.1-.6.2-.9 5.6 4.7 14 10.6 19.3 11.5 5.2-.9 13.6-6.7 19.2-11.5z"/><path class="st2" d="M193.9 207.5c.1.3.2.5.3.8-5.4 4.2-12.2 8.5-16.8 9.3h-.1c-4.6-.8-11.4-5-16.8-9.3.1-.3.2-.5.3-.8 5.3 4.2 12.1 8.5 16.5 9.2 4.6-.7 11.3-5 16.6-9.2zm-3.8-7.3c.1.2.3.5.4.7-4.5 3.2-9.4 5.9-13 6.5h-.1c-3.6-.6-8.4-3.3-13-6.5.1-.2.3-.5.4-.7 4.4 3.1 9.2 5.8 12.6 6.4 3.5-.7 8.2-3.3 12.7-6.4zm-4.7-7.2c.2.2.3.5.5.7-3 1.8-6 3.1-8.3 3.5h-.1c-2.4-.4-5.3-1.7-8.3-3.5.2-.2.3-.5.5-.7 2.9 1.7 5.7 3 7.9 3.4 2.1-.4 4.9-1.7 7.8-3.4z"/><path class="st2" d="M177 181h.9v85.6h-.9z"/><ellipse transform="rotate(-45 217.4810566 292.8632463)" class="st1" cx="217.5" cy="292.9" rx="16.9" ry="16.9"/><path class="st2" d="M217.5 311.6c-10.3 0-18.7-8.4-18.7-18.7 0-10.3 8.4-18.7 18.7-18.7 10.3 0 18.7 8.4 18.7 18.7 0 10.3-8.4 18.7-18.7 18.7zm0-33.8c-8.3 0-15.1 6.8-15.1 15.1s6.8 15.1 15.1 15.1 15.1-6.8 15.1-15.1c0-8.4-6.8-15.1-15.1-15.1z"/><ellipse transform="matrix(.00684 -1 1 .00684 -214.051 458.4043)" class="st1" cx="123.8" cy="337" rx="16.9" ry="16.9"/><path class="st2" d="M123.8 355.7c-10.3 0-18.7-8.4-18.7-18.7 0-10.3 8.4-18.7 18.7-18.7 10.3 0 18.7 8.4 18.7 18.7 0 10.3-8.4 18.7-18.7 18.7zm0-33.8c-8.3 0-15.1 6.8-15.1 15.1s6.8 15.1 15.1 15.1 15.1-6.8 15.1-15.1c-.1-8.4-6.8-15.1-15.1-15.1z"/><ellipse transform="rotate(-81.24 136.7518909 286.2043312)" class="st1" cx="136.7" cy="286.2" rx="22.8" ry="22.8"/><path class="st2" d="M136.7 310.9c-13.6 0-24.7-11.1-24.7-24.7s11.1-24.7 24.7-24.7 24.7 11.1 24.7 24.7-11.1 24.7-24.7 24.7zm0-45.7c-11.6 0-21 9.4-21 21s9.4 21 21 21 21-9.4 21-21c.1-11.6-9.4-21-21-21z"/><path class="st1" d="M761 443.2l-40.1 29.9-40.1-29.9V378H761v25.1z"/><path class="st2" d="M720.9 475.3L679 444.1v-67.9h83.8v67.9l-41.9 31.2zm-38.3-33l38.2 28.5 38.2-28.5v-62.5h-76.5v62.5zm78.4.9z"/><path class="st3" d="M720.9 437.6c-.9 0-1.7-.3-2.4-.9L704.7 425c-1.5-1.3-1.7-3.6-.4-5.1 1.3-1.5 3.6-1.7 5.1-.4l10.5 8.9 14.7-25.7c1-1.7 3.2-2.4 5-1.3 1.7 1 2.4 3.2 1.3 5L724 435.9c-.5.9-1.5 1.6-2.5 1.8-.2-.1-.4-.1-.6-.1z"/><path class="st1" d="M606 365.6c-3.2-2-5-5.6-4.8-9.3.1-2.1 16.4-48.5 8.8-53-1.3-.8-2.9-.7-4.2 0l-1.1.7c-1.5.9-3.3.9-4.8 0l-5.5-3.4c-1.3-.8-3-.8-4.3 0l-5.5 3.4c-1.5.9-3.3.9-4.8 0l-5.5-3.4c-1.3-.8-3-.8-4.3 0l-5.5 3.4c-1.5.9-3.3.9-4.8 0l-1.1-.7c-1.3-.8-2.9-.8-4.2 0-7.7 4.5 8.7 50.9 8.8 53 .2 3.7-1.7 7.3-4.8 9.3-16.6 10.5-34.7 28.5-34.7 49 0 32.3 26.2 58.5 58.5 58.5s58.5-26.2 58.5-58.5c0-20.6-18.1-38.6-34.7-49z"/><path class="st2" d="M582.2 474.9c-33.3 0-60.4-27.1-60.4-60.4 0-26.1 27.2-45.3 35.5-50.5 2.6-1.7 4.1-4.6 4-7.7-.1-.4-.8-2.7-1.5-5.2-8.3-27.1-12.5-45.9-6.3-49.5 1.9-1.1 4.2-1.1 6.1.1l1.1.7c.9.6 2 .6 2.9 0l5.5-3.4c1.9-1.2 4.3-1.2 6.2 0l5.5 3.4c.9.5 2 .5 2.9 0l5.5-3.4c1.9-1.2 4.3-1.2 6.2 0l5.5 3.4c.9.6 2 .6 2.9 0l1.1-.7c1.9-1.2 4.2-1.2 6.1-.1 6.1 3.6 1.9 22.4-6.3 49.5-.8 2.5-1.5 4.8-1.5 5.3-.1 3 1.4 5.9 4 7.6 8.3 5.3 35.5 24.4 35.5 50.5-.2 33.3-27.3 60.4-60.5 60.4zm-25.7-170.4c-.4 0-.8.1-1.1.3-1.8 1.1-3.3 8.4 8 45.3 1.4 4.5 1.7 5.5 1.7 6.1.2 4.4-2 8.6-5.7 10.9-7.9 5-33.8 23.2-33.8 47.4 0 31.3 25.4 56.7 56.7 56.7 31.3 0 56.7-25.4 56.7-56.7 0-24.2-25.9-42.4-33.8-47.4-3.7-2.4-5.9-6.5-5.7-10.9 0-.6.3-1.5 1.7-6.1 11.2-36.9 9.8-44.2 8-45.3-.7-.4-1.6-.4-2.3 0l-1.1.7c-2.1 1.3-4.7 1.3-6.7 0l-5.5-3.4c-.7-.4-1.6-.4-2.3 0l-5.5 3.4c-2.1 1.3-4.7 1.3-6.7 0l-5.5-3.4c-.7-.5-1.6-.4-2.3 0l-5.5 3.4c-2.1 1.3-4.7 1.3-6.7 0l-1.1-.7c-.7-.2-1.1-.3-1.5-.3z"/><path class="st0" d="M606.9 358.4h-49.5c-3 0-5.5-2.5-5.5-5.5s2.5-5.5 5.5-5.5h49.5c3 0 5.5 2.5 5.5 5.5.1 3-2.4 5.5-5.5 5.5z"/><path class="st2" d="M606.9 360.3h-49.5c-4.1 0-7.4-3.3-7.4-7.4 0-4.1 3.3-7.4 7.4-7.4h49.5c4.1 0 7.4 3.3 7.4 7.4 0 4.1-3.3 7.4-7.4 7.4zm-49.5-11.1c-2 0-3.7 1.7-3.7 3.7s1.7 3.7 3.7 3.7h49.5c2.1 0 3.7-1.7 3.7-3.7 0-2.1-1.7-3.7-3.7-3.7h-49.5z"/><path class="st1" d="M1006.9 282.6c3.3 4.6 2.3 11-2.4 14.3l-58.4 41.9c-4.6 3.3-11 2.3-14.3-2.4-3.3-4.6-2.3-11 2.4-14.3l58.4-42c4.6-3.1 11-2.1 14.3 2.5z"/><path class="st2" d="M940.1 342.7c-3.8 0-7.5-1.8-9.8-5-1.9-2.6-2.6-5.8-2.1-9s2.3-6 4.9-7.9l58.4-41.9c5.4-3.9 13-2.6 16.9 2.8 3.9 5.4 2.6 13-2.8 16.9l-58.4 41.9c-2.1 1.4-4.6 2.2-7.1 2.2zm58.4-62.5c-1.7 0-3.4.5-4.9 1.6l-58.4 41.9c-1.8 1.3-3 3.3-3.4 5.5-.4 2.2.2 4.5 1.5 6.3 2.7 3.8 8 4.7 11.8 1.9l58.4-41.9c3.8-2.7 4.7-8 1.9-11.8-1.6-2.3-4.2-3.5-6.9-3.5z"/><path class="st1" d="M1029.8 292.9c3.3 4.6 2.3 11-2.4 14.3l-58.4 42c-4.6 3.3-11 2.3-14.3-2.4-3.3-4.6-2.3-11 2.4-14.3l58.4-42c4.6-3.3 11-2.2 14.3 2.4z"/><path class="st2" d="M963.1 352.9c-3.8 0-7.5-1.8-9.8-5-1.9-2.6-2.6-5.8-2.1-9s2.3-6 4.9-7.9l58.4-41.9c2.6-1.9 5.8-2.6 9-2.1s6 2.3 7.9 4.9c1.9 2.6 2.6 5.8 2.1 9s-2.3 6-4.9 7.9l-58.4 42c-2.2 1.4-4.7 2.1-7.1 2.1zm58.4-62.5c-1.8 0-3.5.5-4.9 1.6l-58.4 42c-1.8 1.3-3 3.3-3.4 5.5-.4 2.2.2 4.5 1.5 6.3 2.7 3.8 8 4.7 11.8 1.9l58.4-42c1.8-1.3 3-3.3 3.4-5.5.4-2.2-.2-4.5-1.5-6.3-1.3-1.8-3.3-3-5.5-3.4-.5 0-1-.1-1.4-.1z"/><path class="st1" d="M1024.7 323.7c3.3 4.6 2.3 11-2.4 14.3l-58.4 42c-4.6 3.3-11 2.3-14.3-2.4-3.3-4.6-2.3-11 2.3-14.3l58.4-41.9c4.6-3.3 11-2.3 14.4 2.3z"/><path class="st2" d="M957.9 383.8c-.7 0-1.3-.1-2-.2-3.2-.5-6-2.3-7.9-4.9-3.9-5.4-2.7-13 2.8-16.9l58.4-41.9c5.4-3.9 13-2.6 16.9 2.8 1.9 2.6 2.6 5.8 2.1 9s-2.3 6-4.9 7.9l-58.4 42c-2 1.4-4.5 2.2-7 2.2zm58.4-62.5c-1.7 0-3.4.5-4.9 1.6L953 364.8c-3.8 2.7-4.6 8-1.9 11.8 1.3 1.8 3.3 3 5.5 3.4 2.2.4 4.5-.2 6.3-1.5l58.4-42c1.8-1.3 3-3.3 3.4-5.5.4-2.2-.2-4.5-1.5-6.3-1.7-2.2-4.3-3.4-6.9-3.4z"/><path class="st1" d="M1019.6 355.5c3.3 4.6 2.3 11-2.4 14.3l-58.4 42c-4.6 3.3-11 2.3-14.3-2.4-3.3-4.6-2.3-11 2.4-14.3l58.4-42c4.5-3.3 11-2.2 14.3 2.4z"/><path class="st2" d="M952.8 415.5c-.7 0-1.3-.1-2-.2-3.2-.5-6-2.3-7.9-4.9-1.9-2.6-2.6-5.8-2.1-9s2.3-6 4.9-7.9l58.4-42c5.4-3.9 13-2.6 16.9 2.8 1.9 2.6 2.6 5.8 2.1 9s-2.3 6-4.9 7.9l-58.4 42c-2 1.6-4.5 2.3-7 2.3zm58.4-62.5c-1.7 0-3.4.5-4.9 1.6l-58.4 42c-1.8 1.3-3 3.3-3.4 5.5-.4 2.2.2 4.5 1.5 6.3 1.3 1.8 3.3 3 5.5 3.4 2.2.4 4.5-.2 6.3-1.5l58.4-42c1.8-1.3 3-3.3 3.4-5.5.4-2.2-.2-4.5-1.5-6.3-1.7-2.2-4.3-3.5-6.9-3.5z"/><path class="st1" d="M1000.5 426.3c0 3.9-3.2 7-7.1 7H902c-3.9 0-7.1-3.1-7.1-7V263.9c0-3.9 3.2-7 7.1-7h91.5c3.9 0 7.1 3.2 7.1 7v162.4z"/><path class="st2" d="M993.4 435.2H902c-4.9 0-8.9-4-8.9-8.9V263.9c0-4.9 4-8.9 8.9-8.9h91.5c4.9 0 8.9 4 8.9 8.9v162.4c-.1 4.9-4.1 8.9-9 8.9zM902 258.7c-2.9 0-5.3 2.3-5.3 5.2v162.4c0 2.9 2.4 5.2 5.3 5.2h91.5c2.9 0 5.3-2.3 5.3-5.2V263.9c0-2.9-2.4-5.2-5.3-5.2H902z"/><path class="st4" d="M905.8 277.1h83.7v133.3h-83.7z"/><path class="st1" d="M965.9 352.8h-36.5c-1.7 0-3.1-1.4-3.1-3.1v-12c0-1.7 1.4-3.1 3.1-3.1h36.5c1.7 0 3.1 1.4 3.1 3.1v12c0 1.7-1.4 3.1-3.1 3.1z"/><path class="st2" d="M936.5 339.4h3.3c1.9 0 2.7 1 2.7 2.2 0 1.1-.6 1.5-1 1.7.6.3 1.4.9 1.4 2.1 0 1.7-1.3 2.6-3.1 2.6h-3.3v-8.6zm3.1 3.3c.9 0 1.3-.3 1.3-1s-.5-1-1.2-1h-1.4v2h1.3zm-1.3 3.9h1.4c.8 0 1.4-.4 1.4-1.3 0-.8-.5-1.3-1.5-1.3h-1.3v2.6zm7.6-7.2v5.5c0 1 .3 1.9 1.6 1.9s1.6-.9 1.6-1.9v-5.5h1.8v5.5c0 1.8-.8 3.2-3.4 3.2-2.5 0-3.3-1.4-3.3-3.2v-5.5h1.7zm8.4 8.5v-3.2c0-.1 0-.2-.1-.3l-2.7-5.1h2c.6 1.3 1.4 2.9 1.8 3.7.6-1.2 1.2-2.5 1.8-3.7h1.8l-2.7 5c-.1.1-.1.1-.1.3v3.3h-1.8z"/><path class="st1" d="M1004.1 472.8l66.4.2-6.4-16.8c-1.2-6-4.9-11.6-4.9-17.7 0-4.5 3-9 3-18.7 0-4.7-.8-9.3-2.6-14.1l-22.2-35.3c-1.9-3-6.7-3.3-10.9-.7l-1.4.9c-4.1 2.6-6 7.1-4.1 10.1l15.1 24-.9-.2-22.1-35.2c-1.9-3-6.7-3.3-10.9-.7l-1.4.9c-4.1 2.6-6 7.1-4.1 10.1l12.4 19.8-.6-.1-15-24.3c-1.9-3-6.7-3.3-10.9-.7l-1.4.9c-4.1 2.6-6 7.1-4.1 10.1l13.7 21.9-.5.3-29.2-46.8c-1.9-3-6.7-3.3-10.9-.7l-1.4.9c-4.1 2.6-6 7.1-4.1 10.1l34.2 54.9s3.9 9.5-7.7.8l-18.5-13.8c-3-1.9-7.5-.1-10.1 4l-.9 1.3c-2.6 4.1-2.4 9 .6 10.9 27.8 19.4 61.8 46.9 61.8 43.7z"/><path class="st2" d="M1003.9 474.9c-2.2 0-7.2-3.5-30.4-20.8-10.1-7.6-21.6-16.2-32.2-23.7-1.9-1.2-3-3.3-3.2-6-.1-2.4.6-5 2.1-7.3l.9-1.4c3.2-5 8.8-7 12.6-4.6l16.9 12.7 1.7 1.2c3.1 2.3 4.7 3 5.4 3.2 0-.5-.2-1.2-.4-1.8l-34.1-54.7c-1.2-2-1.3-4.4-.3-6.8.9-2.2 2.7-4.3 5-5.7l1.4-.9c2.3-1.5 4.9-2.2 7.4-2 2.6.2 4.8 1.4 6 3.3l12.4 20c.9-2.3 2.7-4.5 5.1-6l1.4-.9c4.9-3.1 10.6-2.6 13.2 1 0-.1 0-.1.1-.2.9-2.2 2.7-4.3 5-5.7l1.4-.8c5.1-3.2 10.9-2.6 13.4 1.3l4.3 6.9c.9-2.4 2.7-4.6 5.2-6.2l1.3-.8c2.9-1.8 6.1-2.4 8.9-1.8 2 .5 3.5 1.5 4.5 3.1l22.4 35.7c1.9 4.9 2.8 9.7 2.8 14.7 0 6-1.1 10.1-2 13.4-.6 2.1-1 3.7-1 5.3 0 3.3 1.2 6.4 2.5 9.8.9 2.4 1.8 4.8 2.3 7.3l7.3 19.2-68.3-.2c-.4.1-.7.2-1 .2zm-.6-3.9l64.5.2-5.5-14.6c-.5-2.3-1.3-4.5-2.2-6.9-1.3-3.5-2.7-7.2-2.7-11.1 0-2.1.5-4 1.1-6.3.8-3.1 1.9-6.9 1.9-12.4 0-4.5-.8-8.8-2.5-13.2l-22.1-35.2c-.6-.9-1.5-1.3-2.2-1.5-1.8-.4-4.1.1-6.1 1.3l-1.4.8c-2 1.3-3.5 3.1-3.9 4.9-.2.7-.2 1.7.3 2.6l17.3 27.6-5.8-1.1-22.5-35.9c-1.3-2.1-5.1-2.1-8.3-.1l-1.4.8c-1.7 1-3 2.5-3.6 4-.3.8-.7 2.3 0 3.5l14.7 23.4-5.5-1.2-15.5-24.6c-1.3-2.1-5.1-2.2-8.3-.1l-1.4.9c-2 1.3-3.5 3.1-3.9 4.9-.2.7-.2 1.7.3 2.6l14.8 23.5-3.8 2-30.1-48.2c-.8-1.3-2.3-1.5-3.1-1.6-1.6-.1-3.5.4-5.2 1.5l-1.4.9c-1.7 1-3 2.5-3.6 4-.3.8-.7 2.3 0 3.5l34.3 55.1c.4 1.1 1.7 4.7-.5 6.4-1.7 1.3-4.2.7-8.4-2.2l-1.7-1.2-18.5-13.8c-2-1.2-5.4.3-7.5 3.5l-.9 1.4c-1.1 1.6-1.6 3.5-1.5 5.2 0 .8.3 2.4 1.5 3.2 10.6 7.5 22.2 16.2 32.3 23.8 12.2 8.8 24.5 18 28 19.7z"/><path class="st1" d="M936.3 298.4c-2.1-5.5-8.1-8.3-13.4-6.3l-19.3 7.8c-4.3 1.2-7 2.5-8.7 3.6-1.8 1.2-2.6 2.3-3.1 2.9l-20.4 26.5c-1.7 2.2-2.7 4.8-2.9 7.6l-2.5 39.7-76.2 92.6 74.3-.4 31.7-42.6c-.6-1-.9-2.2-.9-3.5v-31.5c6.5-6.9 8.4-19.1 8.4-30.2 0-6.7-1.9-24-7.1-30.4 3.2-4.3 11-12.8 11-12.8l23.3-9.4c5.3-2 7.9-8.1 5.8-13.6z"/><path class="st2" d="M785.9 474.6l78.2-95.2 2.5-39.1c.2-3.1 1.3-6.1 3.2-8.6l20.6-26.7c.6-.7 1.5-1.9 3.4-3.1 2.2-1.5 5.2-2.8 9.1-3.8l19.2-7.8c6.3-2.4 13.3.9 15.8 7.4 2.4 6.4-.6 13.6-6.9 16l-22.9 9.3c-1.3 1.4-6.8 7.4-9.8 11.3 5 7.6 6.7 23.7 6.7 30.4 0 9.7-1.5 22.9-8.4 30.9v30.8c0 .9.2 1.8.7 2.6l.6 1-33 44.3-79 .3zm140.5-181.4c-1 0-1.9.2-2.9.5l-19.5 7.9c-3.5 1-6.2 2.1-8.2 3.4-1.4.9-2.1 1.8-2.6 2.4l-.2.2-20.2 26.4c-1.5 1.9-2.3 4.2-2.5 6.6l-2.6 40.3-.4.5-73.7 89.6 69.5-.3 30.5-41c-.4-1.1-.6-2.2-.6-3.3V394l.5-.5c6.5-7 7.9-19.6 7.9-28.9 0-7.1-2-23.5-6.7-29.2l-.9-1.1.8-1.1c3.2-4.4 10.8-12.6 11.1-13l.3-.3 23.7-9.6c4.4-1.7 6.5-6.7 4.8-11.3-1.3-3.6-4.6-5.8-8.1-5.8z"/></g><g id="Bottom_Line"><path class="st2" d="M27.2 471.2h1085.7v3.7H27.2z"/><circle class="st1" cx="27.2" cy="473.1" r="9.1"/><path class="st2" d="M27.2 484c-6 0-11-4.9-11-11s4.9-11 11-11 11 4.9 11 11-5 11-11 11zm0-18.2c-4 0-7.3 3.3-7.3 7.3s3.3 7.3 7.3 7.3 7.3-3.3 7.3-7.3c0-4.1-3.3-7.3-7.3-7.3z"/><circle class="st1" cx="1112.8" cy="473.1" r="9.1"/><path class="st2" d="M1112.8 484c-6 0-11-4.9-11-11s4.9-11 11-11c6 0 11 4.9 11 11s-4.9 11-11 11zm0-18.2c-4 0-7.3 3.3-7.3 7.3s3.3 7.3 7.3 7.3 7.3-3.3 7.3-7.3c.1-4.1-3.2-7.3-7.3-7.3z"/></g><g id="BCH_Signs"><path class="st2" d="M429.1 109.5c-.8-.7-1.9-1-3.2-1.1 1.4-1.2 1.9-2.7 1.3-4.6-.2-.7-.5-1.3-1-1.7-.4-.5-1-.8-1.6-1-.6-.2-1.3-.3-2-.3s-1.5 0-2.4.1l-.9-4.1-2.5.5.8 4c-.4.1-1.1.2-2 .4l-.8-4-2.5.5.9 4.1c-.4.1-.9.2-1.6.3l-3.5.7.6 2.7 1.8-.4c.8-.2 1.4.1 1.7.8l1 4.7h.3l-.3.1 1.4 6.5c0 .6-.2.9-.8 1l-1.8.4.1 3.1 3.3-.7c.2 0 .5-.1.9-.2s.7-.1.9-.2l.9 4.1 2.5-.5-.9-4.1c.5-.1 1.1-.2 2-.4l.9 4.1 2.5-.5-.9-4.1c.9-.2 1.7-.5 2.3-.7.7-.3 1.3-.6 1.9-1 .6-.4 1-.8 1.4-1.3.3-.5.6-1 .7-1.7.2-.6.2-1.4.1-2.1-.2-1.6-.7-2.7-1.5-3.4zm-12.7-4.9c.1 0 .3-.1.6-.1.4-.1.6-.1.9-.2.2-.1.5-.1 1-.2.4-.1.7-.1 1-.1.3 0 .6 0 .9.1.4.1.6.2.9.3.2.1.4.3.6.6.2.2.3.6.4.9.1.3.1.6 0 .9 0 .3-.1.5-.3.7-.2.2-.3.4-.5.6-.2.2-.4.3-.7.5-.3.1-.6.3-.8.4-.2.1-.5.2-.9.3-.4.1-.6.2-.8.2-.2 0-.4.1-.8.2-.3.1-.5.1-.6.1l-.9-5.2zm9.2 9.6c-.1.3-.1.5-.3.7-.1.2-.3.4-.5.6-.2.2-.5.4-.7.5-.2.1-.5.3-.9.4l-.9.3-.9.3c-.4.1-.7.2-.9.2-.2 0-.5.1-.8.2-.3.1-.5.1-.6.1l-1.2-5.5c.1 0 .3-.1.8-.2.4-.1.8-.2 1-.2.3-.1.6-.1 1.1-.2.5-.1.9-.1 1.2-.1.3 0 .7 0 1.1.1s.8.2 1 .3c.3.1.5.4.8.6.2.3.4.6.5 1 .2.4.2.7.2.9zm0 0"/><path class="st1" d="M577.3 96.5c-1.5-1.2-3.4-1.9-5.8-2 2.6-2.1 3.4-4.9 2.3-8.5-.4-1.3-1-2.3-1.8-3.2-.8-.8-1.8-1.4-2.9-1.8-1.1-.4-2.4-.6-3.6-.6-1.3-.1-2.7 0-4.3.2l-1.6-7.5-4.6 1 1.5 7.3c-.8.2-2 .4-3.6.8l-1.5-7.3-4.6 1 1.6 7.5c-.6.2-1.6.4-2.9.6l-6.3 1.3 1 4.9 3.3-.7c1.5-.3 2.5.2 3.1 1.5l1.8 8.5c.2 0 .4-.1.5-.1l-.5.1 2.5 11.9c.1 1-.4 1.7-1.4 1.9l-3.3.7.2 5.6 5.9-1.2c.4-.1.9-.2 1.6-.3.7-.1 1.2-.2 1.6-.3l1.6 7.6 4.6-1-1.6-7.5c.8-.2 2-.4 3.6-.7l1.6 7.4 4.6-1-1.6-7.6c1.6-.4 3-.9 4.2-1.3 1.2-.5 2.3-1.1 3.4-1.8 1-.7 1.9-1.5 2.5-2.3.6-.9 1.1-1.9 1.4-3 .3-1.2.3-2.5.2-3.9-.4-2.9-1.3-4.9-2.7-6.2zm-23.2-8.9c.1 0 .5-.1 1.2-.3.6-.1 1.2-.3 1.6-.4.4-.1 1-.2 1.7-.3.7-.1 1.4-.1 1.9-.1s1.1 0 1.7.1c.6.1 1.2.3 1.6.5.4.3.8.6 1.2 1.1.4.5.6 1 .7 1.7.1.6.1 1.1.1 1.6-.1.5-.3.9-.6 1.3s-.6.7-.9 1c-.3.3-.8.6-1.3.9-.6.3-1 .5-1.5.6-.4.2-.9.3-1.6.5-.6.2-1.1.3-1.5.4-.3.1-.8.2-1.4.3-.6.1-.9.2-1 .2l-1.9-9.1zm16.7 17.6c-.1.5-.3.9-.5 1.3s-.6.8-1 1.1c-.4.4-.9.7-1.3.9-.4.3-.9.5-1.6.8-.6.3-1.2.5-1.6.6-.5.2-1 .3-1.7.5s-1.2.3-1.6.4c-.4.1-.9.2-1.4.3-.6.1-.9.2-1.1.2l-2.1-10c.2 0 .6-.1 1.4-.3.8-.2 1.4-.3 1.9-.4.5-.1 1.2-.2 2.1-.3.9-.1 1.6-.2 2.2-.2.6 0 1.3 0 2.1.1s1.4.3 1.9.5c.5.3 1 .6 1.4 1.1.4.5.7 1.1.8 1.8.1.5.2 1.1.1 1.6zm0 0"/><path class="st2" d="M708.1 102.7c-.8-.7-1.9-1-3.2-1.1 1.4-1.2 1.9-2.7 1.3-4.6-.2-.7-.5-1.3-1-1.7-.4-.5-1-.8-1.6-1-.6-.2-1.3-.3-2-.3s-1.5 0-2.4.1l-.9-4.1-2.5.5.8 4c-.4.1-1.1.2-2 .4l-.8-4-2.5.5.9 4.1c-.4.1-.9.2-1.6.3l-3.5.7.6 2.7 1.8-.4c.8-.2 1.4.1 1.7.8l1 4.7h.3l-.3.1 1.4 6.5c0 .6-.2.9-.8 1l-1.8.4.1 3.1 3.3-.7c.2 0 .5-.1.9-.2s.7-.1.9-.2l.9 4.1 2.5-.5-.9-4.1c.5-.1 1.1-.2 2-.4l.9 4.1 2.5-.5-.9-4.1c.9-.2 1.7-.5 2.3-.7.7-.3 1.3-.6 1.9-1 .6-.4 1-.8 1.4-1.3.3-.5.6-1 .7-1.7.2-.6.2-1.4.1-2.1-.2-1.6-.7-2.7-1.5-3.4zm-12.7-4.9c.1 0 .3-.1.6-.1.4-.1.6-.1.9-.2.2-.1.5-.1 1-.2.4-.1.7-.1 1-.1.3 0 .6 0 1 .1s.6.2.9.3c.2.1.4.3.6.6.2.2.3.6.4.9.1.3.1.6 0 .9 0 .3-.1.5-.3.7-.2.2-.3.4-.5.6-.2.2-.4.3-.7.5-.3.1-.6.3-.8.4-.2.1-.5.2-.9.3-.4.1-.6.2-.8.2-.2 0-.4.1-.8.2-.3.1-.5.1-.6.1l-1-5.2zm9.2 9.7c-.1.3-.1.5-.3.7-.1.2-.3.4-.5.6-.2.2-.5.4-.7.5-.2.1-.5.3-.9.4l-.9.3-.9.3c-.4.1-.7.2-.9.2-.2 0-.5.1-.8.2-.3.1-.5.1-.6.1l-1.2-5.5c.1 0 .3-.1.8-.2.4-.1.8-.2 1-.2.3-.1.6-.1 1.1-.2.5-.1.9-.1 1.2-.1.3 0 .7 0 1.1.1.4.1.8.2 1 .3.3.1.5.4.8.6.2.3.4.6.5 1 .2.3.2.6.2.9zm139.2 177.6c-.8-.7-1.9-1-3.2-1.1 1.4-1.2 1.9-2.7 1.3-4.6-.2-.7-.5-1.3-1-1.7-.4-.5-1-.8-1.6-1-.6-.2-1.3-.3-2-.3s-1.5 0-2.4.1l-.9-4.1-2.5.5.8 4c-.4.1-1.1.2-2 .4l-.8-4-2.5.5.9 4.1c-.4.1-.9.2-1.6.3l-3.5.7.6 2.7 1.8-.4c.8-.2 1.4.1 1.7.8l1 4.7h.3l-.3.1 1.4 6.5c0 .6-.2.9-.8 1l-1.8.4.1 3.1 3.3-.7c.2 0 .5-.1.9-.2s.7-.1.9-.2l.9 4.1 2.5-.5-.9-4.1c.5-.1 1.1-.2 2-.4l.9 4.1 2.5-.5-.9-4.1c.9-.2 1.7-.5 2.3-.7.7-.3 1.3-.6 1.9-1 .6-.4 1-.8 1.4-1.3.3-.5.6-1 .7-1.7.2-.6.2-1.4.1-2.1-.2-1.6-.7-2.7-1.5-3.4zm-12.7-4.9c.1 0 .3-.1.6-.1.4-.1.6-.1.9-.2.2-.1.5-.1 1-.2.4-.1.7-.1 1-.1.3 0 .6 0 .9.1.4.1.6.2.9.3.2.1.4.3.6.6.2.2.3.6.4.9.1.3.1.6 0 .9 0 .3-.1.5-.3.7-.2.2-.3.4-.5.6-.2.2-.4.3-.7.5-.3.1-.6.3-.8.4-.2.1-.5.2-.9.3-.4.1-.6.2-.8.2-.2 0-.4.1-.8.2-.3.1-.5.1-.6.1l-.9-5.2zm9.1 9.6c-.1.3-.1.5-.3.7-.1.2-.3.4-.5.6-.2.2-.5.4-.7.5-.2.1-.5.3-.9.4l-.9.3-.9.3c-.4.1-.7.2-.9.2-.2 0-.5.1-.8.2-.3.1-.5.1-.6.1l-1.2-5.5c.1 0 .3-.1.8-.2.4-.1.8-.2 1-.2.3-.1.6-.1 1.1-.2.5-.1.9-.1 1.2-.1.3 0 .7 0 1.1.1.4.1.8.2 1 .3.3.1.5.4.8.6.2.3.4.6.5 1 .3.4.3.7.2.9zm-693.4-5.1c-.8-.7-1.9-1-3.2-1.1 1.4-1.2 1.9-2.7 1.3-4.6-.2-.7-.5-1.3-1-1.7-.4-.5-1-.8-1.6-1-.6-.2-1.3-.3-2-.3s-1.5 0-2.4.1l-.9-4.1-2.5.5.8 4c-.4.1-1.1.2-2 .4l-.8-4-2.5.5.9 4.1c-.4.1-.9.2-1.6.3l-3.5.7.6 2.7 1.8-.4c.8-.2 1.4.1 1.7.8l1 4.7h.3l-.3.1 1.4 6.5c0 .6-.2.9-.8 1l-1.8.4.1 3.1 3.3-.7c.2 0 .5-.1.9-.2s.7-.1.9-.2l.9 4.1 2.5-.5-.9-4.1c.5-.1 1.1-.2 2-.4l.9 4.1 2.5-.5-.9-4.1c.9-.2 1.7-.5 2.3-.7.7-.3 1.3-.6 1.9-1 .6-.4 1-.8 1.4-1.3.3-.5.6-1 .7-1.7.2-.6.2-1.4.1-2.1-.2-1.6-.7-2.7-1.5-3.4zm-12.7-4.9c.1 0 .3-.1.6-.1.4-.1.6-.1.9-.2.2-.1.5-.1 1-.2.4-.1.7-.1 1-.1.3 0 .6 0 .9.1.4.1.6.2.9.3.2.1.4.3.6.6.2.2.3.6.4.9.1.3.1.6 0 .9 0 .3-.1.5-.3.7-.2.2-.3.4-.5.6-.2.2-.4.3-.7.5-.3.1-.6.3-.8.4-.2.1-.5.2-.9.3-.4.1-.6.2-.8.2-.2 0-.4.1-.8.2-.3.1-.5.1-.6.1l-.9-5.2zm9.2 9.6c-.1.3-.1.5-.3.7-.1.2-.3.4-.5.6-.2.2-.5.4-.7.5-.2.1-.5.3-.9.4l-.9.3-.9.3c-.4.1-.7.2-.9.2-.2 0-.5.1-.8.2-.3.1-.5.1-.6.1l-1.2-5.5c.1 0 .3-.1.8-.2.4-.1.8-.2 1-.2.3-.1.6-.1 1.1-.2.5-.1.9-.1 1.2-.1.3 0 .7 0 1.1.1.4.1.8.2 1 .3.3.1.5.4.8.6.2.3.4.6.5 1 .2.4.2.7.2.9zm0 0"/><path class="st3" d="M605.3 414.1c-1.9-1.6-4.5-2.5-7.7-2.6 3.5-2.8 4.5-6.5 3-11.2-.5-1.7-1.3-3.1-2.4-4.2-1.1-1.1-2.4-1.9-3.9-2.4s-3.1-.8-4.8-.8c-1.7-.1-3.6 0-5.7.3l-2.1-9.9-6 1.3 2 9.6c-1 .2-2.6.6-4.8 1.1l-2-9.7-6 1.3 2.1 9.9c-.9.2-2.1.5-3.8.8l-8.3 1.7 1.3 6.4 4.4-.9c2-.4 3.3.2 4.1 1.9l2.4 11.3c.3-.1.5-.1.6-.1l-.7.1 3.3 15.8c.1 1.4-.5 2.2-1.9 2.5l-4.4.9.3 7.4 7.9-1.6c.5-.1 1.2-.2 2.2-.4.9-.2 1.7-.3 2.1-.4l2.1 10 6-1.3-2.1-9.9c1.1-.2 2.7-.5 4.8-1l2.1 9.9 6-1.3-2.1-10c2.1-.6 4-1.2 5.6-1.8 1.6-.6 3.1-1.4 4.5-2.4 1.4-.9 2.5-2 3.3-3.1.8-1.1 1.4-2.5 1.8-4 .4-1.6.5-3.3.2-5.2-.3-3.7-1.4-6.4-3.4-8zm-30.7-11.9c.2 0 .7-.2 1.5-.3.8-.2 1.6-.4 2.1-.5.6-.1 1.3-.3 2.3-.4 1-.1 1.8-.2 2.5-.2s1.4.1 2.3.2c.8.1 1.6.4 2.1.7.6.3 1.1.8 1.5 1.4.5.6.8 1.3 1 2.2.2.7.2 1.4.1 2.1-.1.7-.4 1.2-.7 1.7-.4.5-.8 1-1.2 1.4-.4.4-1 .8-1.8 1.1-.7.3-1.4.6-1.9.9-.6.2-1.3.4-2.1.7-.9.2-1.5.4-1.9.5-.4.1-1 .2-1.8.4-.8.1-1.2.2-1.4.3l-2.6-12.2zm22.1 23.3c-.1.7-.3 1.2-.6 1.8-.3.5-.7 1-1.3 1.5-.6.5-1.1.9-1.7 1.2-.6.3-1.2.7-2.1 1-.8.3-1.5.6-2.2.8-.6.2-1.4.4-2.3.6-.9.2-1.6.4-2.1.5-.5.1-1.1.2-1.9.4-.8.1-1.2.2-1.5.3l-2.8-13.3c.2 0 .8-.2 1.9-.4 1-.2 1.9-.4 2.5-.6.7-.1 1.6-.3 2.7-.5 1.2-.2 2.2-.2 3-.3.8 0 1.7.1 2.7.2 1 .1 1.8.4 2.5.7.7.4 1.3.9 1.8 1.5.5.7.9 1.4 1.1 2.4.4.8.4 1.5.3 2.2zm0 0"/><path class="st2" d="M224.1 291.8c-.5-.5-1.3-.7-2.2-.7 1-.8 1.3-1.9.9-3.2-.1-.5-.4-.9-.7-1.2-.3-.3-.7-.5-1.1-.7-.4-.1-.9-.2-1.4-.2-.5 0-1 0-1.6.1l-.6-2.8-1.7.4.6 2.7c-.3.1-.7.2-1.4.3l-.6-2.8-1.7.4.6 2.8c-.2.1-.6.1-1.1.2l-2.4.5.4 1.8 1.2-.3c.6-.1.9.1 1.2.6l.7 3.2h.2-.2l.9 4.5c0 .4-.2.6-.5.7l-1.2.3.1 2.1 2.2-.5c.1 0 .3-.1.6-.1.3-.1.5-.1.6-.1l.6 2.8 1.7-.4-.6-2.8c.3-.1.8-.1 1.4-.3l.6 2.8 1.7-.4-.6-2.8c.6-.2 1.1-.3 1.6-.5s.9-.4 1.3-.7c.4-.3.7-.6.9-.9.2-.3.4-.7.5-1.1.1-.4.1-.9.1-1.5-.1-.9-.4-1.7-1-2.2zm-8.7-3.3c.1 0 .2 0 .4-.1s.4-.1.6-.1c.2 0 .4-.1.7-.1.3 0 .5-.1.7-.1.2 0 .4 0 .7.1.2 0 .4.1.6.2.2.1.3.2.4.4l.3.6v.6c0 .2-.1.3-.2.5-.1.1-.2.3-.3.4-.1.1-.3.2-.5.3-.2.1-.4.2-.5.2-.2.1-.4.1-.6.2-.2.1-.4.1-.6.1-.1 0-.3.1-.5.1s-.3.1-.4.1l-.8-3.4zm6.3 6.6c0 .2-.1.4-.2.5-.1.1-.2.3-.4.4-.2.1-.3.3-.5.3l-.6.3c-.2.1-.4.2-.6.2-.2.1-.4.1-.6.2-.3.1-.4.1-.6.1-.1 0-.3.1-.5.1s-.4.1-.4.1l-.8-3.8c.1 0 .2-.1.5-.1.3-.1.5-.1.7-.2.2 0 .4-.1.8-.1.3 0 .6-.1.8-.1.2 0 .5 0 .8.1.3 0 .5.1.7.2.2.1.4.2.5.4.2.2.3.4.3.7.1.3.1.5.1.7zm-90.9 41.1c-.6-.5-1.4-.8-2.3-.8 1-.8 1.3-2 .9-3.4-.2-.5-.4-.9-.7-1.3-.3-.3-.7-.6-1.2-.7-.5-.1-.9-.2-1.4-.3-.5 0-1.1 0-1.7.1l-.6-3-1.8.4.6 2.9c-.3.1-.8.2-1.4.3l-.6-2.9-1.8.4.6 3c-.3.1-.6.1-1.1.3l-2.5.5.4 1.9 1.3-.3c.6-.1 1 .1 1.2.6l.7 3.4h.2-.2l1 4.7c0 .4-.2.7-.6.7l-1.3.3.1 2.2 2.4-.5c.1 0 .4-.1.6-.1.3-.1.5-.1.6-.1l.6 3 1.8-.4-.6-3c.3-.1.8-.2 1.4-.3l.6 3 1.8-.4-.6-3c.6-.2 1.2-.3 1.7-.5s.9-.4 1.3-.7c.4-.3.7-.6 1-.9.2-.3.4-.7.5-1.2.1-.5.1-1 .1-1.6-.1-1-.4-1.8-1-2.3zm-9.2-3.6c.1 0 .2 0 .5-.1s.5-.1.6-.1c.2 0 .4-.1.7-.1.3 0 .5-.1.7-.1.2 0 .4 0 .7.1.3 0 .5.1.6.2.2.1.3.2.5.4.1.2.2.4.3.7 0 .2.1.4 0 .6 0 .2-.1.4-.2.5-.1.2-.2.3-.4.4-.1.1-.3.2-.5.3l-.6.3c-.2.1-.4.1-.6.2-.3.1-.5.1-.6.1-.1 0-.3.1-.5.1s-.4.1-.4.1l-.8-3.6zm6.6 7c0 .2-.1.4-.2.5-.1.2-.2.3-.4.5-.2.1-.3.3-.5.4l-.6.3c-.2.1-.5.2-.7.2-.2.1-.4.1-.7.2-.3.1-.5.1-.6.1-.1 0-.3.1-.6.1-.2 0-.4.1-.4.1l-.8-4c.1 0 .2-.1.6-.1.3-.1.6-.1.8-.2s.5-.1.8-.1c.4 0 .6-.1.9-.1.2 0 .5 0 .8.1.3 0 .6.1.8.2.2.1.4.3.5.5.2.2.3.4.3.7v.6zm700.4-3.7c-.6-.5-1.4-.8-2.3-.8 1-.8 1.3-2 .9-3.4-.2-.5-.4-.9-.7-1.3-.3-.3-.7-.6-1.2-.7-.5-.1-.9-.2-1.4-.3-.5 0-1.1 0-1.7.1l-.6-3-1.8.4.6 2.9c-.3.1-.8.2-1.4.3l-.6-2.9-1.8.4.6 3c-.3.1-.6.1-1.1.3l-2.5.5.4 1.9 1.3-.3c.6-.1 1 .1 1.2.6l.7 3.4h.2-.2l1 4.7c0 .4-.2.7-.6.7l-1.3.3.1 2.2 2.4-.5c.1 0 .4-.1.6-.1.3-.1.5-.1.6-.1l.6 3 1.8-.4-.6-3c.3-.1.8-.2 1.4-.3l.6 3 1.8-.4-.6-3c.6-.2 1.2-.3 1.7-.5s.9-.4 1.3-.7c.4-.3.7-.6 1-.9.2-.3.4-.7.5-1.2.1-.5.1-1 .1-1.6-.1-1-.5-1.8-1-2.3zm-9.3-3.6c.1 0 .2 0 .5-.1s.5-.1.6-.1c.2 0 .4-.1.7-.1.3 0 .5-.1.7-.1.2 0 .4 0 .7.1.3 0 .5.1.6.2.2.1.3.2.5.4.1.2.2.4.3.7 0 .2.1.4 0 .6 0 .2-.1.4-.2.5-.1.2-.2.3-.4.4-.1.1-.3.2-.5.3l-.6.3c-.2.1-.4.1-.6.2-.3.1-.5.1-.6.1-.1 0-.3.1-.5.1s-.4.1-.4.1l-.8-3.6zm6.7 7c0 .2-.1.4-.2.5-.1.2-.2.3-.4.5-.2.1-.3.3-.5.4l-.6.3c-.2.1-.5.2-.7.2-.2.1-.4.1-.7.2-.3.1-.5.1-.6.1-.1 0-.3.1-.6.1-.2 0-.4.1-.4.1l-.8-4c.1 0 .2-.1.6-.1.3-.1.6-.1.8-.2s.5-.1.8-.1c.4 0 .6-.1.9-.1.2 0 .5 0 .8.1.3 0 .6.1.8.2.2.1.4.3.5.5.2.2.3.4.3.7v.6zm0 0"/></g><g id="Layer_9"><path class="st1" d="M559.6 3.3c-40.3-.1-73.3 32.6-73.5 73.1-.2 40.4 32.3 73.4 72.6 73.8 41.5.4 74.2-33.1 74.3-73.3.1-40.5-32.7-73.6-73.4-73.6z"/><path class="st3" d="M559.6 11.2c36.3-.1 65.7 29.6 65.6 65.7 0 36-29.3 65.9-66.4 65.5-36-.3-65.1-29.8-64.9-66 .2-36.1 29.7-65.3 65.7-65.2zm-44.3 99.2s0 .1-.1.1c.2.3.4.5.6.8 3.9 4.9 8.4 9 13.6 12.4 7.9 5.1 16.6 8 26 8.7 2.5.2 5 .1 7.5 0 3-.1 6-.5 8.9-1.2 14.2-3.4 25.5-11.1 33.7-23 5.5-8 8.6-17 9.5-26.7 0-.4-.1-.5-.5-.6-2.9 0-5.7.4-8.5 1.2-5.2 1.5-10 3.8-14.5 6.8-3.2 2.1-6.3 4.4-9.5 6.6-8 5.6-16.6 10.2-26 13.2-6.6 2.1-13.4 3.4-20.4 3.7-3.3.1-6.7.2-10-.3-2.9-.4-5.8-.9-8.7-1.3-.4-.1-1-.3-1.6-.4zM615.2 76v-.6c0-.8 0-1.7-.1-2.5-.3-2.2-.6-4.4-.8-6.7 0-.3-.2-.4-.5-.4-4 0-7.9.7-11.7 1.8-6 1.7-11.6 4.4-17 7.6-4 2.4-7.6 5.1-11.4 7.8-7 5-14.5 8.9-22.7 11.5-4.7 1.5-9.6 2.4-14.5 2.7-2.3.1-4.7.1-7 0-2.4-.1-4.7-.4-7.1-.8-5.6-.9-11-2.7-16.1-5.1-.1-.1-.3-.1-.5-.2v.3c1.2 4.3 2.8 8.4 5 12.3.1.2.4.4.6.5 6.4 2.1 13.1 3.2 19.8 3.3 2.8 0 5.6-.1 8.4-.4 2.9-.3 5.8-.8 8.7-1.4 7.8-1.7 15.1-4.7 22.1-8.6 4.7-2.6 9-5.7 13.4-8.9 5.2-3.8 10.8-7.2 16.9-9.5 4-1.5 8.1-2.6 12.3-2.7h2.2zm-70.8-25.1l-.3-.3c-2.5-2.4-5.4-3.9-8.9-4.1-4.3-.3-8 1.1-11.1 4.1-.3.3-.3.5 0 .8 2.9 3.4 6.6 5.2 11.1 5.2 3.6 0 6.7-1.3 9.4-3.8.1-.1.2-.1.3-.2.1.2.2.3.3.5 4 5.8 6.7 12.2 8.3 19 .8 3.1 1.2 6.3 1.5 9.5 0 .4.1.7-.4.9-6.5 2.9-13.4 4.6-20.5 4.8-4 .1-7.9-.2-11.8-1.1-6.3-1.4-12.2-3.9-17.7-7.3l-.6-.3v.4c.2 1.8.3 3.6.5 5.4 0 .4.2.5.5.7 7.7 4.2 16 6.8 24.8 7.3 3.2.2 6.5.1 9.7-.4 4.2-.5 8.3-1.5 12.3-2.9 7.7-2.7 14.7-6.7 21.2-11.6 6-4.5 12.3-8.5 19.1-11.5 6.5-2.9 13.3-4.8 20.4-5.1.2 0 .4-.1.6-.1-.6-1.6-1.2-3.2-1.7-4.8 0-.1-.3-.2-.4-.2-1.5.1-3.1.3-4.6.5-4.8.7-9.4 2.1-13.9 3.9-7.6 3-14.5 7.2-21.1 12-4 3-8.1 5.8-12.6 8.1l-.6.3c-1.5-10.2-5-19.6-11.2-28.1.2.1.3.1.4.1 2.8 1.1 5.7 1.4 8.6.9 6-1 10.4-4.4 13-9.9.2-.4.1-.6-.3-.8-3.4-1.9-7-2.8-10.9-2.2-4.3.6-7.8 2.5-10.7 5.7-1.1 1.5-2 3-2.7 4.6z"/></g></svg>