<?xml version="1.0" encoding="utf-8"?>
<!-- Generator: Adobe Illustrator 22.0.1, SVG Export Plug-In . SVG Version: 6.00 Build 0)  -->
<svg version="1.1" xmlns="http://www.w3.org/2000/svg" xmlns:xlink="http://www.w3.org/1999/xlink" x="0px" y="0px"
	 viewBox="0 0 450 350" style="enable-background:new 0 0 450 350;" xml:space="preserve">
<style type="text/css">
	.st0{fill:#FFFFFF;stroke:#555E5B;stroke-width:4;stroke-miterlimit:10;}
	.st1{fill:#35A283;}
	.st2{fill:#FFFFFF;}
	.st3{fill:#E4E4E4;stroke:#555E5B;stroke-width:4;stroke-miterlimit:10;}
	.st4{fill:#FFF581;}
	.st5{fill:#E4E4E4;}
	.st6{fill:none;stroke:#555E5B;stroke-width:4;stroke-miterlimit:10;}
	.st7{fill:#F99F1C;stroke:#555E5B;stroke-width:4;stroke-miterlimit:10;}
	.st8{fill:none;stroke:#35A283;stroke-width:4;stroke-miterlimit:10;}
	.st9{fill:#59BDE9;stroke:#555E5B;stroke-width:4;stroke-miterlimit:10;}
	.st10{fill:none;stroke:#555E5B;stroke-miterlimit:10;}
	.st11{fill:#FFF581;stroke:#555E5B;stroke-width:4;stroke-linejoin:round;stroke-miterlimit:10;}
	.st12{fill:#FFF581;stroke:#555E5B;stroke-width:4;stroke-linecap:round;stroke-linejoin:round;stroke-miterlimit:10;}
	.st13{fill:#555E5B;}
	.st14{fill:none;stroke:#555E5B;stroke-width:4;stroke-linecap:round;stroke-linejoin:round;stroke-miterlimit:10;}
	.st15{fill:none;stroke:#555E5B;stroke-width:4;stroke-miterlimit:10;stroke-dasharray:4.3577,4.3577;}
	.st16{fill:none;stroke:#555E5B;stroke-width:4;stroke-miterlimit:10;stroke-dasharray:4.0057,4.0057;}
	.st17{fill:#FFFFFF;stroke:#555E5B;stroke-width:4;stroke-linejoin:round;stroke-miterlimit:10;}
	.st18{fill:#59BDE9;}
	.st19{fill:#F99F1C;}
</style>
<g id="Layer_8">
</g>
<g id="circle">
	<path class="st0" d="M364.5,11.4c-38.7,0-70,31.4-70,70c0,12.9,3.5,24.9,9.6,35.3l-9.5,36.3l31.5-13.1c11,7.3,24.2,11.5,38.4,11.5
		c38.7,0,70-31.4,70-70S403.2,11.4,364.5,11.4z"/>
	<circle class="st1" cx="364.5" cy="82.2" r="59"/>
	<g>
		<path class="st2" d="M390.7,79.7c-2.1-1.8-4.9-2.8-8.5-2.9c3.8-3.1,4.9-7.2,3.3-12.3c-0.6-1.9-1.4-3.4-2.6-4.6
			c-1.2-1.2-2.6-2.1-4.3-2.6c-1.7-0.5-3.4-0.8-5.3-0.9c-1.8-0.1-3.9,0-6.2,0.3l-2.3-10.8l-6.6,1.4l2.2,10.5
			c-1.1,0.2-2.9,0.6-5.2,1.2L353,48.4l-6.6,1.4l2.3,10.8c-0.9,0.2-2.3,0.5-4.2,0.9l-9.1,1.9l1.5,7.1l4.8-1c2.2-0.5,3.7,0.3,4.4,2.1
			l2.6,12.3c0.3-0.1,0.5-0.1,0.7-0.1l-0.7,0.1l3.6,17.3c0.1,1.5-0.6,2.4-2,2.7l-4.8,1l0.3,8.1l8.6-1.8c0.5-0.1,1.3-0.3,2.4-0.5
			c1-0.2,1.8-0.4,2.3-0.5l2.3,11l6.6-1.4l-2.3-10.8c1.2-0.2,3-0.6,5.3-1.1l2.3,10.8l6.6-1.4l-2.3-11c2.3-0.6,4.4-1.3,6.1-2
			c1.8-0.7,3.4-1.6,4.9-2.6c1.5-1,2.7-2.2,3.6-3.4c0.9-1.2,1.6-2.7,2-4.4c0.4-1.7,0.5-3.6,0.3-5.7C394.1,84.5,392.8,81.5,390.7,79.7
			L390.7,79.7z M357,66.8c0.2,0,0.8-0.2,1.7-0.4c0.9-0.2,1.7-0.4,2.3-0.5c0.6-0.1,1.5-0.3,2.5-0.4c1.1-0.1,2-0.2,2.7-0.2
			c0.7,0,1.6,0.1,2.5,0.2c0.9,0.1,1.7,0.4,2.3,0.8c0.6,0.4,1.2,0.9,1.7,1.5c0.5,0.7,0.9,1.5,1.1,2.4c0.2,0.8,0.2,1.6,0.1,2.3
			c-0.1,0.7-0.4,1.3-0.8,1.9c-0.4,0.6-0.9,1.1-1.3,1.5c-0.5,0.4-1.1,0.9-1.9,1.2c-0.8,0.4-1.5,0.7-2.1,0.9c-0.6,0.2-1.4,0.5-2.3,0.7
			c-0.9,0.2-1.6,0.4-2.1,0.5c-0.5,0.1-1.1,0.3-2,0.4c-0.8,0.2-1.3,0.3-1.5,0.3L357,66.8L357,66.8z M381.2,92.2
			c-0.1,0.7-0.4,1.4-0.7,1.9c-0.3,0.6-0.8,1.1-1.4,1.6c-0.6,0.5-1.2,1-1.9,1.3c-0.6,0.4-1.4,0.7-2.3,1.1c-0.9,0.4-1.7,0.7-2.4,0.9
			c-0.7,0.2-1.5,0.5-2.5,0.7c-1,0.2-1.7,0.4-2.3,0.5c-0.5,0.1-1.2,0.3-2.1,0.4c-0.8,0.2-1.4,0.3-1.6,0.3l-3-14.5
			c0.2,0,0.9-0.2,2-0.5c1.1-0.3,2-0.5,2.8-0.6c0.7-0.2,1.7-0.3,3-0.5c1.3-0.2,2.4-0.3,3.3-0.3c0.9,0,1.9,0.1,3,0.2
			c1.1,0.1,2,0.4,2.7,0.8c0.7,0.4,1.4,0.9,2,1.6c0.6,0.7,1,1.6,1.2,2.6C381.4,90.8,381.4,91.5,381.2,92.2L381.2,92.2z M381.2,92.2"
			/>
	</g>
</g>
<g id="doc">
	<rect x="196.3" y="94.1" class="st3" width="142.7" height="173.9"/>
	<path class="st2" d="M326.8,208.2V102.1h-119v135.2c0,7,5.7,12.7,12.7,12.7h1.6h115.4c7,0,12.7-5.7,12.7-12.7v-16.3L326.8,208.2"/>
	<line class="st4" x1="245.3" y1="208.2" x2="359.5" y2="208.2"/>
	<path class="st5" d="M245.9,208.2h114.3c7,0,12.7,5.7,12.7,12.7v6.9H258.6v-6.9C258.6,213.9,252.9,208.2,245.9,208.2"/>
	<path class="st4" d="M220.5,250c7,0,12.7-5.7,12.7-12.7v-16.3c0-7,5.7-12.7,12.7-12.7c7,0,12.7,5.7,12.7,12.7v6.9h85.7l3.2,1.4v8.1
		c0,7-5.7,12.7-12.7,12.7H225.1H220.5z"/>
	<g>
		<rect x="222.7" y="143.1" class="st6" width="12" height="12"/>
		<line class="st6" x1="243.2" y1="145.5" x2="314.7" y2="145.5"/>
		<line class="st6" x1="243.2" y1="152" x2="292.8" y2="152"/>
	</g>
	<g>
		<rect x="222.7" y="165.3" class="st6" width="12" height="12"/>
		<line class="st6" x1="243.2" y1="167.7" x2="314.7" y2="167.7"/>
		<line class="st6" x1="243.2" y1="174.2" x2="292.8" y2="174.2"/>
	</g>
	<g>
		<rect x="222.7" y="187.5" class="st6" width="12" height="12"/>
		<line class="st6" x1="243.2" y1="189.8" x2="314.7" y2="189.8"/>
		<line class="st6" x1="243.2" y1="196.4" x2="292.8" y2="196.4"/>
	</g>
	<path class="st6" d="M347.5,229.2v8.1c0,7-5.7,12.7-12.7,12.7H219.4"/>
	<path class="st6" d="M245.3,208.2h114.3l0.6,0c7,0,12.7,5.7,12.7,12.7v6.9H258.6v-6.9c0-7-5.7-12.7-12.7-12.7
		c-7,0-12.7,5.7-12.7,12.7v16.3c0,7-5.7,12.7-12.7,12.7s-12.7-5.7-12.7-12.7V102.1h119v106.1"/>
	<path class="st7" d="M276.7,86.4c-0.7-4.3-4.5-7.6-9-7.6c-4.5,0-8.3,3.3-9,7.6h-19.6v22.6h57.2V86.4H276.7z"/>
	<circle class="st3" cx="331.3" cy="153.5" r="36.8"/>
	<rect x="318.5" y="135.8" class="st0" width="18.3" height="18.3"/>
	<line class="st6" x1="314.8" y1="162.8" x2="350.2" y2="162.8"/>
	<line class="st6" x1="314.8" y1="169.7" x2="350.2" y2="169.7"/>
	<line class="st6" x1="314.8" y1="176.6" x2="332.5" y2="176.6"/>
	<polyline class="st8" points="322.2,141.7 329.4,148.3 348.5,130.1 	"/>
</g>
<g id="Layer_9">
	<polygon class="st0" points="166.1,205.4 179.2,205.4 171.1,147.5 161.9,141.6 140.8,141.6 135.9,147.5 127.7,205.4 140.8,205.4 	
		"/>
	<path class="st9" d="M150.5,195.7l-18.3-35.5l-35.7,12.9c0,0-17.4,5.9-13.6,22.6H150.5z"/>
	<path class="st9" d="M158.3,195.7l18.3-35.5l35.7,12.9c0,0,17.4,5.9,13.6,22.6H158.3z"/>
	<path class="st0" d="M186.1,107.6c0,24.3-15.4,50.4-34.4,50.4s-34.4-26.2-34.4-50.4s15.4-43.9,34.4-43.9S186.1,83.3,186.1,107.6z"
		/>
	<path class="st10" d="M142.2,102.9"/>
	<path class="st11" d="M183,116.2c-2.2-4.2-3.1-13.3-3.1-13.3c-5.8-14.8-14.1-18.4-14.1-18.4c-9.2,9-21.4,18.6-28.9,22.8
		s-10.7,0-10.7,0s1.6,8.4-3,15c0,0-1.9,8.5,0,16.3c0,0-17.3-7.6-17.3-42.4c0,0-0.3-42.3,29.4-42.3c0,0,17.9-0.6,25.8,9.2
		c0,0,11.8-7.4,21.7,3s9,13.3,9,13.3s0.7,3.4,0,9.1c0,0-1.3,15.8,1.9,18.7c0,0,1.7,1.9-0.8,4.3C193.2,111.4,185.7,121.3,183,116.2z"
		/>
	<path class="st12" d="M164.9,139.4c-3.9,0.8-8.3,1.2-13,1.2c-5,0-9.7-0.5-13.8-1.4"/>
	<circle class="st13" cx="161.6" cy="114.2" r="3.9"/>
	<circle class="st13" cx="136.4" cy="115.8" r="3.9"/>
	<polyline class="st14" points="149.2,114.2 146.5,131.3 153.4,131.8 	"/>
	<path class="st3" d="M70.2,190.3h166.5c5,0,9,4,9,9v96.4c0,5-4,9-9,9H70.2c-5,0-9-4-9-9v-96.4C61.2,194.3,65.3,190.3,70.2,190.3z"
		/>
	<line class="st6" x1="61.2" y1="294.6" x2="245.7" y2="294.6"/>
	<circle class="st0" cx="153.5" cy="234.1" r="12.6"/>
</g>
<g id="arrow_up">
	<polygon class="st13" points="19.5,208.3 28.6,185.7 28.6,185.7 37.8,208.3 28.6,202.4 	"/>
	<g>
		<g>
			<line class="st6" x1="54.4" y1="272.1" x2="52.4" y2="272.1"/>
			<line class="st15" x1="48.1" y1="272.1" x2="32.8" y2="272.1"/>
			<polyline class="st6" points="30.6,272.1 28.6,272.1 28.6,270.1 			"/>
			<line class="st16" x1="28.6" y1="266.1" x2="28.6" y2="204"/>
			<line class="st6" x1="28.6" y1="202" x2="28.6" y2="200"/>
		</g>
	</g>
	<circle class="st7" cx="61.2" cy="272.1" r="6.8"/>
</g>
<g id="mouse">
	<polygon class="st17" points="373.8,273.4 326.6,258.8 335.1,307.5 345.9,289.1 363.3,308.8 372,301.2 354.7,281.6 	"/>
</g>
<g id="Layer_14">
	<rect x="257.6" y="292.5" class="st1" width="41.3" height="41.3"/>
	<rect x="250.2" y="286" class="st2" width="27" height="25"/>
	<g>
		<g>
			<line class="st6" x1="32.1" y1="304.8" x2="37" y2="299.8"/>
			<line class="st6" x1="19.9" y1="316.9" x2="24.9" y2="311.9"/>
		</g>
		<g>
			<line class="st6" x1="32.1" y1="311.9" x2="37" y2="316.9"/>
			<line class="st6" x1="19.9" y1="299.8" x2="24.9" y2="304.8"/>
		</g>
	</g>
	<g>
		<g>
			<line class="st6" x1="204.9" y1="55.6" x2="209.9" y2="50.6"/>
			<line class="st6" x1="192.8" y1="67.7" x2="197.8" y2="62.7"/>
		</g>
		<g>
			<line class="st6" x1="204.9" y1="62.7" x2="209.9" y2="67.7"/>
			<line class="st6" x1="192.8" y1="50.6" x2="197.8" y2="55.6"/>
		</g>
	</g>
	<g>
		<g>
			<rect x="249.1" y="283.9" class="st13" width="6.3" height="4.8"/>
			<rect x="260.5" y="283.9" class="st13" width="6.3" height="4.8"/>
			<rect x="271.9" y="283.9" class="st13" width="6.3" height="4.8"/>
		</g>
		<g>
			<rect x="249.1" y="308.3" class="st13" width="6.3" height="4.8"/>
			<rect x="260.5" y="308.3" class="st13" width="6.3" height="4.8"/>
			<rect x="271.9" y="308.3" class="st13" width="6.3" height="4.8"/>
		</g>
		
			<rect x="272.7" y="296.1" transform="matrix(-1.836970e-16 1 -1 -1.836970e-16 574.4207 22.6058)" class="st13" width="6.3" height="4.8"/>
		
			<rect x="248.3" y="296.1" transform="matrix(-1.836970e-16 1 -1 -1.836970e-16 549.9629 47.0637)" class="st13" width="6.3" height="4.8"/>
	</g>
	<g>
		<path class="st18" d="M201.1,325.7c0,2.6-2.1,4.8-4.8,4.8c-2.6,0-4.8-2.1-4.8-4.8c0-2.6,2.1-4.8,4.8-4.8
			C199,320.9,201.1,323,201.1,325.7z"/>
	</g>
	<g>
		<circle class="st1" cx="49.3" cy="173.4" r="4.8"/>
	</g>
	<g>
		<circle class="st19" cx="72.8" cy="149.1" r="4.8"/>
	</g>
</g>
</svg>
