<svg xmlns="http://www.w3.org/2000/svg" viewBox="0 0 420 400"><style>.st0{fill:#fff581}.st1{fill:#f99f1c}.st2{fill:#555e5b}.st3{fill:#fff}.st4{fill:#35a283}</style><g id="Layer_1"><path class="st0" d="M215.2 270.2l-2.4-2.4 2.4-2.4 2.4 2.4-2.4 2.4zm4.7-4.8l-2.4-2.4 2.4-2.4 2.4 2.4-2.4 2.4zm4.8-4.7l-2.4-2.4 2.4-2.4 2.4 2.4-2.4 2.4zm4.8-4.8l-2.4-2.4 2.4-2.4 2.4 2.4-2.4 2.4zm4.7-4.8l-2.4-2.4 2.4-2.4 2.4 2.4-2.4 2.4zm4.8-4.7l-2.4-2.4 2.4-2.4 2.4 2.4-2.4 2.4zm4.8-4.8l-2.4-2.4 2.4-2.4 2.4 2.4-2.4 2.4zm4.7-4.8l-2.4-2.4 2.4-2.4 2.4 2.4-2.4 2.4zm4.8-4.8l-2.4-2.4 2.4-2.4 2.4 2.4-2.4 2.4zm4.8-4.7l-2.4-2.4 2.4-2.4 2.4 2.4-2.4 2.4zm4.8-4.8l-2.4-2.4 2.4-2.4 2.4 2.4-2.4 2.4zm4.7-4.8l-2.4-2.4 2.4-2.4 2.4 2.4-2.4 2.4zm4.8-4.7l-2.4-2.4 2.4-2.4 2.4 2.4-2.4 2.4zm4.8-4.8l-2.4-2.4 2.4-2.4 2.4 2.4-2.4 2.4zm4.7-4.8l-2.4-2.4 2.4-2.4 2.4 2.4-2.4 2.4zm4.8-4.8l-2.4-2.4 2.4-2.4 2.4 2.4-2.4 2.4zm4.8-4.7l-2.4-2.4 2.4-2.4 2.4 2.4-2.4 2.4zm4.8-4.8l-2.4-2.4 2.4-2.4 2.4 2.4-2.4 2.4zm4.7-4.8l-2.4-2.4 2.4-2.4 2.4 2.4-2.4 2.4zm4.8-4.7l-2.4-2.4 2.4-2.4 2.4 2.4-2.4 2.4zm4.8-4.8l-2.4-2.4 2.4-2.4 2.4 2.4-2.4 2.4zm4.7-4.8l-2.4-2.4 2.4-2.4 2.4 2.4-2.4 2.4zm4.8-4.7l-2.4-2.4 2.4-2.4 2.4 2.4-2.4 2.4zm4.8-4.8l-2.4-2.4 2.4-2.4 2.4 2.4-2.4 2.4zm4.7-4.8l-2.4-2.4 2.4-2.4 2.4 2.4-2.4 2.4zm4.8-4.8l-2.4-2.4 2.4-2.4 2.4 2.4-2.4 2.4z"/><path class="st1" d="M349.7 188.4c-3.7 0-6.7-3-6.7-6.7s3-6.7 6.7-6.7 6.7 3 6.7 6.7c.1 3.7-2.9 6.7-6.7 6.7zm0-10.1c-1.9 0-3.4 1.5-3.4 3.4s1.5 3.4 3.4 3.4 3.4-1.5 3.4-3.4-1.5-3.4-3.4-3.4z"/><path class="st0" d="M407.9 132.8c-3.7 0-6.7-3-6.7-6.7s3-6.7 6.7-6.7 6.7 3 6.7 6.7c.1 3.6-2.9 6.7-6.7 6.7zm0-10.2c-1.9 0-3.4 1.5-3.4 3.4s1.5 3.4 3.4 3.4 3.4-1.5 3.4-3.4-1.5-3.4-3.4-3.4zM46.2 160.6c-3.7 0-6.7-3-6.7-6.7s3-6.7 6.7-6.7 6.7 3 6.7 6.7-3 6.7-6.7 6.7zm0-10.1c-1.9 0-3.4 1.5-3.4 3.4s1.5 3.4 3.4 3.4 3.4-1.5 3.4-3.4c-.1-1.9-1.6-3.4-3.4-3.4z"/><path class="st1" d="M297.5 110c-5.1 0-9.3-4.2-9.3-9.3 0-5.1 4.2-9.3 9.3-9.3 5.1 0 9.3 4.2 9.3 9.3-.1 5.1-4.2 9.3-9.3 9.3zm0-15.2c-3.3 0-5.9 2.6-5.9 5.9 0 3.3 2.6 5.9 5.9 5.9 3.3 0 5.9-2.6 5.9-5.9 0-3.2-2.7-5.9-5.9-5.9z"/><path class="st0" d="M216.5 54.8c-13 0-23.5-10.5-23.5-23.5s10.5-23.5 23.5-23.5S240 18.3 240 31.3c0 12.9-10.6 23.5-23.5 23.5z"/><path class="st2" d="M216.5 56.5c-13.9 0-25.2-11.3-25.2-25.2 0-13.9 11.3-25.2 25.2-25.2 13.9 0 25.2 11.3 25.2 25.2 0 13.8-11.3 25.2-25.2 25.2zm0-47.1c-12 0-21.8 9.8-21.8 21.8S204.5 53 216.5 53s21.8-9.8 21.8-21.8-9.8-21.8-21.8-21.8z"/><path class="st3" d="M96.7 49.6L66 67.9v23.8l35.5-22.1z"/><path class="st2" d="M64.3 94.7V66.9l33.5-20 5.6 23.5-39.1 24.3zm3.4-25.8v19.8l31.9-19.8-3.9-16.6-28 16.6z"/><path class="st3" d="M58.9 72v24.7l8.4 5.5L79 99.3V60.2z"/><path class="st2" d="M67 104.1l-9.8-6.4V71.1l23.5-13.8v43.4L67 104.1zm-6.4-8.3l7 4.6 9.7-2.4V63.1L60.6 73v22.8z"/><path class="st3" d="M128.5 49.6l30.8 18.3v23.8l-35.5-22.1z"/><path class="st2" d="M160.9 94.7l-39.1-24.3 5.6-23.5 33.5 20v27.8zm-35.2-25.8l31.9 19.8V68.9l-27.9-16.6-4 16.6z"/><path class="st3" d="M166.4 72v24.7l-8.4 5.5-11.7-2.9V60.2z"/><path class="st2" d="M158.3 104.1l-13.7-3.4V57.2L168.1 71v26.6l-9.8 6.5zM148 98l9.7 2.4 7-4.6V73L148 63.1V98z"/><path class="st3" d="M133 82.4c-2.4-31.3-6.6-51.1-17.5-76.2-.5-1.1-1.4-2.1-2.6-2.1-1.2 0-2.1.9-2.6 2.1-11 25.1-15.2 44.9-17.6 76.2"/><path class="st2" d="M131.3 82.5c-2.5-32.3-6.9-51.4-17.4-75.6-.2-.4-.5-1.1-1.1-1.1-.5 0-.9.7-1.1 1.1-10.5 24.2-14.9 43.3-17.4 75.6l-3.3-.2c2.5-32.8 7-52.1 17.7-76.7.9-2 2.4-3.1 4.1-3.1 1.8 0 3.3 1.1 4.1 3.1 10.7 24.6 15.2 44 17.7 76.7l-3.3.2z"/><path class="st3" d="M112.9 87.2c-11.1 0-20.1-2.2-20.1-4.8 0-2.7 9-4.8 20.1-4.8 11.1 0 20.1 2.2 20.1 4.8 0 2.6-9 4.8-20.1 4.8z"/><path class="st2" d="M112.9 88.9c-2.2 0-21.8-.2-21.8-6.5s19.6-6.5 21.8-6.5c2.2 0 21.8.2 21.8 6.5s-19.6 6.5-21.8 6.5zm-18.4-6.5c1.2 1.2 7.8 3.1 18.4 3.1s17.2-1.9 18.4-3.1c-1.2-1.2-7.8-3.1-18.4-3.1s-17.2 1.9-18.4 3.1z"/><path class="st0" d="M112.9 84.4c-7.9 0-13.5-1.1-16.1-2.1 2.6-1 8.2-2.1 16.1-2.1 7.9 0 13.5 1.1 16.1 2.1-2.7 1-8.2 2.1-16.1 2.1z"/><path class="st1" d="M112.9 131.2c-8.8-18.2-20.3-50 0-50 22.3 0 6.7 36 0 50z"/><path class="st3" d="M112.9 116.6c-6.1-15.7-6.2-24.8-4.3-27.8.3-.5 1-1.6 4.3-1.6 3.6 0 4.3 1.2 4.7 1.7 1.9 3.1 1.5 11.9-4.7 27.7z"/><path class="st4" d="M119.7 42.5c0 3.9-3.1 7-7 7s-7-3.1-7-7 3.1-7 7-7c3.8 0 7 3.2 7 7zM63.8 282.1l-3.3-.5.5-3.3 3.3.5-.5 3.3zm1.1-6.7l-3.3-.5.5-3.3 3.3.5-.5 3.3zm1-6.6l-3.3-.5.5-3.3 3.3.5-.5 3.3zm1-6.7l-3.3-.5.5-3.3 3.3.5-.5 3.3zm1.1-6.6l-3.3-.5.5-3.3 3.3.5-.5 3.3zm1-6.7l-3.3-.5.5-3.3 3.3.5-.5 3.3zm1.1-6.7l-3.3-.5.5-3.3 3.3.5-.5 3.3zm1-6.6l-3.3-.5.5-3.3 3.3.5-.5 3.3zm1.1-6.7l-3.3-.5.5-3.3 3.3.5-.5 3.3zm1-6.7l-3.3-.5.5-3.3 3.3.5-.5 3.3zm1.1-6.6L71 215l.5-3.3 3.3.5-.5 3.3zm1-6.7l-3.3-.5.5-3.3 3.3.5-.5 3.3zm1-6.7l-3.3-.5.5-3.3 3.3.5-.5 3.3zm1.1-6.6l-3.3-.5.5-3.3 3.3.5-.5 3.3zm1-6.7l-3.3-.5.5-3.3 3.3.5-.5 3.3zm1.1-6.7l-3.3-.5.5-3.3 3.3.5-.5 3.3zm1-6.6l-3.3-.5.5-3.3 3.3.5-.5 3.3zm1.1-6.7l-3.3-.5.5-3.3 3.3.5-.5 3.3zm1-6.7l-3.3-.5.5-3.3 3.3.5-.5 3.3zm1.1-6.6l-3.3-.5.5-3.3 3.3.5-.5 3.3zm1-6.7l-3.3-.5.5-3.3 3.3.5-.5 3.3zm1.1-6.6l-3.3-.5.5-3.3 3.3.5-.5 3.3zm1-6.7l-3.3-.5.5-3.3 3.3.5-.5 3.3zm1-6.7l-3.3-.5.5-3.3 3.3.5-.5 3.3zm1.1-6.6l-3.3-.5.5-3.3 3.3.5-.5 3.3zm1-6.7l-3.3-.5.5-3.3 3.3.5-.5 3.3zm1.1-6.7l-3.3-.5.5-3.3 3.3.5-.5 3.3zm1-6.6l-3.3-.5.5-3.3 3.3.5-.5 3.3zm1.1-6.7l-3.4-.5.5-3.3 3.3.5-.4 3.3zM164.3 306.9l-.2-1.1 3.3-.5.2 1.1-3.3.5zm-.6-4.4l-.5-3.3 3.3-.5.5 3.3-3.3.5zm-1-6.7l-.5-3.3 3.3-.5.5 3.3-3.3.5zm-.9-6.7l-.5-3.3 3.3-.5.5 3.3-3.3.5zm-1-6.6l-.5-3.3 3.3-.5.5 3.3-3.3.5zm-.9-6.7l-.5-3.3 3.3-.5.5 3.3-3.3.5zm-1-6.7l-.5-3.3 3.3-.5.5 3.3-3.3.5zm-.9-6.7l-.5-3.3 3.3-.5.5 3.3-3.3.5zm-1-6.7l-.5-3.3 3.3-.5.5 3.3-3.3.5zm-1-6.6l-.5-3.3 3.3-.5.5 3.3-3.3.5zm-.9-6.7l-.5-3.3 3.3-.5.5 3.3-3.3.5zm-1-6.7l-.5-3.3 3.3-.5.5 3.3-3.3.5zm-.9-6.7l-.5-3.3 3.3-.5.5 3.3-3.3.5zm-1-6.6l-.5-3.3 3.3-.5.5 3.3-3.3.5zm-1-6.7l-.5-3.3 3.3-.5.5 3.3-3.3.5zm-.9-6.7l-.5-3.3 3.3-.5.5 3.3-3.3.5zm-1-6.7l-.5-3.3 3.3-.5.5 3.3-3.3.5zm-.9-6.6l-.5-3.3 3.3-.5.5 3.3-3.3.5zm-1-6.7l-.5-3.3 3.3-.5.5 3.3-3.3.5zm-1-6.7l-.4-3.3 3.3-.5.5 3.3-3.4.5zm-.9-6.7l-.5-3.3 3.3-.5.5 3.3-3.3.5zm-1-6.7l-.5-3.3 3.3-.5.5 3.3-3.3.5zm-.9-6.6l-.5-3.3 3.3-.5.5 3.3-3.3.5zm-1-6.7l-.5-3.3 3.3-.5.5 3.3-3.3.5zm-.9-6.7l-.5-3.3 3.3-.5.5 3.3-3.3.5zm-1-6.7l-.5-3.3 3.3-.5.5 3.3-3.3.5zm-1-6.6l-.5-3.3 3.3-.5.5 3.3-3.3.5zm-.9-6.7l-.5-3.3 3.3-.5.5 3.3-3.3.5zm-1-6.7l-.5-3.3 3.3-.5.5 3.3-3.3.5zm-.9-6.7l-.5-3.3 3.3-.5.5 3.3-3.3.5zm-1-6.7l-.5-3.3 3.3-.5.5 3.3-3.3.5zm-1-6.6l-.5-3.3 3.3-.5.5 3.3-3.3.5zm-.9-6.7l-.5-3.3 3.3-.5.5 3.3-3.3.5z"/><path class="st0" d="M133.3 243.8l-.5-3.3 3.3-.5.5 3.3-3.3.5zm-1-6.7l-.5-3.3 3.3-.5.5 3.3-3.3.5zm-1-6.7l-.5-3.3 3.3-.5.5 3.3-3.3.5zm-1-6.7l-.5-3.3 3.3-.5.5 3.3-3.3.5zm-1-6.6l-.5-3.3 3.3-.5.5 3.3-3.3.5zm-1-6.7l-.5-3.3 3.3-.5.5 3.3-3.3.5zm-1-6.7l-.5-3.3 3.3-.5.5 3.3-3.3.5zm-1-6.6l-.5-3.3 3.3-.5.5 3.3-3.3.5zm-1-6.7l-.5-3.3 3.3-.5.5 3.3-3.3.5zm-1-6.7l-.5-3.3 3.3-.5.5 3.3-3.3.5zm-.9-6.7l-.5-3.3 3.3-.5.5 3.3-3.3.5zm-1-6.6l-.5-3.3 3.3-.5.5 3.3-3.3.5zm-1-6.7l-.5-3.3 3.3-.5.5 3.3-3.3.5zM92.3 244.9l-3.3-.5.5-3.3 3.3.5-.5 3.3zm1-6.7l-3.3-.5.5-3.3 3.3.5-.5 3.3zm1-6.6l-3.3-.5.5-3.3 3.3.5-.5 3.3zm1-6.7l-3.3-.5.5-3.3 3.3.5-.5 3.3zm1-6.7l-3.3-.5.5-3.3 3.3.5-.5 3.3zm1-6.7L94 211l.5-3.3 3.3.5-.5 3.3zm.9-6.6l-3.3-.5.5-3.3 3.3.5-.5 3.3zm1-6.7l-3.3-.5.5-3.3 3.3.5-.5 3.3zm1-6.7l-3.3-.5.5-3.3 3.3.5-.5 3.3zm1-6.6l-3.3-.5.5-3.3 3.3.5-.5 3.3zm1-6.7l-3.3-.5.5-3.3 3.3.5-.5 3.3zm1-6.7l-3.3-.5.5-3.3 3.3.5-.5 3.3zm1-6.7l-3.3-.5.5-3.3 3.3.5-.5 3.3z"/><path class="st3" d="M376.5 96.7l-14.7 16c-.2-.1-29.7-11.1-29.7-11.1l-3.7 4.4 23.6 17.4-14.4 15.6-13.9-.9-1.5 2 9.9 4.8c-2.1 2.8.7 6.5 4 5.3l4.8 10.1 2-1.4-.7-13.9c15.7-14.4 8.7-8 15.2-14l17.5 23.9 4.4-3.7-11.2-30c.5-.4 17.2-15.7 17.6-16.2 2.2-2.4 4.8-8.6 2.5-11l-.2-.2-.2-.2c-2.3-2.2-8.9.6-11.3 3.1z"/><path class="st2" d="M340.4 163.1l-5.1-10.8c-1.7.1-3.3-.6-4.4-2.1-1-1.3-1.3-2.9-.9-4.4l-10.3-5 3.2-4.4 14 .9 12.5-13.7-23.4-17.3 5.6-6.7 1.1.4s23.4 8.7 28.7 10.7l14-15.2c2-2.1 6.3-4.3 9.8-4.4 1.7 0 3.1.5 4 1.4l.3.3c3.2 3.3.2 10.4-2.4 13.3-.1.2-.4.5-16.8 15.5l-.1.1c2 5.3 10.7 28.7 10.8 28.9l.4 1.1-6.7 5.6-17.5-23.8-13.2 12.1.7 14.1-4.3 3.4zm-3.3-14.8l4.2 8.8-.7-12.6 17.2-15.8 17.6 23.9 2.1-1.8c-.9-2.4-3.4-9.1-10.8-28.9l-.4-1.1 1.8-1.6c13.1-12.1 16.3-15 16.6-15.3 2-2.3 3.8-7.4 2.5-8.6l-.3-.3c-.4-.4-1.1-.4-1.6-.4-2.5 0-5.9 1.8-7.4 3.3l-15.5 16.9-1.1-.4c-.1-.1-23.2-8.7-28.6-10.7l-1.8 2.1 23.7 17.4-16.2 17.6-12.6-.8 9 4.4-1.2 1.6c-.8 1-.2 1.9 0 2.1.2.2.9 1 2 .6l1.5-.4z"/><path transform="rotate(-180 197.05445 269.95555)" class="st3" d="M169.9 193.6h54.2v152.7h-54.2z"/><path class="st2" d="M225.9 348h-57.6V191.9h57.6V348zm-54.3-3.4h50.9V195.3h-50.9v149.3z"/><path class="st3" d="M179 202.6h36.2v134.6H179z"/><path class="st2" d="M216.8 339h-39.5V201h39.5v138zm-36.1-3.4h32.8V204.3h-32.8v131.3z"/><path class="st3" d="M175.2 270c0-9.8 9.8-17.7 21.8-17.7 12.1 0 21.8 7.9 21.8 17.7 0 9.8-9.8 17.7-21.8 17.7s-21.8-8-21.8-17.7z"/><path class="st2" d="M197.1 289.3c-13 0-23.5-8.7-23.5-19.4s10.6-19.4 23.5-19.4 23.5 8.7 23.5 19.4-10.6 19.4-23.5 19.4zm0-35.4c-11.1 0-20.2 7.2-20.2 16s9 16 20.2 16c11.1 0 20.2-7.2 20.2-16-.1-8.8-9.1-16-20.2-16z"/><path class="st4" d="M203.7 274.9c1.2-1.3 1.9-2.5 1.9-4.2 0-2-1-3.2-2.9-3.2-4.4 0-3.5 9.9-10.9 9.9-3.5 0-6-2-6.7-5.7h-3.8v-2.9h3.6c.2-2.2 1.2-4.7 2.8-6.3l2.8 1.9c-1.3 1.7-2.3 3.4-2.3 5.4 0 2.4 1.2 3.5 3.1 3.5 4.8 0 4.1-9.9 11-9.9 3.4 0 5.8 2.1 6.4 5.4h3.7v2.9H209c-.3 2.3-1.4 3.9-2.8 5.3l-2.5-2.1z"/><path class="st3" d="M192.9 311.8c0-3 2.4-5.4 5.4-5.4 3 0 5.4 2.4 5.4 5.4 0 3-2.4 5.4-5.4 5.4-3 0-5.4-2.4-5.4-5.4z"/><path class="st2" d="M198.3 318.9c-3.9 0-7.1-3.2-7.1-7.1 0-3.9 3.2-7.1 7.1-7.1 3.9 0 7.1 3.2 7.1 7.1 0 3.9-3.2 7.1-7.1 7.1zm0-10.9c-2.1 0-3.7 1.7-3.7 3.7s1.7 3.7 3.7 3.7c2.1 0 3.7-1.7 3.7-3.7s-1.6-3.7-3.7-3.7z"/><path class="st3" d="M192.9 230.2c0-3 2.4-5.4 5.4-5.4 3 0 5.4 2.4 5.4 5.4 0 3-2.4 5.4-5.4 5.4-3 0-5.4-2.4-5.4-5.4z"/><path class="st2" d="M198.3 237.3c-3.9 0-7.1-3.2-7.1-7.1 0-3.9 3.2-7.1 7.1-7.1 3.9 0 7.1 3.2 7.1 7.1 0 3.9-3.2 7.1-7.1 7.1zm0-10.9c-2.1 0-3.7 1.7-3.7 3.7s1.7 3.7 3.7 3.7c2.1 0 3.7-1.7 3.7-3.7s-1.6-3.7-3.7-3.7z"/><path transform="rotate(-180 260.3217 269.95555)" class="st3" d="M233.2 193.6h54.2v152.7h-54.2z"/><path class="st2" d="M289.1 348h-57.6V191.9h57.6V348zm-54.2-3.4h50.9V195.3h-50.9v149.3z"/><path class="st3" d="M242.2 202.6h36.2v134.6h-36.2z"/><path class="st2" d="M280.1 339h-39.5V201h39.5v138zm-36.2-3.4h32.8V204.3h-32.8v131.3z"/><path class="st3" d="M238.5 270c0-9.8 9.8-17.7 21.8-17.7 12.1 0 21.8 7.9 21.8 17.7 0 9.8-9.8 17.7-21.8 17.7s-21.8-8-21.8-17.7z"/><path class="st2" d="M260.3 289.3c-13 0-23.5-8.7-23.5-19.4s10.6-19.4 23.5-19.4c13 0 23.5 8.7 23.5 19.4s-10.5 19.4-23.5 19.4zm0-35.4c-11.1 0-20.2 7.2-20.2 16s9 16 20.2 16c11.1 0 20.2-7.2 20.2-16s-9.1-16-20.2-16z"/><path class="st4" d="M267 274.9c1.2-1.3 1.9-2.5 1.9-4.2 0-2-1-3.2-2.9-3.2-4.4 0-3.5 9.9-10.9 9.9-3.5 0-6-2-6.7-5.7h-3.8v-2.9h3.6c.2-2.2 1.2-4.7 2.8-6.3l2.8 1.9c-1.3 1.7-2.3 3.4-2.3 5.4 0 2.4 1.2 3.5 3.1 3.5 4.8 0 4.1-9.9 11-9.9 3.4 0 5.8 2.1 6.4 5.4h3.7v2.9h-3.6c-.3 2.3-1.4 3.9-2.8 5.3l-2.3-2.1z"/><path class="st3" d="M256.2 311.8c0-3 2.4-5.4 5.4-5.4 3 0 5.4 2.4 5.4 5.4 0 3-2.4 5.4-5.4 5.4-3 0-5.4-2.4-5.4-5.4z"/><path class="st2" d="M261.6 318.9c-3.9 0-7.1-3.2-7.1-7.1 0-3.9 3.2-7.1 7.1-7.1 3.9 0 7.1 3.2 7.1 7.1 0 3.9-3.2 7.1-7.1 7.1zm0-10.9c-2.1 0-3.7 1.7-3.7 3.7s1.7 3.7 3.7 3.7 3.7-1.7 3.7-3.7-1.6-3.7-3.7-3.7z"/><path class="st3" d="M256.2 230.2c0-3 2.4-5.4 5.4-5.4 3 0 5.4 2.4 5.4 5.4 0 3-2.4 5.4-5.4 5.4-3 0-5.4-2.4-5.4-5.4z"/><path class="st2" d="M261.6 237.3c-3.9 0-7.1-3.2-7.1-7.1 0-3.9 3.2-7.1 7.1-7.1 3.9 0 7.1 3.2 7.1 7.1 0 3.9-3.2 7.1-7.1 7.1zm0-10.9c-2.1 0-3.7 1.7-3.7 3.7s1.7 3.7 3.7 3.7 3.7-1.7 3.7-3.7-1.6-3.7-3.7-3.7z"/><path class="st1" d="M163 248.5h135v117.3H163z"/><path class="st2" d="M299.7 367.5H161.3V246.8h138.4v120.7zm-135-3.4h131.7V250.2H164.7v113.9z"/><path class="st3" d="M266.1 248.5h32v117.3h-32z"/><path class="st2" d="M299.7 367.5h-35.4V246.8h35.4v120.7zm-32-3.4h28.6V250.2h-28.6v113.9z"/><path class="st4" d="M173.7 262.7h81.7"/><path class="st2" d="M173.7 261h1.7v3.4h-1.7zM252 264.4h-3.4V261h3.4v3.4zm-5.1 0h-3.4V261h3.4v3.4zm-5.1 0h-3.4V261h3.4v3.4zm-5.1 0h-3.4V261h3.4v3.4zm-5.1 0h-3.4V261h3.4v3.4zm-5.1 0H223V261h3.4v3.4zm-5.2 0h-3.4V261h3.4v3.4zm-5.1 0h-3.4V261h3.4v3.4zm-5.1 0h-3.4V261h3.4v3.4zm-5.1 0h-3.4V261h3.4v3.4zm-5.1 0h-3.4V261h3.4v3.4zm-5.1 0h-3.4V261h3.4v3.4zm-5.1 0h-3.4V261h3.4v3.4zm-5.1 0h-3.4V261h3.4v3.4zm-5.1 0H177V261h3.4v3.4zM253.7 261h1.7v3.4h-1.7z"/><path class="st4" d="M173.7 351.6h81.7"/><path class="st2" d="M173.7 349.9h1.7v3.4h-1.7zM252 353.2h-3.4v-3.4h3.4v3.4zm-5.1 0h-3.4v-3.4h3.4v3.4zm-5.1 0h-3.4v-3.4h3.4v3.4zm-5.1 0h-3.4v-3.4h3.4v3.4zm-5.1 0h-3.4v-3.4h3.4v3.4zm-5.1 0H223v-3.4h3.4v3.4zm-5.2 0h-3.4v-3.4h3.4v3.4zm-5.1 0h-3.4v-3.4h3.4v3.4zm-5.1 0h-3.4v-3.4h3.4v3.4zm-5.1 0h-3.4v-3.4h3.4v3.4zm-5.1 0h-3.4v-3.4h3.4v3.4zm-5.1 0h-3.4v-3.4h3.4v3.4zm-5.1 0h-3.4v-3.4h3.4v3.4zm-5.1 0h-3.4v-3.4h3.4v3.4zm-5.1 0H177v-3.4h3.4v3.4zM253.7 349.9h1.7v3.4h-1.7z"/><path class="st3" d="M319.2 318.9h-38.7c-2.1 0-3.8-1.7-3.8-3.8v-24.7h42.4c2.1 0 3.8 1.7 3.8 3.8v20.9c0 2.1-1.7 3.8-3.7 3.8z"/><path class="st2" d="M316.6 320.6h-33.5c-4.4 0-8-3.6-8-8v-23.8h41.6c4.4 0 8 3.6 8 8v15.8c-.1 4.4-3.7 8-8.1 8zm-38.2-28.4v20.4c0 2.6 2.1 4.6 4.6 4.6h33.5c2.6 0 4.6-2.1 4.6-4.6v-15.8c0-2.6-2.1-4.6-4.6-4.6h-38.1z"/><path class="st3" d="M300.7 305c-.2-3.2 2.3-5.9 5.4-6.1 3.2-.2 5.9 2.3 6.1 5.4.2 3.2-2.3 5.9-5.4 6.1-3.2.3-5.9-2.2-6.1-5.4zM319.7 277.7H194.5c-1.6 0-2.9-1.3-2.9-2.9v-62.5c0-1.6 1.3-2.9 2.9-2.9h125.2c1.6 0 2.9 1.3 2.9 2.9v62.5c.1 1.6-1.2 2.9-2.9 2.9z"/><path class="st2" d="M317.7 279.4H196.6c-3.7 0-6.7-3-6.7-6.7v-58.4c0-3.7 3-6.7 6.7-6.7h121.1c3.7 0 6.7 3 6.7 6.7v58.4c0 3.7-3 6.7-6.7 6.7zM196.6 211c-1.8 0-3.3 1.5-3.3 3.3v58.4c0 1.8 1.5 3.3 3.3 3.3h121.1c1.8 0 3.3-1.5 3.3-3.3v-58.4c0-1.8-1.5-3.3-3.3-3.3H196.6z"/><path class="st1" d="M191.6 226.3h131.1v11.4H191.6z"/><path class="st2" d="M324.4 239.4H189.9v-14.8h134.5v14.8zM193.3 236H321v-8H193.3v8z"/><path class="st3" d="M248.9 248.8h40.6"/><path class="st2" d="M248.9 247.1h40.6v3.4h-40.6z"/><path class="st3" d="M200 248.8h43.5"/><path class="st2" d="M200 247.1h43.5v3.4H200z"/><path class="st3" d="M200 258.6h30.7"/><path class="st2" d="M200 256.9h30.7v3.4H200z"/><path class="st3" d="M234.3 258.6H251"/><path class="st2" d="M234.3 256.9h16.8v3.4h-16.8z"/><path class="st3" d="M200 265.2h30.7"/><path class="st2" d="M200 263.5h30.7v3.4H200z"/><path class="st3" d="M234.3 265.2H251"/><path class="st2" d="M234.3 263.5h16.8v3.4h-16.8z"/><path class="st3" d="M254.4 258.6h16.8"/><path class="st2" d="M254.4 256.9h16.8v3.4h-16.8z"/><path class="st0" d="M275.9 135.2c0 23.1-18.7 41.8-41.8 41.8-23.1 0-41.7-18.7-41.7-41.8 0-23.1 18.7-41.7 41.7-41.7 23.1-.1 41.8 18.6 41.8 41.7z"/><path class="st3" d="M260.6 116.2h-8.1l-2.5 9.5h-38c-.5.2-.8.7-.6 1.2l6.9 19.7h28.1L254 118h6.7c.5 0 1-.4 1-1-.1-.4-.5-.8-1.1-.8zm-12 14.8h-4.1l.5-3.3h4.5l-.9 3.3zm-1.3 4.7h-3.6l.6-3.8h4l-1 3.8zm-1.3 4.8h-3l.6-3.8h3.5l-1.1 3.8zm-13.5 4.3l-.8-3.3h5.2l.5 3.3h-4.9zm-6.7 0l-.8-3.3h5.7l.8 3.3h-5.7zm-5.2-17.2l.8 3.3h-6.7l-1.2-3.3h7.1zm6.6 0l.8 3.3h-5.7l-.8-3.3h5.7zm3 8.1l-1-3.8h6.1l.6 3.8h-5.7zm5.9 1l.6 3.8h-5.3l-1-3.8h5.7zm-6.8-1h-5.7l-1-3.8h5.7l1 3.8zm7.1-3.8h7l-.6 3.8H237l-.6-3.8zm-.1-.9l-.5-3.3h8.3l-.5 3.3h-7.3zm-1 0h-6.2l-.8-3.3h6.6l.4 3.3zm-13.7.9l1 3.8h-6.2l-1.3-3.8h6.5zm-4.8 4.8h6.1l1 3.8h-5.7l-1.4-3.8zm7 0h5.7l1 3.8h-5.7l-1-3.8zm14 4.8h4l-.5 3.3v.1h-3l-.5-3.4zm-.1-1l-.6-3.8h5.5l-.6 3.8h-4.3zm-19.3 1h5.6l.8 3.3h-5.3l-1.1-3.3zm23.9 3.3l.5-3.3h3l-.9 3.3h-2.6zM241.3 147.7c-2 0-3.7 1.4-4.2 3.3h-9.8c-.4-1.9-2.1-3.3-4.2-3.3-2.4 0-4.3 1.9-4.3 4.3s1.9 4.3 4.3 4.3 4.3-1.9 4.3-4.3h9.5c0 2.4 1.9 4.3 4.3 4.3s4.3-1.9 4.3-4.3c.1-2.4-1.8-4.3-4.2-4.3zm-18.1 6.6c-1.3 0-2.4-1.1-2.4-2.4 0-1.3 1.1-2.4 2.4-2.4 1.3 0 2.4 1.1 2.4 2.4 0 1.4-1.1 2.4-2.4 2.4zm18.1 0c-1.3 0-2.4-1.1-2.4-2.4 0-1.3 1.1-2.4 2.4-2.4 1.3 0 2.4 1.1 2.4 2.4 0 1.4-1.1 2.4-2.4 2.4z"/><path class="st0" d="M161.6 170c-.3-2.1 1.1-4.1 3.2-4.4 2.1-.3 4.1 1.1 4.4 3.2.3 2.1-1.1 4.1-3.2 4.4-2.1.4-4.1-1.1-4.4-3.2zM158.7 152.8c-.3-2.1 1.1-4.1 3.2-4.4 2.1-.3 4.1 1.1 4.4 3.2.3 2.1-1.1 4.1-3.2 4.4-2 .3-4-1.1-4.4-3.2zM155.9 135.5c-.3-2.1 1.1-4.1 3.2-4.4 2.1-.3 4.1 1.1 4.4 3.2.3 2.1-1.1 4.1-3.2 4.4-2.1.3-4-1.1-4.4-3.2z"/></g><g id="Layer_2"><path class="st3" d="M290.5 149.9c4.3 6 2.9 14.3-3.1 18.6L211.5 223c-6 4.3-14.3 2.9-18.6-3.1-4.3-6-2.9-14.3 3.1-18.6l75.9-54.5c5.9-4.3 14.3-2.9 18.6 3.1z"/><path class="st2" d="M203.7 227.9c-4.9 0-9.7-2.3-12.8-6.5-2.5-3.4-3.4-7.6-2.7-11.7.7-4.1 2.9-7.8 6.4-10.2l75.9-54.5c7-5.1 16.9-3.4 21.9 3.6 5.1 7 3.4 16.9-3.6 21.9L212.9 225c-2.8 2-6 2.9-9.2 2.9zm75.9-81.2c-2.2 0-4.5.7-6.4 2.1l-75.9 54.5c-2.4 1.7-4 4.2-4.4 7.1-.5 2.9.2 5.8 1.9 8.2 3.5 4.9 10.4 6.1 15.3 2.5l75.9-54.5c4.9-3.5 6-10.4 2.5-15.3-2.1-3-5.5-4.6-8.9-4.6z"/><path class="st3" d="M320.3 163.2c4.3 6 2.9 14.3-3.1 18.6l-75.9 54.5c-6 4.3-14.3 2.9-18.6-3.1-4.3-6-2.9-14.3 3.1-18.6l75.9-54.5c5.9-4.2 14.3-2.8 18.6 3.1z"/><path class="st2" d="M233.5 241.3c-4.9 0-9.7-2.3-12.8-6.6-2.4-3.4-3.4-7.6-2.7-11.7.7-4.1 2.9-7.8 6.3-10.2l75.9-54.5c3.4-2.4 7.6-3.4 11.7-2.7 4.1.7 7.8 2.9 10.2 6.3 2.5 3.4 3.4 7.6 2.7 11.7-.7 4.1-2.9 7.8-6.3 10.2l-75.9 54.5c-2.7 2-5.9 3-9.1 3zm75.9-81.2c-2.3 0-4.5.7-6.4 2.1l-75.9 54.5c-2.4 1.7-4 4.2-4.4 7.1-.5 2.9.2 5.8 1.9 8.2 3.5 4.9 10.4 6 15.3 2.5l75.9-54.5c2.4-1.7 4-4.2 4.4-7.1.5-2.9-.2-5.8-1.9-8.2-1.7-2.4-4.2-4-7.1-4.4-.6-.2-1.2-.2-1.8-.2z"/><path class="st3" d="M313.6 203.3c4.3 6 2.9 14.3-3.1 18.6l-75.9 54.5c-6 4.3-14.3 2.9-18.6-3.1-4.3-6-2.9-14.3 3-18.6l75.9-54.5c6-4.3 14.4-2.9 18.7 3.1z"/><path class="st2" d="M226.8 281.3c-.9 0-1.7-.1-2.6-.2-4.1-.7-7.8-2.9-10.2-6.3-5.1-7-3.4-16.9 3.6-21.9l75.9-54.5c7-5.1 16.9-3.4 21.9 3.6 2.5 3.4 3.4 7.6 2.7 11.7-.7 4.1-2.9 7.8-6.3 10.2l-75.9 54.5c-2.7 1.9-5.8 2.9-9.1 2.9zm75.9-81.2c-2.2 0-4.5.7-6.4 2.1l-75.9 54.5c-4.9 3.5-6 10.4-2.5 15.3 1.7 2.4 4.2 4 7.1 4.4 2.9.5 5.8-.2 8.2-1.9l75.9-54.5c2.4-1.7 4-4.2 4.4-7.1.5-2.9-.2-5.8-1.9-8.2-2.1-3-5.5-4.6-8.9-4.6z"/><path class="st3" d="M306.9 244.6c4.3 6 2.9 14.3-3.1 18.6l-75.9 54.5c-6 4.3-14.3 2.9-18.6-3.1-4.3-6-2.9-14.3 3.1-18.6l75.9-54.5c6-4.3 14.3-2.9 18.6 3.1z"/><path class="st2" d="M220.2 322.6c-.9 0-1.7-.1-2.6-.2-4.1-.7-7.8-2.9-10.2-6.3-2.4-3.4-3.4-7.6-2.7-11.7.7-4.1 2.9-7.8 6.3-10.2l75.9-54.5c7-5 16.9-3.4 21.9 3.6 2.5 3.4 3.4 7.6 2.7 11.7-.7 4.1-2.9 7.8-6.3 10.2l-75.9 54.5c-2.7 1.9-5.8 2.9-9.1 2.9zm75.9-81.2c-2.2 0-4.5.7-6.4 2.1L213.8 298c-2.4 1.7-4 4.2-4.4 7.1-.5 2.9.2 5.8 1.9 8.2 1.7 2.4 4.2 4 7.1 4.4 2.9.5 5.8-.2 8.2-1.9l75.9-54.5c2.4-1.7 4-4.2 4.4-7.1.5-2.9-.2-5.8-1.9-8.2-2.1-3-5.5-4.6-8.9-4.6z"/><path class="st3" d="M282.2 336.6c0 5.1-4.1 9.1-9.2 9.1H154.1c-5.1 0-9.2-4.1-9.2-9.1v-211c0-5.1 4.1-9.1 9.2-9.1H273c5.1 0 9.2 4.1 9.2 9.1v211z"/><path class="st2" d="M273 348.1H154.1c-6.4 0-11.6-5.2-11.6-11.5v-211c0-6.4 5.2-11.5 11.6-11.5H273c6.4 0 11.6 5.2 11.6 11.5v211.1c-.1 6.3-5.3 11.4-11.6 11.4zM154.1 118.8c-3.8 0-6.8 3-6.8 6.8v211.1c0 3.7 3.1 6.8 6.8 6.8H273c3.8 0 6.8-3 6.8-6.8V125.6c0-3.7-3.1-6.8-6.8-6.8H154.1z"/><path class="st4" d="M159.1 142.7h108.8V316H159.1z"/></g><g id="Layer_4"><path class="st3" d="M213.4 167c-26.4-.1-48 21.4-48.2 47.9-.1 26.5 21.2 48.1 47.6 48.4 27.2.3 48.6-21.7 48.7-48.1.1-26.5-21.4-48.3-48.1-48.2z"/><path class="st4" d="M213.4 172.1c23.8 0 43 19.4 43 43.1 0 23.6-19.2 43.2-43.5 43-23.6-.2-42.7-19.5-42.5-43.2.1-23.8 19.4-43 43-42.9zm-29 65c0 .1 0 .1 0 0l.3.6c2.5 3.2 5.5 5.9 8.9 8.1 5.2 3.4 10.9 5.2 17.1 5.7 1.6.1 3.3.1 4.9 0 2-.1 3.9-.4 5.8-.8 9.3-2.2 16.7-7.2 22.1-15.1 3.6-5.3 5.6-11.1 6.2-17.5 0-.3 0-.4-.3-.4-1.9 0-3.7.3-5.5.8-3.4 1-6.5 2.5-9.5 4.4-2.1 1.4-4.1 2.9-6.2 4.3-5.3 3.7-10.9 6.7-17.1 8.7-4.4 1.4-8.8 2.2-13.4 2.4-2.2.1-4.4.1-6.6-.2-1.9-.2-3.8-.6-5.7-.9-.2.1-.6 0-1-.1zm65.5-22.5v-.4c0-.6 0-1.1-.1-1.7-.2-1.5-.4-2.9-.5-4.4 0-.2-.1-.3-.3-.3-2.6 0-5.2.4-7.7 1.2-3.9 1.1-7.6 2.9-11.1 5-2.6 1.6-5 3.4-7.5 5.1-4.6 3.3-9.5 5.9-14.9 7.5-3.1 1-6.3 1.6-9.5 1.8-1.5.1-3.1.1-4.6 0-1.6-.1-3.1-.2-4.6-.5-3.7-.6-7.2-1.8-10.6-3.4-.1 0-.2-.1-.3-.1v.2c.8 2.8 1.8 5.5 3.3 8 .1.1.3.3.4.3 4.2 1.4 8.6 2.1 13 2.2 1.8 0 3.7-.1 5.5-.3 1.9-.2 3.8-.5 5.7-.9 5.1-1.1 9.9-3.1 14.5-5.7 3.1-1.7 5.9-3.7 8.8-5.8 3.4-2.5 7.1-4.7 11.1-6.2 2.6-1 5.3-1.7 8.1-1.8.3.2.8.2 1.3.2zm-46.4-16.4c-.1-.1-.2-.1-.2-.2-1.6-1.6-3.5-2.5-5.8-2.7-2.8-.2-5.3.7-7.3 2.7-.2.2-.2.3 0 .5 1.9 2.3 4.3 3.4 7.3 3.4 2.4 0 4.4-.9 6.2-2.5.1 0 .1-.1.2-.1.1.1.1.2.2.3 2.6 3.8 4.4 8 5.4 12.4.5 2.1.8 4.1 1 6.2 0 .2 0 .5-.3.6-4.3 1.9-8.8 3-13.5 3.2-2.6.1-5.2-.2-7.7-.7-4.2-.9-8-2.5-11.6-4.8-.1-.1-.2-.1-.4-.2v.3c.1 1.2.2 2.4.3 3.5 0 .2.1.4.3.5 5.1 2.8 10.5 4.4 16.3 4.8 2.1.1 4.3 0 6.4-.2 2.8-.4 5.4-1 8.1-1.9 5-1.8 9.6-4.4 13.9-7.6 3.9-2.9 8-5.5 12.5-7.5 4.3-1.9 8.7-3.2 13.4-3.3.1 0 .2 0 .4-.1-.4-1.1-.8-2.1-1.1-3.1 0-.1-.2-.2-.3-.1l-3 .3c-3.1.5-6.2 1.4-9.1 2.5-5 2-9.5 4.7-13.8 7.9-2.6 1.9-5.3 3.8-8.3 5.3-.1.1-.3.1-.4.2-1-6.7-3.3-12.9-7.3-18.4.1 0 .2.1.3.1 1.8.7 3.7.9 5.7.6 4-.7 6.8-2.9 8.5-6.5.1-.3.1-.4-.2-.5-2.2-1.3-4.6-1.8-7.1-1.5-2.8.4-5.1 1.6-7 3.7-1 .8-1.5 1.8-2 2.9z"/></g><g id="Layer_3"><path class="st3" d="M286.9 397.1l86.3.2-8.3-21.9c-1.6-7.8-6.4-15.1-6.4-23 0-5.8 3.9-11.7 3.9-24.3 0-6.1-1.1-12.1-3.4-18.3L330 264c-2.4-3.9-8.7-4.3-14.1-.9l-1.8 1.1c-5.4 3.3-7.8 9.2-5.4 13.1l19.6 31.2-1.1-.2-28.7-45.8c-2.4-3.9-8.7-4.3-14.1-.9l-1.8 1.1c-5.4 3.4-7.8 9.2-5.4 13.1l16.1 25.7-.7-.2L273 270c-2.4-3.9-8.7-4.3-14.1-.9l-1.8 1.1c-5.4 3.4-7.8 9.2-5.4 13.1l17.9 28.4-.7.4-37.9-60.9c-2.4-3.9-8.7-4.3-14.1-.9l-1.8 1.1c-5.4 3.4-7.8 9.2-5.4 13.1l44.5 71.3s5 12.3-10 1.1l-24-17.9c-3.8-2.5-9.7-.1-13.1 5.2L206 326c-3.4 5.3-3.1 11.7.7 14.1 35.9 25.3 80.2 61.1 80.2 57z"/><path class="st2" d="M286.5 399.8c-2.9 0-9.4-4.5-39.5-27.1-13.2-9.9-28.1-21.1-41.8-30.8-2.4-1.6-3.9-4.3-4.1-7.8-.2-3.2.8-6.5 2.7-9.5l1.1-1.8c4.2-6.5 11.4-9.1 16.4-5.9l22 16.4 2.2 1.6c4.1 3.1 6.1 3.9 7 4.2-.1-.6-.3-1.5-.5-2.3l-44.3-71.1c-1.6-2.5-1.7-5.7-.4-8.9 1.2-2.9 3.5-5.6 6.5-7.5l1.8-1.1c3-1.9 6.4-2.8 9.6-2.6 3.4.2 6.2 1.8 7.8 4.3l16.2 25.9c1.1-3 3.5-5.8 6.7-7.8l1.8-1.1c6.4-4 13.8-3.4 17.1 1.3 0-.1.1-.1.1-.2 1.2-2.9 3.5-5.6 6.6-7.5l1.8-1.1c6.6-4.1 14.2-3.4 17.4 1.7l5.6 8.9c1.1-3.1 3.5-6 6.8-8l1.8-1.1c3.7-2.3 7.9-3.2 11.5-2.3 2.6.6 4.6 2 5.8 4l29.1 46.3c2.4 6.3 3.6 12.6 3.6 19.1 0 7.8-1.4 13.1-2.6 17.4-.7 2.7-1.3 4.9-1.3 6.9 0 4.2 1.6 8.4 3.2 12.8 1.2 3.1 2.4 6.2 3 9.5l9.5 24.9-88.7-.2h-.1c-.5.3-.9.5-1.4.5zm-.7-5.1l83.8.2-7.2-19c-.6-3-1.7-5.9-2.9-9-1.7-4.6-3.5-9.3-3.5-14.4 0-2.7.7-5.2 1.5-8.1 1.1-4 2.4-8.9 2.4-16.1 0-5.9-1-11.5-3.2-17.2L328 265.2c-.7-1.2-2-1.7-2.9-1.9-2.4-.6-5.3.1-8 1.7l-1.8 1.1c-2.6 1.6-4.5 4-5 6.4-.2.9-.3 2.3.4 3.4l22.5 35.9-7.5-1.5-29.3-46.6c-1.7-2.7-6.7-2.8-10.8-.2l-1.8 1.1c-2.2 1.3-3.9 3.3-4.7 5.2-.4 1-1 2.9.1 4.6l19.1 30.4-7.2-1.5-20.1-32.1c-1.7-2.7-6.7-2.8-10.8-.2l-1.8 1.1c-2.6 1.6-4.5 4-5 6.4-.2.9-.3 2.2.4 3.4l19.2 30.6-4.9 2.6-39.1-62.6c-1-1.6-3-2-4.1-2.1-2.1-.1-4.6.5-6.8 1.9l-1.8 1.1c-2.2 1.3-3.9 3.2-4.7 5.2-.4 1-1 2.9.1 4.6l44.6 71.6c.6 1.4 2.2 6.1-.6 8.3-2.2 1.7-5.5.9-10.9-2.8l-2.2-1.6-24-17.9c-2.5-1.6-7.1.4-9.7 4.6l-1.1 1.8c-1.4 2.1-2.1 4.6-2 6.7.1 1.1.4 3.1 2 4.1 13.8 9.8 28.8 21 42 30.9 15.5 11.6 31.4 23.5 36 25.8z"/><path class="st3" d="M198.7 170.3c-2.7-7.2-10.5-10.8-17.4-8.2l-25.1 10.2c-5.6 1.5-9.1 3.2-11.3 4.7-2.3 1.6-3.4 3-4.1 3.8l-26.5 34.4c-2.2 2.9-3.5 6.3-3.7 9.9l-3.3 51.5L8.3 397l96.6-.5 41.2-55.4c-.8-1.3-1.2-2.9-1.2-4.6v-41c8.4-9 10.9-24.8 10.9-39.2 0-8.8-2.5-31.1-9.2-39.5 4.1-5.7 14.3-16.7 14.3-16.7l30.3-12.3c6.8-2.4 10.2-10.3 7.5-17.5z"/><path class="st2" d="M3.3 399.4L105 275.7l3.2-50.8c.3-4.1 1.7-8 4.2-11.2l26.8-34.7c.7-.9 2-2.4 4.4-4.1 2.9-2 6.8-3.6 11.9-5l25-10.1c8.2-3.1 17.3 1.2 20.5 9.6 3.2 8.4-.8 17.7-8.9 20.7l-29.8 12c-1.7 1.8-8.8 9.6-12.7 14.7 6.5 9.8 8.7 30.9 8.7 39.4 0 12.7-1.9 29.8-10.9 40.1v40.1c0 1.2.3 2.3.9 3.4l.8 1.4-42.9 57.6-102.9.6zm182.6-235.7c-1.2 0-2.5.2-3.7.7l-25.3 10.2c-4.6 1.2-8.1 2.7-10.6 4.4-1.8 1.2-2.7 2.3-3.4 3.1l-.2.3-26.5 34.3c-1.9 2.5-3 5.5-3.2 8.6l-3.3 52.3-.5.6-95.9 116.4 90.3-.5 39.7-53.3c-.6-1.4-.8-2.8-.8-4.3v-41.9l.6-.7c8.5-9.1 10.3-25.5 10.3-37.6 0-9.2-2.6-30.5-8.7-38l-1.1-1.4 1.1-1.5c4.1-5.7 14-16.4 14.4-16.9l.4-.4 30.8-12.5c5.7-2.2 8.5-8.7 6.2-14.6-1.8-4.4-6.1-7.3-10.6-7.3z"/></g></svg>