<?xml version="1.0" encoding="utf-8"?>
<!-- Generator: Adobe Illustrator 22.0.1, SVG Export Plug-In . SVG Version: 6.00 Build 0)  -->
<svg version="1.1" xmlns="http://www.w3.org/2000/svg" xmlns:xlink="http://www.w3.org/1999/xlink" x="0px" y="0px"
	 viewBox="0 0 450 350" style="enable-background:new 0 0 450 350;" xml:space="preserve">
<style type="text/css">
	.st0{fill:#FFFFFF;}
	.st1{fill:#35A283;}
	.st2{fill:#E4E4E4;}
	.st3{fill:none;stroke:#555E5B;stroke-width:4;stroke-miterlimit:10;}
	.st4{fill:#59BDE9;}
	.st5{fill:none;stroke:#555E5B;stroke-width:4;stroke-miterlimit:10;stroke-dasharray:4;}
	.st6{fill:#FFF581;}
	.st7{fill:#F99F1C;}
	.st8{fill:#FFFFFF;stroke:#555E5B;stroke-width:4;stroke-miterlimit:10;}
	.st9{fill:#F99F1C;stroke:#555E5B;stroke-width:4;stroke-miterlimit:10;}
	.st10{fill:#F89E1C;stroke:#555E5B;stroke-width:4;stroke-miterlimit:10;stroke-dasharray:4;}
</style>
<g id="Layer_16">
	<path class="st0" d="M378.1,94.8c0-12.1-9.8-21.9-21.9-21.9H124.4h-9.8c-20.6,0-21.7-21.9-21.7-21.9v215.5
		c0,12.1,9.8,21.9,21.9,21.9h230.9h19.7L378.1,94.8z"/>
	<path class="st1" d="M378.1,94.8c0,12.1-9.8,21.9-21.9,21.9c-3.5,0-6.7-0.8-9.6-2.2v215.5c2.9,1.4,6.2,2.2,9.6,2.2
		c12.1,0,21.9-9.8,21.9-21.9V93.8"/>
	<path class="st2" d="M124.4,72.9h-9.6c-12.1,0-21.9-9.8-21.9-21.9s9.8-21.9,21.9-21.9c3.5,0,6.7,0.8,9.6,2.2v38.6L124.4,72.9z"/>
	<path class="st3" d="M378.1,93.8v216.4c0,12.1-9.8,21.9-21.9,21.9c-3.5,0-6.7-0.8-9.6-2.2V114.4c2.9,1.4,6.2,2.2,9.6,2.2
		c12.1,0,21.9-9.8,21.9-21.9s-9.8-21.9-21.9-21.9H114.8c-12.1,0-21.9-9.8-21.9-21.9s9.8-21.9,21.9-21.9c3.5,0,6.7,0.8,9.6,2.2v42.2"
		/>
	<path class="st3" d="M345.7,288.4H114.8c-12.1,0-21.9-9.8-21.9-21.9V51.1"/>
</g>
<g id="Layer_17">
	<circle class="st4" cx="183" cy="185.4" r="13"/>
	<circle class="st4" cx="183" cy="112.3" r="13"/>
	<circle class="st4" cx="233.9" cy="185.4" r="13"/>
	<circle class="st4" cx="284.9" cy="185.4" r="13"/>
	<circle class="st4" cx="284.9" cy="252.9" r="13"/>
	<path class="st5" d="M284.9,167V144c0-14.2-11.5-25.7-25.7-25.7c-14.2,0-25.7,11.5-25.7,25.7v10.6"/>
	<path class="st5" d="M234.5,203.7v19.5c0,14.2-11.5,25.7-25.7,25.7S183,237.4,183,223.2v-5.4"/>
	<polyline class="st3" points="275.7,214.7 284.9,205.4 294.1,214.7 	"/>
	<polyline class="st3" points="173.8,220.8 183,211.5 192.2,220.8 	"/>
	<polyline class="st3" points="173.8,140.9 183,131.7 192.2,140.9 	"/>
	<polyline class="st3" points="242.8,150.6 233.6,159.9 224.3,150.6 	"/>
	<line class="st5" x1="183" y1="139.9" x2="183" y2="168.6"/>
	<line class="st5" x1="284.9" y1="213.2" x2="284.9" y2="235.6"/>
</g>
<g id="Layer_12">
	<g>
		<path class="st6" d="M209.7,19l126.1,127.1V19H209.7z M314.1,94.6l-55-55h55V94.6z"/>
		<g>
			<line class="st3" x1="245" y1="20.4" x2="245" y2="32.5"/>
			<line class="st3" x1="232.4" y1="20.4" x2="232.4" y2="26.5"/>
			<line class="st3" x1="257.7" y1="20.4" x2="257.7" y2="26.5"/>
			<line class="st3" x1="270.3" y1="20.4" x2="270.3" y2="32.5"/>
			<line class="st3" x1="283" y1="20.4" x2="283" y2="26.5"/>
			<line class="st3" x1="295.6" y1="20.4" x2="295.6" y2="32.5"/>
			<line class="st3" x1="308.3" y1="20.4" x2="308.3" y2="26.5"/>
			<line class="st3" x1="320.9" y1="20.4" x2="320.9" y2="26.5"/>
		</g>
		<g>
			<line class="st3" x1="333.8" y1="49.4" x2="321.7" y2="49.4"/>
			<line class="st3" x1="333.8" y1="36.8" x2="327.7" y2="36.8"/>
			<line class="st3" x1="333.8" y1="62.1" x2="327.7" y2="62.1"/>
			<line class="st3" x1="333.8" y1="74.7" x2="321.7" y2="74.7"/>
			<line class="st3" x1="333.8" y1="87.4" x2="327.7" y2="87.4"/>
			<line class="st3" x1="333.8" y1="100" x2="321.7" y2="100"/>
			<line class="st3" x1="333.8" y1="112.7" x2="327.7" y2="112.7"/>
			<line class="st3" x1="333.8" y1="125.3" x2="327.7" y2="125.3"/>
		</g>
		<path class="st3" d="M209.7,19l126.1,127.1V19H209.7z M314.1,94.6l-55-55h55V94.6z"/>
	</g>
	<path class="st7" d="M317.7,307.8h-12.3v19.1h12.3c2.8,0,5.1-2.3,5.1-5.1v-8.8C322.9,310.1,320.6,307.8,317.7,307.8z"/>
	<polygon class="st0" points="150.1,317.3 175.7,326.9 175.7,307.8 	"/>
	<rect x="175.7" y="307.8" class="st4" width="129.7" height="19.1"/>
	<path class="st3" d="M175.7,326.9h142c2.8,0,5.1-2.3,5.1-5.1v-8.8c0-2.8-2.3-5.1-5.1-5.1h-142l-25.6,9.5L175.7,326.9z"/>
	<line class="st3" x1="175.7" y1="326.9" x2="175.7" y2="307.8"/>
	<line class="st3" x1="305.4" y1="308.6" x2="305.4" y2="326.1"/>
	<line class="st3" x1="175.7" y1="317.3" x2="305.4" y2="317.3"/>
</g>
<g id="Layer_14">
	<g>
		<g>
			<line class="st3" x1="100" y1="304.4" x2="104.6" y2="299.8"/>
			<line class="st3" x1="88.6" y1="315.8" x2="93.2" y2="311.2"/>
		</g>
		<g>
			<line class="st3" x1="100" y1="311.2" x2="104.6" y2="315.8"/>
			<line class="st3" x1="88.6" y1="299.8" x2="93.2" y2="304.4"/>
		</g>
	</g>
	<g>
		<g>
			<line class="st3" x1="178.5" y1="39.6" x2="183.2" y2="35"/>
			<line class="st3" x1="167.2" y1="51" x2="171.8" y2="46.3"/>
		</g>
		<g>
			<line class="st3" x1="178.5" y1="46.3" x2="183.2" y2="51"/>
			<line class="st3" x1="167.2" y1="35" x2="171.8" y2="39.6"/>
		</g>
	</g>
</g>
<g id="Layer_15">
	<rect x="71.9" y="114.3" class="st8" width="85.9" height="113"/>
	<g>
		<g>
			<rect x="80.6" y="154" class="st3" width="16.1" height="16.1"/>
			<rect x="106.8" y="154" class="st3" width="16.1" height="16.1"/>
			<rect x="133" y="154" class="st3" width="16.1" height="16.1"/>
		</g>
		<rect x="80.6" y="122.8" class="st9" width="68.5" height="22"/>
		<g>
			<rect x="80.6" y="178.3" class="st3" width="16.1" height="16.1"/>
			<rect x="106.8" y="178.3" class="st3" width="16.1" height="16.1"/>
			<rect x="133" y="178.3" class="st3" width="16.1" height="16.1"/>
		</g>
		<g>
			<rect x="80.6" y="202.6" class="st3" width="16.1" height="16.1"/>
			<rect x="106.8" y="202.6" class="st3" width="16.1" height="16.1"/>
			<rect x="133" y="202.6" class="st3" width="16.1" height="16.1"/>
		</g>
		<line class="st10" x1="87.3" y1="133.8" x2="143.2" y2="133.8"/>
	</g>
</g>
</svg>
