<svg xmlns="http://www.w3.org/2000/svg" viewBox="0 0 780 500"><style>.st0{fill:#fff581}.st1{fill:#fff}.st2{fill:#555e5b}.st3{fill:#35a283}.st4{fill:#f99f1c}.st5{fill:#59bde9}</style><path class="st0" d="M-155.4 495.7l-3.9-.4c.1-1.3.3-2.6.4-3.9l3.9.4c-.1 1.3-.2 2.6-.4 3.9zm1106.6-4.8c-.1-1.3-.3-2.6-.4-3.8l3.8-.5c.2 1.3.3 2.6.4 3.9l-3.8.4zM-154.5 488l-3.8-.5c.2-1.3.3-2.6.5-3.9l3.8.5c-.2 1.3-.4 2.6-.5 3.9zm1104.8-4.7c-.2-1.3-.3-2.5-.5-3.8l3.8-.5c.2 1.3.4 2.6.5 3.9l-3.8.4zm-1103.9-3l-3.8-.5.6-3.9 3.8.6c-.2 1.3-.4 2.5-.6 3.8zm1102.8-4.7c-.2-1.3-.4-2.5-.6-3.8l3.8-.6c.2 1.3.4 2.6.6 3.8l-3.8.6zm-1101.6-2.9l-3.8-.6c.2-1.3.4-2.6.6-3.8l3.8.7c-.2 1.1-.4 2.4-.6 3.7zM948 468.1c-.2-1.3-.5-2.5-.7-3.8l3.8-.7c.2 1.3.5 2.5.7 3.8l-3.8.7zm-1099.1-3l-3.8-.7c.2-1.3.5-2.6.7-3.8l3.8.7c-.2 1.3-.4 2.5-.7 3.8zm1097.7-4.6c-.3-1.3-.5-2.5-.8-3.8l3.8-.8c.3 1.3.5 2.5.8 3.8l-3.8.8zm-1096.2-3l-3.8-.8c.3-1.3.5-2.5.8-3.8l3.8.8c-.3 1.3-.5 2.6-.8 3.8zM945 453c-.3-1.2-.6-2.5-.9-3.7l3.8-.9c.3 1.3.6 2.5.9 3.8l-3.8.8zm-1092.9-3l-3.8-.9c.3-1.3.6-2.5.9-3.8l3.8.9c-.3 1.3-.6 2.5-.9 3.8zm1091.1-4.5c-.3-1.2-.6-2.5-.9-3.7l3.8-1c.3 1.3.6 2.5.9 3.8l-3.8.9zm-1089.3-3l-3.8-1c.3-1.3.6-2.5 1-3.8l3.7 1c-.3 1.3-.6 2.5-.9 3.8zm1087.4-4.4c-.3-1.2-.7-2.5-1-3.7l3.7-1c.3 1.2.7 2.5 1 3.7l-3.7 1zm-1085.4-3l-3.7-1c.3-1.2.7-2.5 1.1-3.7l3.7 1.1c-.4 1.1-.8 2.3-1.1 3.6zm1083.4-4.4c-.4-1.2-.7-2.5-1.1-3.7l3.7-1.1c.4 1.2.7 2.5 1.1 3.7l-3.7 1.1zm-1081.3-3l-3.7-1.1c.4-1.2.8-2.5 1.1-3.7l3.7 1.2c-.3 1.1-.7 2.3-1.1 3.6zm1079-4.3c-.4-1.2-.8-2.4-1.2-3.7l3.7-1.2c.4 1.2.8 2.5 1.2 3.7l-3.7 1.2zm-1076.7-3.1l-3.7-1.2c.4-1.2.8-2.5 1.2-3.7l3.7 1.2c-.4 1.3-.8 2.5-1.2 3.7zM934.6 416c-.4-1.2-.8-2.4-1.3-3.6l3.7-1.3c.4 1.2.9 2.5 1.3 3.7l-3.7 1.2zm-1071.8-3l-3.7-1.3c.4-1.2.9-2.4 1.3-3.7l3.6 1.3c-.4 1.3-.8 2.5-1.2 3.7zm1069.3-4.2c-.4-1.2-.9-2.4-1.3-3.6l3.6-1.4c.5 1.2.9 2.4 1.3 3.6l-3.6 1.4zm-1066.7-3l-3.6-1.4c.5-1.2.9-2.4 1.4-3.6l3.6 1.4c-.5 1.2-1 2.4-1.4 3.6zm1064-4.2c-.5-1.2-.9-2.4-1.4-3.6l3.6-1.4c.5 1.2 1 2.4 1.4 3.6l-3.6 1.4zm-1061.3-3l-3.6-1.4c.5-1.2 1-2.4 1.4-3.6l3.6 1.5c-.4 1.2-.9 2.3-1.4 3.5zm1058.4-4.2l-1.5-3.6 3.6-1.5 1.5 3.6-3.6 1.5zM-129 391.5l-3.6-1.5 1.5-3.6 3.6 1.5c-.5 1.3-1 2.5-1.5 3.6zm1052.5-4.2c-.5-1.2-1-2.4-1.6-3.5l3.5-1.6c.5 1.2 1.1 2.4 1.6 3.6l-3.5 1.5zm-1049.4-2.8l-3.5-1.6c.5-1.2 1.1-2.4 1.6-3.5l3.5 1.6c-.6 1.2-1.1 2.3-1.6 3.5zm1046.3-4.3c-.5-1.2-1.1-2.3-1.6-3.5l3.5-1.7c.6 1.2 1.1 2.4 1.6 3.5l-3.5 1.7zm-1043.1-2.7l-3.5-1.6c.6-1.2 1.1-2.3 1.7-3.5l3.5 1.7c-.6 1.1-1.2 2.2-1.7 3.4zm1039.8-4.2c-.6-1.2-1.1-2.3-1.7-3.5l3.5-1.7c.6 1.2 1.2 2.3 1.7 3.5l-3.5 1.7zm-1036.5-2.7l-3.5-1.7c.6-1.2 1.2-2.3 1.7-3.5l3.5 1.8c-.6 1.1-1.1 2.2-1.7 3.4zm1033.1-4.3c-.6-1.1-1.2-2.3-1.8-3.4l3.4-1.8c.6 1.2 1.2 2.3 1.8 3.5l-3.4 1.7zm-1029.6-2.6l-3.4-1.8c.6-1.2 1.2-2.3 1.8-3.4l3.4 1.8c-.6 1.1-1.2 2.2-1.8 3.4zm1026-4.2c-.6-1.1-1.2-2.3-1.8-3.4l3.4-1.9c.6 1.1 1.2 2.3 1.9 3.4l-3.5 1.9zm-1022.4-2.6l-3.4-1.8c.6-1.1 1.2-2.3 1.9-3.4l3.4 1.9c-.7 1-1.3 2.1-1.9 3.3zm1018.7-4.2c-.6-1.1-1.3-2.2-1.9-3.4l3.4-1.9c.6 1.1 1.3 2.3 1.9 3.4l-3.4 1.9zm-1015-2.6l-3.4-1.9c.6-1.1 1.3-2.3 1.9-3.4l3.3 2c-.5 1.1-1.1 2.2-1.8 3.3zM902.5 346c-.6-1.1-1.3-2.2-2-3.3l3.3-2c.7 1.1 1.3 2.2 2 3.3l-3.3 2zm-1007.2-2.5l-3.3-2c.7-1.1 1.3-2.2 2-3.3l3.3 2c-.7 1.1-1.3 2.2-2 3.3zm1003.2-4.1c-.7-1.1-1.3-2.2-2-3.3l3.3-2.1c.7 1.1 1.4 2.2 2 3.3l-3.3 2.1zm-999.2-2.5l-3.3-2 2.1-3.3 3.3 2.1c-.7 1-1.4 2.1-2.1 3.2zm995.2-4.1c-.7-1.1-1.4-2.2-2.1-3.2l3.2-2.1 2.1 3.3-3.2 2zm-991-2.4l-3.2-2.1 2.1-3.3 3.2 2.1-2.1 3.3zm986.7-4c-.7-1.1-1.4-2.1-2.1-3.2l3.2-2.2c.7 1.1 1.5 2.2 2.2 3.2l-3.3 2.2zM-92.3 324l-3.2-2.2c.7-1.1 1.5-2.1 2.2-3.2l3.2 2.2c-.7 1-1.5 2.1-2.2 3.2zm978.2-4c-.7-1.1-1.5-2.1-2.2-3.2l3.2-2.2c.7 1.1 1.5 2.1 2.2 3.2l-3.2 2.2zm-973.8-2.4l-3.2-2.2c.7-1.1 1.5-2.1 2.3-3.2l3.1 2.3c-.7 1-1.5 2.1-2.2 3.1zm969.4-3.9c-.8-1-1.5-2.1-2.3-3.1l3.1-2.3c.8 1 1.5 2.1 2.3 3.1l-3.1 2.3zm-964.9-2.4l-3.1-2.3c.8-1 1.5-2.1 2.3-3.1l3.1 2.3c-.8 1.1-1.6 2.1-2.3 3.1zm960.3-3.8c-.8-1-1.5-2.1-2.3-3.1l3.1-2.3c.8 1 1.6 2.1 2.3 3.1l-3.1 2.3zm-955.7-2.3l-3.1-2.3c.8-1 1.6-2.1 2.4-3.1l3.1 2.4c-.8.9-1.6 1.9-2.4 3zm951-3.9l-2.4-3 3-2.4c.8 1 1.6 2 2.4 3.1l-3 2.3zm-946.3-2.2l-3-2.4 2.4-3 3 2.4c-.8.9-1.6 2-2.4 3zm941.6-3.8l-2.4-3 3-2.5c.8 1 1.6 2 2.5 3l-3.1 2.5zM-69.3 293l-3-2.4c.8-1 1.6-2 2.5-3l3 2.5c-.8 1-1.7 1.9-2.5 2.9zm931.9-3.7c-.8-1-1.7-2-2.5-3l3-2.5c.8 1 1.7 2 2.5 3l-3 2.5zm-926.9-2.2l-3-2.5c.8-1 1.7-2 2.5-3l2.9 2.5c-.8 1.1-1.6 2-2.4 3zm921.9-3.7c-.8-1-1.7-1.9-2.5-2.9l2.9-2.6c.9 1 1.7 2 2.6 2.9l-3 2.6zm-916.9-2.1l-2.9-2.5c.9-1 1.7-1.9 2.6-2.9l2.9 2.6c-.9.8-1.8 1.8-2.6 2.8zm911.8-3.6c-.9-1-1.7-1.9-2.6-2.9l2.9-2.6c.9 1 1.7 1.9 2.6 2.9l-2.9 2.6zm-906.7-2.2l-2.9-2.6c.9-1 1.7-1.9 2.6-2.9l2.8 2.6c-.8 1-1.6 2-2.5 2.9zm901.5-3.6c-.9-.9-1.7-1.9-2.6-2.8l2.8-2.7c.9.9 1.8 1.9 2.7 2.8l-2.9 2.7zM-49 269.8l-2.8-2.6c.9-.9 1.8-1.9 2.7-2.8l2.8 2.7-2.7 2.7zm891-3.5c-.9-.9-1.8-1.9-2.7-2.8l2.8-2.7c.9.9 1.8 1.9 2.7 2.8l-2.8 2.7zm-885.6-2.1l-2.8-2.7c.9-.9 1.8-1.9 2.7-2.8l2.8 2.7c-1 1-1.9 1.9-2.7 2.8zm880.2-3.4l-2.7-2.7 2.7-2.7c.9.9 1.8 1.8 2.7 2.8l-2.7 2.6zm-874.8-2.1L-41 256c.9-.9 1.8-1.8 2.8-2.7l2.7 2.8c-.9.8-1.8 1.7-2.7 2.6zm869.4-3.3c-.9-.9-1.8-1.8-2.8-2.7l2.7-2.8c.9.9 1.9 1.8 2.8 2.7l-2.7 2.8zm-863.9-2.1l-2.7-2.8c.9-.9 1.9-1.8 2.8-2.7l2.7 2.8c-1 .9-1.9 1.8-2.8 2.7zm858.3-3.3c-.9-.9-1.9-1.8-2.8-2.6l2.6-2.8c.9.9 1.9 1.8 2.8 2.7l-2.6 2.7zm-852.7-2l-2.6-2.8c.9-.9 1.9-1.8 2.8-2.6l2.6 2.8c-1 .9-1.9 1.7-2.8 2.6zm847.1-3.3c-.9-.9-1.9-1.7-2.8-2.6l2.6-2.9c1 .9 1.9 1.7 2.9 2.6l-2.7 2.9zm-841.5-1.9l-2.6-2.9c1-.9 1.9-1.7 2.9-2.6l2.6 2.9c-1 .9-1.9 1.7-2.9 2.6zm835.8-3.2c-1-.9-1.9-1.7-2.9-2.6l2.6-2.9c1 .9 1.9 1.7 2.9 2.6l-2.6 2.9zm-830-2l-2.6-2.9c1-.9 1.9-1.7 2.9-2.6l2.5 2.9c-.9.9-1.9 1.8-2.8 2.6zm824.2-3.1c-1-.8-1.9-1.7-2.9-2.5l2.5-3c1 .8 2 1.7 3 2.5l-2.6 3zm-818.4-1.9l-2.5-2.9c1-.8 2-1.7 3-2.5l2.5 3c-1 .7-2 1.6-3 2.4zm812.5-3.1c-1-.8-2-1.6-3-2.5l2.5-3c1 .8 2 1.7 3 2.5l-2.5 3zM-4 227.6l-2.5-3c1-.8 2-1.6 3-2.5l2.4 3c-.9.9-1.9 1.7-2.9 2.5zm800.6-3l-3-2.4 2.4-3 3 2.4-2.4 3zM2 222.7l-2.4-3 3-2.4 2.4 3-3 2.4zm788.6-3l-3-2.4 2.4-3.1c1 .8 2 1.6 3.1 2.4l-2.5 3.1zM8 218l-2.4-3.1c1-.8 2-1.6 3.1-2.4l2.4 3.1c-1 .8-2 1.6-3.1 2.4zm776.5-3c-1-.8-2-1.6-3.1-2.3l2.3-3.1c1 .8 2.1 1.6 3.1 2.3l-2.3 3.1zm-770.3-1.7l-2.3-3.1c1-.8 2.1-1.6 3.1-2.3l2.3 3.1c-1.1.7-2.1 1.5-3.1 2.3zm764.1-2.9c-1-.8-2.1-1.5-3.1-2.3l2.3-3.1c1 .8 2.1 1.5 3.1 2.3l-2.3 3.1zm-757.9-1.7l-2.3-3.1c1-.8 2.1-1.5 3.1-2.3l2.3 3.1c-1.1.8-2.1 1.5-3.1 2.3zm751.7-2.9c-1-.8-2.1-1.5-3.1-2.2l2.2-3.2c1.1.7 2.1 1.5 3.2 2.3l-2.3 3.1zm-745.5-1.6l-2.2-3.2c1.1-.8 2.1-1.5 3.2-2.2l2.2 3.2c-1.1.7-2.1 1.4-3.2 2.2zm739.2-2.8c-1.1-.7-2.1-1.5-3.2-2.2l2.2-3.2c1.1.7 2.1 1.5 3.2 2.2l-2.2 3.2zM33 199.7l-2.2-3.2c1.1-.7 2.1-1.5 3.2-2.2l2.2 3.2c-1.1.8-2.2 1.5-3.2 2.2zm726.4-2.7c-1.1-.7-2.1-1.4-3.2-2.1l2.1-3.2c1.1.7 2.2 1.4 3.2 2.2l-2.1 3.1zm-720.1-1.6l-2.2-3.2c1.1-.7 2.2-1.4 3.2-2.1l2.1 3.2c-.9.7-2 1.4-3.1 2.1zm713.7-2.7c-1.1-.7-2.2-1.4-3.2-2.1l2.1-3.3 3.3 2.1-2.2 3.3zm-707.2-1.5l-2.1-3.3 3.3-2.1 2.1 3.3-3.3 2.1zm700.7-2.6l-3.3-2.1 2.1-3.3 3.3 2.1-2.1 3.3zM52.3 187l-2.1-3.3 3.3-2.1 2 3.3c-1 .7-2.1 1.4-3.2 2.1zm687.7-2.5l-3.3-2 2-3.3 3.3 2-2 3.3zM58.9 183l-2-3.3c1.1-.7 2.2-1.3 3.3-2l2 3.3c-1.1.6-2.2 1.3-3.3 2zm674.5-2.5c-1.1-.7-2.2-1.3-3.3-2l2-3.3c1.1.7 2.2 1.3 3.3 2l-2 3.3zM65.5 179l-2-3.3c1.1-.7 2.2-1.3 3.4-2l1.9 3.3c-1.1.7-2.2 1.3-3.3 2zm661.2-2.4c-1.1-.6-2.2-1.3-3.3-1.9l1.9-3.4c1.1.6 2.3 1.3 3.4 1.9l-2 3.4zm-654.5-1.5l-1.9-3.4c1.1-.6 2.2-1.3 3.4-1.9l1.9 3.4c-1.2.6-2.3 1.3-3.4 1.9zm647.8-2.4c-1.1-.6-2.2-1.3-3.4-1.9l1.9-3.4c1.1.6 2.3 1.3 3.4 1.9l-1.9 3.4zm-641.1-1.4l-1.9-3.4c1.1-.6 2.3-1.3 3.4-1.9l1.9 3.4c-1.2.7-2.3 1.3-3.4 1.9zm634.3-2.3c-1.1-.6-2.3-1.2-3.4-1.8l1.8-3.4c1.1.6 2.3 1.2 3.4 1.8l-1.8 3.4zm-627.5-1.4l-1.8-3.4c1.1-.6 2.3-1.2 3.4-1.8l1.8 3.4c-1.2.6-2.3 1.2-3.4 1.8zm620.7-2.2c-1.1-.6-2.3-1.2-3.4-1.8l1.8-3.4c1.2.6 2.3 1.2 3.4 1.8l-1.8 3.4zM92.5 164l-1.8-3.4c1.1-.6 2.3-1.2 3.5-1.8l1.8 3.4c-1.2.6-2.4 1.2-3.5 1.8zm607.1-2.2c-1.1-.6-2.3-1.2-3.4-1.7l1.7-3.5c1.2.6 2.3 1.2 3.5 1.8l-1.8 3.4zm-600.2-1.3l-1.7-3.5c1.2-.6 2.3-1.2 3.5-1.7l1.7 3.5c-1.2.5-2.4 1.1-3.5 1.7zm593.3-2.2c-1.2-.6-2.3-1.1-3.5-1.7l1.7-3.5c1.2.6 2.3 1.1 3.5 1.7l-1.7 3.5zm-586.4-1.2l-1.7-3.5c1.2-.6 2.3-1.1 3.5-1.7l1.7 3.5c-1.2.5-2.4 1.1-3.5 1.7zm579.4-2.1c-1.2-.6-2.3-1.1-3.5-1.7l1.6-3.5c1.2.6 2.3 1.1 3.5 1.7l-1.6 3.5zm-572.5-1.3l-1.7-3.5c1.2-.6 2.3-1.1 3.5-1.6l1.6 3.5c-1 .5-2.2 1.1-3.4 1.6zm565.6-2c-1.2-.5-2.3-1.1-3.5-1.6l1.6-3.5c1.2.5 2.4 1.1 3.5 1.6l-1.6 3.5zm-558.6-1.2l-1.6-3.5c1.2-.5 2.4-1.1 3.5-1.6l1.6 3.5c-1.1.5-2.3 1-3.5 1.6zm551.5-2c-1.2-.5-2.4-1-3.5-1.6l1.6-3.5c1.2.5 2.4 1 3.6 1.6l-1.7 3.5zm-544.4-1.2l-1.6-3.5c1.2-.5 2.4-1 3.6-1.6l1.5 3.6c-1.2.5-2.3 1-3.5 1.5zm537.4-1.9c-1.2-.5-2.4-1-3.5-1.5l1.5-3.6 3.6 1.5-1.6 3.6zm-530.3-1.2l-1.5-3.6 3.6-1.5 1.5 3.6c-1.3.5-2.4 1-3.6 1.5zm523.1-1.8l-3.6-1.5 1.5-3.6 3.6 1.5-1.5 3.6zm-516-1.1l-1.5-3.6 3.6-1.5 1.5 3.6-3.6 1.5zm508.9-1.9c-1.2-.5-2.4-1-3.6-1.4l1.4-3.6c1.2.5 2.4 1 3.6 1.4l-1.4 3.6zm-501.7-1l-1.4-3.6c1.2-.5 2.4-1 3.6-1.4l1.4 3.6c-1.3.4-2.4.9-3.6 1.4zm494.5-1.8c-1.2-.5-2.4-.9-3.6-1.4l1.4-3.6c1.2.5 2.4.9 3.6 1.4l-1.4 3.6zm-487.3-1l-1.4-3.6c1.2-.5 2.4-.9 3.6-1.4l1.4 3.6c-1.2.4-2.4.9-3.6 1.4zm480.1-1.7c-1.2-.5-2.4-.9-3.6-1.3l1.3-3.6c1.2.4 2.4.9 3.6 1.3l-1.3 3.6zm-472.9-1.1l-1.3-3.6c1.2-.4 2.4-.9 3.6-1.3l1.3 3.6c-1.2.5-2.4.9-3.6 1.3zm465.7-1.6c-1.2-.4-2.4-.9-3.6-1.3l1.3-3.7c1.2.4 2.4.9 3.7 1.3l-1.4 3.7zm-458.5-1l-1.3-3.6c1.2-.4 2.4-.9 3.7-1.3l1.3 3.7c-1.2.4-2.4.8-3.7 1.2zm451.2-1.6c-1.2-.4-2.4-.8-3.6-1.3l1.2-3.7c1.2.4 2.5.8 3.7 1.3l-1.3 3.7zm-443.9-.9l-1.3-3.7c1.2-.4 2.5-.8 3.7-1.2l1.2 3.7c-1.1.4-2.3.8-3.6 1.2zm436.6-1.6c-1.2-.4-2.4-.8-3.7-1.2l1.2-3.7c1.2.4 2.5.8 3.7 1.2l-1.2 3.7zm-429.2-.9l-1.2-3.7c1.2-.4 2.5-.8 3.7-1.2l1.2 3.7c-1.3.4-2.5.8-3.7 1.2zm421.8-1.5c-1.2-.4-2.5-.8-3.7-1.2l1.2-3.7c1.2.4 2.5.8 3.7 1.2l-1.2 3.7zm-414.5-.8l-1.2-3.7c1.2-.4 2.5-.8 3.7-1.2l1.1 3.7c-1.1.4-2.4.8-3.6 1.2zm407.1-1.5c-1.2-.4-2.5-.8-3.7-1.1l1.1-3.7c1.2.4 2.5.7 3.7 1.1l-1.1 3.7zm-399.7-.8l-1.1-3.7c1.2-.4 2.5-.7 3.7-1.1l1.1 3.7c-1.2.4-2.5.7-3.7 1.1zm392.4-1.4c-1.2-.4-2.5-.7-3.7-1.1l1.1-3.7c1.2.4 2.5.7 3.7 1.1l-1.1 3.7zm-385-.8l-1.1-3.7c1.2-.4 2.5-.7 3.7-1.1l1.1 3.7c-1.2.4-2.5.8-3.7 1.1zm377.5-1.3c-1.2-.3-2.5-.7-3.7-1l1-3.7c1.3.3 2.5.7 3.7 1l-1 3.7zm-370.1-.8l-1-3.7c1.2-.3 2.5-.7 3.7-1l1 3.7c-1.2.3-2.4.7-3.7 1zm362.7-1.3c-1.2-.3-2.5-.7-3.7-1l1-3.7c1.3.3 2.5.7 3.8 1l-1.1 3.7zm-355.2-.7l-1-3.7c1.3-.3 2.5-.7 3.8-1l1 3.7c-1.3.4-2.6.7-3.8 1zm347.7-1.2c-1.2-.3-2.5-.6-3.7-.9l.9-3.8c1.3.3 2.5.6 3.8 1l-1 3.7zm-340.2-.7l-.9-3.8c1.3-.3 2.5-.6 3.8-.9l.9 3.8c-1.3.3-2.6.6-3.8.9zm332.7-1.2c-1.2-.3-2.5-.6-3.8-.9l.9-3.8c1.3.3 2.5.6 3.8.9l-.9 3.8zm-325.2-.7l-.9-3.8c1.3-.3 2.5-.6 3.8-.9l.9 3.8c-1.3.4-2.6.6-3.8.9zm317.7-1.1c-1.3-.3-2.5-.6-3.8-.9l.9-3.8c1.3.3 2.5.6 3.8.9l-.9 3.8zm-310.2-.6l-.9-3.8c1.3-.3 2.5-.6 3.8-.8l.8 3.8c-1.2.2-2.5.5-3.7.8zm302.7-1.1c-1.3-.3-2.5-.5-3.8-.8l.8-3.8c1.3.3 2.5.5 3.8.8l-.8 3.8zm-295.2-.6l-.8-3.8c1.3-.3 2.5-.5 3.8-.8l.8 3.8c-1.2.3-2.5.6-3.8.8zm287.6-1c-1.3-.3-2.5-.5-3.8-.8l.8-3.8c1.3.3 2.5.5 3.8.8l-.8 3.8zm-280-.5l-.8-3.8c1.3-.3 2.5-.5 3.8-.8l.7 3.8c-1.2.3-2.4.5-3.7.8zm272.4-1c-1.3-.2-2.5-.5-3.8-.7l.7-3.8c1.3.2 2.5.5 3.8.7l-.7 3.8zm-264.8-.5l-.7-3.8c1.3-.2 2.5-.5 3.8-.7l.7 3.8c-1.3.2-2.6.4-3.8.7zm257.2-.9c-1.3-.2-2.5-.5-3.8-.7l.7-3.8c1.3.2 2.6.5 3.8.7l-.7 3.8zm-249.6-.5l-.7-3.8c1.3-.2 2.5-.5 3.8-.7l.7 3.8c-1.3.2-2.6.4-3.8.7zm242-.9c-1.3-.2-2.5-.4-3.8-.6l.6-3.8c1.3.2 2.6.4 3.8.6l-.6 3.8zm-234.4-.4l-.6-3.8c1.3-.2 2.6-.4 3.8-.6l.6 3.8c-1.3.1-2.5.3-3.8.6zm226.8-.8c-1.3-.2-2.5-.4-3.8-.6l.6-3.8c1.3.2 2.6.4 3.8.6l-.6 3.8zm-219.2-.5l-.6-3.8c1.3-.2 2.6-.4 3.8-.6l.6 3.8c-1.2.2-2.5.4-3.8.6zm211.6-.7c-1.3-.2-2.5-.4-3.8-.6l.5-3.8c1.3.2 2.6.4 3.8.6l-.5 3.8zm-204-.4l-.6-3.8c1.3-.2 2.6-.4 3.8-.5l.5 3.8c-1.1.1-2.4.3-3.7.5zm196.3-.7c-1.3-.2-2.6-.3-3.8-.5l.5-3.8c1.3.2 2.6.3 3.8.5l-.5 3.8zm-188.6-.4l-.5-3.8c1.3-.2 2.6-.3 3.9-.5l.5 3.8c-1.4.2-2.6.4-3.9.5zm181-.6c-1.3-.2-2.6-.3-3.8-.5l.5-3.8c1.3.2 2.6.3 3.9.5l-.6 3.8zM313 96.9l-.5-3.8c1.3-.2 2.6-.3 3.9-.5l.4 3.8c-1.3.2-2.6.4-3.8.5zm165.6-.5c-1.3-.1-2.6-.3-3.8-.4l.4-3.9c1.3.1 2.6.3 3.9.4l-.5 3.9zm-158-.3l-.4-3.9c1.3-.1 2.6-.3 3.9-.4l.4 3.9c-1.3.1-2.6.2-3.9.4zm150.3-.6c-1.3-.1-2.6-.3-3.8-.4l.4-3.9c1.3.1 2.6.3 3.9.4l-.5 3.9zm-142.6-.2l-.4-3.9c1.3-.1 2.6-.3 3.9-.4l.4 3.9c-1.3.1-2.6.2-3.9.4zm134.9-.5c-1.3-.1-2.6-.2-3.8-.3l.3-3.9 3.9.3-.4 3.9zM336 94.5l-.3-3.9 3.9-.3.3 3.9-3.9.3zm119.5-.4l-3.9-.3.4-3.8 3.9.3-.4 3.8zm-111.8-.2l-.3-3.9 3.9-.3.3 3.9-3.9.3zm104.1-.3l-3.9-.3.2-3.9 3.9.3-.2 3.9zm-96.4-.2l-.3-3.9c1.3-.1 2.6-.2 3.9-.2l.2 3.9c-1.2 0-2.5.1-3.8.2zm88.7-.3c-1.3-.1-2.6-.1-3.9-.2l.2-3.9c1.3.1 2.6.1 3.9.2l-.2 3.9zm-81-.2l-.2-3.9c1.3-.1 2.6-.1 3.9-.2l.2 3.9c-1.3.1-2.6.1-3.9.2zm73.3-.3c-1.3-.1-2.6-.1-3.9-.2l.2-3.9c1.3.1 2.6.1 3.9.2l-.2 3.9zm-65.6-.1l-.2-3.9c1.3-.1 2.6-.1 3.9-.2l.1 3.9c-1.2.1-2.5.2-3.8.2zm57.9-.2c-1.3 0-2.6-.1-3.9-.1l.1-3.9c1.3 0 2.6.1 3.9.1l-.1 3.9zm-50.1-.1l-.1-3.9c1.3 0 2.6-.1 3.9-.1l.1 3.9c-1.4 0-2.7.1-3.9.1zm42.4-.1c-1.3 0-2.6-.1-3.9-.1l.1-3.9c1.3 0 2.6.1 3.9.1l-.1 3.9zm-34.8-.1l-.1-3.9c1.3 0 2.6-.1 3.9-.1l.1 3.9c-1.3.1-2.6.1-3.9.1zm27.1-.1h-3.9V88h3.9v3.9zm-19.3 0V88h3.9v3.9H390zm11.5-.1h-3.9V88h3.9v3.8z" id="Atmos_Line"/><g id="Layer_1"><path class="st0" d="M228.2 384.9l-2.7-2.7 2.7-2.7 2.7 2.7-2.7 2.7zm5.4-5.5l-2.7-2.7 2.7-2.7 2.7 2.7-2.7 2.7zm5.5-5.5l-2.7-2.7 2.7-2.7 2.7 2.7-2.7 2.7zm5.5-5.5l-2.7-2.7 2.7-2.7 2.7 2.7-2.7 2.7zm5.5-5.4l-2.7-2.7 2.7-2.7 2.7 2.7-2.7 2.7zm5.4-5.5l-2.7-2.7 2.7-2.7 2.7 2.7-2.7 2.7zm5.5-5.5l-2.7-2.7 2.7-2.7 2.7 2.7-2.7 2.7zm5.5-5.5l-2.7-2.7 2.7-2.7 2.7 2.7-2.7 2.7zm5.5-5.4l-2.7-2.7 2.7-2.7 2.7 2.7-2.7 2.7zm5.4-5.5l-2.7-2.7 2.7-2.7 2.7 2.7-2.7 2.7zm5.5-5.5l-2.7-2.7 2.7-2.7 2.7 2.7-2.7 2.7zm5.5-5.5l-2.7-2.7 2.7-2.7 2.7 2.7-2.7 2.7zm5.5-5.4l-2.7-2.7 2.7-2.7 2.7 2.7-2.7 2.7zm5.5-5.5l-2.7-2.7 2.7-2.7 2.7 2.7-2.7 2.7zm5.4-5.5l-2.7-2.7 2.7-2.7 2.7 2.7-2.7 2.7zm5.5-5.5l-2.7-2.7 2.7-2.7 2.7 2.7-2.7 2.7zm5.5-5.5l-2.7-2.7 2.7-2.7 2.7 2.7-2.7 2.7zm5.5-5.4l-2.7-2.7 2.7-2.7 2.7 2.7-2.7 2.7zm5.4-5.5l-2.7-2.7 2.7-2.7 2.7 2.7-2.7 2.7zm5.5-5.5l-2.7-2.7 2.7-2.7 2.7 2.7-2.7 2.7zm5.5-5.5l-2.7-2.7 2.7-2.7 2.7 2.7-2.7 2.7zm5.5-5.4l-2.7-2.7 2.7-2.7 2.7 2.7-2.7 2.7zm5.4-5.5l-2.7-2.7 2.7-2.7 2.7 2.7-2.7 2.7zm5.5-5.5l-2.7-2.7 2.7-2.7 2.7 2.7-2.7 2.7zm5.5-5.5l-2.7-2.7 2.7-2.7 2.7 2.7-2.7 2.7zm5.5-5.5l-2.7-2.7 2.7-2.7 2.7 2.7-2.7 2.7zM382.7 291c-4.3 0-7.7-3.5-7.7-7.7s3.5-7.7 7.7-7.7c4.3 0 7.7 3.5 7.7 7.7s-3.4 7.7-7.7 7.7zm0-11.7c-2.1 0-3.9 1.7-3.9 3.9 0 2.1 1.7 3.9 3.9 3.9 2.1 0 3.9-1.7 3.9-3.9 0-2.1-1.8-3.9-3.9-3.9zM449.5 227.1c-4.3 0-7.7-3.5-7.7-7.7 0-4.3 3.5-7.7 7.7-7.7 4.3 0 7.7 3.5 7.7 7.7s-3.4 7.7-7.7 7.7zm0-11.7c-2.1 0-3.9 1.7-3.9 3.9s1.7 3.9 3.9 3.9c2.1 0 3.9-1.7 3.9-3.9s-1.8-3.9-3.9-3.9zM34.1 259c-4.3 0-7.7-3.5-7.7-7.7s3.5-7.7 7.7-7.7c4.3 0 7.7 3.5 7.7 7.7s-3.4 7.7-7.7 7.7zm0-11.6c-2.1 0-3.9 1.7-3.9 3.9s1.7 3.9 3.9 3.9c2.1 0 3.9-1.7 3.9-3.9s-1.7-3.9-3.9-3.9zM322.7 200.9c-5.9 0-10.7-4.8-10.7-10.7 0-5.9 4.8-10.7 10.7-10.7s10.7 4.8 10.7 10.7c-.1 5.9-4.9 10.7-10.7 10.7zm0-17.4c-3.7 0-6.8 3-6.8 6.8 0 3.7 3 6.8 6.8 6.8s6.8-3 6.8-6.8c-.1-3.8-3.1-6.8-6.8-6.8z"/><path class="st1" d="M-164.1 385.6c8.5-9.2 21.2-13.1 33.4-10.3 6.1 1.4 11.6 4.3 16 8.4l-23.7 25.6-25.7-23.7z"/><path class="st2" d="M-138.5 411.3c-.5 0-.9-.2-1.3-.5l-25.6-23.7c-.4-.3-.6-.8-.6-1.3s.2-1 .5-1.4c8.9-9.6 22.4-13.8 35.2-10.9 6.3 1.4 12.1 4.5 16.9 8.9.4.3.6.8.6 1.3s-.2 1-.5 1.4l-23.7 25.6c-.4.4-1 .6-1.5.6zm-22.8-25.7l22.8 21.1 21.1-22.8c-4-3.3-8.6-5.6-13.7-6.7-10.9-2.5-22.3.7-30.2 8.4z"/><path class="st0" d="M-114.7 383.7c4.4 4.1 7.8 9.3 9.6 15.3 2.5 8 2 16.4-1.2 23.9l-32.2-13.5 23.8-25.7z"/><path class="st2" d="M-105.2 425.4l-36.5-15.4 26.9-29.1 1.4 1.3c4.7 4.4 8.3 10 10.2 16.2 2.6 8.3 2.1 17.2-1.2 25.2l-.8 1.8zm-30-16.7l27.8 11.7c2.4-6.7 2.5-14 .4-20.7-1.5-4.9-4.2-9.4-7.7-13.1l-20.5 22.1z"/><path class="st3" d="M-106.3 422.9c-1.6 3.7-3.8 7.2-6.6 10.2-8.5 9.2-21.2 13.1-33.4 10.3-12.2-2.8-21.9-11.8-25.6-23.7-3.7-11.9-.7-24.9 7.7-34.1l25.6 23.7 32.3 13.6z"/><path class="st2" d="M-138.5 446.2c-2.7 0-5.4-.3-8.1-.9-12.8-2.9-23.2-12.5-27.1-25.1-3.9-12.5-.8-26.3 8.2-36l1.3-1.4 26.8 24.8 33.7 14.2-.8 1.8c-1.7 4-4 7.6-6.9 10.8-7.1 7.6-17 11.8-27.1 11.8zm-25.5-57.8c-7 8.5-9.3 20.1-6 30.7 3.5 11.2 12.8 19.8 24.2 22.4 11.5 2.6 23.5-1.1 31.5-9.8 2.2-2.4 4-5 5.4-7.9l-30.7-12.9-24.4-22.5z"/><path class="st0" d="M229.7 137.5c-14.9 0-27-12.1-27-27s12.1-27 27-27 27 12.1 27 27-12.1 27-27 27z"/><path class="st2" d="M229.7 139.4c-16 0-28.9-13-28.9-28.9 0-16 13-28.9 28.9-28.9 16 0 28.9 13 28.9 28.9 0 16-13 28.9-28.9 28.9zm0-54c-13.8 0-25.1 11.2-25.1 25.1s11.2 25.1 25.1 25.1c13.8 0 25.1-11.2 25.1-25.1s-11.3-25.1-25.1-25.1z"/><path class="st0" d="M526.3 130.3c-14.9 0-27-12.1-27-27s12.1-27 27-27 27 12.1 27 27-12.2 27-27 27z"/><path class="st2" d="M526.3 132.3c-16 0-28.9-13-28.9-28.9 0-16 13-28.9 28.9-28.9 16 0 28.9 13 28.9 28.9 0 15.9-13 28.9-28.9 28.9zm0-54c-13.8 0-25.1 11.2-25.1 25.1s11.2 25.1 25.1 25.1c13.8 0 25.1-11.2 25.1-25.1s-11.3-25.1-25.1-25.1z"/><path class="st1" d="M92.2 131.6l-35.3 21v27.3l40.7-25.3z"/><path class="st2" d="M54.9 183.4v-31.9l38.5-22.9 6.4 27-44.9 27.8zm3.9-29.7v22.8l36.6-22.8-4.5-19.1-32.1 19.1z"/><path class="st1" d="M48.7 157.3v28.4l9.7 6.3 13.4-3.3v-45z"/><path class="st2" d="M58 194.1l-11.2-7.3v-30.5l26.9-15.9v49.9L58 194.1zm-7.4-9.4l8.1 5.3 11.1-2.8v-40.1l-19.2 11.3v26.3z"/><path class="st1" d="M128.7 131.6l35.3 21v27.3l-40.8-25.3z"/><path class="st2" d="M165.9 183.4L121 155.5l6.4-27 38.5 22.9v32zm-40.5-29.7l36.6 22.8v-22.8l-32.1-19.1-4.5 19.1z"/><path class="st1" d="M172.1 157.3v28.4l-9.6 6.3-13.4-3.3v-45z"/><path class="st2" d="M162.8 194.1l-15.7-3.9v-49.9l26.9 15.9v30.5l-11.2 7.4zm-11.8-6.9l11.1 2.8 8.1-5.3v-26.2L151 147.1v40.1z"/><path class="st1" d="M133.8 169.2c-2.7-35.9-7.6-58.6-20.1-87.5-.6-1.3-1.6-2.4-3-2.4s-2.4 1.1-3 2.4c-12.6 28.8-17.4 51.5-20.1 87.5"/><path class="st2" d="M131.9 169.4c-2.8-37.1-7.9-59-20-86.8-.2-.5-.6-1.2-1.2-1.2s-1 .8-1.2 1.2c-12.1 27.8-17.2 49.7-20 86.8l-3.9-.3c2.9-37.6 8-59.8 20.3-88.1 1-2.2 2.7-3.5 4.8-3.5s3.8 1.3 4.8 3.5c12.3 28.2 17.4 50.5 20.3 88.1l-3.9.3z"/><path class="st1" d="M110.7 174.7c-12.8 0-23.1-2.5-23.1-5.5s10.4-5.5 23.1-5.5c12.8 0 23.1 2.5 23.1 5.5 0 3.1-10.3 5.5-23.1 5.5z"/><path class="st2" d="M110.7 176.7c-2.6 0-25.1-.2-25.1-7.5 0-7.2 22.5-7.5 25.1-7.5s25.1.2 25.1 7.5-22.5 7.5-25.1 7.5zm-21.1-7.5c1.4 1.4 9 3.6 21.1 3.6 12.1 0 19.7-2.2 21.1-3.6-1.4-1.4-9-3.6-21.1-3.6-12.1 0-19.7 2.2-21.1 3.6z"/><path class="st0" d="M110.7 171.6c-9.1 0-15.5-1.3-18.5-2.4 3-1.1 9.4-2.4 18.5-2.4s15.5 1.3 18.5 2.4c-3 1.1-9.4 2.4-18.5 2.4z"/><path class="st3" d="M110.7 225.3c-10.1-20.9-23.3-57.4 0-57.4 25.6 0 7.7 41.3 0 57.4z"/><path class="st1" d="M110.7 208.5c-7-18.1-7.2-28.4-5-31.9.4-.6 1.2-1.9 5-1.9 4.1 0 5 1.4 5.3 2 2.3 3.5 1.9 13.7-5.3 31.8z"/><path class="st3" d="M118.5 123.5c0 4.5-3.6 8.1-8.1 8.1s-8.1-3.6-8.1-8.1 3.6-8.1 8.1-8.1 8.1 3.6 8.1 8.1zM54.4 398.5l-3.8-.6.6-3.8 3.8.6-.6 3.8zm1.2-7.6l-3.8-.6.6-3.8 3.8.6-.6 3.8zm1.2-7.7l-3.8-.6.6-3.8 3.8.6-.6 3.8zm1.2-7.6l-3.8-.6.6-3.8 3.8.6-.6 3.8zm1.2-7.7l-3.8-.6.6-3.8 3.8.6-.6 3.8zm1.2-7.6l-3.8-.6.6-3.8 3.8.6-.6 3.8zm1.2-7.7l-3.8-.6.6-3.8 3.8.6-.6 3.8zm1.2-7.6l-3.8-.6.6-3.8 3.8.6-.6 3.8zm1.2-7.7l-3.8-.6.6-3.8 3.8.6-.6 3.8zm1.2-7.6l-3.8-.6.6-3.8 3.8.6-.6 3.8zm1.2-7.7l-3.8-.6.6-3.8 3.8.6-.6 3.8zm1.2-7.6l-3.8-.6.6-3.8 3.8.6-.6 3.8zm1.2-7.7l-3.8-.6.6-3.8 3.8.6-.6 3.8zm1.2-7.6l-3.8-.6.6-3.8 3.8.6-.6 3.8zm1.2-7.7l-3.8-.6.6-3.8 3.8.6-.6 3.8zm1.2-7.6l-3.8-.6.6-3.8 3.8.6-.6 3.8zm1.2-7.7l-3.8-.6.6-3.8 3.8.6-.6 3.8zm1.2-7.6l-3.8-.6.6-3.8 3.8.6-.6 3.8zm1.2-7.7l-3.8-.6.6-3.8 3.8.6-.6 3.8zm1.2-7.6l-3.8-.6.6-3.8 3.8.6-.6 3.8zm1.2-7.7l-3.8-.6.6-3.8 3.8.6-.6 3.8zm1.2-7.6l-3.8-.6.6-3.8 3.8.6-.6 3.8zm1.2-7.7l-3.8-.6.6-3.8 3.8.6-.6 3.8zm1.2-7.7l-3.8-.6.6-3.8 3.8.6-.6 3.8zm1.2-7.6l-3.8-.6.6-3.8 3.8.6-.6 3.8zm1.2-7.7l-3.8-.6.6-3.8 3.8.6-.6 3.8zm1.2-7.6l-3.8-.6.6-3.8 3.8.6-.6 3.8zm1.2-7.7l-3.8-.6.6-3.8 3.8.6-.6 3.8zm1.2-7.6l-3.8-.6.6-3.8 3.8.6-.6 3.8zM169.8 427l-.2-1.2 3.8-.6.2 1.2-3.8.6zm-.7-5l-.6-3.8 3.8-.5.6 3.8-3.8.5zm-1.1-7.7l-.6-3.8 3.8-.6.6 3.8-3.8.6zm-1.1-7.7l-.6-3.8 3.8-.6.6 3.8-3.8.6zm-1.1-7.6l-.6-3.8 3.8-.6.6 3.8-3.8.6zm-1.1-7.7l-.6-3.8 3.8-.6.6 3.8-3.8.6zm-1.1-7.7l-.6-3.8 3.8-.5.6 3.8-3.8.5zm-1.1-7.7l-.6-3.8 3.8-.6.6 3.8-3.8.6zm-1.1-7.6l-.6-3.8 3.8-.5.6 3.8-3.8.5zm-1.1-7.7l-.6-3.8 3.8-.6.6 3.8-3.8.6zm-1.1-7.7l-.6-3.8 3.8-.6.6 3.8-3.8.6zm-1.1-7.6l-.6-3.8 3.8-.6.6 3.8-3.8.6zm-1.1-7.7l-.6-3.8 3.8-.6.6 3.8-3.8.6zm-1.1-7.7l-.6-3.8 3.8-.6.6 3.8-3.8.6zm-1.1-7.6l-.6-3.8 3.8-.6.6 3.8-3.8.6zm-1.1-7.7l-.6-3.8 3.8-.5.6 3.8-3.8.5zm-1.1-7.7l-.6-3.8 3.8-.6.6 3.8-3.8.6zm-1.1-7.6l-.6-3.8 3.8-.6.6 3.8-3.8.6zm-1.1-7.7l-.6-3.8 3.8-.6.6 3.8-3.8.6zm-1.1-7.7l-.6-3.8 3.8-.6.6 3.8-3.8.6zm-1.1-7.6l-.6-3.8 3.8-.6.6 3.8-3.8.6zm-1.1-7.7l-.6-3.8 3.8-.6.6 3.8-3.8.6zm-1.1-7.7l-.6-3.8 3.8-.5.6 3.8-3.8.5zm-1.1-7.6l-.6-3.8 3.8-.6.6 3.8-3.8.6zm-1.1-7.7l-.6-3.8 3.8-.5.6 3.8-3.8.5zm-1.1-7.7l-.6-3.8 3.8-.6.6 3.8-3.8.6zm-1.1-7.6l-.6-3.8 3.8-.6.6 3.8-3.8.6zm-1.1-7.7l-.6-3.8 3.8-.6.6 3.8-3.8.6zm-1.1-7.7l-.6-3.8 3.8-.6.6 3.8-3.8.6zm-1.1-7.6l-.6-3.8 3.8-.5.6 3.8-3.8.5zm-1.1-7.7l-.6-3.8 3.8-.6.6 3.8-3.8.6zm-1.1-7.7l-.6-3.8 3.8-.5.6 3.8-3.8.5zm-1.1-7.6l-.6-3.8 3.8-.6.6 3.8-3.8.6z"/><path class="st0" d="M134.1 354.5l-.6-3.8 3.8-.6.6 3.8-3.8.6zm-1.1-7.6l-.6-3.8 3.8-.6.6 3.8-3.8.6zm-1.1-7.7l-.6-3.8 3.8-.6.6 3.8-3.8.6zm-1.2-7.7l-.6-3.8 3.8-.6.6 3.8-3.8.6zm-1.1-7.6l-.6-3.9 3.8-.6.6 3.8-3.8.7zm-1.2-7.7l-.6-3.8 3.8-.6.6 3.8-3.8.6zm-1.1-7.7l-.6-3.8 3.8-.6.6 3.8-3.8.6zm-1.1-7.6l-.6-3.8 3.8-.6.6 3.8-3.8.6zm-1.2-7.7l-.6-3.8 3.8-.6.6 3.8-3.8.6zm-1.1-7.6l-.6-3.8 3.8-.6.6 3.8-3.8.6zm-1.2-7.7l-.6-3.8 3.8-.6.6 3.8-3.8.6zm-1.1-7.7l-.6-3.8 3.8-.6.6 3.8-3.8.6zm-1.1-7.6l-.6-3.8 3.8-.6.6 3.8-3.8.6zM87.1 355.8l-3.8-.6.6-3.8 3.8.6-.6 3.8zm1.1-7.6l-3.8-.6.6-3.8 3.8.6-.6 3.8zm1.2-7.7l-3.8-.6.6-3.8 3.8.6-.6 3.8zm1.1-7.6l-3.8-.6.6-3.8 3.8.6-.6 3.8zm1.1-7.7l-3.8-.6.6-3.8 3.8.6-.6 3.8zm1.2-7.7l-3.8-.6.6-3.8 3.8.6-.6 3.8zm1.1-7.6l-3.8-.6.6-3.8 3.8.6-.6 3.8zm1.2-7.7l-3.8-.6.6-3.8 3.8.6-.6 3.8zm1.1-7.7l-3.8-.6.6-3.8 3.8.6-.6 3.8zm1.1-7.6l-3.8-.6.6-3.8 3.8.6-.6 3.8zm1.2-7.7l-3.8-.6.6-3.8 3.8.6-.6 3.8zm1.1-7.6l-3.8-.6.6-3.8 3.8.6-.6 3.8zm1.2-7.7l-3.8-.6.6-3.8 3.8.6-.6 3.8z"/><path class="st1" d="M413.5 185.7l-16.9 18.4c-.2-.1-34.1-12.8-34.1-12.8l-4.2 5 27.1 20-16.5 17.9-15.9-1-1.7 2.3 11.4 5.6c-2.4 3.2.8 7.5 4.5 6.1l5.5 11.6 2.3-1.7-.8-16c18-16.5 10-9.2 17.5-16l20.1 27.4 5-4.2-12.9-34.5c.6-.5 19.7-18.1 20.2-18.6 2.5-2.8 5.5-9.9 2.8-12.6l-.2-.2-.2-.2c-2.7-2.6-10.3.6-13 3.5z"/><path class="st2" d="M372 261.9l-5.9-12.4c-1.9.1-3.8-.7-5-2.4-1.1-1.5-1.4-3.3-1-5l-11.8-5.7 3.7-5 16.1 1 14.4-15.7-27.1-19.9 6.4-7.7 1.3.5s26.8 10 32.9 12.3l16.1-17.5c2.2-2.4 7.2-5 11.3-5 1.9 0 3.5.5 4.6 1.6l.4.4c3.7 3.8.2 11.9-2.7 15.2-.2.2-.5.6-19.3 17.8l-.1.1c2.3 6.1 12.3 32.9 12.4 33.2l.5 1.3-7.7 6.4-20.1-27.3-15.2 13.9.8 16.2-5 3.7zm-3.8-17L373 255l-.7-14.5 19.7-18.1 20.2 27.5 2.4-2c-1-2.7-3.9-10.5-12.4-33.2l-.5-1.2 2-1.9c15.1-13.8 18.7-17.2 19-17.5 2.3-2.6 4.3-8.4 2.9-9.9l-.4-.4c-.4-.4-1.3-.5-1.8-.5-2.8 0-6.8 2-8.5 3.8l-17.8 19.4-1.2-.5c-.2-.1-26.7-10-32.9-12.3l-2 2.4 27.2 20-18.6 20.2-14.4-.9 10.4 5.1-1.4 1.9c-.9 1.2-.2 2.2 0 2.5.2.3 1 1.2 2.4.7l1.6-.7z"/><path class="st3" d="M710.4 437.1H554.7c-1.8 0-3.2-1.4-3.2-3.2v-78.2c0-1.8 1.4-3.2 3.2-3.2h155.7c1.8 0 3.2 1.4 3.2 3.2V434c0 1.7-1.4 3.1-3.2 3.1z"/><path class="st2" d="M707.5 439.1H557.7c-4.5 0-8.1-3.6-8.1-8.1v-72.3c0-4.5 3.6-8.1 8.1-8.1h149.7c4.5 0 8.1 3.6 8.1 8.1V431c0 4.4-3.6 8.1-8 8.1zm-149.8-84.6c-2.3 0-4.2 1.9-4.2 4.2V431c0 2.3 1.9 4.2 4.2 4.2h149.7c2.3 0 4.2-1.9 4.2-4.2v-72.3c0-2.3-1.9-4.2-4.2-4.2H557.7z"/><path class="st1" d="M551.6 373.5h162v14.1h-162z"/><path class="st2" d="M715.5 389.6H549.6v-18h165.9v18zm-162-3.9h158.2v-10.2H553.5v10.2z"/><path class="st1" d="M622.5 401.4h50.1"/><path class="st2" d="M622.5 399.5h50.1v3.9h-50.1z"/><path class="st1" d="M561.9 401.4h53.8"/><path class="st2" d="M561.9 399.5h53.8v3.9h-53.8z"/><path class="st1" d="M561.9 413.5h38"/><path class="st2" d="M561.9 411.5h38v3.9h-38z"/><path class="st1" d="M604.3 413.5h20.8"/><path class="st2" d="M604.3 411.5H625v3.9h-20.7z"/><path class="st1" d="M561.9 421.7h38"/><path class="st2" d="M561.9 419.7h38v3.9h-38z"/><path class="st1" d="M604.3 421.7h20.8"/><path class="st2" d="M604.3 419.7H625v3.9h-20.7z"/><path class="st1" d="M629.3 413.5H650"/><path class="st2" d="M629.3 411.5H650v3.9h-20.7z"/><path class="st1" d="M674.8 494.6H519.1c-1.8 0-3.2-1.4-3.2-3.2v-78.2c0-1.8 1.4-3.2 3.2-3.2h155.7c1.8 0 3.2 1.4 3.2 3.2v78.2c0 1.8-1.5 3.2-3.2 3.2z"/><path class="st2" d="M671.8 496.5H522.1c-4.5 0-8.1-3.6-8.1-8.1v-72.3c0-4.5 3.6-8.1 8.1-8.1h149.7c4.5 0 8.1 3.6 8.1 8.1v72.3c0 4.5-3.6 8.1-8.1 8.1zM522.1 412c-2.3 0-4.2 1.9-4.2 4.2v72.3c0 2.3 1.9 4.2 4.2 4.2h149.7c2.3 0 4.2-1.9 4.2-4.2v-72.3c0-2.3-1.9-4.2-4.2-4.2H522.1z"/><path class="st0" d="M515.9 431h162v14.1h-162z"/><path class="st2" d="M679.9 447.1H514v-18h165.9v18zm-162-3.9H676V433H517.9v10.2z"/><path class="st1" d="M586.8 458.9h50.1"/><path class="st2" d="M586.8 456.9h50.1v3.9h-50.1z"/><path class="st1" d="M526.3 458.9h53.8"/><path class="st2" d="M526.3 456.9h53.8v3.9h-53.8z"/><path class="st1" d="M526.3 470.9h37.9"/><path class="st2" d="M526.3 469h38v3.9h-38z"/><path class="st1" d="M568.7 470.9h20.7"/><path class="st2" d="M568.7 469h20.7v3.9h-20.7z"/><path class="st1" d="M526.3 479.1h37.9"/><path class="st2" d="M526.3 477.2h38v3.9h-38z"/><path class="st1" d="M568.7 479.1h20.7"/><path class="st2" d="M568.7 477.2h20.7v3.9h-20.7z"/><path class="st1" d="M593.6 470.9h20.8"/><path class="st2" d="M593.6 469h20.7v3.9h-20.7z"/><path transform="rotate(-180 207.3664 384.5924)" class="st4" d="M176.2 296.9h62.3v175.4h-62.3z"/><path class="st2" d="M240.4 474.2h-66.2V295h66.2v179.2zm-62.2-3.9h58.4V298.8h-58.4v171.5z"/><path class="st1" d="M186.6 307.3h41.5v154.6h-41.5z"/><path class="st2" d="M230.1 463.8h-45.4V305.4h45.4v158.4zm-41.6-3.8h37.6V309.2h-37.6V460z"/><path class="st1" d="M182.3 384.6c0-11.2 11.2-20.3 25.1-20.3 13.9 0 25.1 9.1 25.1 20.3 0 11.2-11.2 20.3-25.1 20.3-13.9 0-25.1-9.1-25.1-20.3z"/><path class="st2" d="M207.4 406.9c-14.9 0-27-10-27-22.3s12.1-22.3 27-22.3 27 10 27 22.3-12.1 22.3-27 22.3zm0-40.7c-12.8 0-23.2 8.2-23.2 18.4 0 10.1 10.4 18.4 23.2 18.4s23.2-8.2 23.2-18.4c-.1-10.1-10.5-18.4-23.2-18.4z"/><path class="st3" d="M215 390.2c1.4-1.5 2.2-2.8 2.2-4.9 0-2.3-1.2-3.6-3.4-3.6-5 0-4 11.4-12.5 11.4-4 0-6.9-2.3-7.7-6.5h-4.3v-3.4h4.2c.3-2.6 1.4-5.4 3.2-7.2l3.3 2.2c-1.5 2-2.6 3.9-2.6 6.2 0 2.7 1.3 4.1 3.6 4.1 5.5 0 4.7-11.4 12.6-11.4 3.9 0 6.7 2.4 7.3 6.2h4.3v3.4H221c-.3 2.7-1.6 4.5-3.3 6.1l-2.7-2.6z"/><path class="st1" d="M202.6 432.6c0-3.4 2.8-6.2 6.2-6.2 3.4 0 6.2 2.8 6.2 6.2 0 3.4-2.8 6.2-6.2 6.2-3.4.1-6.2-2.7-6.2-6.2z"/><path class="st2" d="M208.8 440.8c-4.5 0-8.2-3.7-8.2-8.2 0-4.5 3.7-8.2 8.2-8.2 4.5 0 8.2 3.7 8.2 8.2 0 4.5-3.7 8.2-8.2 8.2zm0-12.5c-2.4 0-4.3 1.9-4.3 4.3s1.9 4.3 4.3 4.3 4.3-1.9 4.3-4.3-1.9-4.3-4.3-4.3z"/><path class="st1" d="M202.6 338.9c0-3.4 2.8-6.2 6.2-6.2 3.4 0 6.2 2.8 6.2 6.2 0 3.4-2.8 6.2-6.2 6.2-3.4.1-6.2-2.7-6.2-6.2z"/><path class="st2" d="M208.8 347.1c-4.5 0-8.2-3.7-8.2-8.2 0-4.5 3.7-8.2 8.2-8.2 4.5 0 8.2 3.7 8.2 8.2 0 4.5-3.7 8.2-8.2 8.2zm0-12.5c-2.4 0-4.3 1.9-4.3 4.3s1.9 4.3 4.3 4.3 4.3-1.9 4.3-4.3-1.9-4.3-4.3-4.3z"/><path transform="rotate(-180 280.00945 384.5924)" class="st4" d="M248.9 296.9h62.3v175.4h-62.3z"/><path class="st2" d="M313.1 474.2h-66.2V295h66.2v179.2zm-62.3-3.9h58.4V298.8h-58.4v171.5z"/><path class="st1" d="M259.2 307.3h41.5v154.6h-41.5z"/><path class="st2" d="M302.7 463.8h-45.4V305.4h45.4v158.4zm-41.5-3.8h37.6V309.2h-37.6V460z"/><path class="st1" d="M254.9 384.6c0-11.2 11.2-20.3 25.1-20.3 13.9 0 25.1 9.1 25.1 20.3 0 11.2-11.2 20.3-25.1 20.3-13.8 0-25.1-9.1-25.1-20.3z"/><path class="st2" d="M280 406.9c-14.9 0-27-10-27-22.3s12.1-22.3 27-22.3 27 10 27 22.3-12.1 22.3-27 22.3zm0-40.7c-12.8 0-23.1 8.2-23.1 18.4 0 10.1 10.4 18.4 23.1 18.4 12.8 0 23.2-8.2 23.2-18.4 0-10.1-10.4-18.4-23.2-18.4z"/><path class="st3" d="M287.7 390.2c1.4-1.5 2.2-2.8 2.2-4.9 0-2.3-1.2-3.6-3.4-3.6-5 0-4 11.4-12.5 11.4-4 0-6.9-2.3-7.7-6.5H262v-3.4h4.2c.3-2.6 1.4-5.4 3.2-7.2l3.3 2.2c-1.5 2-2.6 3.9-2.6 6.2 0 2.7 1.3 4.1 3.6 4.1 5.5 0 4.7-11.4 12.6-11.4 3.9 0 6.7 2.4 7.3 6.2h4.3v3.4h-4.2c-.3 2.7-1.6 4.5-3.3 6.1l-2.7-2.6z"/><path class="st1" d="M275.2 432.6c0-3.4 2.8-6.2 6.2-6.2 3.4 0 6.2 2.8 6.2 6.2 0 3.4-2.8 6.2-6.2 6.2-3.4.1-6.2-2.7-6.2-6.2z"/><path class="st2" d="M281.5 440.8c-4.5 0-8.2-3.7-8.2-8.2 0-4.5 3.7-8.2 8.2-8.2s8.2 3.7 8.2 8.2c-.1 4.5-3.7 8.2-8.2 8.2zm0-12.5c-2.4 0-4.3 1.9-4.3 4.3s1.9 4.3 4.3 4.3 4.3-1.9 4.3-4.3-2-4.3-4.3-4.3z"/><path class="st1" d="M275.2 338.9c0-3.4 2.8-6.2 6.2-6.2 3.4 0 6.2 2.8 6.2 6.2 0 3.4-2.8 6.2-6.2 6.2-3.4.1-6.2-2.7-6.2-6.2z"/><path class="st2" d="M281.5 347.1c-4.5 0-8.2-3.7-8.2-8.2 0-4.5 3.7-8.2 8.2-8.2s8.2 3.7 8.2 8.2c-.1 4.5-3.7 8.2-8.2 8.2zm0-12.5c-2.4 0-4.3 1.9-4.3 4.3s1.9 4.3 4.3 4.3 4.3-1.9 4.3-4.3-2-4.3-4.3-4.3z"/><path class="st3" d="M168.3 359.9h155.1v134.7H168.3z"/><path class="st2" d="M325.3 496.5h-159V358h158.9v138.5zm-155.1-3.8h151.2V361.9H170.2v130.8z"/><path class="st1" d="M286.6 359.9h36.7v134.7h-36.7z"/><path class="st2" d="M325.3 496.5h-40.6V358h40.6v138.5zm-36.8-3.8h32.9V361.9h-32.9v130.8z"/><path class="st3" d="M180.5 376.3h93.9"/><path class="st2" d="M180.5 374.3h1.9v3.9h-1.9zM270.5 378.2h-3.9v-3.9h3.9v3.9zm-5.9 0h-3.9v-3.9h3.9v3.9zm-5.9 0h-3.9v-3.9h3.9v3.9zm-5.8 0H249v-3.9h3.9v3.9zm-5.9 0h-3.9v-3.9h3.9v3.9zm-5.9 0h-3.9v-3.9h3.9v3.9zm-5.8 0h-3.9v-3.9h3.9v3.9zm-5.9 0h-3.9v-3.9h3.9v3.9zm-5.9 0h-3.9v-3.9h3.9v3.9zm-5.9 0h-3.9v-3.9h3.9v3.9zm-5.8 0h-3.9v-3.9h3.9v3.9zm-5.9 0H202v-3.9h3.9v3.9zm-5.9 0h-3.9v-3.9h3.9v3.9zm-5.8 0h-3.9v-3.9h3.9v3.9zm-5.9 0h-3.9v-3.9h3.9v3.9zM272.4 374.3h1.9v3.9h-1.9z"/><path class="st3" d="M180.5 478.3h93.9"/><path class="st2" d="M180.5 476.3h1.9v3.9h-1.9zM270.5 480.2h-3.9v-3.9h3.9v3.9zm-5.9 0h-3.9v-3.9h3.9v3.9zm-5.9 0h-3.9v-3.9h3.9v3.9zm-5.8 0H249v-3.9h3.9v3.9zm-5.9 0h-3.9v-3.9h3.9v3.9zm-5.9 0h-3.9v-3.9h3.9v3.9zm-5.8 0h-3.9v-3.9h3.9v3.9zm-5.9 0h-3.9v-3.9h3.9v3.9zm-5.9 0h-3.9v-3.9h3.9v3.9zm-5.9 0h-3.9v-3.9h3.9v3.9zm-5.8 0h-3.9v-3.9h3.9v3.9zm-5.9 0H202v-3.9h3.9v3.9zm-5.9 0h-3.9v-3.9h3.9v3.9zm-5.8 0h-3.9v-3.9h3.9v3.9zm-5.9 0h-3.9v-3.9h3.9v3.9zM272.4 476.3h1.9v3.9h-1.9z"/><path class="st1" d="M348.1 440.8h-45.5c-2.1 0-3.8-1.7-3.8-3.8v-28.9h49.3c2.1 0 3.8 1.7 3.8 3.8V437c0 2.1-1.7 3.8-3.8 3.8z"/><path class="st2" d="M344.6 442.7h-38.5c-5.1 0-9.2-4.1-9.2-9.2v-27.3h47.7c5.1 0 9.2 4.1 9.2 9.2v18.1c0 5.1-4.1 9.2-9.2 9.2zm-43.8-32.6v23.4c0 2.9 2.4 5.3 5.3 5.3h38.5c2.9 0 5.3-2.4 5.3-5.3v-18.1c0-2.9-2.4-5.3-5.3-5.3h-43.8z"/><path class="st1" d="M326.4 424.9c-.2-3.7 2.6-6.8 6.3-7 3.7-.2 6.8 2.6 7 6.3.2 3.7-2.6 6.8-6.3 7-3.7.1-6.8-2.7-7-6.3zM348.7 393.5H204c-1.6 0-2.9-1.3-2.9-2.9V318c0-1.6 1.3-2.9 2.9-2.9h144.6c1.6 0 2.9 1.3 2.9 2.9v72.6c.1 1.6-1.2 2.9-2.8 2.9z"/><path class="st2" d="M345.9 395.5H206.8c-4.2 0-7.6-3.4-7.6-7.6v-67.1c0-4.2 3.4-7.6 7.6-7.6h139.1c4.2 0 7.6 3.4 7.6 7.6v67.1c0 4.1-3.4 7.6-7.6 7.6zm-139.1-78.6c-2.1 0-3.8 1.7-3.8 3.8v67.1c0 2.1 1.7 3.8 3.8 3.8h139.1c2.1 0 3.8-1.7 3.8-3.8v-67.1c0-2.1-1.7-3.8-3.8-3.8H206.8z"/><path class="st0" d="M201.1 334.5h150.5v13.1H201.1z"/><path class="st2" d="M353.5 349.5H199.2v-17h154.4v17zM203 345.6h146.6v-9.2H203v9.2z"/><path class="st1" d="M266.9 360.3h46.6"/><path class="st2" d="M266.9 358.4h46.6v3.9h-46.6z"/><path class="st1" d="M210.7 360.3h50"/><path class="st2" d="M210.7 358.4h50v3.9h-50z"/><path class="st1" d="M210.7 371.5H246"/><path class="st2" d="M210.7 369.6h35.2v3.9h-35.2z"/><path class="st1" d="M250.1 371.5h19.3"/><path class="st2" d="M250.1 369.6h19.3v3.9h-19.3z"/><path class="st1" d="M210.7 379.2H246"/><path class="st2" d="M210.7 377.2h35.2v3.9h-35.2z"/><path class="st1" d="M250.1 379.2h19.3"/><path class="st2" d="M250.1 377.2h19.3v3.9h-19.3z"/><path class="st1" d="M273.3 371.5h19.2"/><path class="st2" d="M273.3 369.6h19.3v3.9h-19.3z"/><path class="st1" d="M581.8 235.5h38v8.8h-38z"/><path class="st2" d="M621.7 246.2h-41.9v-12.7h41.9v12.7zm-38-3.9h34.2v-4.9h-34.2v4.9z"/><path class="st1" d="M614 270.4h-26.3c-3.2 0-5.9-2.6-5.9-5.9v-9.1h38v9.1c0 3.3-2.6 5.9-5.8 5.9z"/><path class="st2" d="M608.5 272.4h-15.4c-7.3 0-13.3-6-13.3-13.3v-5.5h41.9v5.5c0 7.3-5.9 13.3-13.2 13.3zm-24.8-14.9v1.6c0 5.2 4.2 9.4 9.4 9.4h15.4c5.2 0 9.4-4.2 9.4-9.4v-1.6h-34.2z"/><path class="st4" d="M581.8 224.8h38.4v-1.2c0-8.1 2.4-15.9 6.9-22.6 3.4-5 5.4-11 5.4-17.6 0-17.4-14.1-31.5-31.5-31.5s-31.5 14.1-31.5 31.5c0 6.5 2 12.5 5.4 17.6 4.5 6.7 6.9 14.5 6.9 22.6v1.2z"/><path class="st2" d="M622.1 226.8h-42.2v-3.1c0-7.7-2.3-15.1-6.6-21.5-3.7-5.5-5.7-12-5.7-18.6 0-18.4 15-33.4 33.4-33.4s33.4 15 33.4 33.4c0 6.7-2 13.1-5.7 18.6-4.3 6.4-6.6 13.8-6.6 21.5v3.1zm-38.4-3.9h34.5c.1-8.2 2.6-16.1 7.3-22.9 3.3-4.9 5-10.6 5-16.5 0-16.3-13.3-29.5-29.5-29.5-16.3 0-29.5 13.3-29.5 29.5 0 5.9 1.7 11.6 5 16.5 4.6 6.8 7.1 14.7 7.2 22.9z"/><path class="st1" d="M601 255.5v-56.9"/><path class="st2" d="M599 198.6h3.9v56.9H599z"/><path class="st2" d="M601 202.7L588.2 179h25.5L601 202.7zm-6.3-19.8l6.3 11.7 6.3-11.7h-12.6zM598.9 350.9h3.9v1.9h-3.9zM602.7 346.9h-3.9v-4.1h3.9v4.1zm0-8.2h-3.9v-4.1h3.9v4.1zm0-8.1h-3.9v-4.1h3.9v4.1zm0-8.1h-3.9v-4.1h3.9v4.1zm0-8.1h-3.9v-4.1h3.9v4.1zm0-8.2h-3.9v-4.1h3.9v4.1zm0-8.1h-3.9V294h3.9v4.1zm0-8.1h-3.9v-4.1h3.9v4.1zm0-8.2h-3.9v-4.1h3.9v4.1zM598.9 271.8h3.9v1.9h-3.9z"/><path class="st3" d="M485.2 167.9h39.2v39.2h-39.2z"/><path transform="rotate(-45 504.7599468 212.98273)" class="st1" d="M493.1 201.3h23.3v23.3h-23.3z"/><path transform="rotate(-45 521.2949271 212.9824412)" class="st2" d="M519.3 211h3.9v3.9h-3.9z"/><path class="st2" d="M510.3 226.7l-2.7-2.7 2.8-2.8 2.7 2.7-2.8 2.8zm5.5-5.5l-2.7-2.7 2.8-2.8 2.7 2.7-2.8 2.8z"/><path transform="rotate(-45 504.7642176 229.489661)" class="st2" d="M502.8 227.5h3.9v3.9h-3.9z"/><path class="st2" d="M499.3 226.7l-2.8-2.8 2.7-2.7 2.8 2.8-2.7 2.7zm-5.5-5.5l-2.8-2.8 2.7-2.7 2.8 2.8-2.7 2.7z"/><path transform="rotate(-45 488.2570058 212.9821482)" class="st2" d="M486.3 211h3.9v3.9h-3.9z"/><path class="st2" d="M493.7 210.2l-2.7-2.7 2.8-2.8 2.7 2.7-2.8 2.8zm5.6-5.5l-2.7-2.7 2.8-2.8 2.7 2.7-2.8 2.8z"/><path transform="rotate(-45 504.7395942 196.4753601)" class="st2" d="M502.8 194.5h3.9v3.9h-3.9z"/><path class="st2" d="M515.8 210.2l-2.8-2.8 2.7-2.7 2.8 2.8-2.7 2.7zm-5.5-5.5l-2.8-2.8 2.7-2.7 2.8 2.8-2.7 2.7z"/><path class="st1" d="M501.9 175.8c0-1.6 1.3-2.8 2.8-2.8 1.6 0 2.8 1.3 2.8 2.8 0 1.6-1.3 2.8-2.8 2.8-1.5.1-2.8-1.2-2.8-2.8z"/><path class="st5" d="M297.9 229.9c0 26.5-21.5 47.9-47.9 47.9-26.5 0-47.9-21.5-47.9-47.9 0-26.5 21.5-47.9 47.9-47.9 26.4-.1 47.9 21.4 47.9 47.9z"/><path class="st1" d="M280.4 208H271l-2.9 10.9H224.4c-.6.2-.9.8-.7 1.4l7.9 22.6H264l8.8-32.9h7.7c.6 0 1.1-.5 1.1-1.1-.1-.4-.6-.9-1.2-.9zm-13.9 17h-4.7l.6-3.8h5.1l-1 3.8zm-1.4 5.5H261l.7-4.4h4.6l-1.2 4.4zm-1.5 5.5h-3.5l.7-4.4h4l-1.2 4.4zm-15.5 4.9l-1-3.8h5.9l.6 3.8h-5.5zm-7.7 0l-1-3.8h6.5l1 3.8h-6.5zm-6-19.7l1 3.8h-7.6l-1.3-3.8h7.9zm7.6 0l1 3.8h-6.5l-1-3.8h6.5zm3.5 9.3l-1.1-4.4h7l.7 4.4h-6.6zm6.7 1.1l.7 4.4h-6.1l-1.1-4.4h6.5zm-7.9-1.1h-6.5l-1.1-4.4h6.5l1.1 4.4zm8.2-4.4h8l-.7 4.4h-6.6l-.7-4.4zm-.1-1.1l-.6-3.8h9.5l-.6 3.8h-8.3zm-1.1 0h-7.2l-1-3.8h7.5l.7 3.8zm-15.7 1.1l1.1 4.4h-7.1l-1.5-4.4h7.5zm-5.6 5.5h7l1.1 4.4h-6.5l-1.6-4.4zm8.1 0h6.5l1.1 4.4h-6.5l-1.1-4.4zm16.1 5.4h4.6l-.6 3.7v.1h-3.5l-.5-3.8zm-.2-1l-.7-4.4h6.3l-.6 4.4h-5zm-22.1 1h6.4l1 3.8h-6.1l-1.3-3.8zm27.4 3.9l.6-3.8h3.4l-1 3.8h-3zM258.2 244.2c-2.4 0-4.3 1.6-4.8 3.8h-11.2c-.5-2.2-2.4-3.8-4.8-3.8-2.7 0-4.9 2.2-4.9 4.9s2.2 4.9 4.9 4.9 4.9-2.2 4.9-4.9h11c0 2.7 2.2 4.9 4.9 4.9s4.9-2.2 4.9-4.9-2.2-4.9-4.9-4.9zm-20.8 7.6c-1.5 0-2.7-1.2-2.7-2.7 0-1.5 1.2-2.7 2.7-2.7 1.5 0 2.7 1.2 2.7 2.7 0 1.5-1.2 2.7-2.7 2.7zm20.8 0c-1.5 0-2.7-1.2-2.7-2.7 0-1.5 1.2-2.7 2.7-2.7 1.5 0 2.7 1.2 2.7 2.7 0 1.5-1.2 2.7-2.7 2.7z"/><circle class="st0" cx="-101.4" cy="472.7" r="4.4"/><circle class="st0" cx="-101.4" cy="452.7" r="4.4"/><circle class="st0" cx="-101.4" cy="432.6" r="4.4"/><circle class="st0" cx="570.5" cy="331.4" r="4.4"/><circle class="st0" cx="570.5" cy="311.3" r="4.4"/><circle class="st0" cx="570.5" cy="291.2" r="4.4"/><path class="st0" d="M166.6 269.9c-.4-2.4 1.2-4.7 3.7-5.1 2.4-.4 4.7 1.2 5.1 3.6.4 2.4-1.2 4.7-3.7 5.1-2.4.4-4.7-1.2-5.1-3.6zM163.4 250c-.4-2.4 1.2-4.7 3.6-5.1 2.4-.4 4.7 1.2 5.1 3.7.4 2.4-1.2 4.7-3.7 5.1-2.4.4-4.6-1.2-5-3.7zM160.1 230.2c-.4-2.4 1.2-4.7 3.7-5.1 2.4-.4 4.7 1.2 5.1 3.7.4 2.4-1.2 4.7-3.6 5.1-2.5.4-4.8-1.3-5.2-3.7z"/></g><g id="Med_Ground"><path class="st0" d="M104.7 493.7V338.4c0-12.4-28-22.4-40.4-22.6l109.8-.1c12.4.1 20.3 10.2 20.3 22.7v155.4h-89.7z"/><path class="st2" d="M196.4 495.7h-93.6V338.4c0-10.6-26.1-20.5-38.5-20.6h-1.9V314h1.9l111.8-.1v.1c11.9 1.1 20.3 11.1 20.3 24.5v157.2zm-89.8-3.9h85.9V338.4c0-12.1-7.6-20.6-18.4-20.7h-.6l-90.9.1c11.9 4.2 24 11.5 24 20.7v153.3z"/><path class="st1" d="M43.6 466V338.4c0-12.4 10-22.5 22.4-22.7h107.6c-12.4.1-18.5 10.2-18.5 22.7V466c0 15.8-12.8 28.6-28.6 28.6h-104v-1c12.2-3.3 21.1-14.4 21.1-27.6z"/><path class="st2" d="M22.6 496.5c-.5 0-1-.2-1.4-.6-.4-.4-.6-.9-.6-1.4v-1c0-.9.6-1.6 1.4-1.9 11.5-3.2 19.6-13.7 19.6-25.7V338.4c0-13.3 10.8-24.3 24.1-24.6h107.8c1.1 0 1.9.9 1.9 1.9 0 1.1-.9 1.9-1.9 1.9-12.2.1-16.6 10.8-16.6 20.7V466c0 16.8-13.7 30.5-30.5 30.5H22.6zm43.6-178.8h-.1c-11.3.1-20.5 9.4-20.5 20.7V466c0 11.2-6.2 21.4-15.7 26.7h96.7c14.7 0 26.7-12 26.7-26.7V338.4c0-9.3 3.2-16.6 8.6-20.7H66.2z"/><path class="st1" d="M108 469.3v2.7c0 12.4 7.9 22.5 20.3 22.7H18.8C6.4 494.6-3.6 484.5-3.6 472v-2.7H108z"/><path class="st2" d="M128.3 496.5H18.6c-13.3-.3-24.1-11.2-24.1-24.6v-2.7c0-1.1.9-1.9 1.9-1.9H108c1.1 0 1.9.9 1.9 1.9v2.7c0 12.1 7.6 20.6 18.4 20.7 1.1 0 1.9.9 1.9 1.9.1 1.2-.8 2-1.9 2zM19 492.7h97c-6.1-4.3-9.9-11.7-9.9-20.7v-.7H-1.6v.7c0 11.3 9.2 20.6 20.5 20.7h.1z"/><path class="st1" d="M74.5 345.2c8.2-8.9 20.5-12.7 32.3-10 5.9 1.3 11.2 4.2 15.5 8.2l-23 24.8-24.8-23z"/><path class="st2" d="M99.3 370.1c-.5 0-1-.2-1.3-.5l-24.8-23c-.8-.7-.8-2-.1-2.7 8.6-9.3 21.7-13.4 34.1-10.6 6.1 1.4 11.8 4.4 16.4 8.6.8.7.8 2 .1 2.7l-23 24.8c-.3.4-.8.7-1.4.7.1 0 .1 0 0 0zm-22-25l21.9 20.3 20.3-21.9c-3.8-3.1-8.3-5.3-13.1-6.4-10.4-2.4-21.4.7-29.1 8z"/><path class="st1" d="M122.3 343.3c4.3 4 7.5 9 9.3 14.8 2.4 7.7 1.9 15.9-1.1 23.1l-31.2-13.1 23-24.8z"/><path class="st2" d="M131.5 383.8L96 368.9l26.2-28.3 1.4 1.3c4.6 4.3 8 9.7 9.9 15.7 2.5 8 2.1 16.7-1.2 24.4l-.8 1.8zm-28.9-16.4l26.8 11.3c2.2-6.4 2.4-13.4.4-20-1.5-4.7-4-9-7.4-12.6l-19.8 21.3z"/><path class="st4" d="M130.5 381.3c-1.5 3.6-3.6 6.9-6.4 9.9-8.2 8.9-20.5 12.7-32.3 10-11.8-2.7-21.2-11.4-24.8-23-3.6-11.5-.7-24.1 7.5-33l24.8 23 31.2 13.1z"/><path class="st2" d="M99.3 403.9c-2.6 0-5.3-.3-7.9-.9-12.4-2.8-22.4-12.1-26.2-24.3-3.8-12.2-.7-25.5 7.9-34.9l1.3-1.4 26 24.1 32.6 13.7-.8 1.8c-1.6 3.9-3.9 7.4-6.7 10.4-6.8 7.4-16.4 11.5-26.2 11.5zM74.7 348c-6.7 8.2-9 19.4-5.8 29.6 3.4 10.8 12.3 19.1 23.4 21.7 11.1 2.5 22.7-1.1 30.4-9.4 2.1-2.3 3.8-4.8 5.2-7.5l-29.6-12.5L74.7 348zM137.5 428.1h-3.9v-3.9h3.9v3.9zm-7.8 0h-19.4v-3.9h19.4v3.9zm-23.2 0h-3.9v-3.9h3.9v3.9zm-23.2 0h-3.9v-3.9h3.9v3.9zm-7.8 0H60v-3.9h15.5v3.9zM137.5 440.6h-3.9v-3.9h3.9v3.9zm-7.8 0h-19.4v-3.9h19.4v3.9zm-23.2 0h-3.9v-3.9h3.9v3.9zm-23.2 0h-3.9v-3.9h3.9v3.9zm-7.8 0H60v-3.9h15.5v3.9zM137.5 453.2h-3.9v-3.9h3.9v3.9zm-7.8 0h-19.4v-3.9h19.4v3.9zm-23.2 0h-3.9v-3.9h3.9v3.9zm-23.2 0h-3.9v-3.9h3.9v3.9zm-7.8 0H60v-3.9h15.5v3.9z"/><path class="st1" d="M60.5 425.9h24.7v25.7H60.5z"/><path class="st2" d="M85.2 453.5H60.5c-1.1 0-1.9-.9-1.9-1.9v-25.7c0-1.1.9-1.9 1.9-1.9h24.7c1.1 0 1.9.9 1.9 1.9v25.7c0 1.1-.9 1.9-1.9 1.9zm-22.8-3.8h20.8v-21.8H62.4v21.8zM711.4 279h3.9v136.8h-3.9z"/><path transform="rotate(-52.193 689.9313798 376.2801468)" class="st2" d="M688 346.7h3.9v59.1H688z"/><path transform="rotate(-45 730.1475655 329.0643784)" class="st2" d="M706.3 327.1H754v3.9h-47.7z"/><path transform="rotate(-62.464 701.6400027 312.8049277)" class="st2" d="M699.7 299.6h3.9v26.3h-3.9z"/><path class="st0" d="M742.3 494.6h-58l-32.8-85.5h123.7z"/><path class="st2" d="M743.7 496.5H683l-34.3-89.4H778l-34.3 89.4zm-58.1-3.8H741l31.3-81.7h-118l31.3 81.7z"/><path class="st3" d="M720.2 390c-1.7-2.4-.1-13.5 7.4-22.2 7.4-8.6 18.2-11 20.9-10.5.9 2.5.1 13.6-7.3 22.2-7.6 8.7-18.4 11.8-21 10.5zM677.9 333.1c-.6-1.9 2.6-8.6 9.1-12.5 6.4-3.9 13.7-3.3 15.3-2.4.1 1.8-2.6 8.6-9.1 12.5-6.5 4-13.9 3.8-15.3 2.4zM706.6 310.2c-1.9.3-8.2-3.7-11.3-10.6-3.1-6.9-1.5-14-.5-15.4 1.8.1 8.2 3.7 11.3 10.6 3.1 6.8 2 14.1.5 15.4zM697.9 376c-1.9-.5-6-6.7-6-14.3 0-7.5 4.3-13.4 5.9-14.3 1.6.9 6 6.7 6 14.2 0 7.6-4.1 13.9-5.9 14.4zM668.4 396.3c0-2 5.1-7.4 12.5-9.2 7.3-1.8 14 1 15.3 2.3-.5 1.7-5.1 7.4-12.4 9.2-7.5 1.9-14.5-.6-15.4-2.3zM726 342.2c0-2 5.1-7.4 12.5-9.2 7.3-1.8 14 1 15.3 2.3-.5 1.7-5.1 7.4-12.4 9.2-7.4 1.8-14.5-.6-15.4-2.3zM724.7 324.8c-1.8-.7-5.2-7.3-4.5-14.8.7-7.5 5.6-12.9 7.3-13.6 1.5 1 5.2 7.3 4.5 14.8-.8 7.5-5.4 13.3-7.3 13.6z"/><path class="st0" d="M713.3 275.6c-12.3-9.3-22.1-18.7-22.1-40.4 0-23 11.7-33.2 22.1-50.4 10.4 17.2 22.1 27.4 22.1 50.4 0 21.7-9.8 31.1-22.1 40.4z"/><path class="st2" d="M713.3 278l-1.2-.9c-12.5-9.5-22.9-19.2-22.9-42 0-18.4 7.1-28.7 15.3-40.6 2.3-3.4 4.7-6.9 7.1-10.8l1.7-2.7 1.7 2.7c2.3 3.9 4.8 7.4 7.1 10.8 8.2 11.9 15.3 22.2 15.3 40.6 0 22.8-10.4 32.5-22.9 42l-1.2.9zm0-89.5c-1.9 2.9-3.7 5.6-5.6 8.3-7.8 11.4-14.6 21.2-14.6 38.4 0 20.3 8.6 29.1 20.2 38 11.5-8.9 20.2-17.7 20.2-38 0-17.2-6.8-27-14.6-38.4-1.8-2.7-3.7-5.4-5.6-8.3z"/><path class="st2" d="M732.3 253.6l-.9 2.1c-5.3 4.9-11.9 8.3-18 9.3h-.1c-6.1-1-12.7-4.5-18-9.3l-.9-2.1c5.4 5.5 12.5 9.4 19 10.5 6.4-1.1 13.5-5 18.9-10.5z"/><path class="st2" d="M735.1 241.8c0 .4-.1.9-.1 1.3-6 5.2-15.5 11.9-21.5 12.9h-.1c-6-1-15.5-7.7-21.5-12.9-.1-.4-.1-.9-.1-1.3 5.8 5.2 15.8 12.3 21.8 13.3 5.7-1 15.6-8.2 21.5-13.3z"/><path class="st2" d="M735.3 230.8c0 .4 0 .7.1 1.1-6 5.3-15.8 12.2-21.9 13.2h-.1c-6.1-1-15.9-8-21.9-13.2 0-.4 0-.7.1-1.1 5.8 5.2 15.9 12.4 21.9 13.5 5.9-1.1 15.9-8.3 21.8-13.5z"/><path class="st2" d="M733.8 221.3c.1.3.2.6.2.9-6.1 5.1-14.9 11.2-20.6 12.1h-.1c-5.7-.9-14.5-7-20.6-12.1.1-.3.2-.6.2-.9 5.9 5 14.9 11.2 20.4 12.2 5.6-1 14.5-7.2 20.5-12.2z"/><path class="st2" d="M730.8 212.9c.1.3.2.5.4.8-5.8 4.5-12.9 9-17.8 9.8h-.1c-4.9-.8-12-5.4-17.8-9.8.1-.3.2-.6.4-.8 5.7 4.4 12.8 9 17.5 9.8 4.6-.8 11.7-5.4 17.4-9.8zM726.7 205.1c.2.3.3.5.5.8-4.8 3.4-10 6.2-13.8 6.9h-.1c-3.8-.6-9-3.5-13.8-6.9.2-.3.3-.5.5-.8 4.7 3.3 9.8 6.1 13.4 6.8 3.5-.7 8.6-3.5 13.3-6.8zM721.7 197.5c.2.2.3.5.5.7-3.2 1.9-6.3 3.3-8.8 3.7h-.1c-2.5-.4-5.6-1.8-8.8-3.7.2-.2.3-.5.5-.7 3.1 1.8 6.1 3.2 8.4 3.6 2.3-.4 5.2-1.8 8.3-3.6z"/><path class="st2" d="M712.8 184.8h1v90.8h-1z"/><ellipse transform="rotate(-55.424 755.797684 303.4200854)" class="st1" cx="755.8" cy="303.4" rx="17.9" ry="17.9"/><path class="st2" d="M755.8 323.3c-11 0-19.9-8.9-19.9-19.9 0-11 8.9-19.9 19.9-19.9 11 0 19.9 8.9 19.9 19.9 0 11-9 19.9-19.9 19.9zm0-35.9c-8.8 0-16 7.2-16 16s7.2 16 16 16 16-7.2 16-16-7.2-16-16-16z"/><path class="st2" d="M758.4 299.3c-.8-.7-1.4-1.1-2.4-1.1-1.1 0-1.8.6-1.8 1.7 0 2.5 5.6 2 5.6 6.2 0 2-1.2 3.4-3.2 3.8v2.1H755v-2.1c-1.3-.1-2.7-.7-3.6-1.6l1.1-1.6c1 .8 2 1.3 3.1 1.3 1.3 0 2-.7 2-1.8 0-2.7-5.6-2.3-5.6-6.2 0-1.9 1.2-3.3 3.1-3.6v-2.1h1.7v2.1c1.3.2 2.2.8 3 1.6l-1.4 1.3z"/><circle class="st1" cx="656.4" cy="350.2" r="17.9"/><path class="st2" d="M656.4 370.1c-11 0-19.9-8.9-19.9-19.9 0-11 8.9-19.9 19.9-19.9 11 0 19.9 8.9 19.9 19.9-.1 11-9 19.9-19.9 19.9zm0-35.9c-8.8 0-16 7.2-16 16s7.2 16 16 16 16-7.2 16-16-7.2-16-16-16z"/><ellipse transform="rotate(-80.781 670.1577846 296.3588365)" class="st1" cx="670.2" cy="296.4" rx="24.2" ry="24.2"/><path class="st2" d="M670.2 322.5c-14.4 0-26.2-11.7-26.2-26.2 0-14.4 11.7-26.2 26.2-26.2s26.2 11.7 26.2 26.2c-.1 14.5-11.8 26.2-26.2 26.2zm0-48.4c-12.3 0-22.3 10-22.3 22.3s10 22.3 22.3 22.3 22.3-10 22.3-22.3c-.1-12.3-10.1-22.3-22.3-22.3z"/><path class="st1" d="M551.4 482.1c0 6.9-5.6 12.5-12.5 12.5H426c-6.9 0-12.5-5.6-12.5-12.5V275.3c0-6.9 5.6-12.5 12.5-12.5h112.8c6.9 0 12.5 5.6 12.5 12.5v206.8z"/><path class="st2" d="M538.8 496.5H426c-8 0-14.5-6.5-14.5-14.5V275.3c0-8 6.5-14.5 14.5-14.5h112.8c8 0 14.5 6.5 14.5 14.5v206.8c0 8-6.5 14.4-14.5 14.4zM426 264.7c-5.8 0-10.6 4.8-10.6 10.6v206.8c0 5.8 4.8 10.6 10.6 10.6h112.8c5.8 0 10.6-4.8 10.6-10.6V275.3c0-5.8-4.8-10.6-10.6-10.6H426z"/><path class="st5" d="M426 290.4h112.8v172.3H426z"/><path class="st1" d="M518.1 372.5c0 20-16.2 36.2-36.2 36.2-20 0-36.2-16.2-36.2-36.2 0-20 16.2-36.2 36.2-36.2 20 0 36.2 16.2 36.2 36.2z"/><path class="st3" d="M504.9 356h-7.1l-2.2 8.3H462.5c-.4.2-.7.6-.5 1.1l6 17.1h24.4l6.6-24.8h5.8c.5 0 .8-.4.8-.8.1-.5-.3-.9-.7-.9zm-10.5 12.9h-3.6l.5-2.9h3.9l-.8 2.9zm-1.1 4.1h-3.1l.5-3.3h3.5l-.9 3.3zm-1.1 4.2h-2.7l.5-3.3h3l-.8 3.3zm-11.7 3.7l-.7-2.9h4.5l.4 2.9h-4.2zm-5.8 0l-.7-2.9h4.9l.7 2.9h-4.9zm-4.6-14.9l.7 2.9H465l-1-2.9h6.1zm5.8 0l.7 2.9h-4.9l-.7-2.9h4.9zm2.6 7l-.8-3.3h5.3l.5 3.3h-5zm5.1.8l.5 3.3h-4.6l-.8-3.3h4.9zm-6-.8h-4.9l-.8-3.3h4.9l.8 3.3zm6.2-3.3h6l-.5 3.3h-5l-.5-3.3zm-.1-.8l-.4-2.9h7.2l-.5 2.9h-6.3zm-.8 0h-5.4l-.7-2.9h5.7l.4 2.9zm-11.9.8l.8 3.3h-5.4l-1.2-3.3h5.8zm-4.2 4.1h5.3l.8 3.3H468l-1.2-3.3zm6.1 0h4.9l.8 3.3h-4.9l-.8-3.3zm12.2 4.2h3.5l-.5 2.8v.1h-2.6l-.4-2.9zm-.1-.8l-.5-3.3h4.8l-.5 3.3H485zm-16.8.8h4.9l.7 2.9h-4.6l-1-2.9zm20.7 2.9l.5-2.9h2.6l-.8 2.9h-2.3zM488.1 383.4c-1.8 0-3.3 1.2-3.6 2.9H476c-.4-1.7-1.9-2.9-3.6-2.9-2.1 0-3.7 1.7-3.7 3.7 0 2.1 1.7 3.7 3.7 3.7 2.1 0 3.7-1.7 3.7-3.7h8.3c0 2.1 1.7 3.7 3.7 3.7 2.1 0 3.7-1.7 3.7-3.7 0-2.1-1.6-3.7-3.7-3.7zm-15.7 5.8c-1.1 0-2.1-.9-2.1-2.1 0-1.1.9-2.1 2.1-2.1 1.1 0 2.1.9 2.1 2.1 0 1.1-1 2.1-2.1 2.1zm15.7 0c-1.1 0-2.1-.9-2.1-2.1 0-1.1.9-2.1 2.1-2.1 1.1 0 2.1.9 2.1 2.1 0 1.1-.9 2.1-2.1 2.1z"/></g><g id="Foreground"><path class="st2" d="M-28.4 279h3.9v136.8h-3.9z"/><path transform="rotate(-52.193 -49.7672654 376.2754946)" class="st2" d="M-51.7 346.7h3.9v59.1h-3.9z"/><path transform="rotate(-45 -9.5632136 329.043183)" class="st2" d="M-33.4 327.1h47.7v3.9h-47.7z"/><path transform="rotate(-62.464 -38.0982099 312.7899995)" class="st2" d="M-40 299.6h3.9v26.3H-40z"/><path class="st4" d="M2.6 494.6h-58l-32.9-85.5H35.4z"/><path class="st2" d="M3.9 496.5h-60.7l-34.3-89.4H38.2L3.9 496.5zm-58-3.8H1.3L32.6 411h-118l31.3 81.7z"/><path class="st3" d="M-19.5 390c-1.7-2.4-.1-13.5 7.4-22.2 7.4-8.6 18.2-11 20.9-10.5.9 2.5.1 13.6-7.3 22.2-7.6 8.7-18.4 11.8-21 10.5zM-61.9 333.1c-.6-1.9 2.6-8.6 9.1-12.5 6.4-3.9 13.7-3.3 15.3-2.4.1 1.8-2.6 8.6-9.1 12.5-6.4 4-13.8 3.8-15.3 2.4zM-33.1 310.2c-1.9.3-8.2-3.7-11.3-10.6-3.1-6.9-1.5-14-.5-15.4 1.8.1 8.2 3.7 11.3 10.6 3.1 6.8 2 14.1.5 15.4zM-41.9 376c-1.9-.5-6-6.7-6-14.3 0-7.5 4.3-13.4 5.9-14.3 1.6.9 6 6.7 6 14.2 0 7.6-4 13.9-5.9 14.4zM-71.4 396.3c0-2 5.1-7.4 12.5-9.2 7.3-1.8 14 1 15.3 2.3-.5 1.7-5.1 7.4-12.4 9.2-7.4 1.9-14.4-.6-15.4-2.3zM-13.7 342.2c0-2 5.1-7.4 12.5-9.2 7.3-1.8 14 1 15.3 2.3-.5 1.7-5.1 7.4-12.4 9.2-7.5 1.8-14.5-.6-15.4-2.3zM-15.1 324.8c-1.8-.7-5.2-7.3-4.5-14.8.7-7.5 5.6-12.9 7.3-13.6 1.5 1 5.2 7.3 4.5 14.8-.7 7.5-5.3 13.3-7.3 13.6z"/><path class="st0" d="M-26.4 275.6c-12.3-9.3-22.1-18.7-22.1-40.4 0-23 11.7-33.2 22.1-50.4C-16 202-4.3 212.2-4.3 235.2c0 21.7-9.9 31.1-22.1 40.4z"/><path class="st2" d="M-26.4 278l-1.2-.9c-12.5-9.5-22.9-19.2-22.9-42 0-18.4 7.1-28.7 15.3-40.6 2.3-3.4 4.7-6.9 7.1-10.8l1.7-2.7 1.7 2.7c2.3 3.9 4.8 7.4 7.1 10.8 8.2 11.9 15.3 22.2 15.3 40.6 0 22.8-10.4 32.5-22.9 42l-1.2.9zm0-89.5c-1.9 2.9-3.7 5.6-5.6 8.3-7.8 11.4-14.6 21.2-14.6 38.4 0 20.3 8.6 29.1 20.2 38 11.5-8.9 20.2-17.7 20.2-38 0-17.2-6.8-27-14.6-38.4-1.9-2.7-3.8-5.4-5.6-8.3z"/><path class="st2" d="M-7.5 253.6l-.9 2.1c-5.3 4.9-11.9 8.3-18 9.3h-.1c-6.1-1-12.7-4.5-18-9.3l-.9-2.1c5.4 5.5 12.5 9.4 19 10.5 6.5-1.1 13.5-5 18.9-10.5z"/><path class="st2" d="M-4.7 241.8c0 .4-.1.9-.1 1.3-6 5.2-15.5 11.9-21.5 12.9h-.1c-6-1-15.5-7.7-21.5-12.9-.1-.4-.1-.9-.1-1.3 5.8 5.2 15.8 12.3 21.8 13.3 5.8-1 15.7-8.2 21.5-13.3z"/><path class="st2" d="M-4.5 230.8c0 .4 0 .7.1 1.1-6 5.3-15.8 12.2-21.9 13.2h-.1c-6.1-1-15.9-8-21.9-13.2 0-.4 0-.7.1-1.1 5.8 5.2 15.9 12.4 21.9 13.5 5.9-1.1 16-8.3 21.8-13.5z"/><path class="st2" d="M-6 221.3c.1.3.2.6.2.9-6.1 5.1-14.9 11.2-20.6 12.1h-.1c-5.7-.9-14.5-7-20.6-12.1.1-.3.2-.6.2-.9 5.9 5 14.9 11.2 20.4 12.2 5.7-1 14.6-7.2 20.5-12.2z"/><path class="st2" d="M-8.9 212.9c.1.3.2.5.4.8-5.8 4.5-12.9 9-17.8 9.8h-.1c-4.9-.8-12-5.4-17.8-9.8.1-.3.2-.6.4-.8 5.7 4.4 12.8 9 17.5 9.8 4.6-.8 11.7-5.4 17.4-9.8zM-13 205.1c.2.3.3.5.5.8-4.8 3.4-10 6.2-13.8 6.9h-.1c-3.8-.6-9-3.5-13.8-6.9.2-.3.3-.5.5-.8 4.7 3.3 9.8 6.1 13.4 6.8 3.5-.7 8.6-3.5 13.3-6.8zM-18 197.5c.2.2.3.5.5.7-3.2 1.9-6.3 3.3-8.8 3.7h-.1c-2.5-.4-5.6-1.8-8.8-3.7.2-.2.3-.5.5-.7 3.1 1.8 6.1 3.2 8.4 3.6 2.2-.4 5.2-1.8 8.3-3.6z"/><path class="st2" d="M-26.9 184.8h1v90.8h-1z"/><ellipse transform="rotate(-45 16.0576033 303.4413407)" class="st1" cx="16.1" cy="303.4" rx="17.9" ry="17.9"/><path class="st2" d="M16.1 323.3c-11 0-19.9-8.9-19.9-19.9 0-11 8.9-19.9 19.9-19.9 11 0 19.9 8.9 19.9 19.9-.1 11-9 19.9-19.9 19.9zm0-35.9c-8.8 0-16 7.2-16 16s7.2 16 16 16 16-7.2 16-16-7.2-16-16-16z"/><ellipse transform="matrix(.00684 -1 1 .00684 -433.0126 264.4603)" class="st1" cx="-83.4" cy="350.2" rx="17.9" ry="17.9"/><path class="st2" d="M-83.4 370.1c-11 0-19.9-8.9-19.9-19.9 0-11 8.9-19.9 19.9-19.9 11 0 19.9 8.9 19.9 19.9 0 11-8.9 19.9-19.9 19.9zm0-35.9c-8.8 0-16 7.2-16 16s7.2 16 16 16 16-7.2 16-16-7.1-16-16-16z"/><ellipse transform="rotate(-81.24 -69.5841793 296.3801992)" class="st1" cx="-69.6" cy="296.4" rx="24.2" ry="24.2"/><path class="st2" d="M-69.6 322.5c-14.4 0-26.2-11.7-26.2-26.2 0-14.4 11.7-26.2 26.2-26.2s26.2 11.7 26.2 26.2-11.8 26.2-26.2 26.2zm0-48.4c-12.3 0-22.3 10-22.3 22.3s10 22.3 22.3 22.3 22.3-10 22.3-22.3-10-22.3-22.3-22.3z"/><path class="st1" d="M592.6 462.9l-42.5 31.7-42.6-31.7v-69.2h85.1v26.7z"/><path class="st2" d="M550.1 497l-44.4-33.2v-72.1h88.9v72.1L550.1 497zm-40.6-35.1l40.6 30.3 40.6-30.3v-66.2h-81.1v66.2zm83.1 1z"/><path class="st3" d="M550.1 457c-.9 0-1.8-.3-2.5-.9l-14.7-12.5c-1.6-1.4-1.8-3.8-.4-5.5 1.4-1.6 3.8-1.8 5.5-.4l11.1 9.5 15.6-27.2c1.1-1.9 3.4-2.5 5.3-1.4s2.5 3.4 1.4 5.3l-18 31.3c-.6 1-1.6 1.7-2.7 1.9-.2-.1-.4-.1-.6-.1z"/><path class="st1" d="M428.2 380.6c-3.4-2.1-5.3-5.9-5.1-9.9.1-2.2 17.4-51.5 9.3-56.3-1.4-.8-3.1-.8-4.4.1l-1.1.7c-1.6 1-3.5 1-5.1 0l-5.8-3.6c-1.4-.9-3.1-.9-4.5 0l-5.8 3.6c-1.6 1-3.5 1-5.1 0l-5.8-3.6c-1.4-.9-3.1-.9-4.5 0l-5.8 3.6c-1.6 1-3.5 1-5.1 0l-1.1-.7c-1.4-.8-3.1-.9-4.4-.1-8.1 4.8 9.2 54 9.3 56.3.2 4-1.8 7.8-5.1 9.9-17.6 11.1-36.8 30.2-36.8 51.9 0 34.3 27.8 62.1 62.1 62.1s62.1-27.8 62.1-62.1c-.5-21.7-19.7-40.8-37.3-51.9z"/><path class="st2" d="M402.9 496.5c-35.3 0-64-28.7-64-64 0-27.7 28.9-48 37.7-53.6 2.8-1.8 4.4-4.9 4.2-8.1-.1-.4-.8-2.9-1.6-5.5-8.8-28.7-13.3-48.7-6.7-52.5 2-1.2 4.5-1.2 6.4.1l1.1.7c.9.6 2.1.6 3.1 0l5.8-3.6c2-1.3 4.5-1.3 6.6 0l5.8 3.6c.9.6 2.1.6 3.1 0l5.8-3.6c2-1.3 4.5-1.3 6.6 0l5.8 3.6c.9.6 2.1.6 3.1 0l1.1-.7c2-1.2 4.4-1.3 6.4-.1 6.5 3.8 2 23.8-6.7 52.5-.8 2.6-1.6 5.1-1.6 5.6-.2 3.2 1.5 6.3 4.2 8 8.8 5.6 37.7 25.9 37.7 53.6.1 35.3-28.6 64-63.9 64zm-27.3-180.7c-.4 0-.8.1-1.2.3-2 1.2-3.5 8.9 8.5 48 1.5 4.8 1.8 5.8 1.8 6.4.2 4.7-2.1 9.1-6 11.6-8.4 5.3-35.9 24.6-35.9 50.3 0 33.2 27 60.2 60.1 60.2 33.2 0 60.2-27 60.2-60.2 0-25.7-27.5-45-35.9-50.3-4-2.5-6.3-6.9-6-11.6 0-.6.3-1.6 1.8-6.5 11.9-39.1 10.4-46.9 8.5-48-.8-.4-1.7-.4-2.4 0l-1.1.7c-2.2 1.4-4.9 1.4-7.1 0l-5.8-3.6c-.8-.5-1.7-.5-2.5 0l-5.8 3.6c-2.2 1.4-4.9 1.4-7.1 0l-5.8-3.6c-.8-.5-1.7-.5-2.5 0l-5.8 3.6c-2.2 1.4-4.9 1.4-7.1 0l-1.1-.7c-.9-.1-1.3-.2-1.8-.2z"/><path class="st0" d="M429.2 373h-52.5c-3.2 0-5.9-2.6-5.9-5.9 0-3.2 2.6-5.9 5.9-5.9h52.5c3.2 0 5.9 2.6 5.9 5.9 0 3.3-2.7 5.9-5.9 5.9z"/><path class="st2" d="M429.2 374.9h-52.5c-4.3 0-7.8-3.5-7.8-7.8s3.5-7.8 7.8-7.8h52.5c4.3 0 7.8 3.5 7.8 7.8s-3.5 7.8-7.8 7.8zm-52.6-11.7c-2.2 0-3.9 1.8-3.9 3.9 0 2.2 1.8 3.9 3.9 3.9h52.5c2.2 0 3.9-1.8 3.9-3.9 0-2.2-1.8-3.9-3.9-3.9h-52.5z"/><path class="st1" d="M853.5 292.6c3.5 4.9 2.4 11.7-2.5 15.2l-62 44.5c-4.9 3.5-11.7 2.4-15.2-2.5s-2.4-11.7 2.5-15.2l62-44.5c4.8-3.5 11.6-2.4 15.2 2.5z"/><path class="st2" d="M782.6 356.3c-4 0-7.9-1.9-10.4-5.3-2-2.8-2.8-6.2-2.2-9.6.6-3.4 2.4-6.4 5.2-8.3l62-44.5c5.7-4.1 13.8-2.8 17.9 2.9 4.1 5.8 2.8 13.8-2.9 17.9l-62 44.5c-2.4 1.6-5 2.4-7.6 2.4zm62-66.3c-1.8 0-3.6.5-5.2 1.7l-62 44.5c-1.9 1.4-3.2 3.5-3.6 5.8-.4 2.4.2 4.7 1.6 6.7 2.9 4 8.5 4.9 12.5 2.1l62-44.5c4-2.9 4.9-8.5 2.1-12.5-1.9-2.5-4.6-3.8-7.4-3.8z"/><path class="st1" d="M877.8 303.5c3.5 4.9 2.4 11.7-2.5 15.2l-62 44.5c-4.9 3.5-11.7 2.4-15.2-2.5s-2.4-11.7 2.5-15.2l62-44.5c4.9-3.5 11.7-2.4 15.2 2.5z"/><path class="st2" d="M807 367.2c-4 0-7.9-1.9-10.4-5.3-2-2.8-2.8-6.2-2.2-9.6.6-3.4 2.4-6.3 5.2-8.3l62-44.5c2.8-2 6.2-2.8 9.6-2.2 3.4.6 6.3 2.4 8.3 5.2 2 2.8 2.8 6.2 2.2 9.6-.6 3.4-2.4 6.4-5.2 8.4l-62 44.5c-2.3 1.4-4.9 2.2-7.5 2.2zm61.9-66.3c-1.9 0-3.7.6-5.2 1.7l-62 44.5c-1.9 1.4-3.2 3.5-3.6 5.8-.4 2.4.2 4.7 1.6 6.7 2.9 4 8.5 4.9 12.5 2.1l62-44.5c1.9-1.4 3.2-3.5 3.6-5.8.4-2.4-.2-4.7-1.6-6.7-1.4-1.9-3.5-3.2-5.8-3.6-.5-.2-1-.2-1.5-.2z"/><path class="st1" d="M872.3 336.2c3.5 4.9 2.4 11.7-2.5 15.2l-62 44.5c-4.9 3.5-11.7 2.4-15.2-2.5s-2.4-11.7 2.5-15.2l62-44.5c4.9-3.5 11.7-2.4 15.2 2.5z"/><path class="st2" d="M801.5 399.9c-.7 0-1.4-.1-2.1-.2-3.4-.6-6.3-2.4-8.3-5.2-4.1-5.7-2.8-13.8 2.9-17.9l62-44.5c5.7-4.1 13.8-2.8 17.9 2.9 2 2.8 2.8 6.2 2.2 9.6-.6 3.4-2.4 6.3-5.2 8.3l-62 44.5c-2.2 1.7-4.8 2.5-7.4 2.5zm61.9-66.3c-1.8 0-3.6.5-5.2 1.7l-62 44.5c-4 2.9-4.9 8.5-2 12.5 1.4 1.9 3.5 3.2 5.8 3.6 2.4.4 4.7-.2 6.7-1.6l62-44.5c1.9-1.4 3.2-3.5 3.6-5.8.4-2.4-.2-4.7-1.6-6.7-1.7-2.4-4.5-3.7-7.3-3.7z"/><path class="st1" d="M866.9 369.9c3.5 4.9 2.4 11.7-2.5 15.2l-62 44.5c-4.9 3.5-11.7 2.4-15.2-2.5s-2.4-11.7 2.5-15.2l62-44.5c4.9-3.5 11.7-2.4 15.2 2.5z"/><path class="st2" d="M796.1 433.6c-.7 0-1.4-.1-2.1-.2-3.4-.6-6.3-2.4-8.3-5.2-2-2.8-2.8-6.2-2.2-9.6.6-3.4 2.4-6.4 5.2-8.3l62-44.5c5.7-4.1 13.8-2.8 17.9 2.9 2 2.8 2.8 6.2 2.2 9.6-.6 3.4-2.4 6.3-5.2 8.3l-62 44.5c-2.3 1.6-4.9 2.5-7.5 2.5zm61.9-66.3c-1.8 0-3.6.5-5.2 1.7l-62 44.5c-1.9 1.4-3.2 3.5-3.6 5.8-.4 2.4.2 4.7 1.6 6.7 1.4 1.9 3.5 3.2 5.8 3.6 2.4.4 4.7-.2 6.7-1.6l62-44.5c1.9-1.4 3.2-3.5 3.6-5.8.4-2.4-.2-4.7-1.6-6.7-1.7-2.4-4.5-3.7-7.3-3.7z"/><path class="st1" d="M846.7 445c0 4.1-3.4 7.5-7.5 7.5h-97c-4.1 0-7.5-3.3-7.5-7.5V272.7c0-4.1 3.4-7.5 7.5-7.5h97c4.2 0 7.5 3.3 7.5 7.5V445z"/><path class="st2" d="M839.2 454.4h-97c-5.2 0-9.5-4.2-9.5-9.4V272.7c0-5.2 4.2-9.4 9.5-9.4h97c5.2 0 9.5 4.2 9.5 9.4V445c-.1 5.2-4.3 9.4-9.5 9.4zm-97.1-187.2c-3.1 0-5.6 2.5-5.6 5.5V445c0 3 2.5 5.5 5.6 5.5h97c3.1 0 5.6-2.5 5.6-5.5V272.7c0-3-2.5-5.5-5.6-5.5h-97z"/><path class="st4" d="M746.2 286.7H835v141.4h-88.8z"/><path class="st1" d="M810.2 367h-39.1c-1.7 0-3.1-1.4-3.1-3.1v-13.1c0-1.7 1.4-3.1 3.1-3.1h39.1c1.7 0 3.1 1.4 3.1 3.1v13.1c-.1 1.7-1.4 3.1-3.1 3.1z"/><path class="st2" d="M778.8 352.8h3.5c2 0 2.9 1 2.9 2.3 0 1.1-.6 1.6-1.1 1.8.7.3 1.4.9 1.4 2.2 0 1.8-1.3 2.7-3.3 2.7h-3.5v-9zm3.2 3.6c1 0 1.4-.3 1.4-1.1 0-.7-.5-1.1-1.3-1.1h-1.5v2.2h1.4zm-1.4 4.1h1.5c.8 0 1.5-.4 1.5-1.4 0-.9-.5-1.4-1.6-1.4h-1.4v2.8zM788.8 352.8v5.8c0 1 .3 2 1.7 2s1.6-.9 1.6-2v-5.8h1.9v5.8c0 1.9-.8 3.4-3.6 3.4-2.7 0-3.5-1.4-3.5-3.4v-5.8h1.9zM797.6 361.9v-3.4c0-.1 0-.2-.1-.3l-2.9-5.4h2.1c.6 1.4 1.5 3.1 1.9 4 .6-1.3 1.3-2.7 1.9-4h1.9l-2.9 5.3c-.1.1-.1.1-.1.3v3.5h-1.8z"/><path class="st1" d="M850.5 494.3l70.4.2-6.8-17.9c-1.3-6.4-5.2-12.3-5.2-18.8 0-4.7 3.2-9.5 3.2-19.8 0-4.9-.9-9.8-2.8-14.9l-23.6-37.5c-2-3.2-7.1-3.5-11.5-.8l-1.4.9c-4.4 2.7-6.4 7.5-4.4 10.7l16 25.5-.9-.2-23.5-37.2c-2-3.2-7.1-3.5-11.5-.8l-1.4.9c-4.4 2.7-6.4 7.5-4.4 10.7l13.2 21-.6-.1-16.1-25.5c-2-3.2-7.1-3.5-11.5-.8l-1.4.9c-4.4 2.7-6.4 7.5-4.4 10.7l14.6 23.2-.6.3-30.9-49.6c-2-3.2-7.1-3.5-11.5-.8l-1.4.9c-4.4 2.7-6.4 7.5-4.4 10.7l36.3 58.2s4.1 10.1-8.2.9L796 430.6c-3.1-2-7.9-.1-10.7 4.3l-.9 1.4c-2.8 4.4-2.5 9.5.6 11.5 29.4 20.7 65.5 49.9 65.5 46.5z"/><path class="st2" d="M850.2 496.6c-2.4 0-7.7-3.7-32.2-22.1-10.8-8.1-22.9-17.2-34.1-25.1-2-1.3-3.2-3.5-3.3-6.4-.1-2.6.7-5.3 2.2-7.8l.9-1.4c3.4-5.3 9.3-7.5 13.4-4.8l18 13.4 1.8 1.3c3.3 2.5 5 3.2 5.7 3.4 0-.5-.2-1.3-.4-1.9l-36.2-58c-1.3-2.1-1.4-4.6-.3-7.3 1-2.4 2.9-4.5 5.3-6.1l1.4-.9c2.5-1.5 5.2-2.3 7.8-2.1 2.8.2 5.1 1.5 6.4 3.5l13.2 21.2c.9-2.5 2.9-4.7 5.5-6.3l1.4-.9c5.2-3.3 11.3-2.8 14 1 0-.1 0-.1.1-.2 1-2.4 2.9-4.5 5.3-6.1l1.4-.9c5.4-3.4 11.6-2.8 14.2 1.4l4.6 7.3c.9-2.5 2.9-4.9 5.5-6.5l1.4-.9c3-1.9 6.5-2.6 9.4-1.9 2.1.5 3.7 1.6 4.8 3.3l23.7 37.8c2 5.2 2.9 10.3 2.9 15.6 0 6.4-1.2 10.7-2.1 14.2-.6 2.2-1.1 4-1.1 5.6 0 3.5 1.3 6.8 2.6 10.4.9 2.5 1.9 5.1 2.5 7.8l7.7 20.3-72.4-.2h-.1c-.2.2-.5.3-.9.3zm-.6-4.2l68.4.2-5.9-15.5c-.5-2.4-1.4-4.8-2.3-7.3-1.4-3.8-2.9-7.6-2.9-11.8 0-2.2.6-4.2 1.2-6.6.9-3.3 2-7.3 2-13.2 0-4.8-.9-9.4-2.6-14L884 386.9c-.6-1-1.6-1.4-2.4-1.6-1.9-.5-4.4.1-6.5 1.4l-1.4.9c-2.1 1.3-3.7 3.3-4.1 5.2-.2.7-.3 1.8.3 2.8l18.4 29.3-6.1-1.2-23.9-38.1c-1.4-2.2-5.4-2.3-8.8-.1l-1.4.9c-1.8 1.1-3.2 2.7-3.8 4.3-.3.8-.8 2.4 0 3.7l15.6 24.9-5.9-1.3-16.5-26.2c-1.4-2.2-5.4-2.3-8.9-.1l-1.4.9c-2.1 1.3-3.7 3.3-4.1 5.2-.2.7-.3 1.8.3 2.8l15.7 24.9-4 2.1-31.9-51.1c-.8-1.3-2.4-1.6-3.3-1.7-1.7-.1-3.8.4-5.5 1.5l-1.4.9c-1.8 1.1-3.1 2.7-3.8 4.3-.3.8-.8 2.4 0 3.7l36.4 58.5c.5 1.1 1.8 5-.5 6.7-1.8 1.4-4.5.7-8.9-2.3l-1.8-1.3-19.6-14.7c-2.1-1.3-5.8.4-7.9 3.7l-.9 1.4c-1.1 1.7-1.7 3.7-1.6 5.5 0 .9.3 2.5 1.6 3.4 11.3 8 23.5 17.1 34.3 25.2 12.6 9.5 25.6 19.3 29.3 21.1z"/><path class="st1" d="M778.5 309.3c-2.2-5.8-8.6-8.8-14.2-6.7l-20.5 8.3c-4.6 1.2-7.4 2.6-9.2 3.8-1.9 1.3-2.7 2.4-3.3 3.1l-21.7 28.1c-1.8 2.3-2.9 5.1-3 8.1l-2.7 42.1-80.8 98.3 78.8-.4 33.7-45.2c-.6-1.1-1-2.4-1-3.7v-33.5c6.9-7.4 8.9-20.2 8.9-32 0-7.2-2-25.4-7.5-32.2 3.3-4.6 11.6-13.6 11.6-13.6l24.7-10c5.7-2.2 8.5-8.7 6.2-14.5z"/><path class="st2" d="M619 496.3l83-101 2.6-41.5c.2-3.3 1.4-6.5 3.4-9.1l21.9-28.3c.6-.7 1.6-2 3.6-3.3 2.4-1.6 5.6-2.9 9.7-4.1l20.4-8.3c6.7-2.5 14.2 1 16.7 7.8 2.6 6.8-.7 14.4-7.3 16.9l-24.3 9.8c-1.4 1.5-7.2 7.9-10.4 12 5.3 8 7.1 25.2 7.1 32.2 0 10.3-1.6 24.3-8.9 32.7V445c0 1 .3 1.9.7 2.8l.6 1.1-35 47-83.8.4zm149.1-192.5c-1 0-2 .2-3.1.6l-20.7 8.4c-3.7 1-6.6 2.2-8.6 3.6-1.5 1-2.2 1.9-2.7 2.5l-.2.2-21.6 28c-1.6 2-2.5 4.5-2.6 7l-2.7 42.7-.4.5-78.2 95.1 73.7-.4 32.4-43.5c-.5-1.1-.7-2.3-.7-3.5v-34.2l.5-.6c6.9-7.4 8.4-20.8 8.4-30.7 0-7.5-2.1-24.9-7.1-31l-.9-1.2.9-1.2c3.4-4.7 11.4-13.4 11.8-13.8l.3-.3 25.1-10.2c4.7-1.8 6.9-7.1 5.1-12-1.5-3.6-5-6-8.7-6z"/></g><g id="Bottom_Line"><path class="st2" d="M-185.8 492.7H965.9v3.9H-185.8z"/><circle class="st1" cx="-185.8" cy="494.6" r="9.7"/><path class="st2" d="M-185.8 506.2c-6.4 0-11.6-5.2-11.6-11.6 0-6.4 5.2-11.6 11.6-11.6 6.4 0 11.6 5.2 11.6 11.6 0 6.4-5.2 11.6-11.6 11.6zm0-19.3c-4.3 0-7.7 3.5-7.7 7.7 0 4.3 3.5 7.7 7.7 7.7 4.3 0 7.7-3.5 7.7-7.7 0-4.3-3.5-7.7-7.7-7.7z"/><circle class="st1" cx="965.8" cy="494.6" r="9.7"/><path class="st2" d="M965.8 506.2c-6.4 0-11.6-5.2-11.6-11.6 0-6.4 5.2-11.6 11.6-11.6 6.4 0 11.6 5.2 11.6 11.6.1 6.4-5.2 11.6-11.6 11.6zm0-19.3c-4.3 0-7.7 3.5-7.7 7.7 0 4.3 3.5 7.7 7.7 7.7 4.3 0 7.7-3.5 7.7-7.7.1-4.3-3.4-7.7-7.7-7.7z"/></g><g id="BCH_Signs"><path class="st2" d="M240.6 108.9c-.8-.7-2-1.1-3.4-1.1 1.5-1.2 2-2.9 1.3-4.9-.2-.7-.6-1.4-1-1.8-.5-.5-1-.8-1.7-1-.7-.2-1.4-.3-2.1-.4-.7 0-1.6 0-2.5.1l-.9-4.3-2.7.6.9 4.2c-.5.1-1.2.3-2.1.5l-.9-4.3-2.7.6.9 4.3c-.4.1-.9.2-1.7.4l-3.7.7.6 2.8 1.9-.4c.9-.2 1.5.1 1.8.9l1 5h.3l-.3.1 1.5 6.9c0 .6-.2 1-.8 1.1l-1.9.4.1 3.3 3.4-.7c.2 0 .5-.1 1-.2.4-.1.7-.1.9-.2l.9 4.4 2.7-.6-.9-4.3c.5-.1 1.2-.2 2.1-.4l.9 4.3 2.7-.6-.9-4.4c.9-.2 1.8-.5 2.5-.8.7-.3 1.4-.6 2-1 .6-.4 1.1-.9 1.5-1.4.4-.5.6-1.1.8-1.8.2-.7.2-1.4.1-2.3-.3-1.8-.8-2.9-1.6-3.7zm-13.5-5.2c.1 0 .3-.1.7-.2.4-.1.7-.2.9-.2.2-.1.6-.1 1-.2s.8-.1 1.1-.1c.3 0 .6 0 1 .1s.7.2.9.3c.2.1.5.4.7.6.2.3.3.6.4 1 .1.3.1.6 0 .9 0 .3-.2.5-.3.8-.2.2-.3.4-.5.6-.2.2-.4.3-.8.5-.3.2-.6.3-.8.4-.2.1-.6.2-.9.3-.4.1-.7.2-.9.2-.2 0-.5.1-.8.2-.3.1-.5.1-.6.1l-1.1-5.3zm9.7 10.3c-.1.3-.1.5-.3.8-.1.2-.3.5-.6.7-.3.2-.5.4-.7.5-.2.1-.5.3-.9.4-.4.1-.7.3-1 .4-.3.1-.6.2-1 .3-.4.1-.7.2-.9.2-.2 0-.5.1-.8.2-.3.1-.5.1-.6.1l-1.2-5.8c.1 0 .4-.1.8-.2.5-.1.8-.2 1.1-.2.3-.1.7-.1 1.2-.2s.9-.1 1.3-.1.8 0 1.2.1c.4.1.8.2 1.1.3.3.2.6.4.8.7.2.3.4.6.5 1v.8zm0 0"/><path class="st1" d="M397.7 95.2c-1.5-1.3-3.6-2-6.2-2.1 2.8-2.2 3.6-5.2 2.4-9-.4-1.4-1.1-2.5-1.9-3.4-.9-.9-1.9-1.5-3.1-1.9-1.2-.4-2.5-.6-3.9-.7-1.3-.1-2.9 0-4.6.2l-1.7-7.9-4.8 1 1.6 7.7c-.8.2-2.1.5-3.8.9l-1.6-7.8-4.8 1 1.7 7.9c-.7.2-1.7.4-3 .7l-6.7 1.4 1.1 5.2 3.5-.7c1.6-.3 2.7.2 3.2 1.6l1.9 9c.2 0 .4-.1.5-.1l-.5.1 2.6 12.6c.1 1.1-.4 1.8-1.5 2l-3.5.7.2 6 6.3-1.3c.4-.1 1-.2 1.7-.3.8-.1 1.3-.3 1.7-.3l1.7 8 4.8-1-1.7-7.9c.9-.2 2.2-.4 3.8-.8l1.7 7.9 4.8-1-1.7-8c1.7-.4 3.2-.9 4.5-1.4 1.3-.5 2.5-1.1 3.6-1.9 1.1-.7 2-1.6 2.7-2.5.7-.9 1.1-2 1.4-3.2.3-1.2.4-2.6.2-4.1-.1-3.2-1.1-5.3-2.6-6.6zm-24.6-9.5c.1 0 .6-.1 1.2-.3.7-.2 1.2-.3 1.7-.4.4-.1 1.1-.2 1.8-.3.8-.1 1.4-.1 2-.2.5 0 1.2 0 1.8.2.7.1 1.2.3 1.7.6.4.3.9.6 1.2 1.1.4.5.6 1.1.8 1.8.1.6.1 1.1.1 1.7-.1.5-.3 1-.6 1.4-.3.4-.6.8-1 1.1-.3.3-.8.6-1.4.9-.6.3-1.1.5-1.5.7-.4.2-1 .4-1.7.5-.7.2-1.2.3-1.6.4-.4.1-.8.2-1.5.3-.6.1-1 .2-1.1.2l-1.9-9.7zm17.7 18.6c-.1.5-.3 1-.5 1.4-.2.4-.6.8-1 1.2-.5.4-.9.7-1.4 1-.4.3-1 .5-1.7.8-.7.3-1.2.5-1.7.6-.5.2-1.1.3-1.8.5s-1.3.3-1.7.4c-.4.1-.9.2-1.5.3-.6.1-1 .2-1.2.2l-2.2-10.6c.2 0 .7-.1 1.5-.3.8-.2 1.5-.3 2-.5.5-.1 1.3-.2 2.2-.4.9-.1 1.7-.2 2.4-.2s1.4 0 2.2.2c.8.1 1.5.3 2 .6s1 .7 1.5 1.2c.4.5.7 1.2.9 1.9.1.7.1 1.2 0 1.7zm0 0"/><path class="st2" d="M536.5 101.8c-.8-.7-2-1.1-3.4-1.1 1.5-1.2 2-2.9 1.3-4.9-.2-.7-.6-1.4-1-1.8-.5-.5-1-.8-1.7-1-.7-.2-1.4-.3-2.1-.4-.7 0-1.6 0-2.5.1l-.9-4.3-2.7.6.9 4.2c-.5.1-1.2.3-2.1.5l-.9-4.3-2.7.6.9 4.3c-.4.1-.9.2-1.7.4l-3.7.7.6 2.8 1.9-.4c.9-.2 1.5.1 1.8.9l1 5h.3l-.3.1 1.5 6.9c0 .6-.2 1-.8 1.1l-1.9.4.1 3.3 3.4-.7c.2 0 .5-.1 1-.2.4-.1.7-.1.9-.2l.9 4.4 2.7-.6-.9-4.3c.5-.1 1.2-.2 2.1-.4l.9 4.3 2.7-.6-.9-4.4c.9-.2 1.8-.5 2.5-.8.7-.3 1.4-.6 2-1 .6-.4 1.1-.9 1.5-1.4.4-.5.6-1.1.8-1.8.2-.7.2-1.4.1-2.3-.2-1.8-.7-3-1.6-3.7zM523 96.6c.1 0 .3-.1.7-.2.4-.1.7-.2.9-.2.2-.1.6-.1 1-.2s.8-.1 1.1-.1c.3 0 .6 0 1 .1s.7.2.9.3c.2.1.5.4.7.6.2.3.3.6.4 1 .1.3.1.6 0 .9 0 .3-.2.5-.3.8-.2.2-.3.4-.5.6-.2.2-.4.3-.8.5-.3.2-.6.3-.8.4-.2.1-.6.2-.9.3-.4.1-.7.2-.9.2-.2 0-.5.1-.8.2-.3.1-.5.1-.6.1l-1.1-5.3zm9.8 10.2c-.1.3-.1.5-.3.8-.1.2-.3.5-.6.7-.3.2-.5.4-.7.5-.2.1-.5.3-.9.4-.4.1-.7.3-1 .4-.3.1-.6.2-1 .3-.4.1-.7.2-.9.2-.2 0-.5.1-.8.2-.3.1-.5.1-.6.1l-1.2-5.8c.1 0 .4-.1.8-.2.5-.1.8-.2 1.1-.2.3-.1.7-.1 1.2-.2s.9-.1 1.3-.1.8 0 1.2.1c.4.1.8.2 1.1.3.3.2.6.4.8.7.2.3.4.6.5 1v.8zm0 0M680.4 295.2c-.8-.7-2-1.1-3.4-1.1 1.5-1.2 2-2.9 1.3-4.9-.2-.7-.6-1.4-1-1.8-.5-.5-1-.8-1.7-1-.7-.2-1.4-.3-2.1-.4-.7 0-1.6 0-2.5.1l-.9-4.3-2.7.6.9 4.2c-.5.1-1.2.3-2.1.5l-.9-4.3-2.7.6.9 4.3c-.4.1-.9.2-1.7.4l-3.7.7.6 2.8 1.9-.4c.9-.2 1.5.1 1.8.9l1 5h.3l-.3.1 1.5 6.9c0 .6-.2 1-.8 1.1l-1.9.4.1 3.3 3.4-.7c.2 0 .5-.1 1-.2.4-.1.7-.1.9-.2l.9 4.4 2.7-.6-.9-4.3c.5-.1 1.2-.2 2.1-.4l.9 4.3 2.7-.6-.9-4.4c.9-.2 1.8-.5 2.5-.8.7-.3 1.4-.6 2-1 .6-.4 1.1-.9 1.5-1.4.4-.5.6-1.1.8-1.8.2-.7.2-1.4.1-2.3-.2-1.8-.7-3-1.6-3.7zm-13.5-5.2c.1 0 .3-.1.7-.2.4-.1.7-.2.9-.2.2-.1.6-.1 1-.2s.8-.1 1.1-.1c.3 0 .6 0 1 .1s.7.2.9.3c.2.1.5.4.7.6.2.3.3.6.4 1 .1.3.1.6 0 .9 0 .3-.2.5-.3.8-.2.2-.3.4-.5.6-.2.2-.4.3-.8.5-.3.2-.6.3-.8.4-.2.1-.6.2-.9.3-.4.1-.7.2-.9.2-.2 0-.5.1-.8.2-.3.1-.5.1-.6.1l-1.1-5.3zm9.8 10.2c-.1.3-.1.5-.3.8-.1.2-.3.5-.6.7-.3.2-.5.4-.7.5-.2.1-.5.3-.9.4-.4.1-.7.3-1 .4-.3.1-.6.2-1 .3-.4.1-.7.2-.9.2-.2 0-.5.1-.8.2-.3.1-.5.1-.6.1l-1.2-5.8c.1 0 .4-.1.8-.2.5-.1.8-.2 1.1-.2.3-.1.7-.1 1.2-.2s.9-.1 1.3-.1.8 0 1.2.1c.4.1.8.2 1.1.3.3.2.6.4.8.7.2.3.4.6.5 1v.8zm0 0M-58.9 294.8c-.8-.7-2-1.1-3.4-1.1 1.5-1.2 2-2.9 1.3-4.9-.2-.7-.6-1.4-1-1.8-.5-.5-1-.8-1.7-1-.7-.2-1.4-.3-2.1-.4-.7 0-1.6 0-2.5.1l-.9-4.3-2.7.6.9 4.2c-.5.1-1.2.3-2.1.5l-.9-4.3-2.7.6.9 4.3c-.4.1-.9.2-1.7.4l-3.7.7.6 2.8 1.9-.4c.9-.2 1.5.1 1.8.9l1 5h.3l-.3.1 1.5 6.9c0 .6-.2 1-.8 1.1l-1.9.4.1 3.3 3.4-.7c.2 0 .5-.1 1-.2.4-.1.7-.1.9-.2l.9 4.4 2.7-.6-.9-4.3c.5-.1 1.2-.2 2.1-.4l.9 4.3 2.7-.6-.9-4.4c.9-.2 1.8-.5 2.5-.8.7-.3 1.4-.6 2-1 .6-.4 1.1-.9 1.5-1.4.4-.5.6-1.1.8-1.8.2-.7.2-1.4.1-2.3-.2-1.8-.7-3-1.6-3.7zm-13.5-5.2c.1 0 .3-.1.7-.2.4-.1.7-.2.9-.2.2-.1.6-.1 1-.2s.8-.1 1.1-.1c.3 0 .6 0 1 .1s.7.2.9.3c.2.1.5.4.7.6.2.3.3.6.4 1 .1.3.1.6 0 .9 0 .3-.2.5-.3.8-.2.2-.3.4-.5.6-.2.2-.4.3-.8.5-.3.2-.6.3-.8.4-.2.1-.6.2-.9.3-.4.1-.7.2-.9.2-.2 0-.5.1-.8.2-.3.1-.5.1-.6.1l-1.1-5.3zm9.7 10.2c-.1.3-.1.5-.3.8-.1.2-.3.5-.6.7-.3.2-.5.4-.7.5-.2.1-.5.3-.9.4-.4.1-.7.3-1 .4-.3.1-.6.2-1 .3-.4.1-.7.2-.9.2-.2 0-.5.1-.8.2-.3.1-.5.1-.6.1l-1.2-5.8c.1 0 .4-.1.8-.2.5-.1.8-.2 1.1-.2s.7-.1 1.2-.2.9-.1 1.3-.1.8 0 1.2.1c.4.1.8.2 1.1.3.3.2.6.4.8.7.2.3.4.6.5 1 .1.2.1.5 0 .8zm0 0"/><path class="st3" d="M427.5 432c-2-1.7-4.8-2.7-8.2-2.8 3.7-3 4.8-6.9 3.2-11.9-.6-1.8-1.4-3.3-2.5-4.5-1.1-1.2-2.5-2-4.1-2.5-1.6-.5-3.3-.8-5.1-.9-1.8-.1-3.8 0-6 .3l-2.2-10.5-6.4 1.3 2.1 10.2c-1.1.2-2.8.6-5.1 1.1l-2.2-10.3-6.4 1.3 2.2 10.5c-.9.2-2.3.5-4 .9L374 416l1.4 6.8 4.6-1c2.1-.4 3.5.2 4.3 2.1l2.5 12c.3-.1.5-.1.7-.1l-.7.1 3.5 16.7c.1 1.5-.6 2.3-2 2.6l-4.6 1 .3 7.9 8.3-1.7c.5-.1 1.3-.3 2.3-.5 1-.2 1.8-.3 2.3-.4l2.2 10.6 6.4-1.3-2.2-10.5c1.2-.2 2.9-.6 5.1-1l2.2 10.5 6.4-1.3-2.2-10.6c2.3-.6 4.2-1.2 5.9-1.9 1.7-.7 3.3-1.5 4.8-2.5s2.6-2.1 3.5-3.3c.9-1.2 1.5-2.6 1.9-4.3.4-1.6.5-3.5.3-5.5-.4-3.8-1.7-6.7-3.7-8.4zm-32.6-12.6c.2 0 .7-.2 1.6-.4.9-.2 1.6-.4 2.2-.5.6-.1 1.4-.3 2.4-.4 1-.1 1.9-.2 2.6-.2.7 0 1.5.1 2.4.2.9.1 1.6.4 2.2.7.6.4 1.1.8 1.6 1.5.5.6.8 1.4 1 2.3.2.8.2 1.5.1 2.2-.1.7-.4 1.3-.8 1.8s-.8 1-1.3 1.4c-.5.4-1.1.8-1.9 1.2-.8.4-1.5.7-2.1.9-.6.2-1.3.5-2.2.7-.9.2-1.6.4-2.1.5-.5.1-1.1.2-1.9.4-.8.2-1.3.3-1.4.3l-2.4-12.6zm23.4 24.7c-.1.7-.4 1.3-.7 1.9-.3.6-.8 1.1-1.4 1.6-.6.5-1.2.9-1.8 1.3-.6.4-1.3.7-2.2 1.1-.9.4-1.6.6-2.3.9-.7.2-1.5.4-2.4.7-.9.2-1.7.4-2.2.5-.5.1-1.2.2-2 .4s-1.3.3-1.5.3l-3-14.1c.2 0 .9-.2 2-.5s2-.5 2.7-.6c.7-.1 1.7-.3 2.9-.5s2.3-.3 3.2-.3c.9 0 1.8.1 2.9.2s1.9.4 2.7.8c.7.4 1.4.9 1.9 1.6.6.7 1 1.5 1.2 2.5.1.8.2 1.5 0 2.2zm0 0"/><path class="st2" d="M23.1 302.4c-.6-.5-1.4-.8-2.3-.8 1-.8 1.4-2 .9-3.4-.2-.5-.4-.9-.7-1.3-.3-.3-.7-.6-1.2-.7-.5-.1-.9-.2-1.4-.3-.5 0-1.1 0-1.7.1l-.6-3-1.8.4.6 2.9c-.3.1-.8.2-1.4.3l-.6-2.9-1.8.4.6 3c-.3.1-.6.1-1.1.3l-2.5.5.4 1.9 1.3-.3c.6-.1 1 .1 1.2.6l.7 3.4h.2-.2l1 4.7c0 .4-.2.7-.6.7l-1.3.3.1 2.2 2.4-.5c.2 0 .4-.1.7-.1.3-.1.5-.1.6-.1l.6 3 1.8-.4-.6-3c.3-.1.8-.2 1.4-.3l.6 3 1.8-.4-.6-3c.6-.2 1.2-.3 1.7-.5s.9-.4 1.3-.7c.4-.3.8-.6 1-.9.2-.3.4-.7.5-1.2.1-.5.1-1 .1-1.6-.2-1-.5-1.8-1.1-2.3zm-9.2-3.6c.1 0 .2 0 .5-.1s.5-.1.6-.1c.2 0 .4-.1.7-.1.3 0 .5-.1.7-.1.2 0 .4 0 .7.1.3 0 .5.1.6.2.2.1.3.2.5.4.1.2.2.4.3.7 0 .2.1.4 0 .6 0 .2-.1.4-.2.5-.1.2-.2.3-.4.4-.1.1-.3.2-.5.3l-.6.3c-.2.1-.4.1-.6.2-.3.1-.5.1-.6.1-.1 0-.3.1-.5.1s-.4.1-.4.1l-.8-3.6zm6.6 7c0 .2-.1.4-.2.5-.1.2-.2.3-.4.5-.2.1-.3.3-.5.4l-.6.3c-.2.1-.5.2-.7.2-.2.1-.4.1-.7.2-.3.1-.5.1-.6.1-.2 0-.3.1-.6.1-.2 0-.4.1-.4.1l-.8-4c.1 0 .2-.1.6-.1.3-.1.6-.1.8-.2s.5-.1.8-.1c.4 0 .6-.1.9-.1.2 0 .5 0 .8.1.3 0 .6.1.8.2.2.1.4.3.6.5.2.2.3.4.3.7-.1.2 0 .4-.1.6zm0 0M-75.9 349.4c-.6-.5-1.4-.8-2.5-.8 1.1-.9 1.4-2.1 1-3.6-.2-.5-.4-1-.8-1.3-.3-.4-.8-.6-1.2-.8-.5-.2-1-.2-1.5-.3-.5 0-1.1 0-1.8.1l-.7-3.1-1.9.4.6 3.1c-.3.1-.8.2-1.5.3l-.6-3.1-1.9.4.7 3.1c-.3.1-.7.2-1.2.3l-2.7.5.4 2 1.4-.3c.6-.1 1.1.1 1.3.6l.8 3.6h.2-.2l1.1 5c0 .4-.2.7-.6.8l-1.4.3.1 2.4 2.5-.5c.2 0 .4-.1.7-.1.3-.1.5-.1.7-.1l.7 3.2 1.9-.4-.7-3.1c.4-.1.9-.2 1.5-.3l.7 3.1 1.9-.4-.7-3.2c.7-.2 1.3-.4 1.8-.6.5-.2 1-.5 1.4-.7.4-.3.8-.6 1.1-1 .3-.4.5-.8.6-1.3.1-.5.1-1 .1-1.6-.3-1.2-.7-2.1-1.3-2.6zm-9.8-3.8c.1 0 .2 0 .5-.1s.5-.1.7-.2c.2 0 .4-.1.7-.1.3 0 .6-.1.8-.1.2 0 .5 0 .7.1.3 0 .5.1.7.2.2.1.3.3.5.4.1.2.3.4.3.7 0 .2.1.5 0 .7 0 .2-.1.4-.2.6-.1.2-.3.3-.4.4-.1.1-.3.2-.6.4l-.6.3c-.2.1-.4.1-.7.2-.3.1-.5.1-.6.2-.1 0-.3.1-.6.1-.2 0-.4.1-.4.1l-.8-3.9zm7 7.4c0 .2-.1.4-.2.6-.1.2-.2.3-.4.5s-.4.3-.5.4c-.2.1-.4.2-.7.3-.3.1-.5.2-.7.3-.2.1-.4.1-.7.2-.3.1-.5.1-.7.2-.2 0-.4.1-.6.1-.2 0-.4.1-.5.1l-.9-4.2c.1 0 .3-.1.6-.1.3-.1.6-.1.8-.2.2 0 .5-.1.9-.1.4-.1.7-.1.9-.1.3 0 .5 0 .9.1s.6.1.8.2c.2.1.4.3.6.5.2.2.3.5.4.8.1 0 .1.2 0 .4zm0 0M664.3 349.1c-.6-.5-1.4-.8-2.5-.8 1.1-.9 1.4-2.1 1-3.6-.2-.5-.4-1-.8-1.3-.3-.4-.8-.6-1.2-.8-.5-.2-1-.2-1.5-.3-.5 0-1.1 0-1.8.1l-.7-3.1-1.9.4.6 3.1c-.3.1-.8.2-1.5.3l-.6-3.1-1.9.4.7 3.1c-.3.1-.7.2-1.2.3l-2.7.5.4 2 1.4-.3c.6-.1 1.1.1 1.3.6l.8 3.6h.2-.2l1.1 5c0 .4-.2.7-.6.8l-1.4.3.1 2.4 2.5-.5c.2 0 .4-.1.7-.1.3-.1.5-.1.7-.1l.7 3.2 1.9-.4-.7-3.1c.4-.1.9-.2 1.5-.3l.7 3.1 1.9-.4-.7-3.2c.7-.2 1.3-.4 1.8-.6.5-.2 1-.5 1.4-.7.4-.3.8-.6 1.1-1 .3-.4.5-.8.6-1.3.1-.5.1-1 .1-1.6-.3-1.2-.7-2.1-1.3-2.6zm-9.8-3.8c.1 0 .2 0 .5-.1s.5-.1.7-.2c.2 0 .4-.1.7-.1.3 0 .6-.1.8-.1.2 0 .5 0 .7.1.3 0 .5.1.7.2.2.1.3.3.5.4.1.2.3.4.3.7 0 .2.1.5 0 .7 0 .2-.1.4-.2.6-.1.2-.3.3-.4.4-.1.1-.3.2-.6.4l-.6.3c-.2.1-.4.1-.7.2-.3.1-.5.1-.6.2-.1 0-.3.1-.6.1-.2 0-.4.1-.4.1l-.8-3.9zm7 7.4c0 .2-.1.4-.2.6-.1.2-.2.3-.4.5s-.4.3-.5.4c-.2.1-.4.2-.7.3-.3.1-.5.2-.7.3-.2.1-.4.1-.7.2-.3.1-.5.1-.7.2-.2 0-.4.1-.6.1-.2 0-.4.1-.5.1l-.9-4.2c.1 0 .3-.1.6-.1.3-.1.6-.1.8-.2.2 0 .5-.1.9-.1.4-.1.7-.1.9-.1.3 0 .5 0 .9.1.3 0 .6.1.8.2.2.1.4.3.6.5.2.2.3.5.4.8.1 0 .1.2 0 .4zm0 0"/></g><g id="Layer_9"><path class="st1" d="M379-3.7c-42.8-.1-77.7 34.6-77.9 77.5-.2 42.9 34.3 77.9 77 78.3 44 .4 78.7-35.1 78.8-77.8 0-42.9-34.8-78-77.9-78z"/><path class="st3" d="M379 4.6c38.5-.1 69.7 31.4 69.6 69.7 0 38.1-31 69.9-70.4 69.5-38.2-.4-69-31.6-68.9-70 .2-38.3 31.4-69.3 69.7-69.2zm-47 105.3s0 .1-.1.1c.2.3.4.6.6.8 4.1 5.2 8.9 9.5 14.4 13.1 8.4 5.4 17.6 8.5 27.6 9.2 2.7.2 5.3.1 8 0 3.2-.1 6.3-.6 9.4-1.3 15-3.6 27-11.7 35.8-24.4 5.9-8.5 9.1-18 10.1-28.3 0-.4-.1-.6-.5-.6-3.1 0-6 .4-9 1.3-5.5 1.6-10.6 4.1-15.4 7.2-3.4 2.2-6.7 4.7-10.1 7-8.5 6-17.7 10.8-27.6 14-7 2.3-14.3 3.6-21.6 3.9-3.6.2-7.1.2-10.7-.3-3.1-.4-6.1-.9-9.2-1.4-.5 0-1.1-.2-1.7-.3zm106-36.5v-.6c0-.9 0-1.8-.1-2.7-.3-2.4-.6-4.7-.9-7.1 0-.4-.2-.4-.6-.4-4.2 0-8.4.7-12.5 1.9-6.4 1.8-12.3 4.7-18 8.1-4.2 2.5-8.1 5.5-12.1 8.3-7.4 5.3-15.3 9.5-24 12.2-5 1.6-10.2 2.6-15.4 2.9-2.5.2-5 .1-7.5 0s-5-.4-7.5-.8c-5.9-1-11.6-2.9-17.1-5.4-.2-.1-.3-.1-.5-.2v.3c1.2 4.5 3 8.9 5.3 13 .1.2.4.4.7.5 6.8 2.2 13.9 3.4 21 3.5 3 0 6-.1 8.9-.4 3.1-.3 6.2-.8 9.2-1.5 8.3-1.8 16-5 23.4-9.2 5-2.8 9.6-6 14.2-9.4 5.6-4.1 11.5-7.6 17.9-10.1 4.2-1.6 8.5-2.7 13.1-2.9h2.5zm-75.2-26.6c-.2-.1-.2-.2-.3-.3-2.6-2.6-5.7-4.1-9.4-4.4-4.6-.3-8.5 1.2-11.8 4.4-.3.3-.3.5 0 .9 3.1 3.6 7 5.5 11.8 5.5 3.8 0 7.1-1.4 10-4 .1-.1.2-.1.3-.2.1.2.2.3.3.5 4.2 6.2 7.1 12.9 8.8 20.1.8 3.3 1.3 6.7 1.6 10.1 0 .4.1.7-.4 1-6.9 3-14.2 4.9-21.8 5.1-4.2.1-8.4-.3-12.5-1.1-6.7-1.4-13-4.1-18.8-7.7l-.6-.3v.4c.2 1.9.3 3.8.5 5.7 0 .4.2.6.5.8 8.2 4.5 16.9 7.2 26.3 7.7 3.4.2 6.9.1 10.3-.4 4.5-.6 8.8-1.6 13.1-3.1 8.2-2.9 15.6-7.1 22.5-12.3 6.4-4.7 13-9 20.3-12.2 6.9-3 14.1-5.1 21.7-5.4.2 0 .4-.1.7-.1l-1.8-5.1c0-.1-.3-.2-.4-.2-1.6.2-3.3.3-4.9.5-5.1.8-10 2.2-14.7 4.1-8 3.2-15.4 7.6-22.4 12.7-4.3 3.2-8.6 6.2-13.4 8.6-.2.1-.4.2-.7.3-1.6-10.9-5.4-20.8-11.8-29.8.2.1.3.1.4.1 3 1.1 6 1.5 9.2 1 6.4-1.1 11-4.6 13.8-10.5.2-.4.1-.6-.3-.8-3.6-2.1-7.4-2.9-11.6-2.4-4.5.6-8.3 2.6-11.3 6.1-1.4 1.4-2.4 3-3.2 4.7z"/></g></svg>