<?xml version="1.0" encoding="utf-8"?>
<!-- Generator: Adobe Illustrator 22.0.1, SVG Export Plug-In . SVG Version: 6.00 Build 0)  -->
<svg version="1.1" xmlns="http://www.w3.org/2000/svg" xmlns:xlink="http://www.w3.org/1999/xlink" x="0px" y="0px"
	 viewBox="0 0 450 350" style="enable-background:new 0 0 450 350;" xml:space="preserve">
<style type="text/css">
	.st0{fill:#FFFFFF;}
	.st1{fill:none;stroke:#555E5B;stroke-width:4;stroke-miterlimit:10;}
	.st2{fill:#E4E4E4;stroke:#555E5B;stroke-width:4;stroke-miterlimit:10;}
	.st3{fill:#59BDE9;stroke:#555E5B;stroke-width:4;stroke-miterlimit:10;}
	.st4{fill:#FFFFFF;stroke:#555E5B;stroke-width:4;stroke-miterlimit:10;}
	.st5{fill:#F99F1C;}
	.st6{fill:#FFF581;}
	.st7{fill:#35A283;}
	.st8{fill:none;stroke:#FFFFFF;stroke-width:4;stroke-miterlimit:10;stroke-dasharray:2;}
	.st9{fill:none;stroke:#FFFFFF;stroke-width:4;stroke-miterlimit:10;}
</style>
<g id="Layer_12">
	<path class="st0" d="M159.9,157.2v11.4l-10.4,13.3c-16.1-6-39.2-18.3-39.2-18.3c-6.3-3.8-7.2-12.9-7.2-12.9v-20v-28.7
		c0-22.7-17.4-23.4-17.4-23.4v10.1c-4.3-3-8.7-3.2-8.7-3.2v16.9c-4.9-4.6-10.8-4.9-10.8-4.9v22.2c-4.3-3-8.7-3.2-8.7-3.2v62.2v7
		c0,25.3,32.5,36,48.9,43.9c16.4,7.9,16.7,19.6,16.7,19.6v21.8h55.9V137C160.2,137,159.9,157.2,159.9,157.2z"/>
	<path class="st1" d="M67.1,120.3V97.4c0,0,17.4,0.6,17.4,23.4v35.5"/>
	<path class="st1" d="M77.1,102.8V85.4c0,0,17.4,0.6,17.4,23.4v38.1"/>
	<path class="st1" d="M85.8,89V78.5c0,0,17.4,0.6,17.4,23.4v28.7v20c0,0,0.9,9.2,7.2,12.9c0,0,23.1,12.3,39.2,18.3l10.4-13.3v-11.4
		c0,0,0.3-20.2,19.3-20.2v133.9h-55.9v-21.8c0,0-0.3-11.7-16.7-19.6s-48.9-18.6-48.9-43.9v-7v-62.2c0,0,17.4,0.6,17.4,23.4v26.6"/>
	<line class="st1" x1="75" y1="180.4" x2="75" y2="170.3"/>
	<line class="st1" x1="84.5" y1="172.4" x2="84.5" y2="160.1"/>
	<line class="st1" x1="94.4" y1="156.2" x2="94.4" y2="149.5"/>
	<path class="st0" d="M276.3,137v133.9h55.9v-21.8c0,0,0.3-11.7,16.7-19.6c16.4-7.9,48.9-18.6,48.9-43.9v-7v-62.2
		c0,0-4.3,0.2-8.7,3.2V97.4c0,0-5.9,0.2-10.8,4.9V85.4c0,0-4.3,0.2-8.7,3.2V78.5c0,0-17.4,0.6-17.4,23.4v28.7v20
		c0,0-0.9,9.2-7.2,12.9c0,0-23.1,12.3-39.2,18.3l-10.4-13.3v-11.4C295.6,157.2,295.3,137,276.3,137z"/>
	<path class="st1" d="M388.4,120.3V97.4c0,0-17.4,0.6-17.4,23.4v35.5"/>
	<path class="st1" d="M378.4,102.8V85.4c0,0-17.4,0.6-17.4,23.4v38.1"/>
	<path class="st1" d="M369.7,89V78.5c0,0-17.4,0.6-17.4,23.4v28.7v20c0,0-0.9,9.2-7.2,12.9c0,0-23.1,12.3-39.2,18.3l-10.4-13.3
		v-11.4c0,0-0.3-20.2-19.3-20.2v133.9h55.9v-21.8c0,0,0.3-11.7,16.7-19.6c16.4-7.9,48.9-18.6,48.9-43.9v-7v-62.2
		c0,0-17.4,0.6-17.4,23.4v26.6"/>
	<line class="st1" x1="380.5" y1="180.4" x2="380.5" y2="170.3"/>
	<line class="st1" x1="371" y1="172.4" x2="371" y2="160.1"/>
	<line class="st1" x1="361.1" y1="156.2" x2="361.1" y2="149.5"/>
</g>
<g id="Layer_14">
	<rect x="261.2" y="265.2" class="st2" width="88.6" height="33.1"/>
	<rect x="106.9" y="265.2" class="st2" width="88.6" height="33.1"/>
	<polyline class="st3" points="94.4,346.9 94.4,286.9 205.7,286.9 205.7,346.9 	"/>
	<polyline class="st3" points="249.8,346.9 249.8,286.9 361.1,286.9 361.1,346.9 	"/>
	<circle class="st4" cx="115.7" cy="310.6" r="8.9"/>
	<circle class="st4" cx="340.9" cy="310.6" r="8.9"/>
</g>
<g id="Layer_15">
	<circle class="st5" cx="149" cy="104.4" r="7"/>
	<circle class="st6" cx="305.5" cy="114.6" r="9.4"/>
	<circle class="st7" cx="228" cy="66.4" r="61.6"/>
	<path class="st8" d="M174.5,66.4c0-29.6,24-53.5,53.5-53.5"/>
	<path class="st9" d="M228,12.9c29.6,0,53.5,24,53.5,53.5s-24,53.5-53.5,53.5s-53.5-24-53.5-53.5"/>
	<circle class="st5" cx="381.4" cy="17.8" r="7"/>
	<g>
		<g>
			<line class="st1" x1="130.7" y1="53.5" x2="135.9" y2="48.4"/>
			<line class="st1" x1="118.1" y1="66.2" x2="123.2" y2="61"/>
		</g>
		<g>
			<line class="st1" x1="130.7" y1="61" x2="135.9" y2="66.2"/>
			<line class="st1" x1="118.1" y1="48.4" x2="123.2" y2="53.5"/>
		</g>
	</g>
	<g>
		<g>
			<line class="st1" x1="331.7" y1="24.2" x2="336.9" y2="19"/>
			<line class="st1" x1="319.1" y1="36.8" x2="324.2" y2="31.7"/>
		</g>
		<g>
			<line class="st1" x1="331.7" y1="31.7" x2="336.9" y2="36.8"/>
			<line class="st1" x1="319.1" y1="19" x2="324.2" y2="24.2"/>
		</g>
	</g>
	<g>
		<path class="st0" d="M255.3,63.8c-2.2-1.9-5.1-2.9-8.8-3c4-3.2,5.1-7.5,3.5-12.8c-0.6-1.9-1.5-3.5-2.7-4.8
			c-1.2-1.3-2.7-2.2-4.4-2.7c-1.7-0.6-3.6-0.9-5.5-1c-1.9-0.1-4.1,0-6.5,0.3l-2.4-11.3l-6.9,1.4l2.3,11c-1.2,0.3-3,0.7-5.5,1.2
			l-2.3-11.1l-6.9,1.4l2.4,11.3c-1,0.2-2.4,0.6-4.3,1l-9.5,1.9l1.5,7.4l5-1c2.3-0.5,3.8,0.3,4.6,2.2l2.7,12.9
			c0.3-0.1,0.5-0.1,0.7-0.1l-0.7,0.2l3.8,18c0.1,1.6-0.6,2.5-2.1,2.8l-5,1l0.3,8.5l9-1.9c0.6-0.1,1.4-0.3,2.5-0.5
			c1.1-0.2,1.9-0.4,2.4-0.5l2.4,11.4l6.9-1.4l-2.4-11.3c1.3-0.2,3.1-0.6,5.5-1.1l2.4,11.3l6.9-1.4l-2.4-11.4c2.4-0.6,4.6-1.3,6.4-2
			c1.8-0.7,3.5-1.6,5.1-2.7c1.6-1.1,2.9-2.2,3.8-3.5c0.9-1.3,1.6-2.8,2.1-4.6c0.4-1.8,0.5-3.7,0.3-5.9
			C258.9,68.7,257.5,65.6,255.3,63.8L255.3,63.8z M220.2,50.2c0.2,0,0.8-0.2,1.8-0.4c1-0.2,1.8-0.4,2.4-0.6c0.6-0.1,1.5-0.3,2.6-0.4
			c1.1-0.1,2.1-0.2,2.8-0.2c0.8,0,1.7,0.1,2.6,0.2c1,0.2,1.8,0.4,2.4,0.8c0.6,0.4,1.2,0.9,1.8,1.6c0.5,0.7,0.9,1.5,1.1,2.5
			c0.2,0.8,0.2,1.6,0.1,2.4c-0.1,0.7-0.4,1.4-0.9,2c-0.4,0.6-0.9,1.1-1.4,1.6c-0.5,0.5-1.2,0.9-2,1.3c-0.8,0.4-1.6,0.7-2.2,1
			c-0.6,0.3-1.4,0.5-2.4,0.8c-1,0.3-1.7,0.4-2.2,0.6c-0.5,0.1-1.2,0.3-2.1,0.4c-0.9,0.2-1.4,0.3-1.6,0.3L220.2,50.2L220.2,50.2z
			 M245.5,76.8c-0.1,0.7-0.4,1.4-0.7,2c-0.3,0.6-0.8,1.2-1.5,1.7c-0.7,0.5-1.3,1-1.9,1.4c-0.6,0.4-1.4,0.8-2.4,1.1
			c-0.9,0.4-1.8,0.7-2.5,0.9c-0.7,0.2-1.6,0.5-2.6,0.7c-1,0.3-1.8,0.4-2.4,0.6c-0.6,0.1-1.3,0.3-2.2,0.4c-0.9,0.2-1.4,0.3-1.7,0.3
			l-3.2-15.2c0.2-0.1,0.9-0.2,2.1-0.5c1.2-0.3,2.1-0.5,2.9-0.6s1.8-0.3,3.1-0.5c1.3-0.2,2.5-0.3,3.4-0.3c0.9,0,2,0.1,3.1,0.2
			c1.1,0.2,2.1,0.4,2.9,0.8c0.8,0.4,1.5,1,2.1,1.7c0.6,0.7,1.1,1.7,1.3,2.7C245.6,75.3,245.6,76.1,245.5,76.8L245.5,76.8z
			 M245.5,76.8"/>
	</g>
</g>
<g id="Layer_13">
	<rect x="143.6" y="164.4" class="st4" width="168.4" height="80"/>
	<path class="st7" d="M304.6,223v-37.2c-6.3-2.2-11.3-7.1-13.7-13.3H164.8c-2.4,6.2-7.4,11.1-13.7,13.3V223
		c6.3,2.2,11.3,7.1,13.7,13.3h126.1C293.3,230.1,298.3,225.2,304.6,223z"/>
	<circle class="st0" cx="229" cy="206.2" r="22.7"/>
	<g>
		<circle class="st0" cx="275.9" cy="206.2" r="8"/>
		<circle class="st0" cx="182.1" cy="206.2" r="8"/>
	</g>
	<g>
		<path class="st7" d="M240.8,205c-0.9-0.8-2.1-1.2-3.6-1.2c1.6-1.3,2.1-3.1,1.4-5.3c-0.2-0.8-0.6-1.4-1.1-2
			c-0.5-0.5-1.1-0.9-1.8-1.1c-0.7-0.2-1.5-0.4-2.3-0.4c-0.8,0-1.7,0-2.7,0.1l-1-4.6l-2.8,0.6l0.9,4.5c-0.5,0.1-1.2,0.3-2.2,0.5
			l-1-4.5l-2.8,0.6l1,4.6c-0.4,0.1-1,0.2-1.8,0.4l-3.9,0.8l0.6,3l2-0.4c0.9-0.2,1.6,0.1,1.9,0.9l1.1,5.3c0.1,0,0.2,0,0.3,0l-0.3,0.1
			l1.5,7.4c0,0.6-0.3,1-0.9,1.2l-2,0.4l0.1,3.5l3.7-0.8c0.2,0,0.6-0.1,1-0.2c0.4-0.1,0.8-0.2,1-0.2l1,4.7l2.8-0.6l-1-4.6
			c0.5-0.1,1.3-0.2,2.2-0.5l1,4.6l2.8-0.6l-1-4.7c1-0.3,1.9-0.5,2.6-0.8c0.7-0.3,1.5-0.7,2.1-1.1c0.7-0.4,1.2-0.9,1.6-1.5
			c0.4-0.5,0.7-1.2,0.8-1.9c0.2-0.7,0.2-1.5,0.1-2.4C242.3,207,241.7,205.8,240.8,205L240.8,205z M226.4,199.4
			c0.1,0,0.3-0.1,0.7-0.2c0.4-0.1,0.7-0.2,1-0.2c0.3-0.1,0.6-0.1,1.1-0.2c0.5-0.1,0.8-0.1,1.2-0.1c0.3,0,0.7,0,1.1,0.1
			c0.4,0.1,0.7,0.2,1,0.3c0.3,0.2,0.5,0.4,0.7,0.7c0.2,0.3,0.4,0.6,0.5,1c0.1,0.3,0.1,0.7,0,1c-0.1,0.3-0.2,0.6-0.3,0.8
			c-0.2,0.2-0.4,0.4-0.6,0.6c-0.2,0.2-0.5,0.4-0.8,0.5c-0.3,0.2-0.6,0.3-0.9,0.4c-0.3,0.1-0.6,0.2-1,0.3c-0.4,0.1-0.7,0.2-0.9,0.2
			c-0.2,0.1-0.5,0.1-0.9,0.2c-0.4,0.1-0.6,0.1-0.6,0.1L226.4,199.4L226.4,199.4z M236.8,210.3c-0.1,0.3-0.2,0.6-0.3,0.8
			c-0.1,0.2-0.3,0.5-0.6,0.7c-0.3,0.2-0.5,0.4-0.8,0.6c-0.3,0.2-0.6,0.3-1,0.5c-0.4,0.2-0.7,0.3-1,0.4c-0.3,0.1-0.6,0.2-1.1,0.3
			c-0.4,0.1-0.7,0.2-1,0.2c-0.2,0-0.5,0.1-0.9,0.2c-0.4,0.1-0.6,0.1-0.7,0.1l-1.3-6.2c0.1,0,0.4-0.1,0.9-0.2
			c0.5-0.1,0.9-0.2,1.2-0.3c0.3-0.1,0.7-0.1,1.3-0.2c0.5-0.1,1-0.1,1.4-0.1c0.4,0,0.8,0,1.3,0.1c0.5,0.1,0.9,0.2,1.2,0.3
			c0.3,0.2,0.6,0.4,0.9,0.7c0.3,0.3,0.4,0.7,0.5,1.1C236.8,209.7,236.8,210,236.8,210.3L236.8,210.3z M236.8,210.3"/>
	</g>
</g>
<g id="Layer_5">
</g>
</svg>
