<svg xmlns="http://www.w3.org/2000/svg" viewBox="0 0 1140 350"><style>.st2{fill:#59bde9}.st4{fill:#fff}.st5{fill:#e4e4e4}.st6,.st7{fill:none;stroke:#555e5b;stroke-width:4;stroke-miterlimit:10}.st7{fill:#fff}.st9{fill:#f99f1c}.st10{fill:none;stroke:#555e5b;stroke-width:4;stroke-linecap:round;stroke-linejoin:round;stroke-miterlimit:10}.st13{fill:#fff581}.st14{fill:#35a283}.st16,.st21{fill:none;stroke:#555e5b;stroke-width:4;stroke-miterlimit:10}.st16{stroke-dasharray:4}.st21{stroke-linejoin:round}</style><g id="Layer_3"><path class="st2" d="M881.5 149.9c0 2.9-2.3 5.2-5.2 5.2s-5.2-2.3-5.2-5.2c0-2.9 2.3-5.2 5.2-5.2s5.2 2.3 5.2 5.2z"/><path fill="#59bde9" stroke="#555e5b" stroke-width="4" stroke-miterlimit="10" d="M876 184.2h-93.9v161.3H910V218.2z"/><path class="st4" d="M887.1 173.1h-93.9v161.4h127.9V207.1z"/><path class="st5" d="M793.2 173.1h83.5v97.8h-83.5z"/><path class="st6" d="M887.1 173.1h-93.9v161.4h127.9V207.1z"/><path class="st6" d="M921.1 207.3h-34.2v-34.2"/><path class="st7" d="M830.6 100.2h-93.8v161.4h127.8V134.2z"/><path class="st6" d="M864.6 134.4h-34.1v-34.2"/><path class="st7" d="M816.7 279.7h80.9m-80.9 8.2h80.9m-80.9 8.2h80.9m-80.9 8.2h59.6"/><path class="st5" d="M835.1 129.8v-18.5l18.5 18.5zm56.4 72.9v-18.5l18.5 18.5z"/><path d="M809.8 130.6l-15.7-18.3c.6-3 .9-6.1.9-9.3 0-27.8-22.5-50.3-50.3-50.3-27.8 0-50.3 22.5-50.3 50.3s22.5 50.3 50.3 50.3c17.1 0 32.2-8.5 41.3-21.6l23.8-1.1z" fill="#fff" stroke="#555e5b" stroke-width="4" stroke-linecap="round" stroke-linejoin="round" stroke-miterlimit="10"/><circle class="st9" cx="744.4" cy="102.6" r="40.4"/><path class="st7" d="M719.1 90.8H769M719.1 99H769m-49.9 8.2H769m-49.9 8.2h36.3"/><path class="st4" d="M770.1 268.1c0-3.6-2.9-6.4-6.5-6.4h-28.5v-21h14.1c15.1 0 15.2-14.5 15.2-14.5h-65.6l-14.9 12.7h-14.6v40.7h19.3l6.4 6.3h63.6c3.1 0 5.6-2.5 5.6-5.6s-2.5-5.6-5.6-5.6h5c3.6-.2 6.5-3.1 6.5-6.6z"/><path class="st10" d="M669.3 238.7h14.6l14.9-12.7h65.6s0 14.5-15.2 14.5H720s-.1 15.3-14.5 15.3m-36.2 23.6h19.4l6.4 6.3h49.1"/><path class="st10" d="M760.3 285.7h-25.4c-2.2 0-4-1.8-4-4v-3.1c0-2.2 1.8-4 4-4h25.4c2.2 0 4 1.8 4 4v3.1c0 2.2-1.8 4-4 4zm5.2-11.2h-33.1c-2.6 0-4.6-2.1-4.6-4.6v-3.6c0-2.6 2.1-4.6 4.6-4.6h33.1c2.6 0 4.6 2.1 4.6 4.6v3.6c0 2.5-2.1 4.6-4.6 4.6z"/><path fill="#e4e4e4" stroke="#555e5b" stroke-width="4" stroke-linecap="round" stroke-linejoin="round" stroke-miterlimit="10" d="M654.3 288.3h15v-58.4h-15"/><path fill="#fff581" stroke="#555e5b" stroke-width="4" stroke-linecap="round" stroke-linejoin="round" stroke-miterlimit="10" d="M633.6 295.3h20.7v-71.5h-20.7"/><path class="st13" d="M672.8 310.3c0 2.3-1.8 4.1-4.1 4.1s-4.1-1.8-4.1-4.1 1.8-4.1 4.1-4.1c2.2-.1 4.1 1.8 4.1 4.1z"/><circle class="st5" cx="757" cy="302.1" r="4.3"/><path class="st9" d="M657.3 202.3c0 2.1-1.7 3.8-3.8 3.8-2.1 0-3.8-1.7-3.8-3.8 0-2.1 1.7-3.8 3.8-3.8 2.1 0 3.8 1.7 3.8 3.8z"/><path class="st14" d="M699.3 149.9c0 3-2.5 5.5-5.5 5.5s-5.5-2.5-5.5-5.5 2.5-5.5 5.5-5.5c3.1 0 5.5 2.4 5.5 5.5z"/><path class="st6" d="M884.9 106.1l6.3-6.2m-21.5 21.5l6.2-6.2M884.9 115.2l6.3 6.2m-21.5-21.5l6.2 6.2M725.1 318.7l4.8-4.8m-16.5 16.4l4.8-4.7M725.1 325.6l4.8 4.7m-16.5-16.4l4.8 4.8"/><path class="st14" d="M798 161.2l9.3 18.8 20.7 3-15 14.6 3.5 20.6-18.5-9.7-18.5 9.7 3.5-20.6-15-14.6 20.7-3z"/></g><g id="Layer_4"><path class="st5" d="M490.8 228.9l3-3 3 3-3 3-3-3zm-5.9-5.9l3-3 3 3-3 3-3-3zm-5.9-5.9l3-3 3 3-3 3-3-3zm-5.9-5.9l3-3 3 3-3 3-3-3zm-5.9-5.9l3-3 3 3-3 3-3-3zm-5.9-6l3-3 3 3-3 3-3-3zm-5.9-5.9l3-3 3 3-3 3-3-3zm-6-5.9l3-3 3 3-3 3-3-3zm-5.9-5.9l3-3 3 3-3 3-3-3zm-5.9-5.9l3-3 3 3-3 3-3-3zm-5.9-5.9l3-3 3 3-3 3-3-3zm-5.9-5.9l3-3 3 3-3 3-3-3zm-5.9-6l3-3 3 3-3 3-3-3zM414 152l3-3 3 3-3 3-3-3zm-6-5.9l3-3 3 3-3 3-3-3zm-5.9-5.9l3-3 3 3-3 3-3-3zm-5.9-5.9l3-3 3 3-3 3-3-3zm-5.9-5.9l3-3 3 3-3 3-3-3zm-5.9-5.9l3-3 3 3-3 3-3-3zm-5.9-6l3-3 3 3-3 3-3-3zm-5.9-5.9l3-3 3 3-3 3-3-3zm-6-5.9l3-3 3 3-3 3-3-3zm-5.9-5.9l3-3 3 3-3 3-3-3zm-5.9-5.9l3-3 3 3-3 3-3-3zm-5.9-5.9l3-3 3 3-3 3-3-3zm-5.9-5.9l3-3 3 3-3 3-3-3z"/><path class="st4" d="M293.7 16.8L312 36.7c.2-.1 36.9-13.8 36.9-13.8l4.6 5.4-29.3 21.5L342 69.2l17.2-1.1 1.8 2.5-12.3 6c2.6 3.5-.9 8.1-4.9 6.6l-6 12.6-2.5-1.8.9-17.3c-19.4-17.8-10.8-9.9-18.8-17.3L295.6 89l-5.4-4.6 13.9-37.2c-.6-.5-21.3-19.5-21.8-20.1-2.7-3-5.9-10.7-3.1-13.6l.2-.2.2-.2c3-2.9 11.2.6 14.1 3.7z"/><path d="M333.1 95.1l.9-17.4-16.4-15.1-21.7 29.5-8.3-7 .5-1.4c.1-.3 11-29.3 13.4-35.9l-.1-.1c-20.3-18.6-20.6-19-20.8-19.2-3.2-3.6-7-12.4-3-16.5l.4-.4c1.2-1.2 3-1.8 5-1.8 4.4.1 9.7 2.9 12.2 5.4l17.3 18.9c6.6-2.5 35.5-13.3 35.5-13.3l1.4-.5 7 8.3-29.2 21.5L342.7 67l17.4-1.1 4 5.4-12.7 6.2c.5 1.8.1 3.8-1.1 5.4-1.3 1.8-3.4 2.7-5.4 2.6L338.5 99l-5.4-3.9zm11.3-13.8c1.5.5 2.3-.4 2.5-.7.2-.3.9-1.4 0-2.7l-1.5-2 11.2-5.5-15.6 1-20-21.8L350.4 28l-2.2-2.6c-6.7 2.5-35.3 13.2-35.5 13.3l-1.3.5-19.2-20.9c-1.8-1.9-6.1-4.1-9.2-4.1-.6 0-1.5.1-2 .5l-.4.4c-1.6 1.6.6 7.8 3.1 10.7.4.4 4.3 4 20.5 18.9l2.2 2-.5 1.3c-9.2 24.5-12.3 32.9-13.4 35.8l2.6 2.2L317 56.4l21.3 19.5-.8 15.6 5.2-10.9 1.7.7z" fill="#555e5b"/></g><g id="Layer_2"><path class="st4" d="M432.4 172.5c0-8.5-6.9-15.4-15.4-15.4H246.3c-14.5 0-15.3-15.4-15.3-15.4v152.2c0 8.5 6.9 15.4 15.4 15.4h177l9-136.8z"/><path class="st9" d="M432.4 172.5c0 8.5-6.9 15.4-15.4 15.4-2.4 0-4.8-.6-6.8-1.6v152.2c2.1 1 4.4 1.6 6.8 1.6 8.5 0 15.4-6.9 15.4-15.4V171.9"/><path class="st5" d="M253.2 157.1h-6.8c-8.5 0-15.4-6.9-15.4-15.4s6.9-15.4 15.4-15.4c2.4 0 4.8.6 6.8 1.6v29.2z"/><path class="st6" d="M432.4 171.9v152.8c0 8.5-6.9 15.4-15.4 15.4-2.4 0-4.8-.6-6.8-1.6V186.4c2.1 1 4.4 1.6 6.8 1.6 8.5 0 15.4-6.9 15.4-15.4s-6.9-15.4-15.4-15.4H246.4c-8.5 0-15.4-6.9-15.4-15.4s6.9-15.4 15.4-15.4c2.4 0 4.8.6 6.8 1.6v29.8"/><path class="st6" d="M409.5 309.3H246.4c-8.5 0-15.4-6.9-15.4-15.4V141.7"/><circle class="st2" cx="294.6" cy="236.6" r="9.2"/><circle class="st2" cx="294.6" cy="184.9" r="9.2"/><circle class="st2" cx="330.5" cy="236.6" r="9.2"/><circle class="st2" cx="366.5" cy="236.6" r="9.2"/><circle class="st2" cx="366.5" cy="284.2" r="9.2"/><path class="st16" d="M366.5 223.6v-16.3c0-10-8.1-18.2-18.2-18.2s-18.2 8.1-18.2 18.2v7.5m.8 34.7v13.8c0 10-8.1 18.2-18.2 18.2-10 0-18.2-8.1-18.2-18.2v-3.8"/><path class="st6" d="M360 257.2l6.5-6.5 6.5 6.5m-84.9 4.3l6.5-6.5 6.5 6.5m-13-56.3l6.5-6.6 6.5 6.6m35.7 6.8l-6.5 6.5-6.5-6.5"/><path class="st16" d="M294.6 204.4v20.3m71.9 31.5V272"/><path class="st13" d="M313.4 119.1l89.1 89.8v-89.8h-89.1zm73.8 53.3l-38.8-38.8h38.8v38.8z"/><path class="st6" d="M338.4 120.1v8.5m-8.9-8.5v4.2m17.8-4.2v4.2m9-4.2v8.5m8.9-8.5v4.2m8.9-4.2v8.5m9-8.5v4.2m8.9-4.2v4.2m9.1 16.2h-8.6m8.6-8.9h-4.3m4.3 17.8h-4.3m4.3 9h-8.6m8.6 8.9h-4.3m4.3 8.9h-8.6m8.6 9h-4.3m4.3 8.9h-4.3m-83.4-75l89.1 89.8v-89.8h-89.1zm73.8 53.3l-38.8-38.8h38.8v38.8z"/><path class="st9" d="M389.7 323H381v13.5h8.7c2 0 3.6-1.6 3.6-3.6v-6.2c.1-2.1-1.6-3.7-3.6-3.7z"/><path class="st4" d="M271.3 329.7l18.1 6.7V323z"/><path class="st2" d="M289.4 323H381v13.5h-91.6z"/><path class="st6" d="M289.4 336.4h100.3c2 0 3.6-1.6 3.6-3.6v-6.2c0-2-1.6-3.6-3.6-3.6H289.4l-18.1 6.7 18.1 6.7zm0 0V323m91.6.5v12.4m-91.6-6.2H381M235.9 320.6l3.3-3.3m-11.3 11.3l3.3-3.2M235.9 325.4l3.3 3.2m-11.3-11.3l3.3 3.3M291.4 133.6l3.3-3.3m-11.3 11.3l3.3-3.3M291.4 138.3l3.3 3.3m-11.3-11.3l3.3 3.3"/><path class="st7" d="M216.1 186.3h60.6v79.8h-60.6z"/><g><path class="st6" d="M222.2 214.4h11.4v11.4h-11.4zm18.5 0h11.4v11.4h-11.4zm18.5 0h11.4v11.4h-11.4z"/><path fill="#f99f1c" stroke="#555e5b" stroke-width="4" stroke-miterlimit="10" d="M222.2 192.4h48.4v15.5h-48.4z"/><path class="st6" d="M222.2 231.5h11.4v11.4h-11.4zm18.5 0h11.4v11.4h-11.4zm18.5 0h11.4v11.4h-11.4zM222.2 248.7h11.4v11.4h-11.4zm18.5 0h11.4v11.4h-11.4zm18.5 0h11.4v11.4h-11.4z"/><path fill="#f89e1c" stroke="#555e5b" stroke-width="4" stroke-miterlimit="10" stroke-dasharray="4" d="M227 200.1h39.5"/></g></g><g id="Layer_5"><path class="st6" d="M413.8 79.6l5.6-5.6m-19.3 19.3l5.6-5.6m8.1 0l5.6 5.6M400.1 74l5.6 5.6m87.2 226.6l5.6-5.6m-19.3 19.3l5.6-5.6m8.1 0l5.6 5.6m-19.3-19.3l5.6 5.6"/><path class="st9" d="M185.6 224c0 3.9-3.1 7-7 7s-7-3.1-7-7 3.1-7 7-7 7 3.1 7 7z"/><circle class="st13" cx="674.2" cy="30.6" r="5.2"/><path class="st13" d="M445.7 146c0 2.1-1.7 3.9-3.9 3.9s-3.9-1.7-3.9-3.9 1.7-3.9 3.9-3.9 3.9 1.8 3.9 3.9z"/><path class="st5" d="M449.3 44.7c0 3.9-3.1 7-7 7s-7-3.1-7-7 3.1-7 7-7 7 3.2 7 7z"/><path class="st2" d="M474.2 250.7c0 3.9-3.1 7-7 7s-7-3.1-7-7 3.1-7 7-7 7 3.1 7 7z"/><path d="M571.8 8.6v24.9m16.8-12.4l-2.4 13.6m18.7-9.3l-4.7 13.1m25.5-15.4l-12.4 21.5m20.8-2.4l-8.9 10.7m20.8 1.3l-10.6 8.9m29.8-.6l-21.5 12.4m19.1 8.4l-13 4.8m17.4 11.5l-13.7 2.4m26.1 14.4h-24.8m12.4 16.8l-13.7-2.4m9.3 18.7l-13-4.7m15.4 25.5l-21.5-12.4m2.3 20.8l-10.6-8.9m-137.8 8.9l10.7-8.9m-29.8.5l21.5-12.4m-19.2-8.4l13.1-4.7m-17.4-11.6l13.6-2.4M464 116.4h24.9m-12.4-16.8l13.6 2.4m-9.3-18.7l13.1 4.8m-15.4-25.6L500 74.9m-2.4-20.7l10.7 8.9m1.3-20.9l8.9 10.7m-.6-29.8l12.4 21.5m8.4-19.2l4.8 13.1M555 21.1l2.4 13.6" stroke-linecap="round" fill="none" stroke="#555e5b" stroke-width="4" stroke-miterlimit="10"/><path class="st4" d="M607.1 236.1s11.5-56.4 26.8-80.9c12.5-20 15.6-46.4 3.2-73.1-6.4-13.9-17.6-24.9-31.6-31.2-11.5-5.2-22.9-7.6-33.7-7.6-10.8 0-22.3 2.4-33.7 7.6-13.9 6.3-25.1 17.2-31.6 31.1-12.4 26.7-9.3 53.2 3.2 73.1 15.3 24.5 26.8 80.9 26.8 80.9h70.6z"/><path d="M534.2 218.5c1 5.8 1.8 11.6 2.3 17.5h70.6c.5-5.9 1.3-11.7 2.4-17.5h-75.3z" fill="#dc1767"/><ellipse transform="matrix(.9219 -.3873 .3873 .9219 .7193 230.3275)" class="st13" cx="571.8" cy="113.4" rx="51.9" ry="51.9"/><path class="st14" d="M536.5 236.1V289l.1.2c5.2-.1 9.6-3.5 11.1-8.2.4-1.1.6-2.4.6-3.6v-41.3h-11.8zm35.3 0v41.3c0 6.5 5.3 11.8 11.8 11.8 3.4 0 6.5-1.5 8.6-3.8 1.1-1.2 2-2.6 2.5-4.1.4-1.2.7-2.5.7-3.9v-41.3h-23.6z"/><path class="st14" d="M548.3 236.1v41.3c0 1.4.2 2.7.7 3.9.5 1.5 1.4 2.9 2.5 4.1 2.1 2.3 5.2 3.8 8.6 3.8 6.5 0 11.8-5.3 11.8-11.8v-41.3h-23.6zm47.1 0v41.3c0 1.3.2 2.5.6 3.6 1.5 4.7 5.9 8.1 11.1 8.2l.1-.2v-52.9h-11.8z"/><path class="st2" d="M557.3 322.6l14.5 23.4 14.6-23.4z"/><path class="st4" d="M602.9 113.4c0 8.6-7 15.5-15.5 15.5-8.6 0-15.5-7-15.5-15.5 0-8.6 7-15.5 15.5-15.5 8.6-.1 15.5 6.9 15.5 15.5zm-31.1 0c0 8.6-7 15.5-15.5 15.5-8.6 0-15.5-7-15.5-15.5 0-8.6 7-15.5 15.5-15.5 8.6-.1 15.5 6.9 15.5 15.5z"/><path class="st5" d="M571.8 282.3l-3.1 3.8-7.7 3-5.3-.4-4.9-3.5-2.1-2.9h-.9l-1.6 2.4-3.2 2.3-3.4 1.6-1.5 1.3.7 3.1 19 30.5h27.4l21.1-33-3.8-1.3-4.6-3.9-1.6-2.4-1-.5-4.3 3.6-3.2 2.5-5.3.7-3.4-.7s-3.4-1.8-3.7-2.4c-.1-.7-3.6-3.8-3.6-3.8z"/><path class="st21" d="M571.9 346l35.3-56.8V236c.8-42.5 21.4-72.3 21.4-72.3 17.7-27.7 16.6-49.5 16.6-49.5 0-39.3-32.8-71.2-73.2-71.2h-.1c-40.4 0-73.2 31.9-73.2 71.2 0 0-1.1 21.8 16.6 49.5 0 0 20.6 29.8 21.4 72.3v53.3l35.2 56.7zm-35.3-127.1h70.6M536.6 236h70.6m-48.5 86.8h26.6"/><path class="st21" d="M536.6 289.2c5.2-.1 9.6-3.5 11.1-8.2.4-1.1.6-2.4.6-3.6v-41.3m23.5 0v41.3c0 6.5 5.3 11.8 11.8 11.8 3.4 0 6.5-1.5 8.6-3.8 1.1-1.2 2-2.6 2.5-4.1.4-1.2.7-2.5.7-3.9v-41.3"/><path class="st21" d="M548.3 236.1v41.3c0 1.4.2 2.7.7 3.9.5 1.5 1.4 2.9 2.5 4.1 2.1 2.3 5.2 3.8 8.6 3.8 6.5 0 11.8-5.3 11.8-11.8v-41.3m23.5 0v41.3c0 1.3.2 2.5.6 3.6 1.5 4.7 5.9 8.1 11.1 8.2"/><circle class="st21" cx="556.3" cy="113.8" r="15.6"/><circle class="st21" cx="587.5" cy="113.8" r="15.6"/><path class="st21" d="M571.8 113.8v105.1"/></g></svg>