<svg xmlns="http://www.w3.org/2000/svg" viewBox="0 0 370 350"><style>.st0,.st1{fill:#fff;stroke:#555e5b;stroke-width:4;stroke-miterlimit:10}.st1{fill:none}.st2{fill:#555e5b}.st6{fill:#fff581}.st7{fill:#fff}.st8{fill:none;stroke-width:3}.st12,.st13,.st8,.st9{stroke:#555e5b;stroke-miterlimit:10}.st9{stroke-dasharray:3.1387,3.1387;fill:none;stroke-width:3}.st12,.st13{fill:#fff581;stroke-width:4}.st13{fill:#f99f1c}</style><g id="Layer_10"><path class="st0" d="M299.7 66.2h25.6v12h-25.6zM254.4 15.6H280v12h-25.6zM268 3.6h12v12h-12z"/><path class="st1" d="M325.4 295v-7.8M325.4 313.9v-7.7M331 300.6h7.8M312.1 300.6h7.7"/><path class="st2" d="M313.8 209.2l-10-25-10.1 25 10.1-6.6z"/><path class="st1" d="M275.3 279.7h2"/><path fill="none" stroke="#555e5b" stroke-width="4" stroke-miterlimit="10" stroke-dasharray="3.5,3.5" d="M280.8 279.7H300"/><path class="st1" d="M301.8 279.7h2v-2"/><path fill="none" stroke="#555e5b" stroke-width="4" stroke-miterlimit="10" stroke-dasharray="3.983,3.983" d="M303.8 273.7V204"/><path class="st1" d="M303.8 202v-2"/><path class="st2" d="M47.2 179l-10-25.1L27.1 179l10.1-6.6z"/><path fill="none" stroke="#555e5b" stroke-width="3" stroke-miterlimit="10" stroke-dasharray="3" d="M37.2 211.6v-41.8"/><path transform="rotate(-45 37.1468866 125.6269596)" class="st6" d="M26 114.5h22.3v22.3H26z"/><path transform="rotate(-45 334.8977839 111.371038)" class="st6" d="M323.7 100.2H346v22.3h-22.3z"/><path class="st6" d="M55.8 305.1h31.1v31.1H55.8z"/><g><path class="st7" d="M39 322.2h25v25H39z"/><path class="st8" d="M64 345.7v1.5h-1.5"/><path class="st9" d="M59.4 347.2H42.1"/><path class="st8" d="M40.5 347.2H39v-1.5"/><path class="st9" d="M39 342.5v-17.2"/><path class="st8" d="M39 323.7v-1.5h1.5"/><path class="st9" d="M43.7 322.2h17.2"/><path class="st8" d="M62.5 322.2H64v1.5"/><path class="st9" d="M64 326.8v17.3"/></g><g><path class="st7" d="M281.2 70.5h25v25h-25z"/><path class="st8" d="M306.2 94v1.5h-1.5"/><path class="st9" d="M301.5 95.5h-17.2"/><path class="st8" d="M282.7 95.5h-1.5V94"/><path class="st9" d="M281.2 90.9V73.6"/><path class="st8" d="M281.2 72v-1.5h1.5"/><path class="st9" d="M285.8 70.5h17.3"/><path class="st8" d="M304.7 70.5h1.5V72"/><path class="st9" d="M306.2 75.2v17.2"/></g><g><path class="st7" d="M234.5 19.1h25v25h-25z"/><path class="st8" d="M259.5 42.6v1.5H258"/><path class="st9" d="M254.9 44.1h-17.3"/><path class="st8" d="M236 44.1h-1.5v-1.5"/><path class="st9" d="M234.5 39.4V22.2"/><path class="st8" d="M234.5 20.6v-1.5h1.5"/><path class="st9" d="M239.2 19.1h17.2"/><path class="st8" d="M258 19.1h1.5v1.5"/><path class="st9" d="M259.5 23.7V41"/></g><path class="st6" d="M225.6 36.7h21.5v21.5h-21.5z"/><path fill="#fff" stroke="#555e5b" stroke-width="3" stroke-miterlimit="10" stroke-dasharray="3" d="M59.9 209.2h20.4"/></g><g id="Layer_8"><path class="st0" d="M257.2 325.1H115.3c-5.5 0-10-4.5-10-10V62.7c0-5.5 4.5-10 10-10h141.9c5.5 0 10 4.5 10 10v252.4c0 5.5-4.5 10-10 10z"/><path class="st6" d="M120.8 85h131.4v36.4H120.8z"/><path fill="#35a283" d="M120.8 121.6h131.4v166.3H120.8z"/><path class="st1" d="M120.8 85h131.4v203H120.8z"/><path class="st12" d="M149.2 211.6h74.9V225h-74.9zM149.2 245.8h74.9v13.4h-74.9zM149.2 143.3h74.9v13.4h-74.9zM149.2 177.5h74.9v13.4h-74.9z"/><path class="st1" d="M122.1 121.4h127.4"/><g><path class="st8" d="M133 97.6h15.2M133 102.8h15.2M133 107.9h15.2"/></g><path class="st0" d="M161.5 305.1h50.1"/></g><g id="Layer_9"><circle class="st13" cx="105.2" cy="201.7" r="7.5"/><circle class="st13" cx="105.2" cy="156.5" r="7.5"/><circle class="st13" cx="105.2" cy="111.4" r="7.5"/><circle class="st13" cx="267.7" cy="279.7" r="7.5"/></g><g id="Layer_7"><path class="st7" d="M204 112.6h126.4v54.5H204z"/><path fill="#6acef5" d="M204 112.6h20.2v21.9H204z"/><path class="st1" d="M204 134.5h20.1v-20.4M239.3 127.7h65.6M239.3 138.4h65.6M239.3 149h65.6"/><path class="st1" d="M204 112.6h126.4v54.5H204z"/><path class="st7" d="M37.1 233.5h126.4V288H37.1z"/><path class="st6" d="M37.1 233.5h20.2v21.9H37.1z"/><path class="st1" d="M37.1 255.3h20.2V235"/><g><path class="st1" d="M72.5 248.6h65.6M72.5 259.2h65.6M72.5 269.9h65.6"/></g><path class="st1" d="M37.1 233.5h126.4V288H37.1z"/></g></svg>