<svg xmlns="http://www.w3.org/2000/svg" viewBox="0 0 720 550"><style>.st3,.st4{fill:#fff;stroke:#555e5b;stroke-width:4;stroke-miterlimit:10}.st4{fill:none}.st5{fill:#e4e4e4}.st7{fill:#f99f1c}.st8{fill:#fff}.st9{fill:none;stroke:#555e5b;stroke-width:4;stroke-linecap:round;stroke-linejoin:round;stroke-miterlimit:10}.st12{fill:#fff581}.st13{fill:#35a283}.st15{fill:#59bde9}.st16,.st19{fill:none;stroke:#555e5b;stroke-width:4;stroke-miterlimit:10}.st16{stroke-dasharray:4}.st19{stroke-linejoin:round}</style><g id="Layer_3"><path fill="#59bde9" stroke="#555e5b" stroke-width="4" stroke-miterlimit="10" d="M863.5 288.3H713.4v258h204.4V342.6z"/><path class="st3" d="M790.9 154.1H640.8v258h204.5V208.4z"/><path class="st4" d="M845.3 208.7h-54.6v-54.6"/><path class="st5" d="M798.1 201.3v-29.5l29.5 29.5z"/><path d="M757.6 202.7l-25.1-29.3c.9-4.8 1.4-9.8 1.4-14.9 0-44.4-36-80.5-80.5-80.5-44.4 0-80.5 36-80.5 80.5s36 80.5 80.5 80.5c27.3 0 51.5-13.6 66-34.5l38.2-1.8z" fill="#fff" stroke="#555e5b" stroke-width="4" stroke-linecap="round" stroke-linejoin="round" stroke-miterlimit="10"/><circle class="st7" cx="653.1" cy="157.8" r="64.5"/><path class="st3" d="M612.5 139h79.9m-79.9 13h79.9m-79.9 13.1h79.9m-79.9 13.1h58.2"/><path class="st8" d="M694.1 422.4c0-5.7-4.6-10.3-10.3-10.3h-45.6v-33.6h22.6c24.2 0 24.2-23.2 24.2-23.2H580.2l-23.8 20.2H533v65.1h30.9l10.3 10.1h101.6c5 0 9-4 9-9s-4-9-9-9h8c5.7 0 10.3-4.6 10.3-10.3z"/><path class="st9" d="M533 375.5h23.3l23.8-20.2H685s0 23.2-24.2 23.2h-46.7s-.2 24.5-23.2 24.5M533 440.6h30.9l10.3 10.1h78.6"/><path class="st9" d="M680.8 450.7h-45.5c-2.2 0-4-1.8-4-4v-9.9c0-2.2 1.8-4 4-4h45.5c2.2 0 4 1.8 4 4v9.9c0 2.2-1.8 4-4 4zm8.7-18h-58.6c-2.6 0-4.6-2.1-4.6-4.6v-11.3c0-2.6 2.1-4.6 4.6-4.6h58.6c2.6 0 4.6 2.1 4.6 4.6v11.3c0 2.5-2 4.6-4.6 4.6z"/><path fill="#e4e4e4" stroke="#555e5b" stroke-width="4" stroke-linecap="round" stroke-linejoin="round" stroke-miterlimit="10" d="M509 454.7h24v-93.2h-24"/><path fill="#fff581" stroke="#555e5b" stroke-width="4" stroke-linecap="round" stroke-linejoin="round" stroke-miterlimit="10" d="M475.9 465.9H509V351.6h-33.1"/><path class="st12" d="M538.5 489.9c0 3.6-3 6.6-6.6 6.6-3.6 0-6.6-3-6.6-6.6 0-3.6 3-6.6 6.6-6.6 3.6 0 6.6 2.9 6.6 6.6z"/><circle class="st5" cx="673.3" cy="476.8" r="6.9"/><path class="st7" d="M513.8 317.3c0 3.4-2.7 6.1-6.1 6.1-3.4 0-6.1-2.7-6.1-6.1 0-3.4 2.7-6.1 6.1-6.1 3.4 0 6.1 2.7 6.1 6.1z"/><path class="st13" d="M581 233.4c0 4.8-3.9 8.8-8.8 8.8-4.8 0-8.8-3.9-8.8-8.8 0-4.8 3.9-8.8 8.8-8.8 4.8 0 8.8 4 8.8 8.8z"/><path class="st4" d="M877.8 163.5l9.9-10m-34.4 34.4l10-10M877.8 177.9l9.9 10m-34.4-34.4l10 10M622.2 503.3l7.7-7.6M603.5 522l7.6-7.6M622.2 514.4l7.7 7.6m-26.4-26.3l7.6 7.6"/><path class="st13" d="M738.7 251.5l14.9 30 33.1 4.8-24 23.4 5.7 33-29.7-15.6-29.6 15.6 5.7-33-24-23.4 33.1-4.8z"/></g><g id="Layer_4"><path class="st5" d="M247.6 359.8l4.7-4.7 4.7 4.7-4.7 4.7-4.7-4.7zm-9.4-9.4l4.7-4.7 4.7 4.7-4.7 4.7-4.7-4.7zm-9.5-9.5l4.7-4.7 4.7 4.7-4.7 4.7-4.7-4.7zm-9.5-9.5l4.7-4.7 4.7 4.7-4.7 4.7-4.7-4.7zm-9.4-9.4l4.7-4.7 4.7 4.7-4.7 4.7-4.7-4.7zm-9.5-9.5l4.7-4.7 4.7 4.7-4.7 4.7-4.7-4.7zm-9.4-9.4l4.7-4.7 4.7 4.7-4.7 4.7-4.7-4.7zm-9.5-9.5l4.7-4.7 4.7 4.7-4.7 4.7-4.7-4.7zm-9.4-9.4l4.7-4.7 4.7 4.7-4.7 4.7-4.7-4.7zm-9.5-9.5l4.7-4.7 4.7 4.7-4.7 4.7-4.7-4.7zm-9.5-9.5l4.7-4.7 4.7 4.7-4.7 4.7-4.7-4.7zm-9.4-9.4l4.7-4.7 4.7 4.7-4.7 4.7-4.7-4.7zm-9.5-9.5l4.7-4.7 4.7 4.7-4.7 4.7-4.7-4.7zm-9.4-9.4l4.7-4.7 4.7 4.7-4.7 4.7-4.7-4.7zm-9.5-9.5l4.7-4.7 4.7 4.7-4.7 4.7-4.7-4.7zm-9.4-9.4l4.7-4.7 4.7 4.7-4.7 4.7-4.7-4.7zm-9.5-9.5l4.7-4.7 4.7 4.7-4.7 4.7-4.7-4.7zm-9.5-9.5l4.7-4.7 4.7 4.7-4.7 4.7-4.7-4.7zm-9.4-9.4l4.7-4.7 4.7 4.7-4.7 4.7-4.7-4.7zm-9.5-9.5l4.7-4.7 4.7 4.7-4.7 4.7-4.7-4.7zm-9.4-9.4l4.7-4.7 4.7 4.7-4.7 4.7-4.7-4.7zm-9.5-9.5l4.7-4.7 4.7 4.7-4.7 4.7-4.7-4.7zm-9.4-9.4l4.7-4.7 4.7 4.7-4.7 4.7-4.7-4.7zm-9.5-9.5l4.7-4.7 4.7 4.7-4.7 4.7-4.7-4.7zm-9.5-9.4l4.7-4.7 4.7 4.7-4.7 4.7-4.7-4.7zm-9.4-9.5l4.7-4.7 4.7 4.7-4.7 4.7-4.7-4.7z"/><path class="st8" d="M-67.6 20.7l29.2 31.8c.3-.1 58.9-22 58.9-22l7.3 8.7L-19 73.6l28.5 31 27.5-1.7 2.9 4-19.7 9.6c4.1 5.6-1.4 12.9-7.8 10.6l-9.6 20.1-4-2.9 1.4-27.6C-30.9 88-17 100.8-29.9 88.9l-34.8 47.3-8.7-7.3 22.2-59.5c-1-.9-34-31.2-34.9-32.1-4.3-4.8-9.4-17.1-4.9-21.7l.3-.3.3-.3c5-4.9 18.1.7 22.8 5.7z"/><path d="M-4.7 145.9l1.4-27.9-26.2-24.1-34.7 47.2-13.2-11.1.8-2.2c.2-.5 17.5-46.8 21.4-57.4l-.2-.2c-32.4-29.7-33-30.4-33.3-30.7-5.1-5.7-11.2-19.8-4.7-26.3l.7-.7c1.9-1.9 4.7-2.9 8-2.8 7 .1 15.6 4.6 19.4 8.7l27.7 30.2c10.5-3.9 56.8-21.2 56.8-21.2l2.2-.8 11.1 13.2L-14 74.1l24.8 27.1 27.7-1.7 6.4 8.7-20.3 9.8c.8 2.9.2 6.1-1.7 8.7-2.1 2.8-5.4 4.3-8.7 4.1L4 152.1l-8.7-6.2zm18.1-22.1c2.3.8 3.7-.7 4.1-1.2.4-.5 1.4-2.2-.1-4.2l-2.4-3.2 17.9-8.7L8 108l-32-34.9 47-34.5-3.5-4.1c-10.7 4-56.4 21.1-56.7 21.2l-2.1.8L-70 23c-2.9-3-9.8-6.5-14.7-6.6-1 0-2.4.1-3.2.9l-.7.7c-2.5 2.5.9 12.5 4.9 17.1.6.6 6.8 6.4 32.9 30.3l3.5 3.2-.8 2.1c-14.6 39.2-19.7 52.6-21.4 57.3l4.1 3.5 34.9-47.4 34 31.3-1.3 25 8.3-17.4 2.9.8z" fill="#555e5b"/></g><g id="Layer_2"><path class="st8" d="M154.1 269.7c0-13.6-11-24.7-24.7-24.7h-272.9c-23.2 0-24.5-24.7-24.5-24.7v243.3c0 13.6 11 24.7 24.7 24.7h283.1l14.3-218.6z"/><path class="st7" d="M154.1 269.7c0 13.6-11 24.7-24.7 24.7-3.9 0-7.6-.9-10.9-2.5v243.3c3.3 1.6 7 2.5 10.9 2.5 13.6 0 24.7-11 24.7-24.7V268.6"/><path class="st5" d="M-132.4 245h-10.8c-13.6 0-24.7-11-24.7-24.7 0-13.6 11-24.7 24.7-24.7 3.9 0 7.6.9 10.9 2.5v43.6l-.1 3.3z"/><path class="st4" d="M154.1 268.6V513c0 13.6-11 24.7-24.7 24.7-3.9 0-7.6-.9-10.9-2.5V291.8c3.3 1.6 7 2.5 10.9 2.5 13.6 0 24.7-11 24.7-24.7 0-13.6-11-24.7-24.7-24.7h-272.7c-13.6 0-24.7-11-24.7-24.7 0-13.6 11-24.7 24.7-24.7 3.9 0 7.6.9 10.9 2.5v47.6"/><path class="st4" d="M117.5 488.3h-260.8c-13.6 0-24.7-11-24.7-24.7V220.3"/><circle class="st15" cx="-66.2" cy="372" r="14.7"/><circle class="st15" cx="-66.2" cy="289.4" r="14.7"/><circle class="st15" cx="-8.7" cy="372" r="14.7"/><circle class="st15" cx="48.8" cy="372" r="14.7"/><circle class="st15" cx="48.8" cy="448.2" r="14.7"/><path class="st16" d="M48.8 351.3v-26c0-16.1-13-29.1-29.1-29.1s-29.1 13-29.1 29.1v12m1.3 55.4v22c0 16.1-13 29.1-29.1 29.1s-29.1-13-29.1-29.1v-6.1"/><path class="st4" d="M38.4 405.1l10.4-10.5 10.4 10.5m-135.8 6.8l10.4-10.4 10.4 10.4m-20.8-90.1l10.4-10.4 10.4 10.4m57.1 11l-10.4 10.4-10.4-10.4"/><path class="st16" d="M-66.2 320.6v32.5m115 50.3v25.2"/><path class="st12" d="M-36.1 184.2l142.4 143.6V184.2H-36.1zm117.9 85.3l-62.1-62.1h62.1v62.1z"/><path class="st4" d="M3.8 185.7v13.7m-14.2-13.7v6.9m28.5-6.9v6.9m14.3-6.9v13.7m14.3-13.7v6.9m14.3-6.9v13.7m14.3-13.7v6.9m14.2-6.9v6.9m14.5 25.8H90.4m13.6-14.2h-6.8m6.8 28.5h-6.8M104 247H90.4m13.6 14.3h-6.8m6.8 14.3H90.4m13.6 14.3h-6.8m6.8 14.2h-6.8M-36.1 184.2l142.4 143.6V184.2H-36.1zm117.9 85.3l-62.1-62.1h62.1v62.1z"/><path class="st7" d="M85.9 510.2H72v21.5h13.9c3.2 0 5.8-2.6 5.8-5.8V516c0-3.2-2.6-5.8-5.8-5.8z"/><path class="st8" d="M-103.4 521l28.9 10.7v-21.5z"/><path class="st15" d="M-74.5 510.2H72v21.5H-74.5z"/><path class="st4" d="M-74.5 531.7H85.9c3.2 0 5.8-2.6 5.8-5.8V516c0-3.2-2.6-5.8-5.8-5.8H-74.5l-28.9 10.8 28.9 10.7zm0 0v-21.5m146.5.9v19.8M-74.5 521H72M-160 506.4l5.3-5.2m-18.1 18.1l5.2-5.3M-160 514l5.3 5.3m-18.1-18.1l5.2 5.2"/><g><path class="st4" d="M-71.2 207.4l5.2-5.3m-18.1 18.1l5.2-5.2M-71.2 215l5.2 5.2m-18.1-18.1l5.2 5.3"/></g></g><g id="Layer_5"><path class="st4" d="M124.4 121l9-8.9m-30.9 30.8l9-8.9m12.9 0l9 8.9m-30.9-30.8l9 8.9m139.4 362.3l9-8.9M229 505.3l9-9m12.9 0l9 9M229 474.4l9 8.9"/><circle class="st12" cx="540.8" cy="42.7" r="8.3"/><path class="st12" d="M175.4 227.2c0 3.4-2.8 6.2-6.2 6.2-3.4 0-6.2-2.8-6.2-6.2 0-3.4 2.8-6.2 6.2-6.2 3.4.1 6.2 2.8 6.2 6.2z"/><path class="st5" d="M181.3 65.3c0 6.2-5 11.2-11.2 11.2-6.2 0-11.2-5-11.2-11.2 0-6.2 5-11.2 11.2-11.2 6.1 0 11.2 5 11.2 11.2z"/><path class="st15" d="M221 394.6c0 6.2-5 11.2-11.2 11.2-6.2 0-11.2-5-11.2-11.2 0-6.2 5-11.2 11.2-11.2 6.2 0 11.2 5.1 11.2 11.2z"/><path d="M377.1 7.6v39.7M404 27.5l-3.9 21.8m30-14.9l-7.6 20.9m40.8-24.6l-19.9 34.4m33.2-3.8l-14.2 17m33.3 2.1l-17 14.3m47.6-.9L492 113.6m30.6 13.4l-20.9 7.6m27.9 18.5l-21.9 3.8m41.7 23h-39.7m19.9 26.9l-21.9-3.8m14.9 29.9l-20.9-7.6m24.6 40.8L492 246.3m3.7 33.2l-17-14.3m-220.2 14.3l17-14.3m-47.7.9l34.4-19.8m-30.6-13.4l20.8-7.6m-27.8-18.5l21.9-3.8m-41.7-23.1h39.6m-19.8-26.8l21.9 3.8M231.6 127l20.8 7.6m-24.6-40.8l34.4 19.8m-3.7-33.2l17 14.3m2.1-33.4l14.2 17m-.9-47.6l19.9 34.4m13.3-30.7l7.6 20.9m18.5-27.8l3.9 21.8" stroke-linecap="round" fill="none" stroke="#555e5b" stroke-width="4" stroke-miterlimit="10"/><path class="st8" d="M433.5 371.3s18.4-90.2 42.9-129.4c20-31.9 25-74.2 5.1-116.9-10.3-22.3-28.2-39.8-50.5-50-18.3-8.3-36.6-12.1-53.9-12.1-17.3 0-35.6 3.8-53.9 12.1-22.3 10.1-40.2 27.7-50.5 49.9-19.8 42.8-14.8 85 5.1 116.9 24.5 39.2 42.9 129.4 42.9 129.4h112.8z"/><path d="M317 343.2c1.7 9.3 2.9 18.6 3.7 28h112.9c.8-9.4 2.1-18.8 3.8-28H317z" fill="#dc1767"/><ellipse transform="rotate(-22.788 377.113972 175.0798212)" class="st12" cx="377.1" cy="175.1" rx="83" ry="83"/><path class="st13" d="M320.6 371.3v84.6l.2.3c8.3-.1 15.3-5.5 17.7-13 .6-1.8.9-3.8.9-5.8v-66.1h-18.8zm56.5 0v66.1c0 10.4 8.4 18.8 18.8 18.8 5.5 0 10.4-2.3 13.8-6 1.8-1.9 3.1-4.1 4-6.6.7-1.9 1.1-4 1.1-6.2v-66.1h-37.7zm-37.6 0v66.1c0 2.2.4 4.3 1.1 6.2.8 2.5 2.2 4.7 4 6.6 3.4 3.7 8.3 6 13.7 6 10.4 0 18.8-8.4 18.8-18.8v-66.1h-37.6z"/><path class="st13" d="M414.7 371.3v66.1c0 2 .3 4 .9 5.8 2.4 7.5 9.4 13 17.7 13l.1-.3v-84.6h-18.7z"/><path class="st15" d="M353.9 509.5l23.2 37.6 23.3-37.6z"/><path class="st8" d="M426.8 175.1c0 13.7-11.1 24.9-24.9 24.9-13.7 0-24.9-11.1-24.9-24.9 0-13.7 11.1-24.9 24.9-24.9 13.8 0 24.9 11.1 24.9 24.9z"/><path class="st8" d="M377.1 175.1c0 13.7-11.1 24.9-24.9 24.9-13.7 0-24.9-11.1-24.9-24.9 0-13.7 11.1-24.9 24.9-24.9 13.8 0 24.9 11.1 24.9 24.9z"/><path class="st5" d="M377.1 445.2l-4.9 6.2-12.3 4.8-8.5-.7-7.9-5.6-3.4-4.7h-1.5L336 449l-5 3.7-5.4 2.5-2.3 2.1 1.2 5 30.4 48.8h43.8l33.8-52.7-6.2-2.2-7.3-6.3-2.6-3.8-1.5-.9-6.8 5.7-5.1 4-8.5 1.2-5.4-1.2s-5.4-2.9-5.9-3.8c-.6-.9-6.1-5.9-6.1-5.9z"/><path class="st19" d="M377.2 547.1l56.4-90.8V371c1.2-68 34.2-115.7 34.2-115.7 28.3-44.3 26.5-79.1 26.5-79.1 0-62.8-52.4-113.8-117-113.8h-.2c-64.6 0-117 50.9-117 113.8 0 0-1.8 34.8 26.5 79.1 0 0 33 47.6 34.2 115.7v85.3l56.4 90.8zm-56.5-203.2h112.9m-112.9 27.2h112.9M356.1 510h42.5"/><path class="st19" d="M320.8 456.1c8.3-.1 15.3-5.5 17.7-13 .6-1.8.9-3.8.9-5.8v-66.1m37.7.1v66.1c0 10.4 8.4 18.8 18.8 18.8 5.5 0 10.4-2.3 13.8-6 1.8-1.9 3.1-4.1 4-6.6.7-1.9 1.1-4 1.1-6.2v-66.1m-75.3 0v66.1c0 2.2.4 4.3 1.1 6.2.8 2.5 2.2 4.7 4 6.6 3.4 3.7 8.3 6 13.7 6 10.4 0 18.8-8.4 18.8-18.8v-66.1"/><path class="st19" d="M414.7 371.3v66.1c0 2 .3 4 .9 5.8 2.4 7.5 9.4 13 17.7 13"/><circle class="st19" cx="352.2" cy="175.7" r="25"/><circle class="st19" cx="402.1" cy="175.7" r="25"/><path class="st19" d="M377.1 175.7v168.2"/></g></svg>