<svg xmlns="http://www.w3.org/2000/svg" viewBox="0 0 100 100">
  <path fill="#ffffff" d="M69.8 40.6c-4.3-3.4-9.2-5-14.7-4.7-6 .3-11 2.8-14.9 7.3-2.3 2.6-3.8 5.7-4.3 9-.7 4.1-.3 8.2 1.6 12.1.8 1.5.6 3-.2 4.5-.7 1.4-1.7 2.7-2.7 3.9-1.2 1.3-1.2 1.4.5 2 5 1.9 10.2 2.9 16.1 2.9 1.5-.1 3.6-.1 5.7-.4 4.3-.6 8.1-2.2 11.7-4.7 7.1-5 10.3-14.4 7.7-22.5-1.3-3.7-3.3-6.9-6.5-9.4z"/>
  <path fill="#ffffff" d="M93.7 6.3C90.1 2.7 85.8.9 80.7.9H19.3c-5.1 0-9.4 1.8-13 5.4C2.7 9.9.9 14.2.9 19.3v61.4c0 5.1 1.8 9.4 5.4 13 3.6 3.6 7.9 5.4 13 5.4h61.4c5.1 0 9.4-1.8 13-5.4s5.4-7.9 5.4-13V19.3c.1-5.1-1.8-9.4-5.4-13zM82.2 65.1c-3.1 7.7-8.9 12.9-16.5 16.4-4.4 2-9.1 2.5-13.8 2.4-5.6.1-11-.8-16.3-2.2-5.2-1.4-10.1-3.4-14.9-5.8-.2-.1-.6-.2-.6-.5 0-.4.4-.4.7-.5 3.1-.9 5.8-2.5 8-4.9.6-.7 1-1.5 1.5-2.3.3-.7-.2-.9-.7-1.1-2.4-1.3-4.7-2.8-6.6-4.8-3.8-3.8-6.3-8.3-7.1-13.5-1.5-9.5 1.5-17.6 8.9-24.1 3.6-3.2 7.5-5.6 12.2-6.7 4.4-1 8.9-1.5 13.5-1.3 4 .2 8 .7 11.9 1.6 4 .9 7.8 2.1 11.5 3.7.1 0 .2.1.3.1.3.2 1 0 1 .5s-.7.6-1.1.8c-3.2 1.5-5.9 3.4-7.6 6.6-.4.8-.2 1.1.6 1.4 8.1 3.4 13.5 9.3 16 17.5 1.6 5.6 1.3 11.2-.9 16.7z"/>
</svg>