<?xml version="1.0" encoding="UTF-8"?>
<!DOCTYPE svg PUBLIC "-//W3C//DTD SVG 1.1//EN" "http://www.w3.org/Graphics/SVG/1.1/DTD/svg11.dtd">
<!-- Creator: CorelDRAW Home & Student X8 -->
<svg xmlns="http://www.w3.org/2000/svg" xml:space="preserve" width="50mm" height="50mm" version="1.1" style="shape-rendering:geometricPrecision; text-rendering:geometricPrecision; image-rendering:optimizeQuality; fill-rule:evenodd; clip-rule:evenodd"
viewBox="0 0 606 606"
 xmlns:xlink="http://www.w3.org/1999/xlink">
 <defs>
  <style type="text/css">
   <![CDATA[
    .fil0 {fill:white}
   ]]>
  </style>
 </defs>
 <g id="__x0023_Layer_x0020_1">
  <metadata id="CorelCorpID_0Corel-Layer"/>
  <path class="fil0" d="M121 0l364 0c67,0 121,55 121,121l0 364c0,67 -54,121 -121,121l-86 0c-1,-34 -3,-45 -13,-115 -12,-90 -46,-172 -94,-236 30,12 65,15 98,4 42,-13 73,-43 88,-80 -34,-22 -77,-29 -118,-16 -38,12 -67,39 -84,72 -1,2 -2,5 -4,8 -5,-6 -11,-12 -18,-16 -17,-13 -39,-21 -62,-22 -36,-2 -69,13 -91,37 20,27 51,44 87,46 34,2 65,-11 88,-34 47,68 79,154 85,249 3,54 1,78 1,103l-241 0c-66,0 -121,-54 -121,-121l0 -364c0,-66 55,-121 121,-121z"/>
 </g>
</svg>
