<svg xmlns="http://www.w3.org/2000/svg" viewBox="0 0 100 100">
  <path fill="#ffffff" d="M93.7 6.3C90.1 2.7 85.8.9 80.7.9H19.3c-5.1 0-9.4 1.8-13 5.4C2.7 9.9.9 14.2.9 19.3v61.4c0 5.1 1.8 9.4 5.4 13 3.6 3.6 7.9 5.4 13 5.4h61.4c5.1 0 9.4-1.8 13-5.4s5.4-7.9 5.4-13V19.3c.1-5.1-1.8-9.4-5.4-13zM62.3 17c1.3-2.2 4.1-2.9 6.3-1.6 2.1 1.3 2.9 4.1 1.5 6.3-.8 1.4-2.3 2.2-3.9 2.2-.8 0-1.6-.2-2.3-.6-2.2-1.3-2.9-4.1-1.6-6.3zm-7.2 12.5c1.2-2.1 3.9-2.7 6-1.5 2 1.2 2.7 3.9 1.5 5.9-.8 1.4-2.3 2.1-3.7 2.1-.7 0-1.5-.2-2.2-.6-2.2-1.2-2.8-3.9-1.6-5.9zm-7.2 12.4c1.2-1.9 3.7-2.6 5.7-1.4 1.9 1.2 2.6 3.7 1.4 5.6-.8 1.3-2.1 2-3.5 2-.7 0-1.4-.2-2.1-.6-2-1.1-2.7-3.6-1.5-5.6zM46 53c1.8 1.1 2.4 3.5 1.3 5.3-.7 1.2-2 1.9-3.3 1.9-.7 0-1.4-.2-2-.5-1.8-1.1-2.4-3.5-1.3-5.3 1.1-1.9 3.5-2.5 5.3-1.4zm-7.1-22.6c1.4-.8 3.2-.4 4.1 1 .8 1.4.4 3.2-1 4.1-1.4.8-3.2.4-4.1-1-.8-1.4-.4-3.2 1-4.1zm-7.5-12.5c1.5-.9 3.5-.4 4.4 1.1.9 1.5.4 3.5-1.1 4.4-.5.3-1.1.4-1.6.4-1.1 0-2.2-.6-2.7-1.5-1-1.6-.5-3.5 1-4.4zm-9.2 5.5c-.5.3-1.1.4-1.6.4-1.1 0-2.2-.6-2.7-1.5-.9-1.5-.4-3.5 1.1-4.4 1.5-.9 3.5-.4 4.4 1.1.7 1.5.3 3.4-1.2 4.4zm3.2 11.1c-.8-1.4-.4-3.2 1-4.1 1.4-.8 3.2-.4 4.1 1 .8 1.4.4 3.2-1 4.1-1.5.8-3.3.4-4.1-1zm6.8 48.2c-.6 1-1.7 1.7-2.9 1.7-.6 0-1.2-.2-1.8-.5-1.6-1-2.1-3.1-1.2-4.7 1-1.6 3.1-2.1 4.7-1.2 1.6 1 2.2 3.1 1.2 4.7zm1.7-39.8c1.3-.8 3-.3 3.8.9.8 1.3.3 3-.9 3.8-.4.3-.9.4-1.4.4-.9 0-1.9-.5-2.4-1.3-.8-1.3-.4-3 .9-3.8zm.9 28.9c-1.7-1-2.3-3.3-1.3-5 1.1-1.7 3.3-2.3 5-1.3 1.7 1 2.3 3.3 1.2 5-.7 1.1-1.9 1.8-3.1 1.8-.6 0-1.3-.2-1.8-.5zm9.9 10.9c-.6 1-1.7 1.7-2.9 1.7-.6 0-1.2-.2-1.8-.5-1.6-1-2.1-3.1-1.2-4.7 1-1.6 3.1-2.1 4.7-1.2 1.7 1 2.2 3.1 1.2 4.7zm7.6-12.2c-.7 1.1-1.9 1.8-3.1 1.8-.6 0-1.3-.2-1.9-.5-1.7-1-2.3-3.3-1.3-5 1.1-1.7 3.3-2.3 5-1.3 1.8 1.1 2.4 3.3 1.3 5zm7.6-12.2c-.7 1.2-2 1.9-3.3 1.9-.7 0-1.4-.2-2-.5-1.8-1.1-2.4-3.5-1.3-5.3 1.1-1.8 3.5-2.4 5.4-1.3 1.7 1 2.3 3.4 1.2 5.2zm7.6-12.2c-.8 1.3-2.1 2-3.5 2-.7 0-1.4-.2-2.1-.6-1.9-1.2-2.6-3.7-1.4-5.6 1.2-1.9 3.7-2.6 5.7-1.4 1.8 1.2 2.5 3.7 1.3 5.6zm7.6-12.2c-.8 1.4-2.3 2.1-3.7 2.1-.7 0-1.5-.2-2.2-.6-2.1-1.2-2.7-3.9-1.5-5.9 1.2-2.1 3.9-2.7 6-1.5 1.9 1.2 2.6 3.8 1.4 5.9zm7.6-12.2c-.8 1.4-2.3 2.2-3.9 2.2-.8 0-1.6-.2-2.3-.6-2.2-1.3-2.9-4.1-1.6-6.3 1.3-2.2 4.1-2.9 6.3-1.6 2.1 1.3 2.8 4.1 1.5 6.3z"/>
</svg>