<svg xmlns="http://www.w3.org/2000/svg" viewBox="0 0 350 350"><style>.st1,.st2,.st3{stroke:#555e5b;stroke-width:4;stroke-miterlimit:10}.st1{stroke-linecap:round;stroke-linejoin:round;fill:#fff}.st2,.st3{fill:none}.st3{fill:#fff}.st4{fill:#dc1767}.st5{fill:#f99f1c}.st7{fill:#e4e4e4}.st11{fill:#555e5b}</style><path d="M118.6 316.5c-31 11.5-57.1 11.4-71.4-3.1-29.3-29.7 2.6-108.5 71.1-176.1C175.7 80.7 240.7 50 277.5 59" fill="none" stroke="#555e5b" stroke-width="4" stroke-miterlimit="10" stroke-dasharray="6" id="Layer_17"/><g id="Layer_10"><path class="st1" d="M319 256.7c10.8-16.5 17.1-36.3 17.1-57.5C336.1 141.1 289 94 230.9 94s-105.2 47.1-105.2 105.2S172.9 304.4 231 304.4c21.2 0 41-6.3 57.5-17.1l47.7 17.1-17.2-47.7z"/><path class="st1" d="M36 211.5C25.1 195 18.8 175.2 18.8 154 18.8 95.9 65.9 48.9 124 48.9S229.2 96 229.2 154.1 182.1 259.2 124 259.2c-21.2 0-41-6.3-57.5-17.1l-47.7 17.1L36 211.5z"/></g><g id="Layer_8"><path class="st2" d="M301.4 76.9c17.9 34.3-14.1 105.8-77.1 167.9-26.2 25.8-54 46.3-79.9 60"/><circle class="st3" cx="289.9" cy="67.9" r="15.9"/><circle class="st3" cx="132.4" cy="311.5" r="15.9"/></g><g id="Layer_11"><path class="st4" d="M281.1 68.1c0 5.2 4.2 9.4 9.4 9.4s9.4-4.2 9.4-9.4-4.2-9.4-9.4-9.4-9.4 4.2-9.4 9.4zM123.2 311.4c0 5.2 4.2 9.4 9.4 9.4s9.4-4.2 9.4-9.4-4.2-9.4-9.4-9.4c-5.2-.1-9.4 4.2-9.4 9.4z"/><circle class="st5" cx="259.8" cy="339.5" r="7.1"/><path d="M346.2 104.6c0 5.8-4.7 10.5-10.5 10.5s-10.5-4.7-10.5-10.5 4.7-10.5 10.5-10.5 10.5 4.7 10.5 10.5z" fill="#59bde9"/><circle class="st4" cx="245.6" cy="16.1" r="7.1"/><circle class="st7" cx="132.7" cy="195" r="7.1"/><path class="st7" d="M66.1 177.7c0 2.5-2 4.6-4.6 4.6-2.5 0-4.6-2-4.6-4.6 0-2.5 2-4.6 4.6-4.6 2.6 0 4.6 2 4.6 4.6z"/><path class="st2" d="M137.9 21.4l4.9-4.9M125.8 33.5l4.9-5M137.9 28.5l4.9 5M125.8 16.5l4.9 4.9"/><g><path class="st2" d="M323.3 32l4.9-4.9M311.2 44.1l5-4.9"/><g><path class="st2" d="M323.3 39.2l4.9 4.9M311.2 27.1l5 4.9"/></g></g><g><path class="st2" d="M20.4 292.4l4.9-4.9M8.4 304.5l4.9-4.9"/><g><path class="st2" d="M20.4 299.6l4.9 4.9M8.4 287.5l4.9 4.9"/></g></g></g><g id="Layer_14"><path d="M104.3 79.7c1.4-6.2 1.4-12.7-.2-19.1l8.6-4.6-4.9-11.6-9.3 3C95 41.8 90.3 37.3 84.9 34l2.8-9.3L76 19.9l-4.5 8.6c-6.2-1.4-12.7-1.4-19.1.2l-4.6-8.6L36.2 25l3 9.3c-5.5 3.5-10.1 8.2-13.4 13.6l-9.3-2.8-4.7 11.7 8.6 4.5C19 67.5 19 74 20.6 80.4L12.1 85 17 96.6l9.3-3c3.5 5.5 8.2 10.1 13.6 13.4l-2.8 9.3 11.7 4.7 4.5-8.6c6.2 1.4 12.7 1.4 19.1-.2l4.6 8.6 11.6-4.9-3-9.3c5.5-3.5 10.1-8.2 13.4-13.6l9.3 2.8 4.7-11.7-8.7-4.4zm-36.9 2.7c-6.6 2.8-14.2-.3-16.9-6.8-2.8-6.6.3-14.2 6.8-16.9 6.6-2.8 14.2.3 16.9 6.8 2.9 6.5-.2 14.1-6.8 16.9z" fill="#fff" stroke="#555e5b" stroke-width="4" stroke-linejoin="round" stroke-miterlimit="10"/><ellipse transform="rotate(-42.97 62.376483 70.491946)" cx="62.4" cy="70.5" rx="32.7" ry="32.7" fill="none" stroke="#555e5b" stroke-width="4" stroke-miterlimit="10" stroke-dasharray="3.9526,3.9526"/><path class="st5" d="M86.2 60.4c-5.6-13.1-20.8-19.3-33.9-13.7C39.1 52.3 33 67.5 38.6 80.6c5.6 13.1 20.8 19.3 33.9 13.7 13.1-5.6 19.3-20.8 13.7-33.9zM67.5 82.5c-6.7 2.8-14.3-.3-17.2-6.9-2.8-6.7.3-14.3 6.9-17.2 6.7-2.8 14.3.3 17.2 6.9 2.9 6.7-.2 14.4-6.9 17.2z"/><ellipse transform="rotate(-45.71 62.382151 70.492728)" cx="62.4" cy="70.5" rx="13.1" ry="13.1" fill="none" stroke="#555e5b" stroke-width="4" stroke-linejoin="round" stroke-miterlimit="10"/></g><g id="Layer_15"><path class="st11" d="M155.9 156.3c-11.9 0-21.6-9.7-21.6-21.6 0-11.9 9.7-21.6 21.6-21.6 11.9 0 21.6 9.7 21.6 21.6 0 12-9.7 21.6-21.6 21.6zm0-39.2c-9.7 0-17.6 7.9-17.6 17.6 0 9.7 7.9 17.6 17.6 17.6 9.7 0 17.6-7.9 17.6-17.6 0-9.6-7.9-17.6-17.6-17.6z"/><path class="st11" d="M174.8 154.2c-.5 0-1-.2-1.4-.6l-11.2-11.2c-.8-.8-.8-2 0-2.8.8-.8 2-.8 2.8 0l11.2 11.2c.8.8.8 2 0 2.8-.4.4-.9.6-1.4.6zM274.8 246.2c-.2 0-.5 0-.7-.1-1-.4-1.5-1.5-1.2-2.5l15.7-42.1c.3-.8 1-1.3 1.9-1.3.8 0 1.6.5 1.9 1.3l15.7 42.1c.4 1-.1 2.2-1.2 2.5-1 .4-2.2-.1-2.5-1.2l-13.9-37.1-13.9 37.1c-.3.8-1 1.3-1.8 1.3z"/><path class="st11" d="M300.2 230h-19.3c-1.1 0-2-.9-2-2s.9-2 2-2h19.3c1.1 0 2 .9 2 2-.1 1.1-.9 2-2 2z"/></g></svg>