<svg xmlns="http://www.w3.org/2000/svg" viewBox="0 0 720 550"><style>.st2,.st3{fill:#fff;stroke:#555e5b;stroke-width:4;stroke-miterlimit:10}.st3{fill:none}.st4{fill:#e4e4e4}.st5{fill:#fff;stroke:#555e5b;stroke-width:4;stroke-linecap:round;stroke-linejoin:round;stroke-miterlimit:10}.st6{fill:#f99f1c}.st7{fill:#fff}.st8{fill:none;stroke:#555e5b;stroke-width:4;stroke-linecap:round;stroke-linejoin:round;stroke-miterlimit:10}.st10{fill:#fff581}.st11{fill:#35a283}.st12{fill:#59bde9}.st13,.st14,.st15{fill:none;stroke:#555e5b;stroke-width:4;stroke-miterlimit:10}.st13{stroke-dasharray:4}.st14,.st15{stroke-linecap:round}.st15{fill:#59bde9;stroke-linejoin:round}</style><g id="Layer_5"><path class="st2" d="M874.2 145.3H721.7v262.3h207.8v-207z"/><path class="st3" d="M929.5 200.8H874v-55.5"/><path class="st4" d="M881.4 193.4v-30l30 30z"/><path class="st5" d="M840.3 194.8L814.8 165c.9-4.9 1.4-10 1.4-15.2 0-45.2-36.6-81.8-81.8-81.8-45.2 0-81.8 36.6-81.8 81.8s36.6 81.8 81.8 81.8c27.8 0 52.3-13.9 67.1-35l38.8-1.8z"/><circle class="st6" cx="734.1" cy="149.1" r="65.6"/><path class="st2" d="M692.9 130h81.2M692.9 143.3h81.2M692.9 156.6h81.2M692.9 169.9H752"/><path class="st7" d="M775.8 418.1c0-5.8-4.7-10.5-10.5-10.5H719v-34.1h23c24.6 0 24.6-23.6 24.6-23.6H660l-24.2 20.6h-23.7v66.1h31.4l10.5 10.3h103.2c5 0 9.1-4.1 9.1-9.1s-4.1-9.1-9.1-9.1h8.1c5.8-.1 10.5-4.8 10.5-10.6z"/><path class="st8" d="M612.1 370.4h23.7l24.2-20.6h106.6s0 23.6-24.6 23.6h-47.4s-.2 24.9-23.6 24.9M612.1 436.5h31.4l10.4 10.3h79.9"/><path class="st8" d="M762.3 446.8H716c-2.2 0-4-1.8-4-4v-10.2c0-2.2 1.8-4 4-4h46.4c2.2 0 4 1.8 4 4v10.2c0 2.2-1.8 4-4.1 4zM771.2 428.6h-59.7c-2.6 0-4.6-2.1-4.6-4.6v-11.7c0-2.6 2.1-4.6 4.6-4.6h59.7c2.6 0 4.6 2.1 4.6 4.6V424c0 2.5-2 4.6-4.6 4.6z"/><path class="st5" d="M587.6 450.9h24.5v-94.8h-24.5"/><path fill="#fff581" stroke="#555e5b" stroke-width="4" stroke-linecap="round" stroke-linejoin="round" stroke-miterlimit="10" d="M554 462.3h33.6V346.1H554"/><path class="st10" d="M617.6 486.7c0 3.7-3 6.7-6.7 6.7s-6.7-3-6.7-6.7 3-6.7 6.7-6.7 6.7 3 6.7 6.7z"/><circle class="st4" cx="754.6" cy="473.3" r="7"/><path class="st6" d="M684.6 311.2c0 3.4-2.8 6.2-6.2 6.2-3.4 0-6.2-2.8-6.2-6.2 0-3.4 2.8-6.2 6.2-6.2 3.4 0 6.2 2.8 6.2 6.2z"/><path class="st11" d="M660.8 226c0 4.9-4 8.9-8.9 8.9s-8.9-4-8.9-8.9 4-8.9 8.9-8.9 8.9 4 8.9 8.9z"/><path class="st3" d="M702.7 500.3l7.8-7.8M683.7 519.3l7.8-7.8M702.7 511.5l7.8 7.8M683.7 492.5l7.8 7.8"/><path class="st11" d="M821.2 244.4l15 30.5 33.7 4.9-24.4 23.7 5.8 33.5-30.1-15.8-30.1 15.8 5.7-33.5-24.3-23.7 33.6-4.9z"/><path class="st7" d="M130.6 273.1c0-13.9-11.2-25.1-25.1-25.1h-277.3c-23.6 0-24.9-25.1-24.9-25.1v247.3c0 13.9 11.2 25.1 25.1 25.1H116l14.6-222.2z"/><path class="st6" d="M130.6 273.1c0 13.9-11.2 25.1-25.1 25.1-4 0-7.7-.9-11.1-2.6V543c3.3 1.6 7.1 2.6 11.1 2.6 13.9 0 25.1-11.2 25.1-25.1V272.1"/><path class="st4" d="M-160.6 248.1h-11c-13.9 0-25.1-11.2-25.1-25.1s11.2-25.1 25.1-25.1c4 0 7.7.9 11.1 2.6v44.3l-.1 3.3z"/><path class="st3" d="M130.6 272.1v248.4c0 13.9-11.2 25.1-25.1 25.1-4 0-7.7-.9-11.1-2.6V295.7c3.3 1.6 7.1 2.6 11.1 2.6 13.9 0 25.1-11.2 25.1-25.1s-11.2-25.1-25.1-25.1h-277.1c-13.9 0-25.1-11.2-25.1-25.1s11.2-25.1 25.1-25.1c4 0 7.7.9 11.1 2.6v48.4"/><path class="st3" d="M93.4 495.4h-265c-13.9 0-25.1-11.2-25.1-25.1V223"/><circle class="st12" cx="-93.3" cy="377.2" r="15"/><circle class="st12" cx="-93.3" cy="293.2" r="15"/><circle class="st12" cx="-34.9" cy="377.2" r="15"/><circle class="st12" cx="23.6" cy="377.2" r="15"/><circle class="st12" cx="23.6" cy="454.6" r="15"/><path class="st13" d="M23.6 356.1v-26.5c0-16.3-13.2-29.5-29.5-29.5s-29.5 13.2-29.5 29.5v12.2M-34.3 398.1v22.4c0 16.3-13.2 29.5-29.5 29.5s-29.5-13.2-29.5-29.5v-6.2"/><path class="st3" d="M13 410.7l10.6-10.5 10.6 10.5M-103.9 417.7l10.6-10.6 10.5 10.6M-103.9 326.1l10.6-10.6 10.5 10.6M-24.8 337.3l-10.5 10.6-10.6-10.6"/><path class="st13" d="M-93.3 324.9v33M23.6 409v25.7"/><path class="st10" d="M-62.7 186.2L82 332.1V186.2H-62.7zm119.8 86.7L-6 209.8h63.1v63.1z"/><path class="st3" d="M-22.1 187.8v13.9M-36.7 187.8v7M-7.6 187.8v7M6.9 187.8v13.9M21.4 187.8v7M35.9 187.8v13.9M50.4 187.8v7M65 187.8v7M79.7 221.1H65.8M79.7 206.6h-6.9M79.7 235.6h-6.9M79.7 250.1H65.8M79.7 264.6h-6.9M79.7 279.1H65.8M79.7 293.7h-6.9M79.7 308.2h-6.9M-62.7 186.2L82 332.1V186.2H-62.7zm119.8 86.7L-6 209.8h63.1v63.1z"/><path class="st6" d="M61.3 517.6H47.1v21.9h14.2c3.3 0 5.9-2.6 5.9-5.9v-10.1c0-3.2-2.7-5.9-5.9-5.9z"/><path class="st7" d="M-131.2 528.6l29.5 10.9v-21.9z"/><path class="st12" d="M-101.7 517.6H47.2v21.9h-148.9z"/><path class="st3" d="M-101.7 539.5h163c3.3 0 5.9-2.6 5.9-5.9v-10.1c0-3.3-2.6-5.9-5.9-5.9h-163l-29.4 10.9 29.4 11zM-101.7 539.5v-21.9M47.1 518.5v20.1M-101.7 528.6H47.1M-188.7 513.8l5.4-5.4M-201.7 526.8l5.3-5.3M-188.7 521.5l5.4 5.3M-201.7 508.4l5.3 5.4M-98.5 209.8l5.4-5.3M-111.5 222.9l5.3-5.3M-98.5 217.6l5.4 5.3M-111.5 204.5l5.3 5.3"/><path class="st10" d="M575.4 6l3.2 27.9 24.8 13.2-25.5 11.7-4.9 27.7-19-20.7-27.8 3.9L540 45.2 527.7 20l27.5 5.6zM213.6 484.9l-2.2 19-16.8 8.9 17.3 8 3.4 18.8 12.9-14.1 18.9 2.7-9.4-16.7 8.4-17.2-18.7 3.8z"/><circle class="st6" cx="465.9" cy="32.1" r="11.6"/><path class="st11" d="M187.2 283.9c0 6.4-5.2 11.6-11.6 11.6-6.4 0-11.6-5.2-11.6-11.6 0-6.4 5.2-11.6 11.6-11.6 6.4 0 11.6 5.2 11.6 11.6z"/><circle class="st4" cx="304.2" cy="523.8" r="11.6"/><path class="st7" d="M241.6 236.1h26.3V318h-26.3z"/><path class="st7" d="M592.5 136.3h-31.2l-205.6 90.8h-87.8V327h87.8l205.6 90.8h31.2z"/><path class="st4" d="M592.1 135.8v41.1h-30.8l-204.6 91h-89.3v9.1h-25.5v-41.1h25.5v-9h89.3l204.6-91.1z"/><path class="st7" d="M196.2 453.3l42.4-1.9 12.9 11.1h50.6l19.6-3.3 28.6-18.9 2.8-40.7-13-33.3-18-13.5h-62.4l-29 23.2-34.5-.6zM495.7 465.1l-17.1-2.5-22.2-34.4v-24.1s-16.4-1.4-20.3 11.2c-3.9 12.6-2.4 19.8-.9 24.1L441 455h-43.6c-5.1 0-9.3 4.2-9.3 9.3v.5c0 5.1 4.1 9.2 9.1 9.3h-6.6c-5.1 0-9.3 4.2-9.3 9.3v.5c0 5.1 4.2 9.3 9.3 9.3h5.1c-5.1.1-9.1 4.2-9.1 9.3v.5c0 5.1 4.2 9.3 9.3 9.3h6.1c-5.1 0-9.3 4.2-9.3 9.3v.5c0 5.1 4.2 9.3 9.3 9.3h69.3l24.4-1.3"/><path class="st8" d="M203.2 451.4h35.4l12.2 11.1h77.1"/><path class="st5" d="M239.8 136.1l-13.9 23.6c1.2 3.3 2.2 6.7 2.8 10.3 5.5 31.1-15.3 60.8-46.4 66.2s-60.8-15.3-66.2-46.4 15.3-60.8 46.4-66.2c19.1-3.4 37.7 3.2 50.5 16l26.8-3.5zM452.5 146.8l-27.1-31.3c1-5.2 1.5-10.6 1.4-16-.2-47.7-39.1-86.2-86.8-86-47.7.2-86.2 39.1-86 86.8.2 47.7 39.1 86.2 86.8 86 29.3-.1 55.2-14.9 70.7-37.3l41-2.2z"/><circle class="st10" cx="340.7" cy="100.5" r="68.4"/><path class="st5" d="M336.8 483.7h-35.1l-9-156.7h53.6z"/><path class="st8" d="M561.3 136.3v156.4M561.3 311v24.6M355.7 227.1V327"/><g><path class="st14" d="M298.8 86.3c0-7.8 6.3-14.1 14.1-14.1S327 78.5 327 86.3M353.9 86.3c0-7.8 6.3-14.1 14.1-14.1s14.1 6.3 14.1 14.1"/><path class="st8" d="M308.1 122.3c6 11.8 18.3 20 32.4 20s26.4-8.1 32.4-20h-64.8z"/></g><path class="st5" d="M496.8 449.9H564v87.9h-67.2zM377.5 395.8H323c-3.8 0-6.8-3.1-6.8-6.8v-8.6c0-3.8 3.1-6.8 6.8-6.8h54.5c3.8 0 6.8 3.1 6.8 6.8v8.6c.1 3.7-3 6.8-6.8 6.8z"/><path class="st5" d="M384 418h-60.9c-3.8 0-6.8-3.1-6.8-6.8v-8.6c0-3.8 3.1-6.8 6.8-6.8H384c3.8 0 6.8 3.1 6.8 6.8v8.6c0 3.8-3 6.8-6.8 6.8zM373.9 440.3h-50.8c-3.8 0-6.8-3.1-6.8-6.8v-8.6c0-3.8 3.1-6.8 6.8-6.8h50.8c3.8 0 6.8 3.1 6.8 6.8v8.6c.1 3.7-3 6.8-6.8 6.8z"/><path class="st5" d="M362.6 462.5h-35.8c-3.8 0-6.8-3.1-6.8-6.8v-8.6c0-3.8 3.1-6.8 6.8-6.8h35.8c3.8 0 6.8 3.1 6.8 6.8v8.6c0 3.8-3 6.8-6.8 6.8zM195.1 375.4h35.6l26.8-22.6h107.7s-1.5 27.3-24.8 27.3h-42.7s-.4 27.3-29 27.3"/><path class="st8" d="M495.7 465.1l-17.1-2.5-22.2-34.4v-24.1s-16.4-1.4-20.3 11.2c-3.9 12.6-2.4 19.8-.9 24.1L441 455h-43.6c-5.1 0-9.3 4.2-9.3 9.3v.5c0 5.1 4.1 9.2 9.1 9.3h-6.6c-5.1 0-9.3 4.2-9.3 9.3v.5c0 5.1 4.2 9.3 9.3 9.3h5.1c-5.1.1-9.1 4.2-9.1 9.3v.5c0 5.1 4.2 9.3 9.3 9.3h6.1c-5.1 0-9.3 4.2-9.3 9.3v.5c0 5.1 4.2 9.3 9.3 9.3h69.3l24.4-1.3M395 474.1h10.5M395 512.2h15.9M395 493.1h15.9M412.9 474.1h3.3M418.7 512.2h2.5M418.7 493.1h3.1"/><path class="st15" d="M580.4 438.5h-67.2v108.4h67.2M161.8 467.2h41.4V361.4h-41.4"/><path class="st8" d="M241.6 236.1h26.3V318h-26.3z"/><path class="st8" d="M592.5 136.3h-31.2l-205.6 90.8h-87.8V327h87.8l205.6 90.8h31.2z"/><path d="M172 211.3c-7.1-3.2-30.7-15.6-30.7-40.8 0-8.4 6.8-15.2 15.2-15.2 4.3 0 8.4 1.8 11.3 5.1l4.2 4.6 4.2-4.6c2.9-3.2 7-5.1 11.3-5.1 8.4 0 15.2 6.8 15.2 15.2 0 25-23.7 37.6-30.7 40.8z" fill="#dc1767"/><path class="st6" d="M76.5 87.3h20v-31h-20c-4.6 0-8.4 3.7-8.4 8.4v14.2c0 4.6 3.7 8.4 8.4 8.4z"/><path class="st7" d="M201.6 71.8l-34.5-15.5v31z"/><path class="st12" d="M96.5 56.3h70.6v31H96.5z"/><path class="st3" d="M167.1 56.3H76.5c-4.6 0-8.4 3.7-8.4 8.4v14.2c0 4.6 3.7 8.4 8.4 8.4h90.7l34.5-15.5-34.6-15.5zM167.1 56.3v31M96.5 86V57.6M167.1 71.8H96.5"/><g><path class="st3" d="M220.3 20.2l7.6-7.5M201.8 38.7l7.6-7.5"/><g><path class="st3" d="M220.3 31.2l7.6 7.5M201.8 12.7l7.6 7.5"/></g></g><g><path class="st3" d="M491.3 95l7.5-7.6M472.8 113.5l7.5-7.6"/><g><path class="st3" d="M491.3 105.9l7.5 7.6M472.8 87.4l7.5 7.6"/></g></g><g><path class="st3" d="M62.6 137.9l7.6-7.5M44.1 156.4l7.6-7.5"/><g><path class="st3" d="M62.6 148.9l7.6 7.5M44.1 130.4l7.6 7.5"/></g></g><g><path class="st3" d="M611.6 170.9h16.7M611.6 223.9h16.7M611.6 277h16.7M611.6 330h16.7M611.6 383h16.7"/></g></g></svg>