<svg xmlns="http://www.w3.org/2000/svg" viewBox="0 0 1140 350"><style>.st2{fill:#59bde9}.st4{fill:#fff}.st5{fill:#e4e4e4}.st6,.st7,.st8{fill:none;stroke:#555e5b;stroke-width:4;stroke-miterlimit:10}.st7,.st8{fill:#fff}.st8{stroke-linecap:round;stroke-linejoin:round}.st9{fill:#f99f1c}.st10{fill:none;stroke:#555e5b;stroke-width:4;stroke-linecap:round;stroke-linejoin:round;stroke-miterlimit:10}.st12{fill:#fff581}.st13{fill:#35a283}.st15,.st18,.st19{stroke:#555e5b;stroke-width:4;stroke-miterlimit:10}.st15{fill:none;stroke-dasharray:4}.st18,.st19{stroke-linecap:round}.st18{stroke-linejoin:round;fill:#59bde9}.st19{fill:none}</style><g id="Layer_3"><path class="st2" d="M912.9 149.9c0 2.9-2.3 5.2-5.2 5.2s-5.2-2.3-5.2-5.2c0-2.9 2.3-5.2 5.2-5.2s5.2 2.3 5.2 5.2z"/><path fill="#59bde9" stroke="#555e5b" stroke-width="4" stroke-miterlimit="10" d="M907.4 184.2h-93.9v161.3h127.9V218.2z"/><path class="st4" d="M918.4 173.1h-93.8v161.4h127.9V207.1z"/><path class="st5" d="M824.6 173.1h83.5v97.8h-83.5z"/><path class="st6" d="M918.4 173.1h-93.8v161.4h127.9V207.1z"/><path class="st6" d="M952.5 207.3h-34.2v-34.2"/><path class="st7" d="M862 100.2h-93.8v161.4H896V134.2z"/><path class="st6" d="M896 134.4h-34.1v-34.2"/><path class="st7" d="M848 279.7h81M848 287.9h81M848 296.1h81M848 304.3h59.7"/><path class="st5" d="M866.5 129.8v-18.5l18.4 18.5zM922.9 202.7v-18.5l18.5 18.5z"/><path class="st8" d="M841.2 130.6l-15.7-18.3c.6-3 .9-6.1.9-9.3 0-27.8-22.5-50.3-50.3-50.3-27.8 0-50.3 22.5-50.3 50.3s22.5 50.3 50.3 50.3c17.1 0 32.2-8.5 41.3-21.6l23.8-1.1z"/><circle class="st9" cx="775.8" cy="102.6" r="40.4"/><path class="st7" d="M750.4 90.8h50M750.4 99h50M750.4 107.2h50M750.4 115.4h36.4"/><path class="st4" d="M801.5 268.1c0-3.6-2.9-6.4-6.4-6.4h-28.5v-21h14.1c15.1 0 15.2-14.5 15.2-14.5h-65.6l-14.9 12.7h-14.6v40.7H720l6.4 6.3H790c3.1 0 5.6-2.5 5.6-5.6s-2.5-5.6-5.6-5.6h5c3.6-.2 6.5-3.1 6.5-6.6z"/><path class="st10" d="M700.7 238.7h14.6l14.9-12.7h65.6s0 14.5-15.2 14.5h-29.2s-.1 15.3-14.5 15.3M700.7 279.4H720l6.5 6.3h49.1"/><path class="st10" d="M791.6 285.7h-25.4c-2.2 0-4-1.8-4-4v-3.1c0-2.2 1.8-4 4-4h25.4c2.2 0 4 1.8 4 4v3.1c.1 2.2-1.7 4-4 4zM796.9 274.5h-33.1c-2.6 0-4.6-2.1-4.6-4.6v-3.6c0-2.6 2.1-4.6 4.6-4.6h33.1c2.6 0 4.6 2.1 4.6 4.6v3.6c0 2.5-2.1 4.6-4.6 4.6z"/><path class="st8" d="M685.7 288.3h15v-58.4h-15"/><path fill="#fff581" stroke="#555e5b" stroke-width="4" stroke-linecap="round" stroke-linejoin="round" stroke-miterlimit="10" d="M665 295.3h20.7v-71.5H665"/><path class="st12" d="M704.2 310.3c0 2.3-1.8 4.1-4.1 4.1s-4.1-1.8-4.1-4.1 1.8-4.1 4.1-4.1c2.2-.1 4.1 1.8 4.1 4.1z"/><circle class="st5" cx="788.4" cy="302.1" r="4.3"/><g><path class="st9" d="M745.3 202.3c0 2.1-1.7 3.8-3.8 3.8-2.1 0-3.8-1.7-3.8-3.8 0-2.1 1.7-3.8 3.8-3.8 2.1 0 3.8 1.7 3.8 3.8z"/></g><g><path class="st13" d="M730.7 149.9c0 3-2.5 5.5-5.5 5.5s-5.5-2.5-5.5-5.5 2.5-5.5 5.5-5.5 5.5 2.4 5.5 5.5z"/></g><g><path class="st6" d="M916.3 106.1l6.3-6.2M901 121.4l6.3-6.2"/><g><path class="st6" d="M916.3 115.2l6.3 6.2M901 99.9l6.3 6.2"/></g></g><g><path class="st6" d="M756.5 318.7l4.8-4.8M744.8 330.3l4.8-4.7"/><g><path class="st6" d="M756.5 325.6l4.8 4.7M744.8 313.9l4.8 4.8"/></g></g><path class="st13" d="M829.4 161.2l9.2 18.8 20.8 3-15 14.6 3.5 20.6-18.5-9.7-18.5 9.7 3.5-20.6-15-14.6 20.7-3z"/></g><g id="Layer_4"><path class="st5" d="M394.2 228.9l3-3 3 3-3 3-3-3zm-5.9-5.9l3-3 3 3-3 3-3-3zm-5.9-5.9l3-3 3 3-3 3-3-3zm-5.9-5.9l3-3 3 3-3 3-3-3zm-6-5.9l3-3 3 3-3 3-3-3zm-5.9-6l3-3 3 3-3 3-3-3zm-5.9-5.9l3-3 3 3-3 3-3-3zm-5.9-5.9l3-3 3 3-3 3-3-3zm-5.9-5.9l3-3 3 3-3 3-3-3zm-5.9-5.9l3-3 3 3-3 3-3-3zm-5.9-5.9l3-3 3 3-3 3-3-3zm-6-5.9l3-3 3 3-3 3-3-3zm-5.9-6l3-3 3 3-3 3-3-3zm-5.9-5.9l3-3 3 3-3 3-3-3zm-5.9-5.9l3-3 3 3-3 3-3-3zm-5.9-5.9l3-3 3 3-3 3-3-3zm-5.9-5.9l3-3 3 3-3 3-3-3zm-5.9-5.9l3-3 3 3-3 3-3-3zm-6-5.9l3-3 3 3-3 3-3-3zm-5.9-6l3-3 3 3-3 3-3-3zm-5.9-5.9l3-3 3 3-3 3-3-3zm-5.9-5.9l3-3 3 3-3 3-3-3zm-5.9-5.9l3-3 3 3-3 3-3-3zm-5.9-5.9l3-3 3 3-3 3-3-3zm-5.9-5.9l3-3 3 3-3 3-3-3zm-6-5.9l3-3 3 3-3 3-3-3z"/><path class="st4" d="M197.1 16.8l18.3 19.9c.2-.1 36.9-13.8 36.9-13.8l4.6 5.4-29.3 21.5 17.8 19.4 17.2-1.1 1.8 2.5-12.3 6c2.6 3.5-.9 8.1-4.9 6.6l-6 12.6-2.5-1.8.9-17.3c-19.6-17.7-10.9-9.8-19-17.2l-21.8 29.6-5.4-4.6 13.9-37.2c-.6-.5-21.3-19.5-21.8-20.1-2.7-3-5.9-10.7-3.1-13.6l.2-.2.2-.2c3.1-3 11.3.5 14.3 3.6z"/><path d="M236.4 95.1l.9-17.4-16.4-15.1-21.7 29.5-8.3-7 .5-1.4c.1-.3 11-29.3 13.4-35.9l-.1-.1c-20.3-18.6-20.6-19-20.8-19.2-3.2-3.6-7-12.4-3-16.5l.4-.4c1.2-1.2 3-1.8 5-1.8 4.4.1 9.7 2.9 12.2 5.4l17.3 18.9c6.6-2.5 35.5-13.3 35.5-13.3l1.4-.5 7 8.3-29.2 21.5L246 67l17.4-1.1 4 5.4-12.7 6.2c.5 1.8.1 3.8-1.1 5.4-1.3 1.8-3.4 2.7-5.4 2.6L241.9 99l-5.5-3.9zm11.3-13.8c1.5.5 2.3-.4 2.5-.7.2-.3.9-1.4 0-2.7l-1.5-2 11.2-5.5-15.6 1-20-21.8L253.7 28l-2.2-2.6c-6.7 2.5-35.3 13.2-35.5 13.3l-1.3.5-19.2-20.9c-1.8-1.9-6.1-4.1-9.2-4.1-.6 0-1.5.1-2 .5l-.4.4c-1.6 1.6.6 7.8 3.1 10.7.4.4 4.3 4 20.5 18.9l2.2 2-.5 1.3c-9.2 24.5-12.3 32.9-13.4 35.8l2.6 2.2 21.8-29.7 21.3 19.5-.8 15.6 5.2-10.9 1.8.8z" fill="#555e5b"/></g><g id="Layer_2"><path class="st4" d="M404.4 178.9c0-8.5-6.9-15.4-15.4-15.4H218.3c-14.5 0-15.3-15.4-15.3-15.4v152.2c0 8.5 6.9 15.4 15.4 15.4h177l9-136.8z"/><path class="st9" d="M404.4 178.9c0 8.5-6.9 15.4-15.4 15.4-2.4 0-4.8-.6-6.8-1.6v152.2c2.1 1 4.4 1.6 6.8 1.6 8.5 0 15.4-6.9 15.4-15.4V178.2"/><path class="st5" d="M225.2 163.4h-6.8c-8.5 0-15.4-6.9-15.4-15.4s6.9-15.4 15.4-15.4c2.4 0 4.8.6 6.8 1.6v29.2z"/><path class="st6" d="M404.4 178.2V331c0 8.5-6.9 15.4-15.4 15.4-2.4 0-4.8-.6-6.8-1.6V192.7c2.1 1 4.4 1.6 6.8 1.6 8.5 0 15.4-6.9 15.4-15.4s-6.9-15.4-15.4-15.4H218.5c-8.5 0-15.4-6.9-15.4-15.4s6.9-15.4 15.4-15.4c2.4 0 4.8.6 6.8 1.6v29.8"/><path class="st6" d="M381.6 315.6H218.5c-8.5 0-15.4-6.9-15.4-15.4V148"/><circle class="st2" cx="266.7" cy="242.9" r="9.2"/><circle class="st2" cx="266.7" cy="191.2" r="9.2"/><circle class="st2" cx="302.6" cy="242.9" r="9.2"/><circle class="st2" cx="338.6" cy="242.9" r="9.2"/><circle class="st2" cx="338.6" cy="290.5" r="9.2"/><path class="st15" d="M338.6 229.9v-16.3c0-10-8.1-18.2-18.2-18.2-10 0-18.2 8.1-18.2 18.2v7.5M303 255.8v13.8c0 10-8.1 18.2-18.2 18.2s-18.2-8.1-18.2-18.2v-3.8"/><path class="st6" d="M332.1 263.5l6.5-6.5 6.5 6.5M260.1 267.9l6.6-6.6 6.5 6.6M260.1 211.5l6.6-6.5 6.5 6.5M308.9 218.3l-6.6 6.6-6.5-6.6"/><path class="st15" d="M266.7 210.8v20.3M338.6 262.5v15.8"/><path class="st12" d="M285.5 125.4l89.1 89.8v-89.8h-89.1zm73.7 53.4L320.4 140h38.8v38.8z"/><path class="st6" d="M310.5 126.4v8.5M301.5 126.4v4.3M319.4 126.4v4.3M328.3 126.4v8.5M337.3 126.4v4.3M346.2 126.4v8.5M355.1 126.4v4.3M364.1 126.4v4.3M373.1 146.8h-8.5M373.1 137.9h-4.2M373.1 155.8h-4.2M373.1 164.7h-8.5M373.1 173.6h-4.2M373.1 182.6h-8.5M373.1 191.5h-4.2M373.1 200.4h-4.2M285.5 125.4l89.1 89.8v-89.8h-89.1zm73.7 53.4L320.4 140h38.8v38.8z"/><path class="st9" d="M361.8 329.3h-8.7v13.5h8.7c2 0 3.6-1.6 3.6-3.6V333c0-2.1-1.6-3.7-3.6-3.7z"/><path class="st4" d="M243.4 336.1l18.1 6.7v-13.5z"/><path class="st2" d="M261.5 329.3h91.6v13.5h-91.6z"/><path class="st6" d="M261.5 342.8h100.3c2 0 3.6-1.6 3.6-3.6V333c0-2-1.6-3.6-3.6-3.6H261.5l-18.1 6.7 18.1 6.7zM261.5 342.8v-13.5M353.1 329.9v12.3M261.5 336.1h91.6"/><g><path class="st6" d="M208 326.9l3.3-3.2M200 335l3.2-3.3"/><g><path class="st6" d="M208 331.7l3.3 3.3M200 323.7l3.2 3.2"/></g></g><g><path class="st6" d="M263.5 139.9l3.3-3.3M255.5 148l3.2-3.3"/><g><path class="st6" d="M263.5 144.7l3.3 3.3M255.5 136.6l3.2 3.3"/></g></g><path class="st7" d="M188.2 192.7h60.6v79.8h-60.6z"/><g><path class="st6" d="M194.3 220.7h11.4v11.4h-11.4zM212.8 220.7h11.4v11.4h-11.4zM231.3 220.7h11.4v11.4h-11.4z"/><path fill="#f99f1c" stroke="#555e5b" stroke-width="4" stroke-miterlimit="10" d="M194.3 198.7h48.4v15.5h-48.4z"/><path class="st6" d="M194.3 237.9h11.4v11.4h-11.4zM212.8 237.9h11.4v11.4h-11.4zM231.3 237.9h11.4v11.4h-11.4z"/><g><path class="st6" d="M194.3 255h11.4v11.4h-11.4zM212.8 255h11.4v11.4h-11.4zM231.3 255h11.4v11.4h-11.4z"/></g><path fill="#f89e1c" stroke="#555e5b" stroke-width="4" stroke-miterlimit="10" stroke-dasharray="4" d="M199 206.5h39.6"/></g></g><g id="Layer_7"><path class="st4" d="M629.1 297l-10.5-1.6-13.6-21.2v-14.8s-10.1-.8-12.5 6.9c-2.4 7.7-1.5 12.2-.5 14.8l3.5 9.7h-26.8c-3.2 0-5.7 2.6-5.7 5.7v.3c0 3.1 2.5 5.7 5.6 5.7h-4c-3.2 0-5.7 2.6-5.7 5.7v.3c0 3.2 2.6 5.7 5.7 5.7h3.1c-3.1.1-5.6 2.6-5.6 5.7v.3c0 3.2 2.6 5.7 5.7 5.7h3.8c-3.2 0-5.7 2.6-5.7 5.7v.3c0 3.2 2.6 5.7 5.7 5.7H614.2l15-.8"/><path class="st8" d="M629.8 287.6h41.4v54.1h-41.4z"/><path class="st10" d="M629.1 297l-10.5-1.6-13.6-21.2v-14.8s-10.1-.8-12.5 6.9c-2.4 7.7-1.5 12.2-.5 14.8l3.5 9.7h-26.8c-3.2 0-5.7 2.6-5.7 5.7v.3c0 3.1 2.5 5.7 5.6 5.7h-4c-3.2 0-5.7 2.6-5.7 5.7v.3c0 3.2 2.6 5.7 5.7 5.7h3.1c-3.1.1-5.6 2.6-5.6 5.7v.3c0 3.2 2.6 5.7 5.7 5.7h3.8c-3.2 0-5.7 2.6-5.7 5.7v.3c0 3.2 2.6 5.7 5.7 5.7H614.2l15-.8M567.2 302.5h6.4M567.2 326h9.8M567.2 314.2h9.8M578.2 302.5h2M581.7 326h1.6M581.7 314.2h2"/><path class="st18" d="M681.3 280.6h-41.4v66.7h41.4"/><path class="st12" d="M678.2 14.5l1.9 17.2 15.3 8.1-15.7 7.2-3 17L665 51.3l-17.1 2.4 8.5-15.1-7.6-15.5 16.9 3.4zM455.5 309.2l-1.3 11.7-10.4 5.5 10.7 4.9 2.1 11.6 7.9-8.7 11.7 1.6-5.8-10.2 5.1-10.6-11.5 2.3z"/><circle class="st9" cx="610.8" cy="30.5" r="7.1"/><path class="st13" d="M439.3 185.5c0 3.9-3.2 7.1-7.1 7.1-3.9 0-7.1-3.2-7.1-7.1 0-3.9 3.2-7.1 7.1-7.1 3.9 0 7.1 3.2 7.1 7.1z"/><circle class="st5" cx="511.3" cy="333.1" r="7.1"/><path class="st4" d="M472.7 156.1h16.2v50.4h-16.2zM688.7 94.7h-19.2L543 150.6h-54V212h54l126.5 55.9h19.2z"/><path class="st5" d="M688.5 94.4v25.2h-19l-125.9 56.1h-55v5.5h-15.7V156h15.7v-5.6h55l125.9-56z"/><path class="st4" d="M444.8 289.7l26.1-1.1 8 6.8H510l12-2 17.6-11.7 1.8-25-8-20.5-11.1-8.3h-38.4l-17.8 14.3-21.3-.4z"/><path class="st10" d="M449.1 288.6h21.8l7.5 6.8h47.5"/><path class="st8" d="M471.7 94.5l-8.6 14.5c.8 2 1.4 4.1 1.7 6.3 3.4 19.1-9.4 37.4-28.5 40.8-19.1 3.4-37.4-9.4-40.8-28.5s9.4-37.4 28.5-40.8c11.8-2.1 23.2 2 31 9.8l16.7-2.1zM602.5 101.2l-16.7-19.3c.6-3.2.9-6.5.9-9.9-.1-29.4-24-53-53.4-52.9-29.4.1-53 24-52.9 53.4.1 29.4 24 53 53.4 52.9 18.1-.1 34-9.2 43.5-23l25.2-1.2z"/><circle class="st12" cx="533.7" cy="72.6" r="42.1"/><path class="st8" d="M531.3 308.4h-21.5l-5.6-96.4h33z"/><path class="st10" d="M669.5 94.7v96.2M669.5 202.2v15.1M543 150.6V212"/><path class="st19" d="M507.9 63.9c0-4.8 3.9-8.7 8.7-8.7 4.8 0 8.7 3.9 8.7 8.7M541.9 63.9c0-4.8 3.9-8.7 8.7-8.7s8.7 3.9 8.7 8.7"/><path class="st10" d="M513.7 86c3.7 7.3 11.2 12.3 20 12.3s16.3-5 20-12.3h-40z"/><path class="st8" d="M553.8 254.3h-28.3c-3.8 0-6.8-3.1-6.8-6.8 0-3.8 3.1-6.8 6.8-6.8h28.3c3.8 0 6.8 3.1 6.8 6.8 0 3.8-3 6.8-6.8 6.8zM557.7 268h-32.2c-3.8 0-6.8-3.1-6.8-6.8 0-3.8 3.1-6.8 6.8-6.8h32.2c3.8 0 6.8 3.1 6.8 6.8.1 3.8-3 6.8-6.8 6.8zM551.5 281.7h-26c-3.8 0-6.8-3.1-6.8-6.8 0-3.8 3.1-6.8 6.8-6.8h26c3.8 0 6.8 3.1 6.8 6.8.1 3.8-3 6.8-6.8 6.8zM544.6 295.4h-16.8c-3.8 0-6.8-3.1-6.8-6.8 0-3.8 3.1-6.8 6.8-6.8h16.8c3.8 0 6.8 3.1 6.8 6.8 0 3.7-3 6.8-6.8 6.8z"/><path class="st8" d="M444.1 241.8H466l16.5-13.9h66.3s-.9 16.8-15.3 16.8h-26.3s-.2 16.8-17.8 16.8"/><path class="st18" d="M423.6 298.3h25.5v-65.1h-25.5"/><path class="st10" d="M472.7 156.1h16.2v50.4h-16.2zM688.7 94.7h-19.2L543 150.6h-54V212h54l126.5 55.9h19.2z"/><path d="M429.9 140.8c-4.4-2-18.9-9.6-18.9-25.1 0-5.2 4.2-9.4 9.4-9.4 2.6 0 5.2 1.1 7 3.1l2.6 2.9 2.6-2.9c1.8-2 4.3-3.1 7-3.1 5.2 0 9.4 4.2 9.4 9.4-.2 15.4-14.8 23.2-19.1 25.1z" fill="#dc1767"/><path class="st9" d="M371.1 64.5h12.3v-19h-12.3c-2.8 0-5.1 2.3-5.1 5.1v8.8c0 2.8 2.3 5.1 5.1 5.1z"/><path class="st4" d="M448.2 55l-21.3-9.5v19z"/><path class="st2" d="M383.5 45.5H427v19.1h-43.5z"/><path class="st6" d="M426.9 45.5h-55.8c-2.8 0-5.1 2.3-5.1 5.1v8.8c0 2.8 2.3 5.1 5.1 5.1h55.8l21.2-9.5-21.2-9.5zM426.9 45.5v19M383.5 63.7V46.2M426.9 55h-43.4M459.7 23.2l4.6-4.6M448.3 34.6l4.6-4.6"/><g><path class="st6" d="M459.7 30l4.6 4.6M448.3 18.6l4.6 4.6"/></g><g><path class="st6" d="M626.4 69.3l4.6-4.7M615 80.6l4.7-4.6"/><g><path class="st6" d="M626.4 76l4.6 4.6M615 64.6l4.7 4.7"/></g></g><g><path class="st6" d="M362.6 95.7l4.7-4.7M351.2 107l4.7-4.6"/><g><path class="st6" d="M362.6 102.4l4.7 4.6M351.2 91l4.7 4.7"/></g></g><g><path class="st6" d="M700.4 116h10.3M700.4 148.6h10.3M700.4 181.2h10.3M700.4 213.9h10.3M700.4 246.5h10.3"/></g></g></svg>