<svg xmlns="http://www.w3.org/2000/svg" xmlns:xlink="http://www.w3.org/1999/xlink" viewBox="0 0 720 550"><style>.st0{fill:#fff;stroke:#555e5b;stroke-width:4;stroke-miterlimit:10}.st1{fill:#35a283}.st2{fill:#fff}.st3{fill:#fff581}.st4{fill:#59bde9}.st5{fill:none;stroke:#555e5b;stroke-width:4;stroke-miterlimit:10}.st6{fill:#f99f1c}.st7{fill:#555e5b}.st8,.st9{fill:#e4e4e4;stroke:#555e5b;stroke-width:4;stroke-miterlimit:10}.st9{fill:#fff;stroke-linejoin:round}.st11{fill:#e4e4e4}.st12,.st13{stroke:#555e5b;stroke-width:4;stroke-miterlimit:10}.st12{stroke-dasharray:4;fill:none}.st13{fill:#f99f1c}</style><g id="Layer_5"><path class="st0" d="M685.8 113.8c-37.4 0-67.7 30.3-67.7 67.7 0 12.4 3.4 24.1 9.2 34.1l-9.1 35.1 30.5-12.7c10.7 7 23.4 11.1 37.1 11.1 37.4 0 67.7-30.3 67.7-67.7s-30.3-67.6-67.7-67.6z"/><circle class="st1" cx="685.8" cy="182.3" r="57.1"/><path class="st2" d="M711.1 179.9c-2-1.7-4.8-2.7-8.2-2.8 3.7-3 4.8-6.9 3.2-11.9-.6-1.8-1.4-3.3-2.5-4.4-1.1-1.2-2.5-2-4.1-2.5-1.6-.5-3.3-.8-5.1-.9-1.8-.1-3.8 0-6 .3l-2.2-10.5-6.4 1.3 2.1 10.2c-1.1.2-2.8.6-5.1 1.1l-2.2-10.3-6.4 1.3 2.2 10.5c-.9.2-2.3.5-4 .9l-8.8 1.8 1.4 6.8 4.6-1c2.1-.4 3.5.2 4.3 2.1l2.5 11.9c.3-.1.5-.1.7-.1l-.7.1 3.5 16.7c.1 1.5-.6 2.3-2 2.6l-4.6 1 .3 7.9 8.3-1.7c.5-.1 1.3-.3 2.3-.5 1-.2 1.8-.3 2.2-.4l2.2 10.6 6.4-1.3-2.2-10.5c1.2-.2 2.9-.6 5.1-1l2.2 10.4 6.4-1.3-2.2-10.6c2.2-.6 4.2-1.2 5.9-1.9 1.7-.7 3.3-1.5 4.7-2.5 1.5-1 2.6-2.1 3.5-3.3.9-1.2 1.5-2.6 1.9-4.3.4-1.6.5-3.5.3-5.5-.2-3.8-1.4-6.6-3.5-8.3zm-32.5-12.6c.2 0 .7-.2 1.6-.4.9-.2 1.6-.4 2.2-.5.6-.1 1.4-.3 2.4-.4 1-.1 1.9-.2 2.6-.2.7 0 1.5.1 2.4.2.9.1 1.6.4 2.2.7.6.4 1.1.8 1.6 1.5.5.6.8 1.4 1 2.3.2.8.2 1.5.1 2.2-.1.7-.4 1.3-.8 1.8s-.8 1-1.3 1.4c-.5.4-1.1.8-1.9 1.2-.8.4-1.5.7-2 .9-.6.2-1.3.5-2.2.7-.9.2-1.6.4-2.1.5-.5.1-1.1.2-1.9.4-.8.2-1.3.3-1.4.3l-2.5-12.6zM702 192c-.1.7-.4 1.3-.7 1.9-.3.6-.8 1.1-1.4 1.6-.6.5-1.2.9-1.8 1.3-.6.4-1.3.7-2.2 1.1-.9.4-1.6.6-2.3.9-.7.2-1.5.4-2.4.7-.9.2-1.7.4-2.2.5-.5.1-1.2.2-2 .4s-1.3.3-1.5.3l-2.9-14.1c.2 0 .9-.2 2-.5s2-.5 2.7-.6 1.7-.3 2.9-.5 2.3-.3 3.2-.3c.9 0 1.8.1 2.9.2 1.1.1 1.9.4 2.7.8.7.4 1.4.9 1.9 1.6.6.7 1 1.5 1.2 2.5 0 .7 0 1.5-.1 2.2zm0 0"/></g><g id="Layer_3"><path class="st3" d="M324.5 81.6h45.6v45.6h-45.6z"/><path class="st4" d="M330.2 529.6c0 3.1-2.6 5.7-5.7 5.7s-5.7-2.6-5.7-5.7 2.6-5.7 5.7-5.7 5.7 2.6 5.7 5.7z"/><circle class="st3" cx="789.8" cy="313.8" r="4.5"/><circle class="st3" cx="782.9" cy="394.4" r="4.5"/><path class="st5" d="M812.2 346.1l7.4-7.3M794.2 364.2l7.3-7.4M812.2 356.8l7.4 7.4M794.2 338.8l7.3 7.3"/><path class="st2" d="M709.4 528.5c20.6 0 37.2-16.7 37.2-37.2v-3.1c0-20.6-16.7-37.2-37.2-54l-15-12.2c-5.3-4.8-5.3-12.7 0-17.5l15-12.2c20.6-16.8 37.2-33.4 37.2-54v-3.1c0-20.6-16.7-37.2-37.2-37.2h-69.1c-20.6 0-37.2 16.7-37.2 37.2v3.1c0 20.6 16.7 37.2 37.2 54l15 12.2c5.3 4.8 5.3 12.7 0 17.5l-15 12.2c-20.6 16.8-37.2 33.4-37.2 54v3.1c0 20.6 16.7 37.2 37.2 37.2h69.1z"/><image width="499" height="272" xlink:href="908F4C70.png" transform="matrix(.24 0 0 .24 615.12 345.8)" overflow="visible"/><path class="st6" d="M674.7 453l-59.9 32.5c.2 3.9.9 7.8 2.3 11.5 4.2 11.2 18.3 19 34.2 19h47.2c16 0 30.1-7.8 34.3-19 1.4-3.7 2.2-7.6 2.3-11.5L674.7 453z"/><path class="st7" d="M583.9 296.5h7.3v237.2h-7.3zM758.5 296.5h7.3v237.2h-7.3z"/><path class="st8" d="M783.1 298H566.6c-2.8 0-5.1-2.3-5.1-5.1v-6.8c0-2.8 2.3-5.1 5.1-5.1h216.5c2.8 0 5.1 2.3 5.1 5.1v6.8c0 2.8-2.3 5.1-5.1 5.1zM783.1 545.5H566.6c-2.8 0-5.1-2.3-5.1-5.1v-6.8c0-2.8 2.3-5.1 5.1-5.1h216.5c2.8 0 5.1 2.3 5.1 5.1v6.8c0 2.8-2.3 5.1-5.1 5.1z"/><path class="st5" d="M640.3 298c-20.6 0-37.2 16.7-37.2 37.2v3.1c0 20.6 16.7 37.2 37.2 54l15 12.2c5.3 4.8 5.3 12.7 0 17.5l-15 12.2c-20.6 16.8-37.2 33.4-37.2 54v3.1c0 20.6 16.7 37.2 37.2 37.2M709.4 298c20.6 0 37.2 16.7 37.2 37.2v3.1c0 20.6-16.7 37.2-37.2 54l-15 12.2c-5.3 4.8-5.3 12.7 0 17.5l15 12.2c20.6 16.8 37.2 33.4 37.2 54v3.1c0 20.6-16.7 37.2-37.2 37.2"/><path class="st9" d="M605.1 346.2h140.2"/><circle class="st5" cx="675.1" cy="423.4" r="5.5"/><circle class="st5" cx="675.1" cy="442.7" r="5.5"/><path d="M812.2 496.8v-14.4l-11.1-1c-1.3-7.4-4.2-14.3-8.3-20.2l7.1-8.5-10.2-10.2-8.5 7.1c-5.9-4.2-12.7-7.1-20.2-8.3l-1-11.1h-14.4l-1 11.1c-7.4 1.3-14.3 4.2-20.2 8.3l-8.5-7.1-10.2 10.2 7.1 8.5c-4.2 5.9-7.1 12.7-8.3 20.2l-11.1 1v14.4l11.1 1c1.3 7.4 4.2 14.3 8.3 20.2l-7.1 8.5 10.2 10.2 8.5-7.1c5.9 4.2 12.7 7.1 20.2 8.3l1 11.1H760l1-11.1c7.4-1.3 14.3-4.2 20.2-8.3l8.5 7.1 10.2-10.2-7.1-8.5c4.2-5.9 7.1-12.7 8.3-20.2l11.1-1z" fill="#fff" stroke="#555e5b" stroke-width="5" stroke-linejoin="round" stroke-miterlimit="10"/><ellipse transform="rotate(-22.706 752.8231777 489.6471406)" class="st11" cx="752.7" cy="489.6" rx="29.6" ry="29.6"/><path class="st2" d="M767.5 489.6c0 8.2-6.6 14.8-14.8 14.8-8.2 0-14.8-6.6-14.8-14.8 0-8.2 6.6-14.8 14.8-14.8 8.2 0 14.8 6.6 14.8 14.8z"/><ellipse transform="rotate(-22.706 752.8231777 489.6471406)" class="st12" cx="752.7" cy="489.6" rx="37.4" ry="37.4"/><ellipse transform="rotate(-22.706 752.8229287 489.6470906)" class="st5" cx="752.7" cy="489.6" rx="14.6" ry="14.6"/></g><g id="Layer_1"><path class="st8" d="M261.1 64.6h285.8v348.3H261.1z"/><path class="st2" d="M522.3 293.2V80.6H284v270.8c0 14 11.4 25.4 25.4 25.4h234.4c14 0 25.4-11.4 25.4-25.4v-32.7l-46.9-25.5"/><path class="st3" d="M359 293.2h229"/><path class="st11" d="M360.3 293.2h228.9c14 0 25.4 11.4 25.4 25.4v13.8H385.7v-13.8c0-14-11.4-25.4-25.4-25.4"/><path class="st3" d="M309.4 376.8c14 0 25.4-11.4 25.4-25.4v-32.7c0-14 11.4-25.4 25.4-25.4 14 0 25.4 11.4 25.4 25.4v13.8h171.7l6.4 2.8v16.2c0 14-11.4 25.4-25.4 25.4H309.4z"/><path class="st5" d="M313.8 162.7h24v24h-24zM355 167.4h143.1M355 180.6h99.4M313.8 207.1h24v24h-24zM355 211.9h143.1M355 225h99.4M313.8 251.6h24v24h-24zM355 256.3h143.1M355 269.5h99.4M563.8 335.2v16.2c0 14-11.4 25.4-25.4 25.4H307.2"/><path class="st5" d="M359 293.2h230.2c14 0 25.4 11.4 25.4 25.4v13.8H385.7v-13.8c0-14-11.4-25.4-25.4-25.4-14 0-25.4 11.4-25.4 25.4v32.7c0 14-11.4 25.4-25.4 25.4-14 0-25.4-11.4-25.4-25.4V80.6h238.3v212.6"/><path class="st13" d="M421.9 49.1c-1.5-8.6-8.9-15.2-18-15.2-9 0-16.5 6.6-18 15.2h-39.3v45.4h114.6V49.1h-39.3z"/><circle class="st8" cx="531.5" cy="183.4" r="73.6"/><path class="st0" d="M505.8 148.1h36.6v36.6h-36.6z"/><path class="st5" d="M498.4 202h70.9M498.4 215.9h70.9M498.4 229.7h35.5"/><path fill="none" stroke="#35a283" stroke-width="4" stroke-miterlimit="10" d="M513.2 159.8l14.3 13.2 38.3-36.4"/><path class="st9" d="M547.5 463.7L453 434.4l17 97.5 21.7-36.8 34.8 39.6 17.4-15.4-34.6-39.3z"/><path class="st1" d="M353.6 461.9h82.8v82.8h-82.8z"/><path class="st2" d="M338.7 449h54v50.1h-54z"/><g><path class="st5" d="M232.7 21.5l9.9-9.9M208.4 45.7l9.9-9.9"/><g><path class="st5" d="M232.7 35.8l9.9 9.9M208.4 11.6l9.9 9.9"/></g></g><g><path class="st7" d="M336.5 444.7h12.7v9.6h-12.7zM359.4 444.7h12.7v9.6h-12.7zM382.2 444.7h12.7v9.6h-12.7zM336.5 493.7h12.7v9.6h-12.7zM359.4 493.7h12.7v9.6h-12.7zM382.2 493.7h12.7v9.6h-12.7z"/><path transform="rotate(90 390.2379 474.0404)" class="st7" d="M383.9 469.2h12.7v9.6h-12.7z"/><path transform="rotate(90 341.23845 474.04045)" class="st7" d="M334.9 469.2h12.7v9.6h-12.7z"/></g><g><circle class="st1" cx="221.8" cy="176.6" r="9.6"/></g><g><circle class="st6" cx="266.2" cy="467" r="9.6"/></g></g><g id="Layer_2"><path class="st2" d="M234 264.5c0-14.3-11.6-25.9-25.9-25.9H-77.7c-24.4 0-25.6-25.9-25.6-25.9v255c0 14.3 11.6 25.9 25.9 25.9h296.6L234 264.5z"/><path class="st3" d="M234 264.5c0 14.3-11.6 25.9-25.9 25.9-4.1 0-8-1-11.4-2.6v255c3.4 1.7 7.3 2.6 11.4 2.6 14.3 0 25.9-11.6 25.9-25.9V263.4"/><path class="st11" d="M-66.2 238.6h-11.3c-14.3 0-25.9-11.6-25.9-25.9 0-14.3 11.6-25.9 25.9-25.9 4.1 0 8 1 11.4 2.6v45.7l-.1 3.5z"/><path class="st5" d="M234 263.4v256.1c0 14.3-11.6 25.9-25.9 25.9-4.1 0-8-1-11.4-2.6v-255c3.4 1.7 7.3 2.6 11.4 2.6 14.3 0 25.9-11.6 25.9-25.9 0-14.3-11.6-25.9-25.9-25.9H-77.5c-14.3 0-25.9-11.6-25.9-25.9 0-14.3 11.6-25.9 25.9-25.9 4.1 0 8 1 11.4 2.6v49.9"/><path class="st5" d="M195.7 493.6H-77.5c-14.3 0-25.9-11.6-25.9-25.9v-255"/><circle class="st4" cx="3.2" cy="371.8" r="15.4"/><circle class="st4" cx="3.2" cy="285.2" r="15.4"/><circle class="st4" cx="63.4" cy="371.8" r="15.4"/><circle class="st4" cx="123.7" cy="371.8" r="15.4"/><circle class="st4" cx="123.7" cy="451.6" r="15.4"/><path class="st12" d="M123.7 350v-27.3c0-16.8-13.6-30.5-30.5-30.5s-30.5 13.6-30.5 30.5v12.6M64.1 393.4v23.1c0 16.8-13.6 30.5-30.5 30.5S3.2 433.3 3.2 416.5v-6.4"/><path class="st5" d="M112.8 406.4l10.9-10.9 10.9 10.9M-7.7 413.6l10.9-10.9 10.9 10.9M-7.7 319.1l10.9-10.9 10.9 10.9M73.9 330.6L63 341.5l-10.9-10.9"/><path class="st12" d="M3.2 317.9v34M123.7 404.6v26.5"/><path class="st3" d="M34.7 174.9l149.2 150.4V174.9H34.7zm123.6 89.4l-65.1-65.1h65.1v65.1z"/><path class="st5" d="M76.6 176.6v14.3M61.6 176.6v7.1M91.5 176.6v7.1M106.5 176.6v14.3M121.5 176.6v7.1M136.5 176.6v14.3M151.4 176.6v7.1M166.4 176.6v7.1M181.6 210.8h-14.3M181.6 195.9h-7.2M181.6 225.8h-7.2M181.6 240.8h-14.3M181.6 255.7h-7.2M181.6 270.7h-14.3M181.6 285.7h-7.2M181.6 300.6h-7.2M34.7 174.9l149.2 150.4V174.9H34.7zm123.6 89.4l-65.1-65.1h65.1v65.1z"/><path class="st6" d="M162.6 516.6H148v22.6h14.6c3.4 0 6.1-2.7 6.1-6.1v-10.4c0-3.4-2.8-6.1-6.1-6.1z"/><path class="st2" d="M-35.8 527.9l30.3 11.2v-22.5z"/><path class="st4" d="M-5.5 516.6H148v22.6H-5.5z"/><path class="st5" d="M-5.5 539.1h168.1c3.4 0 6.1-2.7 6.1-6.1v-10.4c0-3.4-2.7-6.1-6.1-6.1H-5.5l-30.3 11.3 30.3 11.3zM-5.5 539.1v-22.5M148 517.5v20.7M-5.5 527.9H148"/><g><path class="st5" d="M-95.1 512.6l5.5-5.5M-108.6 526.1l5.5-5.5"/><g><path class="st5" d="M-95.1 520.6l5.5 5.5M-108.6 507.1l5.5 5.5"/></g></g><g><path class="st5" d="M-2.1 199.2l5.5-5.5M-15.6 212.7l5.5-5.5"/><g><path class="st5" d="M-2.1 207.2l5.5 5.5M-15.6 193.7l5.5 5.5"/></g></g><path class="st0" d="M-128.3 287.6h101.6v133.7h-101.6z"/><g><path class="st5" d="M-118 334.6h19v19h-19zM-87 334.6h19v19h-19zM-56 334.6h19v19h-19z"/><path class="st13" d="M-118 297.7h81v26h-81z"/><path class="st5" d="M-118 363.4h19v19h-19zM-87 363.4h19v19h-19zM-56 363.4h19v19h-19z"/><g><path class="st5" d="M-118 392.1h19v19h-19zM-87 392.1h19v19h-19zM-56 392.1h19v19h-19z"/></g><path fill="#f89e1c" stroke="#555e5b" stroke-width="4" stroke-miterlimit="10" stroke-dasharray="4" d="M-110.1 310.7h66.2"/></g></g></svg>