<svg xmlns="http://www.w3.org/2000/svg" xmlns:xlink="http://www.w3.org/1999/xlink" viewBox="0 0 1140 350"><style>.st0{fill:#fff;stroke:#555e5b;stroke-width:4;stroke-miterlimit:10}.st1{fill:#35a283}.st2{fill:#fff}.st3{fill:#59bde9}.st4{fill:#fff581}.st6{fill:none;stroke:#555e5b;stroke-width:4;stroke-miterlimit:10}.st7{fill:#f99f1c}.st8{fill:#555e5b}.st10,.st9{fill:#e4e4e4;stroke:#555e5b;stroke-width:4;stroke-miterlimit:10}.st10{fill:#fff;stroke-linejoin:round}.st12{fill:#e4e4e4}.st13,.st14{stroke:#555e5b;stroke-width:4;stroke-miterlimit:10}.st13{stroke-dasharray:4;fill:none}.st14{fill:#f99f1c}</style><g id="Layer_5"><path class="st0" d="M766.3 77.1c-23.2 0-42 18.8-42 42 0 7.7 2.1 14.9 5.7 21.1l-5.7 21.8 18.9-7.8c6.6 4.3 14.5 6.9 23 6.9 23.2 0 42-18.8 42-42s-18.8-42-41.9-42z"/><circle class="st1" cx="766.3" cy="119.6" r="35.4"/><path class="st2" d="M781.9 118.1c-1.3-1.1-3-1.6-5.1-1.7 2.3-1.8 2.9-4.3 2-7.4-.3-1.1-.9-2-1.6-2.8-.7-.7-1.5-1.2-2.5-1.6-1-.3-2.1-.5-3.2-.5s-2.3 0-3.7.2l-1.4-6.5-4 .8 1.3 6.3c-.7.1-1.7.4-3.1.7l-1.3-6.4-4 .8 1.4 6.5c-.6.1-1.4.3-2.5.6l-5.5 1.1.9 4.2 2.9-.6c1.3-.3 2.2.2 2.7 1.3l1.5 7.4c.2 0 .3-.1.4-.1l-.4.1L759 131c0 .9-.4 1.4-1.2 1.6l-2.9.6.2 4.9 5.2-1.1c.3-.1.8-.2 1.4-.3.6-.1 1.1-.2 1.4-.3l1.4 6.6 4-.8-1.4-6.5c.7-.1 1.8-.3 3.1-.6l1.4 6.5 4-.8-1.4-6.6c1.4-.4 2.6-.8 3.7-1.2 1.1-.4 2-.9 2.9-1.5.9-.6 1.6-1.3 2.2-2 .5-.7.9-1.6 1.2-2.6.2-1 .3-2.2.2-3.4-.4-2.6-1.2-4.4-2.5-5.4zm-20.1-7.8c.1 0 .5-.1 1-.2.6-.1 1-.2 1.4-.3.4-.1.9-.2 1.5-.2.6-.1 1.2-.1 1.6-.1.4 0 .9 0 1.5.1s1 .2 1.4.5c.4.2.7.5 1 .9.3.4.5.9.6 1.4.1.5.1.9 0 1.4-.1.4-.2.8-.5 1.1-.3.3-.5.6-.8.9-.3.3-.7.5-1.1.7-.5.2-.9.4-1.3.6-.4.1-.8.3-1.4.4-.6.1-1 .3-1.3.3-.3.1-.7.2-1.2.3-.5.1-.8.2-.9.2l-1.5-8zm14.5 15.3c-.1.4-.2.8-.4 1.2-.2.3-.5.7-.9 1-.4.3-.7.6-1.1.8l-1.4.7c-.5.2-1 .4-1.4.5-.4.1-.9.3-1.5.4-.6.1-1 .3-1.4.3-.3.1-.7.2-1.2.2-.5.1-.8.2-1 .2l-1.8-8.7c.1 0 .5-.1 1.2-.3.7-.2 1.2-.3 1.7-.4.4-.1 1-.2 1.8-.3.8-.1 1.4-.2 2-.2.5 0 1.1 0 1.8.1s1.2.2 1.6.5c.4.2.8.6 1.2 1 .4.4.6 1 .7 1.6.2.5.2.9.1 1.4zm0 0"/></g><g id="Layer_3"><path class="st3" d="M862.8 282.9h38.6v38.6h-38.6z"/><path class="st4" d="M542.3 57.1h28.3v28.3h-28.3z"/><circle class="st2" cx="861.8" cy="282.9" r="9.3"/><ellipse transform="rotate(-22.5 861.7495465 282.8962618)" cx="861.8" cy="282.9" rx="9.3" ry="9.3" fill="none" stroke="#555e5b" stroke-width="4" stroke-miterlimit="10" stroke-dasharray="4.8642,4.8642"/><path class="st3" d="M545.8 334.8c0 2-1.6 3.5-3.5 3.5-2 0-3.5-1.6-3.5-3.5s1.6-3.5 3.5-3.5 3.5 1.6 3.5 3.5z"/><circle class="st4" cx="830.7" cy="201.1" r="2.8"/><circle class="st4" cx="826.4" cy="251" r="2.8"/><path class="st6" d="M844.6 221.1l4.5-4.6M833.4 232.3l4.6-4.6M844.6 227.7l4.5 4.6M833.4 216.5l4.6 4.6"/><path class="st2" d="M780.9 334.2c12.7 0 23.1-10.3 23.1-23.1v-1.9c0-12.7-10.3-23.1-23.1-33.5l-9.3-7.6c-3.3-3-3.3-7.9 0-10.9l9.3-7.6c12.7-10.4 23.1-20.7 23.1-33.5v-1.9c0-12.7-10.3-23.1-23.1-23.1H738c-12.7 0-23.1 10.3-23.1 23.1v1.9c0 12.7 10.3 23.1 23.1 33.5l9.3 7.6c3.3 3 3.3 7.9 0 10.9l-9.3 7.6c-12.7 10.4-23.1 20.7-23.1 33.5v1.9c0 12.7 10.3 23.1 23.1 23.1h42.9z"/><image width="310" height="169" xlink:href="9356582D.png" transform="matrix(.24 0 0 .24 722.4 220.84)" overflow="visible"/><path class="st7" d="M759.4 287.4l-37.1 20.2c.1 2.4.6 4.8 1.4 7.2 2.6 6.9 11.4 11.8 21.2 11.8h29.3c9.9 0 18.6-4.8 21.3-11.8.9-2.3 1.3-4.7 1.4-7.1l-37.5-20.3z"/><path class="st8" d="M703.1 190.4h4.5v147h-4.5zM811.3 190.4h4.5v147h-4.5z"/><path class="st9" d="M824.6 191.3H694.3c-2.8 0-5.1-2.3-5.1-5.1v-.4c0-2.8 2.3-5.1 5.1-5.1h130.3c2.8 0 5.1 2.3 5.1 5.1v.4c0 2.8-2.3 5.1-5.1 5.1zM824.6 344.7H694.3c-2.8 0-5.1-2.3-5.1-5.1v-.4c0-2.8 2.3-5.1 5.1-5.1h130.3c2.8 0 5.1 2.3 5.1 5.1v.4c0 2.8-2.3 5.1-5.1 5.1z"/><path class="st6" d="M738 191.3c-12.7 0-23.1 10.3-23.1 23.1v1.9c0 12.7 10.3 23.1 23.1 33.5l9.3 7.6c3.3 3 3.3 7.9 0 10.9l-9.3 7.6c-12.7 10.4-23.1 20.7-23.1 33.5v1.9c0 12.7 10.3 23.1 23.1 23.1M780.9 191.3c12.7 0 23.1 10.3 23.1 23.1v1.9c0 12.7-10.3 23.1-23.1 33.5l-9.3 7.6c-3.3 3-3.3 7.9 0 10.9l9.3 7.6c12.7 10.4 23.1 20.7 23.1 33.5v1.9c0 12.7-10.3 23.1-23.1 23.1"/><path class="st10" d="M716.3 221.2h86.8"/><circle class="st6" cx="759.6" cy="269" r="3.4"/><circle class="st6" cx="759.6" cy="281" r="3.4"/><path d="M844.6 314.5v-8.9l-6.9-.6c-.8-4.6-2.6-8.8-5.2-12.5l4.4-5.3-6.3-6.3-5.3 4.4c-3.7-2.6-7.9-4.4-12.5-5.2l-.6-6.9h-8.9l-.6 6.9c-4.6.8-8.8 2.6-12.5 5.2l-5.3-4.4-6.3 6.3 4.4 5.3c-2.6 3.7-4.4 7.9-5.2 12.5l-6.9.6v8.9l6.9.6c.8 4.6 2.6 8.8 5.2 12.5l-4.4 5.3 6.3 6.3 5.3-4.4c3.7 2.6 7.9 4.4 12.5 5.2l.6 6.9h8.9l.6-6.9c4.6-.8 8.8-2.6 12.5-5.2l5.3 4.4 6.3-6.3-4.4-5.3c2.6-3.7 4.4-7.9 5.2-12.5l6.9-.6z" fill="#fff" stroke="#555e5b" stroke-width="5" stroke-linejoin="round" stroke-miterlimit="10"/><ellipse transform="rotate(-22.706 807.8241758 310.0447503)" class="st12" cx="807.7" cy="310" rx="18.3" ry="18.3"/><path class="st2" d="M816.9 310c0 5.1-4.1 9.2-9.2 9.2s-9.2-4.1-9.2-9.2 4.1-9.2 9.2-9.2c5.1.1 9.2 4.2 9.2 9.2z"/><ellipse transform="rotate(-22.706 807.8241758 310.0447503)" class="st13" cx="807.7" cy="310" rx="23.2" ry="23.2"/><ellipse transform="rotate(-22.706 807.8239267 310.0447003)" class="st6" cx="807.7" cy="310" rx="9.1" ry="9.1"/></g><g id="Layer_1"><path class="st9" d="M503 46.6h177.1v215.9H503z"/><path class="st2" d="M664.9 188.3V56.5H517.2v167.8c0 8.7 7.1 15.8 15.8 15.8h145.2c8.7 0 15.8-7.1 15.8-15.8V204l-29.1-15.7"/><path class="st4" d="M563.7 188.3h141.9"/><path class="st12" d="M564.5 188.3h141.9c8.7 0 15.8 7.1 15.8 15.8v8.6H580.3v-8.6c0-8.7-7.1-15.8-15.8-15.8"/><path class="st4" d="M533 240.1c8.7 0 15.8-7.1 15.8-15.8V204c0-8.7 7.1-15.8 15.8-15.8 8.7 0 15.8 7.1 15.8 15.8v8.6h106.4l4 1.7v10c0 8.7-7.1 15.8-15.8 15.8H533z"/><path class="st6" d="M535.7 107.4h14.8v14.8h-14.8zM561.2 110.4h88.7M561.2 118.5h61.6M535.7 135h14.8v14.8h-14.8zM561.2 137.9h88.7M561.2 146.1h61.6M535.7 162.5h14.8v14.8h-14.8zM561.2 165.4h88.7M561.2 173.6h61.6M690.6 214.3v10c0 8.7-7.1 15.8-15.8 15.8H531.6"/><path class="st6" d="M563.7 188.3H706.4c8.7 0 15.8 7.1 15.8 15.8v8.6H580.3v-8.6c0-8.7-7.1-15.8-15.8-15.8-8.7 0-15.8 7.1-15.8 15.8v20.3c0 8.7-7.1 15.8-15.8 15.8-8.7 0-15.8-7.1-15.8-15.8V56.5h147.7v131.8"/><path class="st14" d="M602.7 37c-.9-5.4-5.5-9.4-11.2-9.4s-10.2 4.1-11.2 9.4h-24.4v28.1h71V37h-24.2z"/><circle class="st9" cx="670.6" cy="120.3" r="45.6"/><path class="st0" d="M654.7 98.4h22.7v22.7h-22.7z"/><path class="st6" d="M650.1 131.8h44M650.1 140.4h44M650.1 149h22"/><path fill="none" stroke="#35a283" stroke-width="4" stroke-miterlimit="10" d="M659.3 105.7l8.8 8.1 23.8-22.5"/><path class="st10" d="M680.5 294L622 275.8l10.5 60.4 13.4-22.8 21.6 24.6 10.8-9.5-21.4-24.4z"/><path class="st1" d="M560.4 292.9h51.3v51.3h-51.3z"/><path class="st2" d="M551.1 284.8h33.5v31.1h-33.5z"/><g><path class="st6" d="M485.4 19.9l6.1-6.1M470.4 34.9l6.1-6.1"/><g><path class="st6" d="M485.4 28.8l6.1 6.1M470.4 13.8l6.1 6.1"/></g></g><g><path class="st8" d="M549.8 282.2h7.9v6h-7.9zM563.9 282.2h7.9v6h-7.9zM578.1 282.2h7.9v6h-7.9zM549.8 312.6h7.9v6h-7.9zM563.9 312.6h7.9v6h-7.9zM578.1 312.6h7.9v6h-7.9z"/><path transform="rotate(90 583.06485 300.38055)" class="st8" d="M579.1 297.4h7.9v6h-7.9z"/><path transform="rotate(90 552.69655 300.38055)" class="st8" d="M548.8 297.4h7.9v6h-7.9z"/></g><g><path class="st7" d="M220.6 316.1c0 3.3-2.7 5.9-5.9 5.9-3.3 0-5.9-2.7-5.9-5.9 0-3.3 2.7-5.9 5.9-5.9s5.9 2.6 5.9 5.9z"/></g><g><circle class="st1" cx="478.7" cy="116" r="5.9"/></g><g><circle class="st7" cx="506.2" cy="296" r="5.9"/></g></g><g id="Layer_2"><path class="st2" d="M486.3 170.5c0-8.9-7.2-16-16-16H293c-15.1 0-15.9-16-15.9-16v158c0 8.9 7.2 16 16 16H477l9.3-142z"/><path class="st4" d="M486.3 170.5c0 8.9-7.2 16-16 16-2.5 0-4.9-.6-7.1-1.6v158c2.1 1 4.5 1.6 7.1 1.6 8.9 0 16-7.2 16-16V169.8"/><path class="st12" d="M300.2 154.5h-7c-8.9 0-16-7.2-16-16 0-8.9 7.2-16 16-16 2.5 0 4.9.6 7.1 1.6v28.3l-.1 2.1z"/><path class="st6" d="M486.3 169.8v158.7c0 8.9-7.2 16-16 16-2.5 0-4.9-.6-7.1-1.6v-158c2.1 1 4.5 1.6 7.1 1.6 8.9 0 16-7.2 16-16 0-8.9-7.2-16-16-16H293.2c-8.9 0-16-7.2-16-16 0-8.9 7.2-16 16-16 2.5 0 4.9.6 7.1 1.6V155"/><path class="st6" d="M462.5 312.5H293.2c-8.9 0-16-7.2-16-16v-158"/><circle class="st3" cx="343.2" cy="237" r="9.6"/><circle class="st3" cx="343.2" cy="183.3" r="9.6"/><circle class="st3" cx="380.5" cy="237" r="9.6"/><circle class="st3" cx="417.9" cy="237" r="9.6"/><circle class="st3" cx="417.9" cy="286.5" r="9.6"/><path class="st13" d="M417.9 223.5v-16.9c0-10.4-8.5-18.9-18.9-18.9-10.4 0-18.9 8.5-18.9 18.9v7.8M380.9 250.4v14.3c0 10.4-8.5 18.9-18.9 18.9-10.4 0-18.9-8.5-18.9-18.9v-4"/><path class="st6" d="M411.1 258.4l6.8-6.7 6.7 6.7M336.4 262.9l6.8-6.8 6.7 6.8M336.4 204.4l6.8-6.8 6.7 6.8M387 211.5l-6.8 6.8-6.7-6.8"/><path class="st13" d="M343.2 203.6v21.1M417.9 257.4v16.4"/><path class="st4" d="M362.7 115l92.5 93.2V115h-92.5zm76.6 55.4L399 130.1h40.3v40.3z"/><path class="st6" d="M388.7 116v8.9M379.4 116v4.4M397.9 116v4.4M407.2 116v8.9M416.5 116v4.4M425.8 116v8.9M435.1 116v4.4M444.3 116v4.4M453.7 137.2h-8.8M453.7 128h-4.4M453.7 146.5h-4.4M453.7 155.8h-8.8M453.7 165.1h-4.4M453.7 174.4h-8.8M453.7 183.6h-4.4M453.7 192.9h-4.4M362.7 115l92.5 93.2V115h-92.5zm76.6 55.4L399 130.1h40.3v40.3z"/><path class="st7" d="M442 326.7h-9v14h9c2.1 0 3.8-1.7 3.8-3.8v-6.4c-.1-2.1-1.7-3.8-3.8-3.8z"/><path class="st2" d="M319 333.7l18.8 7v-14z"/><path class="st3" d="M337.8 326.7h95.1v14h-95.1z"/><path class="st6" d="M337.8 340.7H442c2.1 0 3.8-1.7 3.8-3.8v-6.4c0-2.1-1.7-3.8-3.8-3.8H337.8l-18.8 7 18.8 7zM337.8 340.7v-14M432.9 327.3v12.8M337.8 333.7h95.1"/><g><path class="st6" d="M282.3 324.3l3.4-3.4M273.9 332.6l3.4-3.4"/><g><path class="st6" d="M282.3 329.2l3.4 3.4M273.9 320.9l3.4 3.4"/></g></g><g><path class="st6" d="M339.9 130.1l3.4-3.5M331.6 138.4l3.4-3.4"/><g><path class="st6" d="M339.9 135l3.4 3.4M331.6 126.6l3.4 3.5"/></g></g><path class="st0" d="M261.7 184.8h63v82.8h-63z"/><g><path class="st6" d="M268.1 214h11.8v11.8h-11.8zM287.3 214h11.8v11.8h-11.8zM306.5 214h11.8v11.8h-11.8z"/><path class="st14" d="M268.1 191.1h50.2v16.1h-50.2z"/><path class="st6" d="M268.1 231.8h11.8v11.8h-11.8zM287.3 231.8h11.8v11.8h-11.8zM306.5 231.8h11.8v11.8h-11.8z"/><g><path class="st6" d="M268.1 249.6h11.8v11.8h-11.8zM287.3 249.6h11.8v11.8h-11.8zM306.5 249.6h11.8v11.8h-11.8z"/></g><path fill="#f89e1c" stroke="#555e5b" stroke-width="4" stroke-miterlimit="10" stroke-dasharray="4" d="M273 199.2h41"/></g><g><path transform="rotate(-45 241.1319558 272.6773439)" class="st6" d="M236.5 268h9.3v9.3h-9.3z"/><path transform="rotate(-45 241.1315767 303.543401)" class="st6" d="M236.5 298.9h9.3v9.3h-9.3z"/><path transform="rotate(-45 241.1312067 334.8341542)" class="st6" d="M236.5 330.2h9.3v9.3h-9.3z"/></g></g></svg>