<svg xmlns="http://www.w3.org/2000/svg" viewBox="0 0 100 100">
  <path fill="#ffffff" d="M60.9 64.9c.6.6.6 1.1 0 1.7C58.7 68.8 55 70 50 70s-8.7-1.1-10.9-3.4c-.6-.6-.6-1.1 0-1.7.2-.3.5-.4.8-.4s.6.1.8.4c1.8 1.8 4.9 2.7 9.3 2.7s7.5-.9 9.3-2.7c.2-.3.5-.4.8-.4s.6.2.8.4zm-16.8-10c0 1.3-.5 2.5-1.5 3.5s-2.1 1.5-3.5 1.5c-1.3 0-2.5-.5-3.5-1.5s-1.5-2.1-1.5-3.5.5-2.5 1.4-3.5c1-1 2.1-1.4 3.5-1.4s2.5.5 3.5 1.4c1.1 1 1.6 2.2 1.6 3.5zm21.6 0c0 1.3-.5 2.5-1.5 3.5s-2.1 1.5-3.5 1.5c-1.3 0-2.5-.5-3.5-1.5s-1.5-2.1-1.5-3.5.5-2.5 1.4-3.5c1-1 2.1-1.4 3.5-1.4s2.5.5 3.5 1.4c1.2 1 1.6 2.2 1.6 3.5zm13.8-6.6c0-1.8-.6-3.3-1.9-4.6s-2.8-1.9-4.7-1.9c-1.8 0-3.3.7-4.7 2-4.8-3.3-10.5-5.1-17.1-5.2L54.6 23l10.9 2.5c0 1.4.5 2.5 1.5 3.5s2.1 1.4 3.4 1.4c1.4 0 2.5-.5 3.5-1.4 1-1 1.4-2.1 1.4-3.5s-.5-2.5-1.4-3.5c-1-1-2.1-1.4-3.5-1.4-2 0-3.5.9-4.4 2.8l-12-2.8c-.7-.2-1.2.1-1.3.8l-3.8 17.2c-6.6.3-12.2 2-17 5.3-1.3-1.4-2.9-2-4.7-2-1.8 0-3.4.6-4.7 1.9-1.3 1.3-1.9 2.8-1.9 4.6 0 1.3.3 2.5 1 3.5.7 1.1 1.6 1.9 2.7 2.4-.2 1.1-.3 2.1-.3 3.1 0 5.2 2.6 9.7 7.7 13.3 5.1 3.7 11.3 5.5 18.5 5.5 7.3 0 13.4-1.8 18.6-5.5 5.1-3.7 7.7-8.1 7.7-13.3 0-1.1-.1-2.1-.4-3.1 1.1-.6 1.9-1.4 2.6-2.4.5-1.1.8-2.3.8-3.6zm19.7-29v61.4c0 5.1-1.8 9.4-5.4 13-3.6 3.6-7.9 5.4-13 5.4H19.3c-5.1 0-9.4-1.8-13-5.4-3.6-3.6-5.4-7.9-5.4-13V19.3c0-5.1 1.8-9.4 5.4-13S14.2.9 19.3.9h61.4c5.1 0 9.4 1.8 13 5.4 3.6 3.6 5.5 7.9 5.5 13z"/>
</svg>