<svg xmlns="http://www.w3.org/2000/svg" viewBox="0 0 100 100">
  <path fill="#ffffff" d="M59.7 76V66c0-2.1-.6-3.2-1.9-3.2-.7 0-1.4.3-2.1 1v14.3c.7.7 1.4 1 2.1 1 1.2.1 1.9-1 1.9-3.1zm11.7-7.8h4.2V66c0-2.2-.7-3.3-2.1-3.3-1.4 0-2.1 1.1-2.1 3.3v2.2zm-36.5-17v4.5h-5.1v27.1H25V55.7h-5v-4.5h14.9zm12.9 8.1v23.5h-4.3v-2.6c-1.7 1.9-3.3 2.9-4.9 2.9-1.4 0-2.3-.6-2.7-1.8-.3-.7-.4-1.9-.4-3.5V59.3h4.2v17.3c0 1 0 1.6.1 1.7 0 .6.4 1 1 1 .9 0 1.7-.7 2.7-2v-18h4.3zm16.1 7.1v9.3c0 2.2-.1 3.8-.4 4.7-.5 1.8-1.6 2.7-3.4 2.7-1.5 0-2.9-.9-4.4-2.6v2.3h-4.3V51.2h4.3v10.3c1.4-1.7 2.8-2.6 4.4-2.6 1.7 0 2.9.9 3.4 2.7.2.9.4 2.5.4 4.8zM80 74.6v.6c0 1.2 0 2.2-.1 2.8-.1.9-.4 1.8-1 2.6-1.2 1.7-2.9 2.6-5.1 2.6-2.2 0-3.9-.8-5.2-2.4-.9-1.2-1.3-3-1.3-5.5V67c0-2.5.4-4.4 1.3-5.5 1.2-1.6 2.9-2.4 5.1-2.4 2.2 0 3.8.8 5 2.4.9 1.2 1.3 3.1 1.3 5.5v4.9h-8.5v4.2c0 2.2.7 3.3 2.2 3.3 1 0 1.7-.6 1.9-1.7v-.4-2.5H80zM51.1 21.9v10c0 2.2-.7 3.3-2 3.3-1.4 0-2-1.1-2-3.3v-10c0-2.2.7-3.3 2-3.3s2 1.1 2 3.3zm34.1 45.6c0-7.6-.4-13.1-1.2-16.6-.4-1.9-1.3-3.4-2.8-4.7-1.4-1.3-3-2-4.9-2.2-5.8-.6-14.6-1-26.4-1-11.7 0-20.5.3-26.3 1-1.9.2-3.5.9-4.9 2.2-1.4 1.3-2.3 2.8-2.7 4.7-.9 3.7-1.3 9.3-1.3 16.6 0 7.5.4 13.1 1.3 16.6.4 1.8 1.3 3.4 2.7 4.7 1.4 1.3 3 2 4.8 2.2 5.8.6 14.6 1 26.4 1s20.5-.3 26.4-1c1.8-.2 3.4-1 4.8-2.2 1.4-1.3 2.3-2.8 2.7-4.7 1-3.5 1.4-9.1 1.4-16.6zM36.9 25.9L42.7 7h-4.8l-3.3 12.5-3.4-12.6h-5c.3 1 .8 2.5 1.5 4.4l1.5 4.4c1.5 4.4 2.5 7.8 2.9 10.1v12.9h4.7V25.9zm18.5 5.2v-8.3c0-2.5-.4-4.3-1.3-5.6-1.2-1.6-2.9-2.4-5-2.4-2.2 0-3.8.8-5 2.4-.9 1.2-1.3 3.1-1.3 5.6v8.3c0 2.5.4 4.3 1.3 5.6 1.2 1.6 2.8 2.4 5 2.4 2.1 0 3.8-.8 5-2.4.8-1.2 1.3-3.1 1.3-5.6zM67 38.7h4.3V15.1H67v18.1c-.9 1.3-1.8 2-2.7 2-.6 0-1-.3-1-1 0-.1-.1-.6-.1-1.7V15.1h-4.3v18.8c0 1.6.1 2.8.4 3.5.5 1.2 1.4 1.7 2.8 1.7 1.5 0 3.2-1 4.9-2.9v2.5zm32.2-19.4v61.4c0 5.1-1.8 9.4-5.4 13-3.6 3.6-7.9 5.4-13 5.4H19.3c-5.1 0-9.4-1.8-13-5.4-3.6-3.6-5.4-7.9-5.4-13V19.3c0-5.1 1.8-9.4 5.4-13S14.2.9 19.3.9h61.4c5.1 0 9.4 1.8 13 5.4 3.6 3.6 5.5 7.9 5.5 13z"/>
</svg>