<svg xmlns="http://www.w3.org/2000/svg" viewBox="0 0 100 100">
  <path fill="#ffffff" d="M82.8 31.7c-2.4 1.1-5 1.8-7.7 2.2 2.9-1.7 4.9-4.2 6-7.5-2.8 1.6-5.6 2.7-8.6 3.3-2.6-2.8-5.9-4.2-9.8-4.2-3.7 0-6.9 1.3-9.5 3.9s-3.9 5.8-3.9 9.5c0 1.2.1 2.3.3 3.1-5.6-.4-10.8-1.7-15.6-4.2-4.8-2.5-8.9-5.8-12.3-9.9-1.2 2.1-1.9 4.4-1.9 6.8 0 4.9 1.9 8.6 5.8 11.2-2 0-4.1-.6-6.4-1.7v.1c0 3.2 1.1 6 3.2 8.5s4.8 4 7.9 4.6c-1.2.4-2.3.6-3.2.6-.6 0-1.4-.1-2.5-.3.9 2.7 2.5 4.9 4.8 6.7s4.9 2.6 7.8 2.7c-4.9 3.8-10.5 5.8-16.7 5.8-1.1 0-2.2-.1-3.2-.2 6.3 4 13.2 6 20.6 6 4.8 0 9.3-.8 13.4-2.3S59 72.9 62 70.3c3-2.5 5.6-5.5 7.7-8.8 2.2-3.3 3.8-6.8 4.8-10.4 1-3.6 1.6-7.2 1.6-10.8 0-.8 0-1.3-.1-1.7 2.7-1.8 5-4.2 6.8-6.9zm16.4-12.4v61.4c0 5.1-1.8 9.4-5.4 13-3.6 3.6-7.9 5.4-13 5.4H19.3c-5.1 0-9.4-1.8-13-5.4-3.6-3.6-5.4-7.9-5.4-13V19.3c0-5.1 1.8-9.4 5.4-13S14.2.9 19.3.9h61.4c5.1 0 9.4 1.8 13 5.4 3.6 3.6 5.5 7.9 5.5 13z"/>
</svg>